ply
format ascii 1.0
element vertex 544
property float x
property float y
property float z
property uchar red
property uchar green
property uchar blue
element face 1084
property list uchar int vertex_index
end_header
25.2641 -51.562 -4.90408 0 0 203
24.8623 -51.5239 -4.8719 0 0 216
25.285 -51.5591 -5.46698 0 0 181
24.8483 -51.5504 -5.44105 0 0 200
25.1704 -51.5513 -5.8654 0 0 163
24.9277 -51.549 -5.85185 0 0 154
25.6203 -50.2019 -1.54484 0 88 255
25.0049 -50.1162 -1.54407 0 80 255
26.7112 -50.3604 -2.90352 0 0 247
25.8736 -50.5528 -2.56338 71 255 184
24.8749 -50.4869 -2.55641 0 243 255
26.7418 -50.4738 -3.95772 56 255 199
25.6759 -51.0136 -4.18543 61 255 194
24.5967 -50.8893 -4.07815 0 199 255
23.9992 -50.4359 -4.19698 0 30 255
26.7743 -50.3472 -4.83879 0 147 255
25.88 -50.8624 -5.26103 0 183 255
24.4649 -50.8797 -5.17106 0 54 255
23.9991 -50.4606 -4.75123 0 0 192
25.332 -51.0074 -5.85221 0 0 244
24.8544 -51.0153 -5.8201 0 2 255
26.9631 -48.4264 0.573504 0 151 255
26.0181 -48.6619 0.587903 92 255 163
25.0719 -48.5919 0.526351 0 149 255
28.1238 -48.4252 -1.00875 0 189 255
27.329 -48.8982 -0.579175 199 255 56
26.0249 -49.5232 -0.742859 203 255 52
24.6868 -49.2724 -0.734214 255 160 0
23.9409 -48.7577 -1.03637 0 16 255
28.2187 -48.6868 -2.21135 20 255 235
27.3361 -49.6334 -2.23308 255 167 0
26.4495 -50.037 -1.79241 0 58 255
24.2514 -49.8803 -2.16183 0 191 255
23.7673 -49.1347 -2.17435 8 255 247
28.2743 -48.8077 -3.63163 136 255 119
27.5613 -49.6592 -3.76233 0 239 255
24.0908 -50.2456 -3.2897 0 75 255
23.7814 -49.6562 -3.58658 51 255 204
28.2479 -48.8262 -4.8306 0 66 255
27.5038 -49.348 -5.0182 30 255 225
26.236 -49.7619 -5.47562 77 255 178
24.3883 -49.9342 -5.27095 0 110 255
23.9117 -49.7948 -4.60742 0 5 255
28.3914 -48.8191 -5.42486 0 0 153
28.1291 -48.9631 -5.49128 0 0 171
25.4549 -50.1156 -5.88828 0 0 246
24.8578 -50.1608 -5.82598 0 21 255
26.9557 -46.6848 2.64871 0 130 255
26.0012 -46.854 2.75223 163 255 92
25.0735 -46.8372 2.64763 0 190 255
28.2076 -46.912 0.979765 0 202 255
27.3691 -47.4085 1.4618 255 221 0
26.0185 -47.7042 1.65231 62 255 193
24.7005 -47.5478 1.46842 255 239 0
23.9549 -47.0461 1.04816 0 129 255
28.4264 -47.4368 -0.32236 223 255 32
27.8193 -48.0002 0.245702 0 183 255
24.274 -48.2364 0.202897 0 122 255
23.7887 -47.6683 -0.315135 255 236 0
28.6176 -47.5879 -1.92542 203 255 52
23.6623 -48.028 -1.92935 225 255 30
28.5498 -47.8225 -3.43343 0 189 255
27.2244 -47.3541 -4.53153 0 18 255
26.4323 -47.5141 -4.63508 0 165 255
24.2761 -48.06 -4.07432 0 35 255
23.8045 -48.4173 -3.45581 0 224 255
28.3471 -48.159 -4.70751 0 118 255
27.5957 -48.2074 -5.01658 82 255 173
25.9998 -48.5147 -5.199 152 255 103
24.6792 -48.7527 -4.97174 4 255 251
23.9954 -48.9768 -4.44803 0 130 255
28.4229 -48.5476 -5.39364 0 0 142
28.158 -48.5932 -5.48541 0 0 163
25.4409 -49.3392 -5.76114 0 4 255
24.9364 -49.4071 -5.688 0 0 240
26.8422 -44.6977 4.61787 0 145 255
25.8488 -44.867 4.79988 128 255 127
24.7362 -44.8037 4.74359 172 255 83
24.0059 -44.4211 4.61452 0 89 255
28.1516 -45.0748 2.93017 1 255 254
27.3195 -45.5455 3.46281 255 188 0
25.9696 -45.8592 3.70541 151 255 104
24.7144 -45.8575 3.45601 23 255 232
23.9009 -44.9713 3.48967 255 192 0
28.4202 -45.723 1.65033 150 255 105
27.8172 -46.2853 2.26206 34 255 221
24.2872 -46.4572 2.32292 0 214 255
23.805 -45.7675 1.83988 255 116 0
28.6933 -46.0196 -0.006024 255 228 0
24.2772 -45.3964 -0.591205 23 255 232
23.8045 -46.0965 0.001854 252 255 3
28.6782 -46.2919 -1.61527 160 255 95
26.9883 -45.5332 -2.62131 0 164 255
25.9376 -45.6947 -2.49896 194 255 61
24.6975 -45.9558 -1.91691 255 178 0
23.9001 -46.854 -1.72319 137 255 118
28.4 -46.6813 -3.13186 84 255 171
27.4633 -46.4804 -3.60253 255 192 0
26.0223 -46.8357 -3.84953 255 203 0
24.6998 -47.1559 -3.52002 198 255 57
23.9933 -47.4322 -2.95429 0 101 255
28.3439 -47.3533 -4.20524 0 0 246
27.901 -47.3081 -4.39862 0 19 255
25.6207 -47.6477 -4.61458 0 0 224
24.927 -47.7861 -4.47328 0 125 255
26.5781 -42.6292 6.46324 0 144 255
25.6741 -42.7213 6.81452 8 255 247
24.5939 -42.726 6.8386 81 255 174
23.8204 -42.4825 6.62826 0 204 255
27.9931 -43.1834 4.59129 0 21 255
27.1561 -43.4622 5.307 255 79 0
25.8499 -43.7766 5.76379 222 255 33
24.6721 -43.7273 5.76818 57 255 198
23.7703 -43.243 5.39347 255 140 0
28.2845 -43.8651 3.49202 255 186 0
27.7127 -44.3323 4.16651 0 141 255
23.614 -43.6051 3.83652 142 255 113
28.5402 -44.2241 1.90842 255 165 0
24.2649 -43.5204 1.52355 0 159 255
23.7655 -44.0989 2.17013 255 231 0
28.6258 -44.6467 0.27802 0 236 255
26.9662 -43.8256 -0.573911 0 22 255
25.9614 -43.8766 -0.313512 99 255 156
24.6948 -44.2345 0.199625 255 14 0
23.945 -44.7974 0.78331 55 255 200
28.4002 -44.9854 -1.21416 177 255 78
27.4176 -44.6605 -1.56396 255 254 0
26.1001 -44.7182 -1.40528 122 255 133
25.0969 -44.9138 -1.07507 0 172 255
28.3494 -45.6486 -2.39596 0 133 255
27.8448 -45.5117 -2.60015 0 58 255
25.0967 -40.5633 8.78157 0 212 255
24.2219 -40.623 8.80918 0 180 255
23.4126 -40.422 8.65201 0 128 255
26.6639 -41.4939 6.99433 173 255 82
25.5998 -41.4063 7.83134 255 216 0
24.4192 -41.5825 7.8066 64 255 191
23.4279 -41.1859 7.43756 255 130 0
28.0716 -42.1892 4.76864 0 249 255
27.4227 -41.8793 5.78241 220 255 35
23.3337 -41.6254 5.85576 255 104 0
28.2911 -42.5123 3.62755 5 255 250
24.186 -41.4641 3.4872 102 255 153
23.5987 -41.9539 4.19356 255 235 0
28.1976 -42.7851 2.16724 255 163 0
27.2816 -42.241 1.80669 92 255 163
26.0468 -42.0703 1.88538 199 255 56
24.6869 -42.3083 2.26892 255 223 0
23.8809 -42.7772 2.85788 110 255 145
28.2521 -43.5824 0.522978 71 255 184
27.3591 -43.2131 0.311641 255 161 0
26.1231 -42.998 0.680625 145 255 110
25.1071 -43.1247 1.01139 0 73 255
28.2876 -44.039 -0.506378 0 71 255
27.7942 -43.8638 -0.647732 0 0 216
24.8522 -38.5573 10.4832 0 212 255
23.9731 -38.555 10.6775 31 255 224
23.0811 -38.4413 10.6029 0 191 255
26.2646 -39.0516 8.81486 104 255 151
25.3977 -39.3731 9.44652 174 255 81
24.0903 -39.5168 9.68413 155 255 100
22.859 -39.1398 9.50919 255 188 0
22.1266 -38.4809 9.47294 0 1 255
26.6761 -39.8696 7.61975 255 110 0
25.9702 -40.2811 8.37081 0 141 255
22.662 -39.4118 8.01032 255 63 0
22.0893 -38.5969 8.81525 0 112 255
27.9411 -41.2535 4.8885 0 143 255
27.2844 -40.3181 5.83348 255 56 0
23.069 -39.9207 6.32973 109 255 146
27.9599 -41.3839 3.99349 0 243 255
27.075 -40.3107 4.42401 255 106 0
25.8788 -39.9357 4.13061 255 244 0
24.5844 -40.2166 4.13381 199 255 56
23.6154 -40.2578 5.00047 255 194 0
27.9277 -41.7162 3.03915 0 70 255
27.1798 -41.2394 3.02042 67 255 188
26.0639 -41.0194 2.96984 150 255 105
25.0664 -41.1224 3.06384 113 255 142
23.5076 -36.5985 12.367 0 47 255
22.8157 -36.578 12.2988 0 97 255
25.0685 -37.4971 11.0785 90 255 165
23.9215 -37.3436 11.617 162 255 93
22.6267 -37.3313 11.3968 0 241 255
21.9138 -36.8728 11.0805 0 118 255
26.3875 -37.797 9.2269 0 214 255
25.8025 -37.8762 10.1555 255 253 0
22.3334 -38.065 10.3605 0 128 255
21.8819 -37.4626 10.0313 46 255 209
26.6547 -38.1014 7.89036 226 0 0
22.4902 -37.9399 7.92694 128 255 127
21.9623 -37.6992 8.96078 0 179 255
26.6796 -38.4051 6.40169 255 211 0
26.0484 -37.7655 6.06706 0 57 255
23.8887 -37.7681 6.11941 0 155 255
23.1761 -38.3115 6.54989 255 78 0
26.5748 -38.9903 5.298 0 42 255
25.6895 -38.464 5.25128 150 255 105
24.4543 -38.5244 5.29767 252 255 3
23.6513 -38.9954 5.53746 0 159 255
24.9086 -35.1903 12.8308 0 90 255
23.8355 -35.6457 12.9117 255 233 0
22.493 -35.5627 12.8775 164 255 91
21.629 -34.9152 12.8255 0 238 255
26.1305 -35.3709 11.2163 0 200 255
25.4657 -35.9824 11.7859 255 47 0
24.4454 -36.3817 12.183 0 153 255
22.1478 -36.241 12.0513 0 171 255
21.6359 -35.6162 11.6962 255 210 0
26.3472 -36.1136 9.94738 255 54 0
25.9904 -36.6759 10.667 0 42 255
22.1988 -35.4568 9.42371 0 241 255
21.7568 -35.9109 10.2176 190 255 65
26.3818 -36.4001 8.32852 123 255 132
25.8848 -35.831 7.84591 0 99 255
23.6089 -35.7885 7.81445 0 147 255
22.6708 -36.2856 8.32978 255 79 0
21.984 -36.643 9.13532 0 124 255
26.3122 -37.0864 7.11125 0 233 255
25.5528 -36.6446 6.79414 125 255 130
24.2261 -36.6378 6.79597 222 255 33
23.2735 -37.0339 7.1443 0 138 255
25.3256 -37.4404 5.86756 0 192 255
24.6531 -37.4574 5.87751 0 37 255
24.6806 -32.9091 14.7078 138 255 117
23.6047 -33.1101 14.9905 195 255 60
22.2525 -33.0691 15.1084 189 255 66
21.0501 -32.6993 15.0867 0 224 255
20.3458 -32.2285 15.2181 0 0 228
25.9335 -33.35 13.0498 0 166 255
25.1898 -33.8315 13.5877 255 201 0
23.7704 -34.2255 13.9351 255 206 0
22.3534 -34.1211 13.9796 255 248 0
21.1278 -33.3853 13.7751 255 15 0
20.3717 -32.4721 14.6257 0 81 255
26.161 -34.0343 11.8479 177 255 78
25.7347 -34.6233 12.4511 0 134 255
21.3513 -33.9186 12.1909 70 255 185
26.22 -34.4011 10.2908 188 255 67
25.782 -33.857 9.77909 0 209 255
23.4795 -33.7426 9.57252 0 163 255
22.528 -34.2306 9.86019 199 255 56
21.739 -34.2876 10.8703 250 255 5
26.138 -35.0919 9.03401 0 243 255
25.4393 -34.6728 8.64316 255 251 0
24.0719 -34.633 8.57126 247 255 8
23.0208 -34.9967 8.85216 0 228 255
25.2183 -35.5219 7.56548 0 86 255
24.5121 -35.5125 7.54643 0 179 255
24.3922 -30.796 16.6789 48 255 207
23.4192 -31.0412 17.055 177 255 78
22.1072 -31.119 17.2575 97 255 158
20.868 -30.9603 17.2076 4 255 251
20.0854 -30.6384 17.0006 0 179 255
25.7274 -31.5987 14.5926 0 0 217
24.9515 -31.6872 15.3402 255 148 0
23.5882 -32.0304 15.9471 201 255 54
22.1908 -32.0805 16.159 255 221 0
20.9506 -31.8292 16.1176 62 255 193
20.1229 -31.2821 15.8912 50 255 205
25.9776 -32.223 13.5999 113 255 142
25.5215 -32.5838 14.2319 0 180 255
20.733 -31.9001 13.8377 117 255 138
20.1649 -31.6018 14.8576 0 143 255
26.0898 -32.5479 12.1768 150 255 105
25.6832 -32.0539 11.7014 0 48 255
23.3789 -31.5422 11.573 142 255 113
22.3787 -31.7299 11.8949 130 255 125
21.4292 -32.3099 12.4524 255 113 0
26.0292 -33.1566 10.9809 0 86 255
25.3511 -32.7376 10.5888 134 255 121
23.9292 -32.5787 10.5057 255 127 0
22.5966 -32.865 10.84 68 255 187
21.8079 -33.1256 11.3386 0 232 255
25.1332 -33.5431 9.47636 0 166 255
24.4024 -33.496 9.43536 0 116 255
21.5428 -28.5923 20.7121 0 0 236
20.7262 -28.5532 20.6736 0 151 255
24.2344 -28.7641 18.8826 0 75 255
23.3561 -29.0616 19.3366 173 255 82
21.996 -29.1163 19.8039 255 146 0
20.5015 -29.0216 19.722 255 225 0
19.5923 -28.8323 19.2103 8 255 247
24.4759 -29.5446 17.4733 128 0 0
23.3817 -29.9962 18.1167 225 255 30
22.0367 -30.1165 18.4201 255 223 0
20.6976 -29.9589 18.3312 180 255 75
19.7002 -29.4544 17.8636 255 107 0
25.737 -30.9293 14.6913 0 181 255
25.1226 -30.1127 15.5783 255 217 0
20.2185 -29.4058 15.4455 0 243 255
19.801 -29.8124 16.2367 184 255 71
25.8372 -31.1643 13.8019 0 56 255
25.1269 -30.1539 14.0725 147 255 108
24.2901 -29.6838 13.681 44 255 211
21.686 -29.6851 13.9015 0 72 255
20.7604 -30.231 14.3518 255 95 0
20.083 -30.5716 15.1174 0 117 255
25.873 -31.5423 12.8009 0 154 255
25.2185 -31.1246 12.4674 132 255 123
23.8566 -30.5452 12.5397 255 216 0
22.3511 -30.4052 12.9628 255 158 0
21.4145 -30.9488 13.1962 0 197 255
25.0499 -31.7003 11.4251 0 141 255
24.3214 -31.5177 11.4157 0 197 255
23.0162 -26.6213 22.6912 180 255 75
21.7969 -26.8748 22.732 255 232 0
20.3304 -26.8484 22.7068 225 255 30
19.1755 -26.5492 22.6455 0 130 255
24.4735 -26.9169 21.074 149 255 106
23.4935 -27.2208 21.6447 144 255 111
21.9372 -27.858 21.4821 255 209 0
20.2756 -27.7898 21.4217 255 123 0
18.8327 -27.018 21.5637 213 255 42
18.0485 -26.5056 21.2354 0 187 255
24.5359 -27.5452 19.7297 255 149 0
23.5526 -28.1285 20.3721 132 255 123
22.5281 -28.4437 20.6068 0 159 255
19.8145 -28.2864 20.4181 0 108 255
18.9409 -27.8044 20.0004 214 255 41
18.1198 -26.817 20.235 0 148 255
24.7119 -27.9279 17.951 255 176 0
18.9502 -27.7607 18.5416 255 221 0
18.2521 -27.0121 19.3596 0 91 255
24.6809 -28.3259 16.2216 244 0 0
24.0402 -27.7785 15.7428 0 114 255
21.4765 -27.7088 15.576 117 255 138
20.4751 -28.1929 15.8909 120 255 135
19.5706 -28.2084 16.98 255 181 0
24.5956 -28.9589 14.9256 31 255 224
23.6663 -28.5827 14.5948 255 155 0
22.1368 -28.5718 14.5998 249 255 6
21.0449 -28.9577 14.8827 0 235 255
23.4034 -29.4264 13.5047 0 117 255
22.6159 -29.3943 13.6095 0 108 255
22.9601 -24.7762 24.4879 0 189 255
21.733 -24.8917 24.6811 213 255 42
20.2508 -24.906 24.6878 203 255 52
19.0296 -24.8099 24.5109 16 255 239
25.6582 -24.6383 22.6068 0 0 187
24.9494 -24.9907 22.9433 45 255 210
23.5798 -25.5398 23.464 220 0 0
21.8575 -25.8613 23.7363 255 240 0
20.2325 -25.859 23.7301 255 253 0
18.6233 -25.5311 23.4672 198 255 57
17.6428 -25.0311 23.0672 0 192 255
25.7426 -24.9126 21.8708 0 127 255
25.0261 -25.8181 21.7301 159 255 96
24.1407 -26.2571 22.3393 0 236 255
18.242 -26.0814 22.3437 0 179 255
17.6459 -25.4718 21.8859 180 255 75
25.729 -25.0766 21.0934 0 98 255
25.147 -25.8162 20.2656 255 4 0
18.2973 -25.3238 19.7234 4 255 251
17.8459 -25.7281 20.4147 119 255 136
24.6744 -26.2955 18.3783 255 191 0
24.0056 -25.8005 17.7625 0 151 255
21.3303 -25.5436 17.4368 43 255 212
20.2036 -25.6803 17.8773 156 255 99
18.9516 -26.1614 18.6445 255 24 0
18.1908 -26.3286 19.4215 0 26 255
24.4013 -27.032 17.0146 0 156 255
23.5288 -26.6256 16.5761 254 255 1
21.9344 -26.5426 16.4553 255 96 0
20.4771 -26.8261 16.8476 226 255 29
19.554 -27.0503 17.4288 0 169 255
23.2575 -27.4732 15.4578 0 207 255
22.4496 -27.4518 15.4258 0 219 255
24.322 -23.1471 24.7874 0 193 255
23.3484 -23.7237 25.0509 255 169 0
21.7571 -23.7887 25.4697 255 215 0
20.0972 -23.822 25.5043 255 174 0
18.424 -23.7974 25.1512 255 45 0
17.0778 -23.1302 25.0069 210 255 45
16.3366 -22.5276 24.9356 0 49 255
25.7124 -23.9233 22.8799 0 188 255
24.9574 -23.8036 23.7555 174 255 81
24.0823 -24.399 24.1697 0 72 255
17.9254 -24.4701 24.1764 0 212 255
17.0764 -23.8934 23.7555 255 249 0
16.3029 -22.8386 24.0855 0 136 255
25.8435 -24.0259 21.9751 0 75 255
25.4651 -23.6127 21.5209 0 40 255
17.8305 -23.3018 21.4457 0 175 255
17.1288 -23.7468 22.3566 255 28 0
16.3947 -23.0066 23.2854 0 116 255
25.7383 -24.4627 21.1494 0 18 255
25.0857 -24.308 20.4178 164 255 91
24.1755 -23.8881 19.7206 11 255 244
19.6017 -23.5675 19.8212 0 109 255
18.4888 -24.0549 20.278 255 144 0
17.6799 -24.5313 20.9729 0 147 255
24.5525 -25.042 19.0539 75 255 180
23.5496 -24.6691 18.5169 255 73 0
21.9091 -24.6089 18.211 255 161 0
20.2947 -24.3523 18.8523 251 0 0
19.1553 -24.8336 19.1908 0 184 255
23.2013 -25.5075 17.3779 0 135 255
22.3686 -25.4718 17.2685 0 222 255
23.7935 -21.0213 26.3266 12 255 243
22.9446 -21.1299 26.8038 177 255 78
21.5848 -21.3264 27.1623 255 212 0
19.9737 -21.4089 27.3154 255 167 0
18.3634 -21.338 27.272 255 240 0
17.0364 -21.0837 27.0787 88 255 167
16.2733 -20.7307 26.8016 0 124 255
24.2172 -21.8572 25.3254 188 255 67
23.161 -22.3331 25.9553 244 255 11
21.6883 -22.5448 26.3266 255 179 0
20.0288 -22.6074 26.421 255 118 0
18.3877 -22.5035 26.2773 255 160 0
17.0357 -22.0916 26.046 85 255 170
16.1854 -21.4515 25.664 108 255 147
25.6541 -23.1973 23.0374 0 0 180
24.985 -22.4707 23.72 255 148 0
16.4587 -21.3363 23.8528 0 45 255
16.1083 -21.7427 24.3837 37 255 218
25.6744 -23.2474 22.4188 0 46 255
24.9531 -22.5977 22.214 255 118 0
23.7364 -21.8736 21.6867 255 161 0
22.5964 -21.425 21.5103 0 158 255
19.4239 -21.6089 21.5321 118 255 137
18.2102 -22.1016 21.85 255 194 0
16.9433 -22.104 22.9296 135 255 120
16.3025 -22.3138 23.4956 0 33 255
24.6717 -23.2066 20.9736 0 159 255
23.6004 -22.878 20.4053 255 89 0
21.9903 -22.1945 20.5745 255 39 0
20.187 -22.4191 20.5431 255 42 0
18.8943 -22.8282 20.8267 41 255 214
23.0884 -23.5505 19.3448 0 221 255
21.9606 -23.3423 19.334 123 255 132
20.7967 -23.306 19.4993 133 255 122
22.1917 -19.1163 28.1174 0 6 255
21.2485 -19.0546 28.4722 83 255 172
19.7915 -19.0246 28.8535 255 248 0
18.2495 -18.9642 29.0646 255 246 0
16.9624 -18.8781 28.9763 88 255 167
16.2168 -18.6514 28.7174 0 95 255
23.7151 -20.0885 26.5852 0 50 255
22.7375 -19.7946 27.4267 177 255 78
21.4513 -20.1191 27.8883 216 255 39
19.9017 -20.2183 28.1375 255 213 0
18.3215 -20.1719 28.186 255 243 0
16.9912 -19.9641 28.0039 126 255 129
16.1302 -19.4964 27.5524 158 255 97
24.094 -20.3392 25.5169 255 215 0
23.6666 -19.5767 25.2036 0 82 255
16.3374 -19.4056 25.5348 0 175 255
16.0045 -19.9567 26.0852 173 255 82
24.3726 -20.9949 24.1046 155 255 100
23.4484 -19.9383 24.0912 255 205 0
22.416 -19.5936 23.6126 0 162 255
19.3297 -19.5055 23.3878 195 255 60
18.1285 -19.6513 23.7823 139 255 116
16.7969 -20.1312 24.3734 255 135 0
16.1305 -20.6266 24.9214 0 81 255
24.3957 -21.4221 23.0234 0 160 255
23.4621 -20.85 22.7822 111 255 144
21.924 -20.4298 22.451 255 63 0
19.989 -20.4494 22.4008 255 17 0
18.3322 -20.7626 22.7769 255 150 0
17.2463 -20.9853 23.3056 0 201 255
21.504 -21.2362 21.3981 4 255 251
20.552 -21.3031 21.3766 0 173 255
17.3988 -16.739 30.604 0 44 255
16.606 -16.6742 30.678 0 153 255
16.0324 -16.5634 30.4992 0 101 255
22.18 -18.5014 28.122 0 61 255
21.1899 -17.9167 28.6409 73 255 182
19.6339 -17.7413 29.3904 227 255 28
18.0768 -17.5819 29.9265 255 167 0
16.8269 -17.6868 29.8391 62 255 193
16.0393 -17.405 29.4415 96 255 159
23.5731 -19.2875 26.7484 0 145 255
22.7303 -18.5457 27.3003 0 255 255
21.8388 -17.7019 27.959 0 82 255
16.2619 -17.4545 27.4359 0 160 255
15.9433 -17.9689 27.9903 125 255 130
23.7355 -19.3677 26.1227 0 0 209
23.0224 -18.6528 25.9338 199 255 56
22.1252 -18.1004 25.5416 0 124 255
17.6588 -17.6678 25.8333 0 239 255
16.6498 -18.147 26.2359 255 232 0
16.0369 -18.6951 26.7635 0 158 255
22.8185 -18.9982 24.802 0 124 255
21.6733 -18.6555 24.4198 255 218 0
19.9379 -18.6117 24.1811 255 180 0
18.293 -18.3788 24.8234 255 119 0
17.1487 -18.8481 25.0916 0 235 255
21.3795 -19.4164 23.3059 125 255 130
20.4432 -19.4144 23.2284 0 120 255
16.0838 -14.9107 31.8597 0 0 151
15.7906 -14.9011 31.768 0 0 187
18.4552 -15.8071 30.4756 0 0 249
17.602 -15.8748 30.8751 0 248 255
16.4982 -15.5532 31.3469 0 141 255
15.8625 -15.5085 31.0779 0 87 255
20.5302 -16.7206 28.8363 17 255 238
19.2606 -16.4411 29.7828 148 255 107
18.3449 -16.6239 30.296 0 5 255
16.2157 -15.6542 29.3254 0 105 255
15.867 -15.9957 29.8723 44 255 211
22.2241 -17.6193 27.218 0 103 255
21.1922 -16.8448 27.7191 196 255 59
20.2382 -16.2609 27.5 0 52 255
17.5674 -16.0579 27.6758 0 177 255
16.5942 -16.3289 28.1275 106 255 149
15.9874 -16.7398 28.6758 0 126 255
22.3379 -17.7528 26.5061 0 47 255
21.392 -17.2977 26.3187 120 255 135
19.8559 -16.6177 26.5886 255 230 0
18.2234 -16.6841 26.6141 238 255 17
17.0725 -16.9848 26.949 0 231 255
21.0538 -17.7011 25.3116 142 255 113
19.9312 -17.4849 25.3413 193 255 62
18.7993 -17.4196 25.5238 0 145 255
16.6571 -14.2299 31.8112 0 0 148
16.2121 -14.3752 31.9812 0 0 224
15.7822 -14.3857 31.9143 0 0 160
18.3043 -15.2767 30.4705 0 0 246
17.2587 -14.7584 31.1367 0 225 255
16.6307 -14.8351 31.6321 0 0 238
15.713 -14.6014 31.4005 0 19 255
20.0582 -15.9889 28.9462 0 84 255
18.9883 -15.5508 29.5321 109 255 146
17.5363 -14.8391 30.009 118 255 137
16.5237 -14.8607 29.953 0 200 255
15.8845 -14.8125 30.6285 0 44 255
20.3321 -16.0533 28.3211 0 1 255
19.4345 -15.7288 28.2227 32 255 223
18.0095 -15.4745 28.4076 136 255 119
16.9852 -15.4421 28.8124 0 183 255
19.3108 -15.9385 27.3682 0 16 255
18.5214 -15.8991 27.4146 0 141 255
16.4954 -13.9032 31.883 0 0 150
16.1355 -13.8972 31.9794 0 0 145
15.8157 -13.9726 31.9638 0 0 128
16.7 -14.0246 31.4528 0 0 233
16.1924 -13.8605 31.5739 0 0 156
15.8082 -14.0191 31.5991 0 0 173
16.8441 -14.1596 30.8465 0 0 162
16.3108 -14.1103 30.913 0 23 255
15.8973 -14.1681 31.1025 0 0 205
3 0 1 2
3 3 2 1
3 0 12 1
3 13 1 12
3 0 2 16
3 0 16 12
3 1 13 3
3 17 3 13
3 2 3 5
3 2 5 4
3 2 4 16
3 19 16 4
3 3 17 5
3 20 5 17
3 4 5 20
3 4 20 19
3 6 7 9
3 10 9 7
3 6 26 27
3 6 27 7
3 6 9 31
3 6 31 26
3 7 27 32
3 7 32 10
3 8 9 11
3 12 11 9
3 8 30 9
3 31 9 30
3 8 11 30
3 35 30 11
3 9 10 12
3 13 12 10
3 10 32 36
3 10 36 13
3 11 12 16
3 11 16 15
3 11 15 35
3 39 35 15
3 13 14 17
3 18 17 14
3 13 36 14
3 37 14 36
3 14 37 42
3 14 42 18
3 15 16 40
3 15 40 39
3 16 19 40
3 45 40 19
3 17 18 41
3 42 41 18
3 17 41 20
3 46 20 41
3 19 20 45
3 46 45 20
3 21 22 26
3 21 26 25
3 21 51 22
3 52 22 51
3 21 25 51
3 56 51 25
3 22 23 27
3 22 27 26
3 22 52 23
3 53 23 52
3 23 53 27
3 57 27 53
3 24 25 29
3 30 29 25
3 24 55 56
3 24 56 25
3 24 29 59
3 24 59 55
3 25 26 30
3 31 30 26
3 27 28 33
3 27 33 32
3 27 57 58
3 27 58 28
3 28 58 33
3 60 33 58
3 29 30 34
3 35 34 30
3 29 34 59
3 61 59 34
3 32 33 37
3 32 37 36
3 33 60 37
3 65 37 60
3 34 35 39
3 34 39 38
3 34 38 61
3 66 61 38
3 37 65 70
3 37 70 42
3 38 39 43
3 44 43 39
3 38 43 71
3 38 71 66
3 39 40 67
3 68 67 40
3 39 67 44
3 72 44 67
3 40 45 73
3 40 73 68
3 41 42 70
3 41 70 69
3 41 69 46
3 74 46 69
3 43 44 72
3 43 72 71
3 45 46 73
3 74 73 46
3 47 48 51
3 52 51 48
3 47 80 48
3 81 48 80
3 47 51 85
3 47 85 80
3 48 49 53
3 48 53 52
3 48 81 49
3 82 49 81
3 49 82 86
3 49 86 53
3 50 51 56
3 50 56 55
3 50 84 85
3 50 85 51
3 50 55 84
3 88 84 55
3 53 54 57
3 58 57 54
3 53 86 87
3 53 87 54
3 54 87 58
3 90 58 87
3 55 59 91
3 55 91 88
3 58 90 60
3 95 60 90
3 59 61 96
3 59 96 91
3 60 95 100
3 60 100 65
3 61 66 96
3 101 96 66
3 62 67 63
3 68 63 67
3 62 63 97
3 98 97 63
3 62 97 102
3 62 102 67
3 63 68 98
3 103 98 68
3 64 69 70
3 64 70 65
3 64 65 99
3 100 99 65
3 64 99 69
3 104 69 99
3 66 71 72
3 66 72 67
3 66 67 102
3 66 102 101
3 68 73 74
3 68 74 69
3 68 69 104
3 68 104 103
3 75 76 80
3 81 80 76
3 75 110 76
3 111 76 110
3 75 80 115
3 75 115 110
3 76 77 81
3 82 81 77
3 76 111 77
3 112 77 111
3 77 78 83
3 77 83 82
3 77 112 78
3 113 78 112
3 78 113 83
3 116 83 113
3 79 80 85
3 79 85 84
3 79 114 80
3 115 80 114
3 79 84 117
3 79 117 114
3 82 83 86
3 87 86 83
3 83 116 119
3 83 119 87
3 84 88 117
3 120 117 88
3 87 119 124
3 87 124 90
3 88 91 125
3 88 125 120
3 89 94 95
3 89 95 90
3 89 90 124
3 89 124 123
3 89 123 94
3 128 94 123
3 91 96 129
3 91 129 125
3 92 97 93
3 98 93 97
3 92 93 127
3 92 127 126
3 92 126 97
3 130 97 126
3 93 98 94
3 99 94 98
3 93 94 128
3 93 128 127
3 94 99 95
3 100 95 99
3 96 101 97
3 102 97 101
3 96 97 129
3 130 129 97
3 98 103 104
3 98 104 99
3 105 106 111
3 105 111 110
3 105 134 106
3 135 106 134
3 105 110 134
3 139 134 110
3 106 107 111
3 112 111 107
3 106 135 107
3 136 107 135
3 107 108 112
3 113 112 108
3 107 136 108
3 137 108 136
3 108 137 113
3 140 113 137
3 109 110 114
3 115 114 110
3 109 138 110
3 139 110 138
3 109 114 138
3 141 138 114
3 113 140 143
3 113 143 116
3 114 117 144
3 114 144 141
3 116 143 148
3 116 148 119
3 117 120 149
3 117 149 144
3 118 123 119
3 124 119 123
3 118 119 148
3 118 148 147
3 118 147 123
3 152 123 147
3 120 125 149
3 153 149 125
3 121 126 122
3 127 122 126
3 121 122 150
3 151 150 122
3 121 150 126
3 154 126 150
3 122 127 123
3 128 123 127
3 122 123 151
3 152 151 123
3 125 129 130
3 125 130 126
3 125 126 153
3 154 153 126
3 131 132 136
3 131 136 135
3 131 159 160
3 131 160 132
3 131 135 159
3 164 159 135
3 132 133 137
3 132 137 136
3 132 160 133
3 161 133 160
3 133 161 137
3 165 137 161
3 134 163 135
3 164 135 163
3 134 139 163
3 168 163 139
3 137 165 140
3 169 140 165
3 138 167 139
3 168 139 167
3 138 141 167
3 170 167 141
3 140 169 174
3 140 174 143
3 141 144 175
3 141 175 170
3 142 147 148
3 142 148 143
3 142 143 174
3 142 174 173
3 142 173 178
3 142 178 147
3 144 149 150
3 144 150 145
3 144 145 176
3 144 176 175
3 145 150 146
3 151 146 150
3 145 146 177
3 145 177 176
3 146 151 147
3 152 147 151
3 146 147 178
3 146 178 177
3 149 153 150
3 154 150 153
3 155 156 160
3 155 160 159
3 155 181 156
3 182 156 181
3 155 159 186
3 155 186 181
3 156 157 161
3 156 161 160
3 156 182 157
3 183 157 182
3 157 183 187
3 157 187 161
3 158 159 164
3 158 164 163
3 158 185 186
3 158 186 159
3 158 163 189
3 158 189 185
3 161 162 166
3 161 166 165
3 161 187 188
3 161 188 162
3 162 188 191
3 162 191 166
3 163 168 189
3 192 189 168
3 165 166 190
3 191 190 166
3 165 190 195
3 165 195 169
3 167 170 168
3 171 168 170
3 168 171 192
3 196 192 171
3 169 195 174
3 199 174 195
3 170 175 176
3 170 176 171
3 171 176 177
3 171 177 172
3 171 172 197
3 171 197 196
3 172 177 178
3 172 178 173
3 172 173 198
3 172 198 197
3 173 174 199
3 173 199 198
3 179 180 182
3 183 182 180
3 179 201 202
3 179 202 180
3 179 182 201
3 206 201 182
3 180 202 207
3 180 207 183
3 181 205 206
3 181 206 182
3 181 186 205
3 210 205 186
3 183 184 187
3 188 187 184
3 183 207 184
3 208 184 207
3 184 208 188
3 212 188 208
3 185 209 186
3 210 186 209
3 185 189 209
3 213 209 189
3 188 212 191
3 217 191 212
3 189 192 218
3 189 218 213
3 190 191 217
3 190 217 216
3 190 216 195
3 221 195 216
3 192 196 197
3 192 197 193
3 192 193 219
3 192 219 218
3 193 197 222
3 193 222 219
3 194 198 195
3 199 195 198
3 194 195 221
3 194 221 220
3 194 220 223
3 194 223 198
3 197 198 222
3 223 222 198
3 200 201 205
3 206 205 201
3 200 230 201
3 231 201 230
3 200 205 230
3 236 230 205
3 201 231 202
3 232 202 231
3 202 203 207
3 208 207 203
3 202 232 203
3 233 203 232
3 203 233 208
3 237 208 233
3 204 205 209
3 210 209 205
3 204 235 205
3 236 205 235
3 204 209 238
3 204 238 235
3 208 237 242
3 208 242 212
3 209 213 243
3 209 243 238
3 211 216 212
3 217 212 216
3 211 212 242
3 211 242 241
3 211 241 246
3 211 246 216
3 213 218 214
3 219 214 218
3 213 214 244
3 213 244 243
3 214 219 244
3 247 244 219
3 215 220 216
3 221 216 220
3 215 216 245
3 246 245 216
3 215 245 248
3 215 248 220
3 219 222 220
3 223 220 222
3 219 220 247
3 248 247 220
3 224 225 231
3 224 231 230
3 224 255 256
3 224 256 225
3 224 230 261
3 224 261 255
3 225 226 232
3 225 232 231
3 225 256 257
3 225 257 226
3 226 227 233
3 226 233 232
3 226 257 258
3 226 258 227
3 227 228 234
3 227 234 233
3 227 258 259
3 227 259 228
3 228 259 263
3 228 263 234
3 229 230 236
3 229 236 235
3 229 260 261
3 229 261 230
3 229 235 260
3 264 260 235
3 233 234 262
3 263 262 234
3 233 262 268
3 233 268 237
3 235 238 264
3 269 264 238
3 237 268 242
3 273 242 268
3 238 243 239
3 244 239 243
3 238 239 269
3 270 269 239
3 239 244 274
3 239 274 270
3 240 245 246
3 240 246 241
3 240 241 271
3 272 271 241
3 240 271 245
3 275 245 271
3 241 242 273
3 241 273 272
3 244 247 248
3 244 248 245
3 244 245 275
3 244 275 274
3 249 250 256
3 249 256 255
3 249 283 284
3 249 284 250
3 249 255 283
3 289 283 255
3 250 251 257
3 250 257 256
3 250 284 285
3 250 285 251
3 251 252 257
3 258 257 252
3 251 285 286
3 251 286 252
3 252 253 258
3 259 258 253
3 252 286 253
3 287 253 286
3 253 287 259
3 291 259 287
3 254 255 260
3 261 260 255
3 254 288 255
3 289 255 288
3 254 260 288
3 292 288 260
3 259 291 263
3 297 263 291
3 260 264 298
3 260 298 292
3 262 263 297
3 262 297 296
3 262 296 268
3 302 268 296
3 264 269 270
3 264 270 265
3 264 265 299
3 264 299 298
3 265 270 303
3 265 303 299
3 266 271 272
3 266 272 267
3 266 267 301
3 266 301 300
3 266 300 304
3 266 304 271
3 267 272 273
3 267 273 268
3 267 268 302
3 267 302 301
3 270 274 271
3 275 271 274
3 270 271 304
3 270 304 303
3 276 277 280
3 281 280 277
3 276 311 277
3 312 277 311
3 276 280 311
3 317 311 280
3 277 312 281
3 318 281 312
3 278 279 283
3 284 283 279
3 278 315 279
3 316 279 315
3 278 283 315
3 321 315 283
3 279 280 284
3 285 284 280
3 279 316 280
3 317 280 316
3 280 281 285
3 286 285 281
3 281 282 287
3 281 287 286
3 281 318 282
3 319 282 318
3 282 319 322
3 282 322 287
3 283 289 324
3 283 324 321
3 287 322 328
3 287 328 291
3 288 292 293
3 288 293 289
3 289 293 329
3 289 329 324
3 290 296 291
3 297 291 296
3 290 291 328
3 290 328 327
3 290 327 332
3 290 332 296
3 292 298 293
3 299 293 298
3 293 299 294
3 300 294 299
3 293 294 329
3 330 329 294
3 294 300 330
3 333 330 300
3 295 301 296
3 302 296 301
3 295 296 331
3 332 331 296
3 295 331 301
3 334 301 331
3 299 303 300
3 304 300 303
3 300 301 333
3 334 333 301
3 305 306 311
3 305 311 310
3 305 341 342
3 305 342 306
3 305 310 348
3 305 348 341
3 306 307 312
3 306 312 311
3 306 342 343
3 306 343 307
3 307 308 313
3 307 313 312
3 307 343 344
3 307 344 308
3 308 344 349
3 308 349 313
3 309 310 316
3 309 316 315
3 309 347 348
3 309 348 310
3 309 315 352
3 309 352 347
3 310 311 317
3 310 317 316
3 312 313 319
3 312 319 318
3 313 314 319
3 320 319 314
3 313 349 350
3 313 350 314
3 314 350 354
3 314 354 320
3 315 321 352
3 355 352 321
3 319 320 322
3 323 322 320
3 320 354 323
3 360 323 354
3 321 324 355
3 361 355 324
3 322 323 359
3 360 359 323
3 322 359 328
3 365 328 359
3 324 329 330
3 324 330 325
3 324 325 362
3 324 362 361
3 325 330 366
3 325 366 362
3 326 331 332
3 326 332 327
3 326 327 364
3 326 364 363
3 326 363 367
3 326 367 331
3 327 328 365
3 327 365 364
3 330 333 334
3 330 334 331
3 330 331 367
3 330 367 366
3 335 336 341
3 342 341 336
3 335 369 370
3 335 370 336
3 335 341 369
3 377 369 341
3 336 337 342
3 343 342 337
3 336 370 371
3 336 371 337
3 337 338 343
3 344 343 338
3 337 371 372
3 337 372 338
3 338 372 378
3 338 378 344
3 339 340 346
3 347 346 340
3 339 375 340
3 376 340 375
3 339 346 375
3 381 375 346
3 340 341 347
3 348 347 341
3 340 376 341
3 377 341 376
3 344 345 349
3 350 349 345
3 344 378 345
3 379 345 378
3 345 379 350
3 384 350 379
3 346 347 351
3 352 351 347
3 346 351 386
3 346 386 381
3 350 384 354
3 391 354 384
3 351 352 387
3 351 387 386
3 352 355 392
3 352 392 387
3 353 359 360
3 353 360 354
3 353 354 391
3 353 391 390
3 353 390 396
3 353 396 359
3 355 361 356
3 362 356 361
3 355 356 393
3 355 393 392
3 356 362 393
3 397 393 362
3 357 363 358
3 364 358 363
3 357 358 395
3 357 395 394
3 357 394 398
3 357 398 363
3 358 364 359
3 365 359 364
3 358 359 395
3 396 395 359
3 362 366 363
3 367 363 366
3 362 363 397
3 398 397 363
3 368 369 376
3 377 376 369
3 368 406 369
3 407 369 406
3 368 376 414
3 368 414 406
3 369 407 370
3 408 370 407
3 370 408 371
3 409 371 408
3 371 409 372
3 410 372 409
3 372 373 379
3 372 379 378
3 372 410 373
3 411 373 410
3 373 374 380
3 373 380 379
3 373 411 412
3 373 412 374
3 374 412 416
3 374 416 380
3 375 413 414
3 375 414 376
3 375 381 417
3 375 417 413
3 379 380 385
3 379 385 384
3 380 416 424
3 380 424 385
3 381 386 382
3 387 382 386
3 381 382 418
3 381 418 417
3 382 387 418
3 425 418 387
3 383 390 384
3 391 384 390
3 383 384 422
3 423 422 384
3 383 422 429
3 383 429 390
3 384 385 423
3 424 423 385
3 387 392 388
3 393 388 392
3 387 388 425
3 426 425 388
3 388 393 426
3 430 426 393
3 389 395 390
3 396 390 395
3 389 390 428
3 429 428 390
3 389 428 395
3 432 395 428
3 393 397 398
3 393 398 394
3 393 394 430
3 431 430 394
3 394 395 432
3 394 432 431
3 399 400 407
3 399 407 406
3 399 439 440
3 399 440 400
3 399 406 446
3 399 446 439
3 400 401 408
3 400 408 407
3 400 440 441
3 400 441 401
3 401 402 409
3 401 409 408
3 401 441 442
3 401 442 402
3 402 403 410
3 402 410 409
3 402 442 443
3 402 443 403
3 403 404 411
3 403 411 410
3 403 443 444
3 403 444 404
3 404 405 412
3 404 412 411
3 404 444 445
3 404 445 405
3 405 445 449
3 405 449 412
3 406 414 446
3 450 446 414
3 412 449 416
3 456 416 449
3 413 417 414
3 418 414 417
3 414 418 450
3 457 450 418
3 415 423 424
3 415 424 416
3 415 416 455
3 456 455 416
3 415 455 423
3 462 423 455
3 418 425 426
3 418 426 419
3 418 419 457
3 458 457 419
3 419 426 427
3 419 427 420
3 419 420 459
3 419 459 458
3 420 427 463
3 420 463 459
3 421 428 429
3 421 429 422
3 421 422 461
3 421 461 460
3 421 460 428
3 464 428 460
3 422 423 462
3 422 462 461
3 426 430 431
3 426 431 427
3 427 431 432
3 427 432 428
3 427 428 464
3 427 464 463
3 433 434 440
3 441 440 434
3 433 468 469
3 433 469 434
3 433 440 468
3 475 468 440
3 434 435 441
3 442 441 435
3 434 469 470
3 434 470 435
3 435 436 442
3 443 442 436
3 435 470 471
3 435 471 436
3 436 437 443
3 444 443 437
3 436 471 472
3 436 472 437
3 437 438 444
3 445 444 438
3 437 472 473
3 437 473 438
3 438 473 445
3 478 445 473
3 439 474 440
3 475 440 474
3 439 446 474
3 479 474 446
3 445 478 449
3 484 449 478
3 446 450 451
3 446 451 447
3 446 447 480
3 446 480 479
3 447 451 485
3 447 485 480
3 448 455 456
3 448 456 449
3 448 449 484
3 448 484 483
3 448 483 455
3 489 455 483
3 450 457 458
3 450 458 451
3 451 458 459
3 451 459 452
3 451 452 486
3 451 486 485
3 452 459 490
3 452 490 486
3 453 460 461
3 453 461 454
3 453 454 488
3 453 488 487
3 453 487 491
3 453 491 460
3 454 461 455
3 462 455 461
3 454 455 489
3 454 489 488
3 459 463 460
3 464 460 463
3 459 460 490
3 491 490 460
3 465 466 471
3 472 471 466
3 465 495 496
3 465 496 466
3 465 471 495
3 500 495 471
3 466 467 472
3 473 472 467
3 466 496 497
3 466 497 467
3 467 497 502
3 467 502 473
3 468 475 476
3 468 476 469
3 469 498 470
3 499 470 498
3 469 476 504
3 469 504 498
3 470 499 471
3 500 471 499
3 473 502 478
3 508 478 502
3 474 479 480
3 474 480 475
3 475 503 476
3 504 476 503
3 475 480 509
3 475 509 503
3 477 483 484
3 477 484 478
3 477 478 508
3 477 508 507
3 477 507 483
3 513 483 507
3 480 485 486
3 480 486 481
3 480 481 510
3 480 510 509
3 481 486 514
3 481 514 510
3 482 488 483
3 489 483 488
3 482 483 513
3 482 513 512
3 482 512 516
3 482 516 488
3 486 490 487
3 491 487 490
3 486 487 514
3 515 514 487
3 487 488 515
3 516 515 488
3 492 493 496
3 497 496 493
3 492 518 519
3 492 519 493
3 492 496 518
3 522 518 496
3 493 519 523
3 493 523 497
3 494 495 499
3 500 499 495
3 494 520 521
3 494 521 495
3 494 499 520
3 525 520 499
3 495 521 522
3 495 522 496
3 497 523 502
3 528 502 523
3 498 524 499
3 525 499 524
3 498 504 529
3 498 529 524
3 501 507 508
3 501 508 502
3 501 502 528
3 501 528 527
3 501 527 507
3 532 507 527
3 503 509 510
3 503 510 504
3 504 510 511
3 504 511 505
3 504 505 530
3 504 530 529
3 505 511 533
3 505 533 530
3 506 512 513
3 506 513 507
3 506 507 532
3 506 532 531
3 506 531 512
3 534 512 531
3 510 514 511
3 515 511 514
3 511 515 512
3 516 512 515
3 511 512 534
3 511 534 533
3 517 518 521
3 522 521 518
3 517 535 536
3 517 536 518
3 517 521 535
3 538 535 521
3 518 536 537
3 518 537 519
3 519 537 540
3 519 540 523
3 520 525 521
3 526 521 525
3 521 526 538
3 541 538 526
3 523 540 543
3 523 543 528
3 524 529 530
3 524 530 525
3 525 530 531
3 525 531 526
3 526 531 532
3 526 532 527
3 526 527 542
3 526 542 541
3 527 528 543
3 527 543 542
3 530 533 534
3 530 534 531
3 535 538 539
3 535 539 536
3 536 539 540
3 536 540 537
3 538 541 542
3 538 542 539
3 539 542 540
3 543 540 542
