ply
format ascii 1.0
element vertex 352
property float x
property float y
property float z
property uchar red
property uchar green
property uchar blue
element face 696
property list uchar int vertex_index
end_header
50.7315 -31.9678 15.3313 0 0 140
50.6643 -31.9474 15.3843 0 0 145
50.8287 -32.2179 14.7852 0 0 136
50.7899 -32.2097 14.8062 0 0 141
50.8908 -32.4017 14.3929 0 0 131
50.8694 -32.3985 14.401 0 0 132
50.342 -30.1923 18.7994 0 0 248
50.0795 -30.2468 18.9277 0 4 255
49.8128 -30.1128 19.0133 0 0 172
50.4115 -30.6913 17.7071 0 0 240
50.1846 -30.7884 17.7444 0 0 221
49.9046 -30.5032 18.1156 0 0 234
50.5979 -31.4602 16.1617 0 0 201
50.4141 -31.3838 16.3512 0 0 200
50.0465 -30.8987 17.2525 0 0 182
50.7632 -31.9411 15.1605 0 0 162
50.6959 -31.9219 15.2054 0 0 161
50.8671 -32.2954 14.521 0 0 130
50.8391 -32.2901 14.534 0 0 132
49.6426 -28.1403 24.541 0 126 255
49.0725 -28.0006 24.5308 0 104 255
49.8324 -28.3901 23.5049 0 233 255
49.0808 -28.1525 23.4787 0 116 255
50.628 -28.7503 21.2826 0 79 255
50.0924 -28.7878 21.9197 0 208 255
49.352 -28.5261 21.9037 199 255 56
50.4681 -29.3794 19.7955 11 255 244
50.0536 -29.5152 20.1682 0 126 255
49.6446 -29.3065 20.0354 0 167 255
50.4273 -30.0532 18.2699 0 36 255
50.151 -29.985 18.1541 0 19 255
49.8266 -29.9246 18.5878 0 96 255
50.5296 -31.0151 16.664 0 0 237
50.3257 -30.9225 16.8081 0 0 235
50.0039 -30.6207 17.4785 0 0 173
50.6591 -31.5097 15.7531 0 0 139
50.5777 -31.4815 15.7997 0 0 152
50.846 -26.1597 28.3447 0 121 255
49.9522 -26.2994 28.4155 0 244 255
49.0477 -26.1756 28.3919 0 194 255
54.2036 -26.1397 26.4868 0 70 255
53.245 -26.3096 26.7262 77 255 178
51.6508 -26.4816 27.2405 255 131 0
50.0975 -26.8573 27.1737 255 203 0
48.6363 -26.5383 27.2546 178 255 77
47.7139 -26.2393 26.7802 0 238 255
54.2175 -26.2505 25.9359 0 15 255
53.2223 -26.6651 25.8104 0 174 255
51.791 -27.1257 25.6599 255 96 0
50.1625 -27.6044 25.3987 255 186 0
48.7063 -27.2852 25.3973 255 96 0
47.642 -26.4647 25.7 47 255 208
54.0446 -26.263 25.2794 0 0 250
53.2253 -26.5939 24.7799 34 255 221
51.9368 -27.3164 23.9916 230 255 25
50.6541 -28.0093 23.9233 218 255 37
48.3442 -27.2292 23.8487 168 255 87
47.6041 -26.487 24.6413 0 216 255
51.2412 -27.8684 22.1568 255 120 0
50.6747 -28.3104 22.6758 0 138 255
48.846 -27.4981 22.1705 111 255 144
50.7589 -28.115 20.5598 121 255 134
50.1161 -27.8771 20.3336 0 140 255
49.4794 -28.1206 20.6038 255 235 0
50.4529 -29.0539 19.2823 0 89 255
50.0976 -28.982 19.2207 0 61 255
49.7391 -29.0236 19.4024 0 0 197
50.2837 -24.8803 29.7077 0 34 255
49.6104 -24.7319 29.8703 0 104 255
48.8 -24.5902 29.8737 0 78 255
50.8032 -25.3361 28.9761 0 223 255
49.772 -25.5197 29.2432 0 176 255
48.6107 -25.314 29.1281 211 255 44
55.3806 -25.4349 26.6034 0 0 156
54.686 -25.6235 26.6206 0 54 255
53.4802 -25.5858 27.0919 0 137 255
52.0221 -25.4301 27.8532 255 179 0
47.8444 -25.5625 28.1206 0 247 255
47.1148 -25.3666 27.2034 103 255 152
55.4147 -25.4313 26.4029 0 0 185
54.8187 -25.6466 26.0537 0 52 255
46.9128 -25.4177 25.8509 255 207 0
54.2453 -25.7496 25.1319 0 93 255
53.2703 -25.8689 24.0681 103 255 152
52.4913 -26.6323 23.4397 0 236 255
47.9071 -26.2573 23.5157 14 255 241
47.1471 -25.4612 24.3614 220 255 35
52.5363 -25.6635 22.7716 37 255 218
51.9836 -26.6281 22.4003 0 181 255
49.5107 -25.4667 21.8999 27 255 228
48.5189 -25.8742 22.4423 255 69 0
47.5024 -25.0666 23.357 0 216 255
52.0856 -25.6487 22.0194 0 59 255
51.3384 -26.3467 21.517 162 255 93
50.1695 -26.3088 21.2567 174 255 81
49.3393 -26.7723 21.3477 0 145 255
50.2405 -24.3246 29.7597 0 0 248
49.4124 -23.6189 30.0109 224 255 31
48.1203 -23.4729 30.1354 164 255 91
47.0276 -22.8356 30.1159 0 136 255
61.001 -23.001 29.001 0 0 128
60.999 -23.001 29.001 0 0 128
50.8205 -24.2825 29.0655 92 255 163
50.1299 -23.2331 29.3187 26 255 229
47.6301 -24.2709 29.3961 71 255 184
46.6626 -23.369 29.3134 44 255 211
61.001 -23.001 28.999 0 0 128
60.999 -23.001 28.999 0 0 128
55.384 -25.2625 26.59 0 0 143
54.7338 -25.18 26.5814 0 57 255
53.4919 -24.7829 26.8626 133 255 122
51.8552 -24.0502 27.7039 255 48 0
50.7333 -23.0784 28.3532 0 242 255
47.2065 -24.6539 28.5486 0 245 255
46.2945 -23.8962 27.8674 195 0 0
45.4323 -22.9048 27.3174 0 163 255
55.3803 -25.235 26.3939 0 0 161
54.6818 -25.0867 26.0362 0 45 255
53.4138 -24.3266 25.849 85 255 170
52.407 -23.7351 26.5131 0 248 255
46.1257 -24.048 26.1082 96 255 159
45.3779 -22.8853 26.1719 231 255 24
54.2346 -25.148 25.1852 0 191 255
53.2754 -24.6773 24.4433 199 255 56
46.2811 -23.7572 24.6045 255 42 0
45.5298 -22.8107 25.1303 0 209 255
52.3668 -24.6294 22.9661 108 255 147
51.2929 -24.2779 22.5022 121 255 134
49.8929 -24.2856 22.3309 255 178 0
48.3654 -24.0671 22.7783 255 200 0
47.1099 -23.7528 23.5028 130 255 125
52.0565 -25.0816 22.1398 0 0 243
51.3792 -25.168 21.8334 0 132 255
50.5193 -25.201 21.6758 0 178 255
48.7315 -22.0829 30.2579 0 151 255
47.6677 -21.7713 30.5972 156 255 99
46.3428 -21.4974 30.4985 255 120 0
45.269 -20.7791 30.3229 171 255 84
61.001 -22.999 29.001 0 0 128
60.999 -22.999 29.001 0 0 128
49.3492 -21.8319 29.3839 255 190 0
48.9523 -20.9167 29.1719 0 102 255
45.8507 -22.2511 29.4952 206 255 49
44.9802 -21.2455 29.3568 111 255 144
61.001 -22.999 28.999 0 0 128
60.999 -22.999 28.999 0 0 128
51.2557 -22.9504 27.171 0 133 255
50.0596 -21.9281 27.7905 255 93 0
49.198 -20.9509 28.3237 0 192 255
45.6068 -22.6926 28.4696 0 159 255
44.8869 -21.7682 27.8905 255 191 0
52.6316 -23.5646 25.3566 0 200 255
51.6847 -22.9553 25.9093 255 172 0
50.3341 -21.9107 26.0583 255 213 0
44.7956 -21.5865 26.2732 255 196 0
52.4833 -23.6468 24.3807 90 255 165
51.4685 -22.9111 24.4955 221 255 34
50.1761 -22.0643 24.5916 210 255 45
45.9418 -22.5169 24.2624 0 152 255
45.2415 -21.6663 24.8538 204 255 51
52.1364 -23.7694 23.4676 0 5 255
51.2224 -23.3166 23.357 58 255 197
49.6772 -22.6549 23.3748 255 42 0
48.0816 -22.4188 23.2884 233 255 22
46.5818 -22.069 23.6874 255 151 0
45.6639 -21.3135 24.0939 0 156 255
46.7483 -18.7872 31.8177 0 0 235
46.1648 -18.7071 32.0231 0 112 255
48.315 -20.9866 30.5128 0 140 255
47.3734 -19.8742 30.9492 128 0 0
45.9713 -19.6206 31.3809 249 255 6
44.63 -19.4242 30.7944 255 215 0
43.6871 -18.6583 30.5026 0 180 255
48.6742 -20.9352 29.9336 0 88 255
48.2098 -19.946 29.5827 255 124 0
44.174 -19.9739 29.4523 211 255 44
43.3825 -18.8204 29.4817 239 255 16
49.297 -20.9263 27.2379 18 255 237
48.5076 -20.0213 27.8773 255 184 0
44.0035 -20.18 27.966 255 136 0
43.2597 -18.9065 28.148 255 236 0
49.2486 -20.9036 26.0298 193 255 62
48.2185 -19.8845 26.2411 255 188 0
44.0399 -19.8731 26.3818 255 132 0
43.3452 -18.8424 27.0148 0 151 255
49.0353 -21.0728 24.7375 79 255 176
47.7454 -20.0557 24.8248 255 211 0
46.6695 -19.5363 24.4769 0 172 255
44.7141 -20.0042 25.0241 115 255 140
48.8525 -21.5193 23.8579 0 246 255
47.7688 -21.0446 23.8438 162 255 93
46.4086 -20.3927 23.9519 136 255 119
45.4206 -20.215 24.2027 0 235 255
46.5003 -17.7033 32.0183 95 255 160
45.632 -17.6034 32.4021 102 255 153
44.6352 -17.0489 32.5793 0 125 255
47.059 -18.0069 31.1008 36 255 219
45.3015 -18.3947 32.0188 0 181 255
44.2659 -17.828 31.8512 255 231 0
43.2767 -17.5423 31.0063 255 242 0
47.3509 -17.9566 29.6197 255 17 0
46.9101 -17.0125 28.9232 26 255 229
42.7524 -17.5071 29.6796 82 255 173
47.5058 -18.4551 27.926 255 2 0
46.7644 -17.2013 27.7806 255 214 0
42.6759 -17.5701 28.1777 255 202 0
47.2984 -18.6904 26.4227 255 202 0
46.4245 -17.5482 26.4064 178 255 77
43.7626 -18.5949 25.9697 101 255 154
43.0258 -17.6108 26.6977 255 201 0
46.9855 -18.9743 25.3414 0 149 255
45.8935 -18.2931 25.105 255 79 0
44.4709 -18.2327 25.1663 255 188 0
43.4715 -17.2101 25.7943 33 255 222
45.7822 -19.2644 24.304 0 50 255
45.1643 -19.2137 24.3791 0 113 255
43.3232 -14.7141 33.6661 0 0 224
42.8355 -14.5512 33.6446 0 40 255
46.2436 -16.3916 32.1987 0 146 255
45.3312 -16.0477 32.6795 20 255 235
43.9684 -15.6107 33.0441 255 226 0
42.8567 -15.1079 32.9899 0 212 255
46.7093 -16.5077 31.3768 151 255 104
43.6037 -16.5078 32.3219 0 251 255
42.6599 -15.9661 31.7025 255 118 0
46.8236 -16.4098 30.2971 70 255 185
46.4909 -15.9232 29.3004 213 255 42
42.0186 -15.8804 29.9595 152 0 0
41.4756 -14.8868 29.4048 0 251 255
46.1275 -15.8415 27.9416 175 255 80
42.0299 -16.0578 28.306 234 255 21
41.5121 -14.9268 28.3012 0 247 255
45.7055 -16.0892 26.6148 115 255 140
42.2739 -15.6729 26.9502 255 179 0
41.6723 -14.9697 27.4707 0 122 255
45.1085 -16.3604 25.6766 151 255 104
44.128 -16.1029 25.529 199 255 56
43.128 -15.7409 25.9394 192 255 63
43.1891 -13.9153 33.7358 0 73 255
42.4283 -13.7462 33.7131 0 73 255
41.8734 -13.2007 33.5929 0 4 255
46.0407 -15.4021 32.198 0 106 255
45.216 -14.6115 32.5015 227 255 28
44.0084 -14.1347 33.1911 85 255 170
42.1164 -14.1814 33.0034 107 255 148
41.612 -13.1723 32.914 0 131 255
46.3227 -15.3528 31.5063 0 144 255
45.6833 -14.3357 31.43 119 255 136
41.8376 -14.5973 31.8289 197 255 58
41.3074 -13.3452 31.6465 255 153 0
46.4414 -15.3803 30.6505 0 83 255
45.8986 -14.5368 29.955 255 196 0
41.5892 -14.7712 30.6264 0 152 255
41.1966 -13.7229 29.98 255 56 0
45.434 -14.2293 28.1905 255 107 0
44.8198 -13.1851 27.6465 0 243 255
41.3988 -13.299 27.3612 0 52 255
41.2409 -13.6206 28.2058 198 255 57
45.104 -14.6797 26.7772 221 255 34
44.4799 -13.4466 26.7021 177 255 78
41.8876 -13.8226 26.7901 77 255 178
41.5129 -14.1764 27.4044 0 25 255
44.7172 -15.0299 25.987 0 201 255
43.9149 -14.1024 25.9339 235 255 20
42.8478 -13.9292 26.0403 244 255 11
43.0193 -13.0477 33.6268 0 168 255
42.3589 -12.8049 33.7063 0 53 255
41.8297 -12.6388 33.5764 0 0 232
44.6353 -13.325 32.3872 55 255 200
43.5316 -12.4537 32.8457 191 255 64
42.3312 -11.7928 33.1489 29 255 226
41.4952 -11.897 32.8444 213 255 42
44.952 -13.0596 31.422 57 255 198
44.0827 -11.7645 31.4888 255 103 0
40.9609 -11.801 31.5426 255 192 0
45.1311 -13.0262 30.059 255 129 0
44.3948 -11.6585 29.9343 255 143 0
40.8225 -11.8482 29.9568 255 9 0
45.0504 -13.0333 28.8165 41 255 214
44.4521 -11.9568 28.2682 255 120 0
41.2977 -12.3659 27.3402 0 67 255
40.9975 -11.8216 28.2183 255 74 0
44.0068 -11.8976 26.902 209 255 46
41.7105 -11.9271 26.7067 255 188 0
41.2319 -11.2307 27.3299 0 32 255
43.4181 -12.0649 26.1234 88 255 167
42.5958 -12.0402 26.082 53 255 202
42.9692 -10.8288 32.4051 143 255 112
42.0559 -10.0892 32.5369 113 255 142
41.1175 -10.0919 32.335 148 255 107
43.2453 -10.0709 31.403 255 120 0
42.4861 -9.41864 31.9734 0 188 255
40.6102 -10.0908 31.399 77 255 178
43.7015 -10.0667 29.8347 255 219 0
40.5244 -10.0041 30.036 255 0 0
43.7945 -10.1841 28.278 255 176 0
40.7858 -9.99225 28.5143 255 166 0
43.561 -10.2595 26.9781 54 255 201
41.7762 -10.1922 26.5662 0 210 255
41.1989 -9.95743 27.3651 139 255 116
43.1133 -10.3432 26.2009 0 244 255
42.4763 -10.3217 26.0857 34 255 221
41.4481 -8.50115 32.1144 19 255 236
40.6073 -8.39541 32.03 0 216 255
40.0933 -7.72596 31.9181 0 0 165
42.7551 -8.52854 30.8606 60 255 195
42.0811 -8.26574 31.5732 0 244 255
40.2508 -8.53144 31.3677 2 255 253
39.9569 -7.66232 31.4864 0 0 242
43.1276 -8.58214 29.6323 255 169 0
40.2946 -8.14708 30.2213 133 255 122
39.9541 -7.54219 30.9079 0 3 255
43.2373 -8.69137 28.2383 148 255 107
40.7667 -8.26821 28.6471 255 157 0
43.1475 -8.86729 27.0146 0 179 255
41.8543 -8.74208 26.6773 0 188 255
41.2539 -8.54491 27.4655 130 255 125
42.8895 -8.98748 26.2769 0 82 255
42.4239 -8.9452 26.177 0 74 255
41.1492 -7.50857 31.7317 0 0 237
40.55 -7.38852 31.7754 0 74 255
40.1116 -7.31917 31.8307 0 0 222
42.3348 -7.4991 30.4892 0 186 255
41.5461 -6.91227 30.8507 148 255 107
40.6497 -6.65668 30.96 0 155 255
40.0696 -7.08303 31.3787 0 0 205
42.5315 -7.37174 29.5001 58 255 197
41.8023 -6.34565 29.5397 60 255 195
40.5099 -6.63838 30.0402 133 255 122
40.0446 -7.00622 30.8392 0 23 255
42.6075 -7.49406 28.2354 79 255 176
41.7611 -6.45203 28.3493 143 255 112
41.0521 -6.63128 28.5989 196 255 59
42.6726 -7.92858 27.0593 0 157 255
42.0315 -7.63471 27.0915 0 213 255
41.4097 -7.49462 27.6082 0 66 255
42.7081 -8.21171 26.3923 0 0 192
42.4166 -8.12963 26.3732 0 0 246
41.2252 -5.79471 30.2429 0 0 203
40.8886 -5.74822 30.2939 0 5 255
41.2581 -5.15611 29.3423 0 117 255
40.9034 -5.21519 29.4473 0 209 255
41.2501 -4.77169 28.5347 0 96 255
41.0299 -4.82175 28.5984 0 92 255
41.1116 -4.05389 28.2018 0 0 151
41.0391 -4.0702 28.219 0 0 143
41.1118 -4.37435 28.877 0 0 191
40.992 -4.39557 28.9066 0 0 173
41.1069 -4.10774 28.4457 0 0 156
41.0224 -4.12545 28.4649 0 0 158
41.0728 -3.82404 28.1657 0 0 132
41.0291 -3.83331 28.1741 0 0 133
3 0 1 2
3 3 2 1
3 0 12 1
3 13 1 12
3 0 2 15
3 0 15 12
3 1 13 3
3 16 3 13
3 2 3 5
3 2 5 4
3 2 4 15
3 17 15 4
3 3 16 5
3 18 5 16
3 4 5 18
3 4 18 17
3 6 7 9
3 10 9 7
3 6 26 27
3 6 27 7
3 6 9 29
3 6 29 26
3 7 8 11
3 7 11 10
3 7 27 28
3 7 28 8
3 8 28 11
3 31 11 28
3 9 10 12
3 13 12 10
3 9 12 32
3 9 32 29
3 10 11 14
3 10 14 13
3 11 31 34
3 11 34 14
3 12 15 32
3 35 32 15
3 13 14 33
3 34 33 14
3 13 33 16
3 36 16 33
3 15 17 18
3 15 18 16
3 15 16 36
3 15 36 35
3 19 20 21
3 22 21 20
3 19 49 50
3 19 50 20
3 19 21 55
3 19 55 49
3 20 50 56
3 20 56 22
3 21 22 25
3 21 25 24
3 21 24 59
3 21 59 55
3 22 56 25
3 60 25 56
3 23 24 26
3 27 26 24
3 23 58 59
3 23 59 24
3 23 26 58
3 61 58 26
3 24 25 27
3 28 27 25
3 25 60 63
3 25 63 28
3 26 29 64
3 26 64 61
3 28 63 31
3 66 31 63
3 29 32 30
3 33 30 32
3 29 30 64
3 65 64 30
3 30 33 31
3 34 31 33
3 30 31 65
3 66 65 31
3 32 35 36
3 32 36 33
3 37 38 42
3 43 42 38
3 37 70 38
3 71 38 70
3 37 42 76
3 37 76 70
3 38 39 43
3 44 43 39
3 38 71 39
3 72 39 71
3 39 72 44
3 77 44 72
3 40 41 47
3 40 47 46
3 40 74 75
3 40 75 41
3 40 46 80
3 40 80 74
3 41 42 48
3 41 48 47
3 41 75 76
3 41 76 42
3 42 43 49
3 42 49 48
3 43 44 50
3 43 50 49
3 44 45 50
3 51 50 45
3 44 77 45
3 78 45 77
3 45 78 51
3 81 51 78
3 46 47 52
3 53 52 47
3 46 52 82
3 46 82 80
3 47 48 53
3 54 53 48
3 48 49 55
3 48 55 54
3 50 51 57
3 50 57 56
3 51 81 86
3 51 86 57
3 52 53 82
3 83 82 53
3 53 54 83
3 84 83 54
3 54 55 58
3 59 58 55
3 54 58 84
3 88 84 58
3 56 57 85
3 86 85 57
3 56 85 60
3 90 60 85
3 58 61 93
3 58 93 88
3 60 90 63
3 95 63 90
3 61 64 62
3 65 62 64
3 61 62 94
3 61 94 93
3 62 65 63
3 66 63 65
3 62 63 94
3 95 94 63
3 67 68 71
3 67 71 70
3 67 96 68
3 97 68 96
3 67 70 102
3 67 102 96
3 68 69 72
3 68 72 71
3 68 97 69
3 98 69 97
3 69 98 72
3 104 72 98
3 70 76 102
3 111 102 76
3 72 104 113
3 72 113 77
3 73 74 79
3 80 79 74
3 73 108 109
3 73 109 74
3 73 79 108
3 116 108 79
3 74 109 110
3 74 110 75
3 75 110 76
3 111 76 110
3 77 113 78
3 114 78 113
3 78 114 81
3 120 81 114
3 79 80 117
3 79 117 116
3 80 82 122
3 80 122 117
3 81 120 124
3 81 124 86
3 82 83 122
3 123 122 83
3 83 84 87
3 88 87 84
3 83 87 123
3 126 123 87
3 85 86 90
3 91 90 86
3 86 124 91
3 130 91 124
3 87 88 92
3 93 92 88
3 87 92 131
3 87 131 126
3 89 94 95
3 89 95 90
3 89 90 129
3 89 129 128
3 89 128 94
3 133 94 128
3 90 91 130
3 90 130 129
3 92 93 132
3 92 132 131
3 93 94 133
3 93 133 132
3 96 102 97
3 103 97 102
3 97 134 135
3 97 135 98
3 97 103 140
3 97 140 134
3 98 99 104
3 105 104 99
3 98 135 136
3 98 136 99
3 99 136 105
3 142 105 136
3 100 101 107
3 100 107 106
3 100 138 101
3 139 101 138
3 100 106 144
3 100 144 138
3 101 139 107
3 145 107 139
3 102 111 103
3 112 103 111
3 103 112 140
3 147 140 112
3 104 105 114
3 104 114 113
3 105 142 114
3 149 114 142
3 106 107 144
3 145 144 107
3 108 116 109
3 117 109 116
3 109 117 118
3 109 118 110
3 110 118 119
3 110 119 111
3 111 146 147
3 111 147 112
3 111 119 152
3 111 152 146
3 114 115 121
3 114 121 120
3 114 149 115
3 150 115 149
3 115 150 121
3 154 121 150
3 117 122 118
3 123 118 122
3 118 151 119
3 152 119 151
3 118 123 151
3 155 151 123
3 120 121 124
3 125 124 121
3 121 154 125
3 159 125 154
3 123 126 155
3 160 155 126
3 124 125 158
3 159 158 125
3 124 158 164
3 124 164 130
3 126 131 132
3 126 132 127
3 126 127 161
3 126 161 160
3 127 132 133
3 127 133 128
3 127 128 162
3 127 162 161
3 128 129 163
3 128 163 162
3 129 130 164
3 129 164 163
3 134 168 135
3 169 135 168
3 134 140 168
3 173 168 140
3 135 169 136
3 170 136 169
3 136 137 142
3 143 142 137
3 136 170 137
3 171 137 170
3 137 171 175
3 137 175 143
3 138 144 145
3 138 145 139
3 140 147 148
3 140 148 141
3 140 141 174
3 140 174 173
3 141 148 178
3 141 178 174
3 142 143 150
3 142 150 149
3 143 175 179
3 143 179 150
3 146 152 147
3 153 147 152
3 147 177 148
3 178 148 177
3 147 153 177
3 181 177 153
3 150 179 154
3 183 154 179
3 151 155 152
3 156 152 155
3 152 156 153
3 157 153 156
3 153 157 181
3 185 181 157
3 154 183 159
3 188 159 183
3 155 160 161
3 155 161 156
3 156 161 162
3 156 162 157
3 157 162 189
3 157 189 185
3 158 159 165
3 158 165 164
3 159 188 192
3 159 192 165
3 162 163 190
3 162 190 189
3 163 164 190
3 191 190 164
3 164 165 191
3 192 191 165
3 166 167 169
3 170 169 167
3 166 193 167
3 194 167 193
3 166 169 193
3 196 193 169
3 167 194 170
3 197 170 194
3 168 173 169
3 174 169 173
3 169 174 200
3 169 200 196
3 170 197 171
3 198 171 197
3 171 172 176
3 171 176 175
3 171 198 172
3 199 172 198
3 172 199 176
3 202 176 199
3 174 178 203
3 174 203 200
3 175 176 180
3 175 180 179
3 176 202 205
3 176 205 180
3 177 181 178
3 182 178 181
3 178 182 203
3 206 203 182
3 179 180 183
3 184 183 180
3 180 205 209
3 180 209 184
3 181 185 182
3 186 182 185
3 182 186 206
3 210 206 186
3 183 184 208
3 209 208 184
3 183 208 188
3 212 188 208
3 185 189 186
3 190 186 189
3 186 190 191
3 186 191 187
3 186 187 210
3 211 210 187
3 187 191 214
3 187 214 211
3 188 212 192
3 215 192 212
3 191 192 215
3 191 215 214
3 193 218 219
3 193 219 194
3 193 196 222
3 193 222 218
3 194 195 198
3 194 198 197
3 194 219 220
3 194 220 195
3 195 220 223
3 195 223 198
3 196 200 222
3 225 222 200
3 198 223 224
3 198 224 199
3 199 224 227
3 199 227 202
3 200 203 201
3 204 201 203
3 200 201 225
3 226 225 201
3 201 204 226
3 229 226 204
3 202 227 205
3 230 205 227
3 203 206 204
3 207 204 206
3 204 207 232
3 204 232 229
3 205 230 209
3 233 209 230
3 206 210 211
3 206 211 207
3 207 211 235
3 207 235 232
3 208 209 213
3 208 213 212
3 209 233 213
3 237 213 233
3 211 214 215
3 211 215 212
3 211 212 236
3 211 236 235
3 212 213 237
3 212 237 236
3 216 217 220
3 221 220 217
3 216 238 239
3 216 239 217
3 216 220 238
3 243 238 220
3 217 239 244
3 217 244 221
3 218 241 242
3 218 242 219
3 218 222 241
3 246 241 222
3 219 242 220
3 243 220 242
3 220 221 223
3 224 223 221
3 221 244 224
3 248 224 244
3 222 225 250
3 222 250 246
3 224 248 227
3 252 227 248
3 225 226 251
3 225 251 250
3 226 229 254
3 226 254 251
3 227 228 231
3 227 231 230
3 227 252 228
3 253 228 252
3 228 253 257
3 228 257 231
3 229 232 258
3 229 258 254
3 230 231 234
3 230 234 233
3 231 257 261
3 231 261 234
3 232 235 258
3 262 258 235
3 233 234 260
3 261 260 234
3 233 260 264
3 233 264 237
3 235 236 262
3 263 262 236
3 236 237 263
3 264 263 237
3 238 265 239
3 266 239 265
3 238 243 265
3 269 265 243
3 239 240 244
3 245 244 240
3 239 266 240
3 267 240 266
3 240 267 245
3 271 245 267
3 241 246 247
3 241 247 242
3 242 268 243
3 269 243 268
3 242 247 272
3 242 272 268
3 244 245 249
3 244 249 248
3 245 271 249
3 274 249 271
3 246 250 251
3 246 251 247
3 247 251 275
3 247 275 272
3 248 249 253
3 248 253 252
3 249 274 277
3 249 277 253
3 251 254 275
3 278 275 254
3 253 277 281
3 253 281 257
3 254 258 255
3 259 255 258
3 254 255 278
3 279 278 255
3 255 259 279
3 282 279 259
3 256 260 257
3 261 257 260
3 256 257 280
3 281 280 257
3 256 280 283
3 256 283 260
3 258 262 259
3 263 259 262
3 259 263 285
3 259 285 282
3 260 283 264
3 286 264 283
3 263 264 286
3 263 286 285
3 265 269 270
3 265 270 266
3 266 270 271
3 266 271 267
3 268 272 273
3 268 273 269
3 269 287 270
3 288 270 287
3 269 273 287
3 290 287 273
3 270 288 271
3 289 271 288
3 271 289 274
3 292 274 289
3 272 275 273
3 276 273 275
3 273 276 290
3 293 290 276
3 274 292 294
3 274 294 277
3 275 278 276
3 279 276 278
3 276 279 293
3 295 293 279
3 277 294 296
3 277 296 281
3 279 282 295
3 297 295 282
3 280 281 283
3 284 283 281
3 281 296 299
3 281 299 284
3 282 285 300
3 282 300 297
3 283 284 299
3 283 299 298
3 283 298 301
3 283 301 286
3 285 286 301
3 285 301 300
3 287 290 291
3 287 291 288
3 288 302 289
3 303 289 302
3 288 291 306
3 288 306 302
3 289 303 292
3 307 292 303
3 290 305 291
3 306 291 305
3 290 293 309
3 290 309 305
3 292 307 294
3 310 294 307
3 293 295 309
3 312 309 295
3 294 310 313
3 294 313 296
3 295 297 312
3 314 312 297
3 296 313 316
3 296 316 299
3 297 300 314
3 317 314 300
3 298 299 315
3 316 315 299
3 298 315 318
3 298 318 301
3 300 301 317
3 318 317 301
3 302 319 320
3 302 320 303
3 302 306 323
3 302 323 319
3 303 304 308
3 303 308 307
3 303 320 321
3 303 321 304
3 304 321 308
3 325 308 321
3 305 322 306
3 323 306 322
3 305 309 326
3 305 326 322
3 307 308 311
3 307 311 310
3 308 325 311
3 329 311 325
3 309 312 330
3 309 330 326
3 310 311 329
3 310 329 328
3 310 328 313
3 332 313 328
3 312 314 333
3 312 333 330
3 313 332 316
3 335 316 332
3 314 317 333
3 336 333 317
3 315 316 334
3 335 334 316
3 315 334 337
3 315 337 318
3 317 318 336
3 337 336 318
3 319 323 320
3 324 320 323
3 320 324 321
3 325 321 324
3 322 326 327
3 322 327 323
3 323 338 339
3 323 339 324
3 323 327 340
3 323 340 338
3 324 328 329
3 324 329 325
3 324 339 341
3 324 341 328
3 326 330 331
3 326 331 327
3 327 331 342
3 327 342 340
3 328 341 332
3 343 332 341
3 330 333 334
3 330 334 331
3 331 334 335
3 331 335 332
3 331 332 343
3 331 343 342
3 333 336 337
3 333 337 334
3 338 340 339
3 341 339 340
3 340 346 341
3 347 341 346
3 340 342 346
3 348 346 342
3 341 347 343
3 349 343 347
3 342 343 344
3 345 344 343
3 342 344 348
3 350 348 344
3 343 349 345
3 351 345 349
3 344 345 350
3 351 350 345
3 346 348 349
3 346 349 347
3 348 350 351
3 348 351 349
