ply
format ascii 1.0
element vertex 292
property float x
property float y
property float z
property uchar red
property uchar green
property uchar blue
element face 576
property list uchar int vertex_index
end_header
-50.5829 -33.4467 21.4724 0 0 182
-50.6649 -33.4552 21.4164 0 0 169
-50.6517 -33.4372 20.9567 0 0 145
-50.7096 -33.4426 20.9398 0 0 139
-48.999 -35.001 11.001 0 0 128
-49.001 -35.001 11.001 0 0 128
-48.999 -35.001 10.999 0 0 128
-49.001 -35.001 10.999 0 0 128
-49.2995 -31.9371 24.7117 0 0 225
-49.7663 -32.1159 24.6654 0 0 236
-50.1166 -32.0749 24.5728 0 0 192
-49.5436 -32.2639 23.9158 0 20 255
-49.9928 -32.57 23.5839 0 0 216
-50.2681 -32.4514 23.5282 0 40 255
-49.8198 -32.5972 23.061 0 0 185
-50.2794 -32.9228 22.1202 0 102 255
-50.5039 -32.954 21.9121 0 0 237
-50.4836 -32.9287 20.5577 0 0 239
-50.5991 -32.9436 20.5453 0 14 255
-50.3399 -32.5496 19.3728 0 0 187
-50.4812 -32.5753 19.471 0 0 183
-48.9845 -31.8961 15.9841 0 0 136
-49.1583 -31.9351 16.0802 0 0 146
-48.9916 -31.9352 15.8053 0 0 130
-49.0938 -31.9538 15.85 0 0 138
-48.999 -34.999 11.001 0 0 128
-49.001 -34.999 11.001 0 0 128
-48.999 -34.999 10.999 0 0 128
-49.001 -34.999 10.999 0 0 128
-47.7657 -30.0382 26.3103 0 0 180
-48.5242 -30.3702 26.3377 0 69 255
-49.4522 -30.6064 26.4586 0 94 255
-49.9863 -30.6681 26.3692 0 0 237
-47.6657 -30.2179 25.8388 0 48 255
-48.6268 -31.0143 25.383 0 224 255
-49.5202 -31.3601 25.548 0 49 255
-50.0671 -31.2968 25.3424 0 96 255
-49.1157 -31.4637 24.2195 0 83 255
-49.7243 -31.5122 23.8153 0 117 255
-50.1686 -31.7534 23.9451 0 106 255
-49.6714 -32.2322 23.1507 0 0 232
-50.1038 -32.3515 22.1919 0 72 255
-50.3833 -32.4242 22.0008 0 61 255
-50.2747 -32.3441 19.9418 0 53 255
-50.4525 -32.3777 19.9936 0 4 255
-48.5322 -31.4115 16.8244 0 0 133
-48.9969 -31.603 17.0969 0 0 175
-49.865 -32.0055 18.2296 0 17 255
-50.2492 -32.0992 18.6375 0 0 212
-48.5082 -31.4385 16.6011 0 0 149
-48.9068 -31.6603 16.4391 0 0 210
-49.4193 -31.8001 16.7991 0 0 216
-49.9297 -31.8172 17.5558 0 0 153
-48.9754 -31.7701 16.0092 0 0 137
-49.1617 -31.808 16.1048 0 0 142
-50.0906 -29.5296 27.5947 0 0 159
-50.2968 -29.5968 27.5579 0 0 164
-47.2992 -29.2109 26.432 0 184 255
-48.308 -29.4738 26.7622 0 121 255
-49.5581 -29.7599 27.0956 0 34 255
-50.1128 -29.9582 26.9444 0 0 235
-45.9584 -28.475 25.2312 0 15 255
-46.8294 -29.2643 25.587 0 162 255
-47.7876 -30.1448 25.2828 0 61 255
-49.6661 -29.9117 25.6999 0 0 228
-50.0714 -30.311 25.9434 0 31 255
-45.767 -28.3528 24.4 0 38 255
-46.5142 -28.8341 24.5082 0 214 255
-48.0658 -29.9083 24.7909 49 255 206
-49.3168 -30.2899 24.9213 0 164 255
-49.9684 -30.7945 24.954 0 27 255
-54.9979 -29.002 22.1126 0 0 128
-55.0021 -29.002 22.1126 0 0 128
-45.5462 -28.1686 23.6975 0 0 150
-45.8133 -28.3076 23.721 0 0 182
-54.9976 -29.0024 22 0 0 128
-55.0024 -29.0024 22 0 0 128
-50.1937 -31.9715 18.8778 0 0 174
-50.3557 -32.001 18.9833 0 0 161
-54.9979 -29.002 21.8874 0 0 128
-55.002 -29.002 21.8874 0 0 128
-48.5223 -31.3551 16.8215 0 0 135
-48.9674 -31.4842 17.0419 0 0 172
-49.7462 -31.7199 17.8033 0 0 197
-50.1423 -31.8102 18.1765 0 0 171
-48.5015 -31.3725 16.6376 0 0 140
-48.8951 -31.5053 16.5761 0 0 179
-49.4409 -31.6213 16.9055 0 0 185
-49.9086 -31.6783 17.4707 0 0 157
-48.9777 -31.6162 16.1678 0 0 150
-49.185 -31.6528 16.2683 0 0 143
-47.1354 -25.4874 33.3741 0 0 203
-47.6333 -25.5328 33.3643 0 0 203
-48.0157 -25.4749 33.2341 0 0 190
-47.1409 -25.4404 33.0076 0 0 162
-47.6277 -25.4951 32.9408 0 0 209
-48.0031 -25.4509 32.9518 0 0 176
-50.0618 -29.3356 27.5899 0 0 140
-50.2806 -29.4248 27.6051 0 0 151
-45.651 -26.987 26.7498 0 70 255
-46.5382 -27.7933 26.7298 4 255 251
-47.8457 -28.3951 26.7382 35 255 220
-49.4465 -29.2111 27.0559 0 94 255
-50.0705 -29.5116 27.1489 0 0 200
-45.6347 -27.6065 25.739 0 193 255
-46.2303 -28.2779 26.0555 0 31 255
-47.9592 -28.3663 26.0343 0 153 255
-49.2581 -29.2424 26.1692 0 214 255
-49.9375 -29.6376 26.4959 0 0 214
-45.4555 -27.7414 24.4328 0 51 255
-46.412 -28.1521 24.3091 0 58 255
-47.6411 -28.6652 25.1112 10 255 245
-48.8144 -29.3509 25.3862 0 53 255
-54.9979 -28.9979 22.1126 0 0 128
-55.0021 -28.9979 22.1126 0 0 128
-45.3547 -27.7344 23.3482 0 0 237
-45.6232 -27.8292 23.3303 0 0 211
-54.9976 -28.9976 22 0 0 128
-55.0024 -28.9976 22 0 0 128
-45.2222 -27.5336 22.6901 0 0 134
-45.316 -27.5576 22.6847 0 0 152
-54.998 -28.998 21.8874 0 0 128
-55.002 -28.9979 21.8874 0 0 128
-45.3903 -23.8484 34.6101 0 34 255
-46.2575 -24.1354 34.6108 0 133 255
-47.1224 -24.2637 34.4898 0 34 255
-45.4111 -24.0924 33.7989 66 255 189
-46.5798 -24.821 33.7071 0 124 255
-47.5256 -24.8508 33.8542 0 67 255
-48.1148 -24.8062 33.3562 0 64 255
-45.5226 -24.1606 32.8457 0 126 255
-46.6083 -24.6894 32.7056 19 255 236
-47.5085 -24.7485 32.4519 0 83 255
-48.0742 -24.7545 32.6859 0 0 240
-44.2716 -24.2072 29.1952 0 0 173
-44.8393 -24.5953 28.972 0 76 255
-45.5828 -24.7557 28.7529 0 157 255
-44.3891 -24.5048 28.6358 0 0 230
-45.1138 -25.4566 27.7038 33 255 222
-45.9843 -25.9522 27.4162 196 255 59
-46.9105 -27.2062 26.7716 0 27 255
-45.4073 -26.38 26.2645 3 255 252
-45.9662 -26.4221 26.2874 0 163 255
-46.9287 -27.3744 26.0687 0 103 255
-45.4674 -27.201 24.5723 0 19 255
-46.0053 -27.3518 24.6565 0 196 255
-46.8614 -27.7328 25.2233 0 126 255
-45.3142 -27.4186 23.3192 0 0 165
-45.5042 -27.4638 23.332 0 0 253
-45.2077 -27.4105 22.6783 0 0 146
-45.2852 -27.425 22.6794 0 0 133
-44.7084 -22.3709 35.842 0 0 185
-45.2838 -22.4251 35.8704 0 0 254
-43.8661 -22.2824 35.1001 0 0 254
-44.6776 -22.8451 35.156 0 243 255
-45.9825 -23.0167 35.2901 48 255 207
-47.4637 -23.3573 34.7346 2 255 253
-48.3559 -22.9982 34.3368 0 30 255
-43.7643 -22.2938 34.5109 0 51 255
-44.4007 -22.9295 33.8452 86 255 169
-47.9041 -24.0303 34.12 0 0 251
-48.4383 -23.5223 33.5373 0 240 255
-43.9565 -22.8301 31.1324 0 93 255
-44.7475 -23.2505 31.9686 255 240 0
-46.3319 -23.5208 31.4722 190 255 65
-47.5152 -23.4474 31.4844 27 255 228
-48.281 -23.411 31.9651 206 255 49
-44.0555 -23.3421 29.9695 0 173 255
-44.8483 -23.7599 30.1895 111 255 144
-46.1509 -23.6206 29.8313 255 244 0
-47.5163 -23.0698 29.9998 139 255 116
-48.3752 -22.8829 30.0696 14 255 241
-44.2502 -23.7167 29.0218 0 141 255
-45.0277 -24.2 28.1839 59 255 196
-46.1193 -24.0803 28.1992 208 255 47
-47.6805 -23.0023 28.468 0 240 255
-48.8326 -22.6905 28.4688 0 31 255
-49.4789 -22.625 27.9022 0 0 138
-45.2932 -25.2468 27.1737 0 0 188
-45.7295 -25.2203 27.1825 0 99 255
-48.3225 -22.5898 27.9431 0 0 173
-49.039 -22.5509 27.8722 0 0 209
-49.5302 -22.5857 27.6901 0 0 153
-43.6485 -21.2089 35.8842 0 0 175
-44.2931 -21.5899 36.0212 0 76 255
-45.196 -21.6692 35.9798 0 84 255
-43.4449 -21.4128 35.3426 0 162 255
-44.0666 -22.0261 35.6434 0 0 217
-46.2126 -21.8934 35.4789 0 224 255
-47.6098 -22.0855 34.9399 0 219 255
-48.773 -21.9629 34.4509 0 95 255
-49.4248 -21.5347 34.4687 0 0 149
-43.3384 -21.3873 34.3941 0 132 255
-43.8091 -21.6853 33.557 0 200 255
-48.9429 -22.0131 33.6502 9 255 246
-49.4699 -21.5249 34.1974 0 0 174
-43.46 -21.7457 31.4956 0 206 255
-43.9033 -21.864 32.2734 25 255 230
-46.7015 -22.2866 31.3665 0 204 255
-47.6709 -22.2094 31.5575 27 255 228
-48.4812 -22.164 32.0196 146 255 109
-43.6171 -22.0008 30.3796 0 191 255
-44.1088 -21.7741 29.9385 0 131 255
-46.6687 -22.3945 30.4164 0 171 255
-47.6071 -22.3038 30.2795 0 194 255
-48.4318 -22.2737 29.9846 0 110 255
-44.0982 -22.7353 29.4056 0 5 255
-44.8521 -22.5333 28.9877 30 255 225
-46.3696 -22.5428 28.3384 0 255 255
-47.3672 -22.554 28.1063 0 14 255
-48.955 -22.2951 28.453 0 36 255
-49.5044 -22.4828 27.8952 0 0 152
-47.1807 -22.0928 27.9827 0 0 184
-47.9831 -22.2153 27.8607 0 2 255
-48.9189 -22.2649 27.8561 0 0 187
-49.5047 -22.4656 27.6827 0 0 151
-43.4051 -20.5347 35.8426 0 0 246
-44.0241 -20.508 36.0121 0 43 255
-44.9675 -20.7091 35.9089 0 61 255
-41.6336 -19.0306 34.8522 0 20 255
-42.6984 -19.9364 35.206 0 240 255
-43.4039 -19.9417 35.6656 0 0 240
-45.8953 -20.7722 35.1644 89 255 166
-47.6106 -21.1331 34.6454 0 205 255
-48.8085 -21.2764 34.4138 0 24 255
-49.4235 -21.2634 34.4615 0 0 159
-41.758 -19.1962 33.9863 0 195 255
-42.6938 -20.0113 33.9753 166 255 89
-43.9032 -20.454 33.6237 238 255 17
-45.6879 -20.4929 33.8802 147 255 108
-47.7245 -20.6854 33.7072 122 255 133
-48.8192 -21.0198 33.7664 0 146 255
-49.4342 -21.1888 34.2203 0 0 196
-42.0259 -19.5334 32.728 0 0 232
-42.8227 -20.2952 32.3262 102 255 153
-43.9434 -20.728 32.1142 160 255 95
-46.0593 -21.1182 32.0461 128 0 0
-47.7293 -20.996 32.6588 0 209 255
-48.5219 -21.0568 32.9059 0 11 255
-42.2195 -19.7541 31.959 0 0 212
-42.9757 -20.501 31.3431 0 99 255
-44.1853 -20.9712 30.6734 255 251 0
-46.1661 -21.5056 30.2647 86 255 169
-47.4471 -21.7486 29.5624 0 78 255
-48.2005 -21.873 29.2853 0 0 223
-45.1035 -21.6483 29.4196 0 78 255
-46.4723 -21.7293 28.8731 33 255 222
-47.5981 -21.6737 28.6467 0 57 255
-48.4148 -21.8513 28.5021 0 10 255
-47.1796 -21.7612 28.1614 0 0 202
-47.8647 -21.7909 28.0394 0 0 217
-48.5019 -21.889 28.002 0 0 209
-39.7979 -17.4347 35.7757 0 0 131
-40.0211 -17.5882 35.6886 0 0 143
-44.0949 -19.9715 35.9134 0 0 200
-44.6423 -20.1157 35.8836 0 0 232
-40.0671 -17.626 35.4823 0 0 150
-40.7599 -18.1415 35.2118 0 26 255
-41.9802 -18.891 35.1009 0 87 255
-43.5554 -19.5901 35.4092 0 141 255
-44.7375 -19.988 35.3849 0 0 255
-40.2971 -17.8002 35.0855 0 0 169
-41.1079 -18.4612 34.4056 0 136 255
-42.0839 -19.0539 34.2404 0 227 255
-43.549 -19.6505 34.5262 0 117 255
-44.6917 -19.9182 34.6628 0 181 255
-48.3515 -20.3561 33.4162 0 0 186
-48.7142 -20.455 33.4517 0 0 194
-41.7776 -19.1787 32.8862 0 15 255
-42.3816 -19.5928 32.5717 0 187 255
-43.1003 -20.0563 31.9447 0 25 255
-48.3249 -20.442 33.0665 0 0 169
-48.6253 -20.4838 33.1392 0 0 150
-42.0551 -19.4894 32.0974 0 0 160
-42.5528 -19.8384 31.754 0 0 238
-43.1983 -20.1726 31.3665 0 0 174
-39.7393 -17.3639 35.8094 0 0 131
-39.9055 -17.4623 35.7434 0 0 134
-39.9433 -17.4871 35.5614 0 0 141
-40.3519 -17.7343 35.396 0 0 162
-41.0867 -18.1725 35.1544 0 0 174
-40.1374 -17.6198 35.2576 0 0 140
-40.5849 -17.9074 34.9965 0 0 171
-41.1691 -18.254 34.8189 0 0 218
-36.999 -13.001 37.001 0 0 128
-37.001 -13.001 37.001 0 0 128
-36.999 -13.001 36.999 0 0 128
-37.001 -13.001 36.999 0 0 128
-36.999 -12.999 37.001 0 0 128
-37.001 -12.999 37.001 0 0 128
-36.999 -12.999 36.999 0 0 128
-37.001 -12.999 36.999 0 0 128
3 0 1 2
3 3 2 1
3 0 15 16
3 0 16 1
3 0 2 17
3 0 17 15
3 1 16 18
3 1 18 3
3 2 3 18
3 2 18 17
3 4 5 7
3 4 7 6
3 4 25 5
3 26 5 25
3 4 6 27
3 4 27 25
3 5 26 28
3 5 28 7
3 6 7 27
3 28 27 7
3 8 9 11
3 12 11 9
3 8 34 35
3 8 35 9
3 8 11 34
3 37 34 11
3 9 10 12
3 13 12 10
3 9 35 36
3 9 36 10
3 10 36 13
3 39 13 36
3 11 12 15
3 11 15 14
3 11 14 37
3 40 37 14
3 12 13 15
3 16 15 13
3 13 39 42
3 13 42 16
3 14 15 40
3 41 40 15
3 15 17 43
3 15 43 41
3 16 42 18
3 44 18 42
3 17 18 19
3 20 19 18
3 17 19 43
3 47 43 19
3 18 44 20
3 48 20 44
3 19 20 47
3 48 47 20
3 21 22 24
3 21 24 23
3 21 50 22
3 51 22 50
3 21 23 53
3 21 53 50
3 22 51 24
3 54 24 51
3 23 24 53
3 54 53 24
3 25 27 28
3 25 28 26
3 29 30 33
3 34 33 30
3 29 57 30
3 58 30 57
3 29 33 57
3 62 57 33
3 30 31 34
3 35 34 31
3 30 58 31
3 59 31 58
3 31 32 35
3 36 35 32
3 31 59 32
3 60 32 59
3 32 60 36
3 65 36 60
3 33 34 63
3 33 63 62
3 34 37 68
3 34 68 63
3 36 65 70
3 36 70 39
3 37 40 38
3 41 38 40
3 37 38 68
3 69 68 38
3 38 41 39
3 42 39 41
3 38 39 69
3 70 69 39
3 41 43 44
3 41 44 42
3 43 77 78
3 43 78 44
3 43 47 77
3 83 77 47
3 44 78 48
3 84 48 78
3 45 46 49
3 50 49 46
3 45 81 46
3 82 46 81
3 45 49 81
3 85 81 49
3 46 47 50
3 51 50 47
3 46 82 47
3 83 47 82
3 47 48 51
3 52 51 48
3 48 84 88
3 48 88 52
3 49 50 86
3 49 86 85
3 50 53 89
3 50 89 86
3 51 52 88
3 51 88 87
3 51 87 90
3 51 90 54
3 53 54 89
3 90 89 54
3 55 56 59
3 60 59 56
3 55 97 98
3 55 98 56
3 55 59 102
3 55 102 97
3 56 98 103
3 56 103 60
3 57 100 101
3 57 101 58
3 57 62 105
3 57 105 100
3 58 101 102
3 58 102 59
3 60 103 65
3 108 65 103
3 61 62 67
3 61 67 66
3 61 104 62
3 105 62 104
3 61 66 104
3 109 104 66
3 62 63 67
3 68 67 63
3 64 69 70
3 64 70 65
3 64 65 107
3 108 107 65
3 64 107 69
3 112 69 107
3 66 67 74
3 66 74 73
3 66 73 115
3 66 115 109
3 67 68 111
3 67 111 110
3 67 110 116
3 67 116 74
3 68 69 112
3 68 112 111
3 71 72 76
3 71 76 75
3 71 113 72
3 114 72 113
3 71 75 113
3 117 113 75
3 72 114 76
3 118 76 114
3 73 74 115
3 116 115 74
3 75 76 79
3 80 79 76
3 75 79 121
3 75 121 117
3 76 118 80
3 122 80 118
3 77 83 84
3 77 84 78
3 79 80 122
3 79 122 121
3 81 85 82
3 86 82 85
3 82 86 83
3 87 83 86
3 83 87 84
3 88 84 87
3 86 89 87
3 90 87 89
3 91 92 95
3 91 95 94
3 91 127 92
3 128 92 127
3 91 94 131
3 91 131 127
3 92 93 96
3 92 96 95
3 92 128 93
3 129 93 128
3 93 129 133
3 93 133 96
3 94 95 131
3 132 131 95
3 95 96 132
3 133 132 96
3 97 102 98
3 103 98 102
3 99 100 104
3 105 104 100
3 99 138 100
3 139 100 138
3 99 104 141
3 99 141 138
3 100 139 101
3 140 101 139
3 101 106 107
3 101 107 102
3 101 140 106
3 143 106 140
3 102 107 108
3 102 108 103
3 104 109 141
3 144 141 109
3 106 111 107
3 112 107 111
3 106 143 146
3 106 146 111
3 109 115 144
3 147 144 115
3 110 111 145
3 146 145 111
3 110 145 148
3 110 148 116
3 113 117 118
3 113 118 114
3 115 116 120
3 115 120 119
3 115 119 149
3 115 149 147
3 116 148 120
3 150 120 148
3 117 121 122
3 117 122 118
3 119 120 149
3 150 149 120
3 123 124 126
3 127 126 124
3 123 154 155
3 123 155 124
3 123 126 154
3 159 154 126
3 124 125 127
3 128 127 125
3 124 155 156
3 124 156 125
3 125 156 160
3 125 160 128
3 126 127 131
3 126 131 130
3 126 130 163
3 126 163 159
3 128 160 161
3 128 161 129
3 129 161 166
3 129 166 133
3 130 131 164
3 130 164 163
3 131 132 165
3 131 165 164
3 132 133 166
3 132 166 165
3 134 135 137
3 138 137 135
3 134 167 135
3 168 135 167
3 134 137 167
3 172 167 137
3 135 136 138
3 139 138 136
3 135 168 136
3 169 136 168
3 136 169 139
3 174 139 169
3 137 138 172
3 173 172 138
3 138 141 173
3 178 173 141
3 139 142 143
3 139 143 140
3 139 174 179
3 139 179 142
3 141 144 145
3 141 145 142
3 141 142 179
3 141 179 178
3 142 145 146
3 142 146 143
3 144 147 148
3 144 148 145
3 147 149 148
3 150 148 149
3 151 152 154
3 155 154 152
3 151 184 152
3 185 152 184
3 151 154 184
3 187 184 154
3 152 185 155
3 188 155 185
3 153 154 158
3 159 158 154
3 153 186 187
3 153 187 154
3 153 158 192
3 153 192 186
3 155 188 189
3 155 189 156
3 156 157 161
3 156 161 160
3 156 189 190
3 156 190 157
3 157 190 194
3 157 194 161
3 158 159 193
3 158 193 192
3 159 163 197
3 159 197 193
3 161 194 166
3 200 166 194
3 162 163 168
3 162 168 167
3 162 196 163
3 197 163 196
3 162 167 196
3 201 196 167
3 163 164 168
3 169 168 164
3 164 165 198
3 199 198 165
3 164 198 169
3 203 169 198
3 165 166 170
3 171 170 166
3 165 170 199
3 204 199 170
3 166 200 171
3 205 171 200
3 167 172 201
3 206 201 172
3 169 170 174
3 175 174 170
3 169 203 204
3 169 204 170
3 170 171 175
3 176 175 171
3 171 205 210
3 171 210 176
3 172 173 207
3 172 207 206
3 173 178 179
3 173 179 174
3 173 174 208
3 173 208 207
3 174 175 209
3 174 209 208
3 175 176 181
3 175 181 180
3 175 180 213
3 175 213 209
3 176 177 182
3 176 182 181
3 176 210 211
3 176 211 177
3 177 211 182
3 215 182 211
3 180 181 213
3 214 213 181
3 181 182 214
3 215 214 182
3 183 184 186
3 187 186 184
3 183 216 184
3 217 184 216
3 183 186 216
3 220 216 186
3 184 217 185
3 218 185 217
3 185 218 188
3 222 188 218
3 186 192 227
3 186 227 220
3 188 222 223
3 188 223 189
3 189 223 224
3 189 224 190
3 190 191 195
3 190 195 194
3 190 224 225
3 190 225 191
3 191 225 232
3 191 232 195
3 192 193 228
3 192 228 227
3 193 197 235
3 193 235 228
3 194 195 232
3 194 232 231
3 194 231 200
3 238 200 231
3 196 234 197
3 235 197 234
3 196 201 234
3 240 234 201
3 198 199 236
3 237 236 199
3 198 236 203
3 242 203 236
3 199 204 200
3 205 200 204
3 199 200 237
3 238 237 200
3 201 206 202
3 207 202 206
3 201 202 240
3 241 240 202
3 202 207 245
3 202 245 241
3 203 242 243
3 203 243 204
3 204 243 244
3 204 244 205
3 205 244 248
3 205 248 210
3 207 208 246
3 207 246 245
3 208 209 213
3 208 213 212
3 208 212 249
3 208 249 246
3 210 214 215
3 210 215 211
3 210 248 251
3 210 251 214
3 212 213 250
3 212 250 249
3 213 214 251
3 213 251 250
3 216 220 217
3 221 217 220
3 217 254 218
3 255 218 254
3 217 221 254
3 259 254 221
3 218 255 222
3 260 222 255
3 219 220 226
3 227 226 220
3 219 257 220
3 258 220 257
3 219 226 262
3 219 262 257
3 220 258 221
3 259 221 258
3 222 229 230
3 222 230 223
3 222 260 265
3 222 265 229
3 223 230 231
3 223 231 224
3 224 231 232
3 224 232 225
3 226 227 234
3 226 234 233
3 226 233 268
3 226 268 262
3 227 228 264
3 227 264 263
3 227 263 269
3 227 269 234
3 228 235 236
3 228 236 229
3 228 229 265
3 228 265 264
3 229 236 230
3 237 230 236
3 230 266 267
3 230 267 231
3 230 237 266
3 271 266 237
3 231 267 238
3 272 238 267
3 233 234 239
3 240 239 234
3 233 239 268
3 273 268 239
3 234 269 235
3 270 235 269
3 235 241 236
3 242 236 241
3 235 270 241
3 275 241 270
3 237 238 271
3 272 271 238
3 239 240 273
3 274 273 240
3 240 241 274
3 275 274 241
3 241 245 246
3 241 246 242
3 242 246 247
3 242 247 243
3 243 247 248
3 243 248 244
3 246 249 250
3 246 250 247
3 247 250 251
3 247 251 248
3 252 253 256
3 257 256 253
3 252 276 277
3 252 277 253
3 252 256 276
3 278 276 256
3 253 277 279
3 253 279 257
3 254 259 255
3 260 255 259
3 256 257 261
3 262 261 257
3 256 261 278
3 281 278 261
3 257 279 280
3 257 280 258
3 258 263 259
3 264 259 263
3 258 280 283
3 258 283 263
3 259 264 265
3 259 265 260
3 261 262 282
3 261 282 281
3 262 268 269
3 262 269 263
3 262 263 283
3 262 283 282
3 266 271 272
3 266 272 267
3 268 273 274
3 268 274 269
3 269 274 270
3 275 270 274
3 276 278 277
3 279 277 278
3 278 281 279
3 282 279 281
3 279 282 280
3 283 280 282
3 284 285 287
3 284 287 286
3 284 288 289
3 284 289 285
3 284 286 290
3 284 290 288
3 285 289 291
3 285 291 287
3 286 287 291
3 286 291 290
3 288 290 291
3 288 291 289
