ply
format ascii 1.0
element vertex 614
property float x
property float y
property float z
property uchar red
property uchar green
property uchar blue
element face 1224
property list uchar int vertex_index
end_header
39.1554 -48.1436 -27.4894 0 70 255
38.5775 -48.1999 -27.4728 0 0 231
39.2479 -48.2548 -28.5083 0 112 255
38.452 -48.3227 -28.4771 0 82 255
39.2246 -48.2542 -29.8919 6 255 249
38.333 -48.3304 -29.8708 0 172 255
39.0862 -48.1029 -31.2604 0 110 255
38.1613 -48.206 -31.3808 0 216 255
37.6892 -47.9985 -31.9747 0 0 219
38.944 -47.8285 -32.2095 0 7 255
38.2299 -47.925 -32.5363 0 62 255
37.7682 -47.9018 -32.7122 0 0 190
39.0583 -46.5024 -23.4606 0 14 255
38.0685 -46.5638 -23.4084 35 255 220
37.1321 -46.4217 -23.443 0 117 255
40.5702 -46.4964 -25.065 0 238 255
39.5128 -46.8584 -24.6632 246 255 9
38.0984 -47.0723 -24.7389 34 255 221
36.8009 -46.7026 -24.5719 29 255 226
36.0655 -46.2998 -24.9576 0 115 255
40.8373 -46.7467 -26.4644 194 255 61
39.566 -47.5547 -26.6471 140 255 115
38.1243 -47.7116 -26.6075 255 127 0
36.8362 -47.1876 -26.2796 0 236 255
36.0413 -46.5321 -26.1937 0 212 255
41.0752 -46.956 -28.1342 187 255 68
40.0547 -47.7553 -28.2622 183 255 72
37.6747 -47.9702 -28.1366 0 239 255
36.757 -47.3785 -27.8765 47 255 208
36.0911 -46.7709 -27.5786 0 116 255
41.1141 -46.9873 -29.7707 100 255 155
40.1397 -47.7657 -29.8299 0 220 255
37.5582 -47.9957 -29.6345 0 186 255
36.8289 -47.195 -29.4978 86 255 169
36.2137 -46.8326 -28.6118 0 0 254
40.9402 -46.8127 -31.2069 18 255 237
39.9615 -47.5546 -31.278 0 189 255
37.624 -48.0271 -30.9203 0 0 209
37.3412 -47.5072 -31.553 144 255 111
40.6262 -46.4762 -32.1972 0 110 255
39.5044 -47.0293 -32.5173 237 255 18
38.1756 -47.272 -33.4242 0 125 255
37.5792 -47.424 -33.2825 0 69 255
37.5466 -47.1672 -34.7466 0 0 161
37.3685 -47.2199 -34.7135 0 0 221
37.3036 -47.1241 -35.393 0 0 134
37.2382 -47.1437 -35.3831 0 0 138
40.4623 -44.5241 -21.3692 0 240 255
39.442 -44.8509 -21.2145 87 255 168
38.0943 -44.9056 -21.1151 115 255 140
36.8219 -44.6918 -21.2652 53 255 202
36.0458 -44.3685 -21.5625 0 69 255
40.8121 -44.9776 -22.5486 69 255 186
39.5377 -45.7516 -22.5866 208 255 47
38.0889 -45.8184 -22.3427 24 255 231
36.7628 -45.6454 -22.6095 76 255 179
35.8942 -44.801 -22.631 157 255 98
41.1727 -45.591 -24.2567 255 49 0
40.1281 -46.1643 -23.7579 0 110 255
36.3233 -46.0082 -23.7382 0 168 255
35.7788 -45.3523 -24.2372 59 255 196
42.6315 -44.7687 -26.8156 0 159 255
41.8913 -45.5968 -26.1739 255 230 0
35.8688 -44.9101 -26.7336 0 6 255
35.7135 -45.5091 -26.0208 154 255 101
42.7762 -44.8312 -28.2048 141 255 114
42.0218 -45.924 -28.0713 161 255 94
36.1983 -45.2417 -27.9669 118 255 137
35.8994 -46.0159 -27.5722 0 51 255
42.7796 -44.845 -29.8061 131 255 124
42.0112 -45.9775 -29.7699 59 255 196
37.4764 -45.1158 -30.5428 0 240 255
36.7481 -45.8651 -29.6243 255 231 0
36.147 -46.2987 -28.6426 0 111 255
42.5636 -44.742 -31.2596 0 236 255
41.777 -45.7892 -31.273 198 255 57
39.0889 -44.9312 -32.4971 0 124 255
38.0916 -45.4287 -31.9671 255 255 0
37.3601 -46.4679 -31.7153 0 246 255
42.1971 -44.5719 -32.2729 4 255 251
41.2472 -45.259 -32.5422 198 255 57
39.7179 -45.5114 -32.9723 164 255 91
38.182 -46.4478 -33.4196 70 255 185
37.5571 -46.8858 -33.4129 0 216 255
37.547 -46.9422 -34.7483 0 0 252
37.3646 -47.0447 -34.7397 0 0 158
37.3037 -47.0466 -35.3937 0 0 134
37.2375 -47.0763 -35.3889 0 0 128
40.6446 -42.7427 -19.2664 4 255 251
39.5694 -42.9386 -18.9513 94 255 161
38.2362 -42.9485 -18.8526 81 255 174
37.1393 -42.7546 -18.9825 0 210 255
40.9213 -43.5028 -20.5701 69 255 186
39.55 -43.8747 -20.1044 165 255 90
38.1307 -43.887 -19.966 128 255 127
36.74 -43.4783 -20.0739 193 255 62
35.832 -43.3399 -20.9968 80 255 175
42.4791 -42.9995 -22.8377 0 48 255
41.7912 -43.7509 -22.2394 255 46 0
35.5317 -43.4972 -22.3462 0 228 255
42.7061 -43.2856 -24.2398 255 186 0
42.1113 -44.3582 -23.9959 0 240 255
35.8843 -43.1705 -24.9346 0 217 255
35.5708 -43.7484 -24.03 255 207 0
42.9357 -43.6876 -26.1172 255 100 0
42.4087 -44.6037 -25.399 34 255 221
36.0779 -43.8406 -26.2041 241 255 14
35.6495 -44.4163 -25.4057 0 81 255
43.2881 -43.5221 -28.107 77 255 178
37.5062 -43.403 -28.6042 0 180 255
36.7169 -44.0222 -27.8598 132 255 123
43.3567 -43.5367 -29.8335 255 226 0
37.7861 -43.9934 -29.9041 71 255 184
37.0079 -44.6424 -29.1547 0 224 255
43.0857 -43.4677 -31.3808 222 255 33
39.5083 -43.7611 -32.312 135 255 120
38.5624 -44.059 -31.337 91 255 164
42.4799 -43.4981 -32.6935 0 181 255
41.6071 -43.5883 -33.4881 11 255 244
40.5228 -43.6205 -33.3894 244 255 11
41.4909 -42.8153 -34.2825 0 0 177
41.072 -42.8203 -34.2459 0 0 244
39.3258 -40.1718 -15.4467 0 0 233
38.5457 -40.169 -15.4083 0 124 255
40.7932 -40.7596 -17.1021 0 116 255
39.6961 -40.7994 -16.4489 221 255 34
38.189 -40.8031 -16.3701 241 255 14
37.0348 -40.7607 -16.8724 0 204 255
42.0489 -41.015 -19.0698 0 240 255
41.1978 -41.5774 -18.4837 255 255 0
39.7027 -41.8761 -17.8452 222 255 33
38.1765 -41.8855 -17.7583 90 255 165
36.6467 -41.5901 -18.1949 255 208 0
35.7169 -41.055 -18.8435 0 213 255
42.3427 -41.3594 -20.3499 0 160 255
41.7708 -42.32 -20.1663 243 255 12
36.196 -42.3383 -19.4438 0 116 255
35.5336 -41.7362 -20.1961 245 255 10
42.5878 -41.8728 -22.137 255 146 0
42.1717 -42.682 -21.4701 0 44 255
35.4035 -41.8571 -21.8709 255 128 0
42.8806 -41.983 -24.1125 255 241 0
37.2728 -41.1753 -25.1692 25 255 230
36.3461 -41.8419 -24.608 217 255 38
35.6529 -42.0745 -23.3321 120 255 135
43.164 -42.0829 -26.1097 255 173 0
37.6687 -41.6421 -26.3294 115 255 140
36.7459 -42.5631 -26.1109 99 255 156
44.1199 -41.1302 -29.1161 0 18 255
43.6493 -41.8791 -28.2679 255 122 0
39.2951 -41.548 -28.7147 0 85 255
38.17 -42.2155 -28.0187 255 85 0
37.1532 -42.9275 -27.3284 0 162 255
44.2059 -41.1791 -29.957 0 76 255
43.807 -42.1339 -29.901 70 255 185
39.5998 -41.8706 -30.0742 231 255 24
38.6048 -42.757 -29.7642 118 255 137
44.0611 -41.1614 -30.7686 0 90 255
43.4903 -41.9358 -31.4378 102 255 153
39.9376 -42.4278 -31.755 255 158 0
39.0005 -43.0559 -30.9894 0 219 255
42.6637 -42.2259 -33.1941 49 255 206
42.0595 -42.6089 -33.9241 0 48 255
40.7076 -42.36 -33.3953 0 176 255
42.2815 -41.8612 -34.1474 0 0 173
41.736 -42.0336 -34.6255 0 72 255
41.2215 -42.0396 -34.5966 0 39 255
41.5056 -41.6415 -35.2783 0 0 171
41.3257 -41.6486 -35.2747 0 0 137
39.227 -38.4336 -13.8006 0 0 228
38.503 -38.407 -13.7382 0 119 255
40.5821 -39.031 -15.295 0 192 255
39.6272 -39.2555 -14.7705 156 255 99
38.1105 -39.2294 -14.6761 153 255 102
36.9409 -38.9452 -15.0367 0 198 255
41.9266 -39.5675 -17.4627 0 117 255
41.1991 -39.7165 -16.6112 41 255 214
40.2515 -39.9958 -15.8475 0 90 255
37.5489 -39.9813 -15.6789 0 115 255
36.4424 -39.6492 -16.2158 150 255 105
35.5347 -39.0657 -16.8878 28 255 227
42.1716 -40.0441 -18.5516 0 133 255
41.6588 -40.4752 -17.8089 0 176 255
36.0444 -40.3646 -17.5074 0 215 255
35.3193 -39.6727 -18.2251 163 255 92
42.4217 -40.1799 -20.1947 160 255 95
35.1286 -39.8514 -19.9425 255 32 0
42.4719 -40.2992 -22.0525 255 161 0
42.0207 -39.558 -22.6603 0 107 255
36.0809 -39.3829 -22.442 0 253 255
35.4316 -39.9768 -21.6561 255 182 0
42.6124 -40.688 -24.0411 104 255 151
41.9101 -39.8023 -24.0292 3 255 252
39.2363 -39.6365 -24.7402 0 218 255
37.954 -40.091 -24.5808 255 195 0
36.5692 -40.2074 -23.514 190 255 65
35.7711 -40.7607 -22.8446 0 224 255
42.7591 -40.7921 -26.0051 177 255 78
41.5984 -39.9943 -25.7771 255 159 0
40.0033 -40.0361 -25.8864 255 88 0
38.6355 -40.6948 -26.0404 100 255 155
44.0498 -40.4494 -29.1471 0 17 255
43.2915 -40.5763 -28.1372 255 206 0
42.0166 -40.189 -28.1948 255 27 0
40.1901 -40.7133 -28.0304 255 33 0
38.98 -41.1609 -27.3624 0 192 255
44.2376 -40.4321 -29.9757 0 0 252
41.9676 -40.272 -29.941 87 255 168
40.6753 -40.9524 -29.9692 255 208 0
44.0272 -40.5091 -30.7669 0 0 234
43.2662 -40.7838 -31.6067 1 255 254
42.2529 -40.5814 -31.5359 81 255 174
41.0094 -41.2828 -31.7263 134 255 121
42.6084 -41.3263 -33.1748 0 129 255
41.9851 -41.1222 -33.2849 0 137 255
41.2471 -41.5001 -33.3805 61 255 194
42.2714 -41.4696 -34.1245 0 0 252
41.7802 -41.4486 -34.5529 0 5 255
41.3759 -41.5407 -34.6287 0 0 251
41.5238 -41.4371 -35.2625 0 0 148
41.3669 -41.4625 -35.2807 0 0 148
39.0624 -36.7613 -12.5597 0 0 194
38.5827 -36.7305 -12.4793 0 24 255
40.1748 -37.4161 -13.8553 0 79 255
39.4113 -37.4254 -13.3375 11 255 244
38.1281 -37.3305 -13.1701 122 255 133
36.977 -37.0219 -13.5597 0 85 255
40.6177 -37.9815 -14.8347 52 255 203
39.9669 -38.2685 -14.1737 0 29 255
37.5283 -38.1664 -13.9807 0 119 255
36.4154 -37.7451 -14.4789 113 255 142
35.4878 -37.1462 -15.1169 0 113 255
41.946 -38.9309 -17.4504 0 0 209
41.3488 -38.2853 -16.6048 186 255 69
35.9171 -38.4257 -15.6106 0 135 255
35.1272 -37.7341 -16.3398 255 215 0
42.0916 -38.9828 -18.4912 0 255 255
41.5399 -37.9737 -18.1853 137 255 118
34.6707 -37.8334 -18.0361 128 0 0
42.1234 -39.0732 -19.9578 54 255 201
41.3224 -37.9344 -19.9352 255 174 0
40.359 -37.1991 -20.5039 0 254 255
34.6945 -37.902 -19.6926 255 113 0
42.1129 -39.3207 -21.2925 0 143 255
41.3481 -38.7081 -21.8852 255 216 0
39.7835 -37.7586 -21.8682 203 0 0
38.0911 -37.5915 -22.1644 255 174 0
36.5059 -37.9703 -22.0731 255 193 0
35.3064 -37.9646 -21.1084 173 255 82
41.0725 -39.1707 -23.6115 0 209 255
39.7389 -38.9273 -23.707 240 255 15
38.191 -38.875 -23.3957 218 255 37
37.0379 -39.0011 -23.0245 35 255 220
41.0402 -39.4589 -24.7494 0 192 255
40.292 -39.412 -24.8024 0 50 255
44.0171 -39.9715 -29.4114 0 0 176
43.5254 -39.916 -29.1433 0 60 255
42.8571 -39.8381 -29.0962 0 45 255
44.0882 -39.9219 -29.9861 0 0 189
43.5887 -39.773 -29.9791 0 0 241
42.8753 -39.8238 -29.9699 0 70 255
44.012 -40.0111 -30.5452 0 0 191
43.5335 -40.0023 -30.7754 0 0 255
42.9318 -39.9842 -30.8046 0 0 245
39.0365 -36.0767 -12.4931 0 52 255
38.4706 -36.0368 -12.341 0 0 229
40.1934 -36.7949 -13.8524 0 11 255
39.5696 -36.1688 -13.364 0 254 255
37.7333 -36.0112 -12.8175 0 238 255
36.5042 -35.8916 -13.47 44 255 211
35.6584 -35.4667 -13.955 0 47 255
40.5164 -36.8265 -14.79 0 132 255
39.9834 -35.7417 -14.6138 37 255 218
35.9604 -36.5212 -14.122 0 140 255
35.1743 -35.8717 -14.7913 230 255 25
40.8477 -36.8503 -16.2865 229 255 26
40.1891 -35.5904 -16.1516 166 255 89
34.4479 -36.0534 -16.274 255 243 0
40.9107 -36.799 -17.8429 119 255 136
40.1139 -35.6108 -17.8345 219 255 36
33.9309 -35.9232 -17.9352 108 255 147
33.3729 -34.9376 -18.424 0 114 255
40.7548 -36.8785 -19.1448 0 254 255
39.7652 -35.9923 -19.6349 255 149 0
38.6978 -35.215 -20.1999 0 218 255
34.0649 -35.8839 -19.6175 255 196 0
33.416 -34.9152 -19.265 0 53 255
39.1856 -36.5099 -20.9318 0 198 255
37.903 -35.8311 -21.1623 255 18 0
36.2601 -35.9383 -21.4364 255 127 0
34.9274 -35.9748 -20.8771 255 107 0
38.823 -35.4023 -12.5146 0 0 189
38.4124 -35.3727 -12.4013 0 0 253
38.8442 -34.9015 -13.2933 0 238 255
37.826 -34.8114 -13.0087 0 209 255
36.4073 -34.4443 -13.6067 45 255 210
35.5219 -34.6582 -14.0304 0 87 255
39.2872 -34.5356 -14.5777 145 255 110
35.6489 -33.641 -14.3403 0 163 255
34.7066 -34.1436 -14.9759 118 255 137
33.8238 -33.4457 -15.7356 0 109 255
39.4563 -34.3174 -16.0807 210 255 45
33.9197 -34.6357 -16.2571 150 255 105
33.3631 -33.5185 -16.6788 0 148 255
39.2955 -34.1882 -17.732 243 255 12
38.6303 -33.4034 -18.468 0 166 255
33.5382 -34.8369 -17.3876 0 172 255
33.0722 -33.9286 -18.0863 188 255 67
39.18 -34.6552 -19.0396 0 79 255
38.3134 -33.8625 -19.6586 255 204 0
33.7482 -34.6265 -20.1974 0 221 255
33.0938 -33.8685 -19.7002 216 255 39
37.2199 -33.9406 -20.8352 255 196 0
35.7994 -33.9711 -21.421 252 255 3
34.3132 -34.0665 -21.1633 255 162 0
33.285 -33.3622 -20.8973 0 233 255
38.4037 -33.8836 -13.7869 0 49 255
37.6197 -33.583 -13.7787 0 185 255
36.6651 -33.4271 -13.9283 0 182 255
38.5374 -33.4511 -14.7491 6 255 249
37.4229 -32.5549 -14.9914 127 255 128
35.9541 -32.4912 -14.8744 104 255 151
34.5825 -32.7286 -15.3469 55 255 200
33.7191 -32.7287 -15.8913 0 22 255
38.7359 -33.1914 -16.0591 51 255 204
37.8535 -32.1621 -16.3918 113 255 142
35.2336 -31.5486 -15.7386 0 148 255
34.1949 -31.7212 -16.118 0 197 255
33.062 -32.0922 -16.9469 255 187 0
32.2696 -31.397 -17.7553 0 0 241
38.7836 -33.1566 -17.2334 0 121 255
38.0839 -32.2981 -17.9576 255 247 0
32.4942 -32.4428 -18.3866 163 255 92
31.9677 -31.3316 -18.732 0 225 255
37.5988 -32.2193 -19.5551 104 255 151
32.382 -32.4128 -19.9951 17 255 238
31.7227 -31.1982 -20.2216 203 255 52
36.7202 -32.1481 -20.8797 255 253 0
35.3742 -31.9261 -22.0175 255 4 0
33.9938 -32.3014 -22.1866 198 255 57
32.6671 -32.0574 -21.7199 255 106 0
31.5953 -30.9181 -21.9192 70 255 185
34.6366 -30.9528 -23.1707 0 250 255
33.6366 -31.0326 -23.6434 121 255 134
32.4108 -31.0928 -23.4831 88 255 167
31.34 -30.5148 -23.6039 44 255 211
33.0396 -30.4185 -24.7403 0 129 255
32.1239 -30.4929 -24.806 24 255 231
31.239 -30.3148 -24.7973 0 96 255
25.5309 -29.8155 -29.5352 0 39 255
24.9725 -29.784 -29.7217 0 0 200
25.3229 -29.9766 -30.2629 0 82 255
24.4439 -29.8817 -30.4424 0 50 255
23.7242 -29.7672 -30.9716 0 0 204
25.0927 -29.987 -31.0875 0 27 255
24.2661 -29.9609 -31.3162 0 68 255
23.5425 -29.7794 -31.527 0 0 203
36.8884 -31.5531 -15.6907 0 214 255
36.1766 -31.4686 -15.5978 0 37 255
36.8682 -30.9848 -16.7958 0 227 255
35.5742 -30.6781 -16.5684 98 255 157
34.1318 -30.7205 -16.8631 1 255 254
32.9643 -30.8731 -17.3768 0 129 255
32.2524 -30.8303 -17.8893 0 32 255
37.1769 -30.9026 -18.1702 69 255 186
34.9885 -29.9194 -17.4949 0 137 255
33.9589 -29.8946 -17.7618 0 201 255
32.8346 -30.036 -18.1942 0 140 255
31.9856 -30.3285 -18.8491 0 128 255
36.9611 -30.7898 -19.6061 244 255 11
31.5016 -30.0962 -20.3913 0 241 255
36.394 -30.6456 -20.9148 115 255 140
35.4577 -30.2808 -22.1648 152 255 103
31.0884 -29.7724 -22.1636 208 255 47
34.6659 -29.8567 -23.6662 55 255 200
33.9319 -30.166 -24.3602 0 60 255
30.417 -29.4892 -24.1724 255 233 0
29.3769 -28.9466 -25.2877 0 64 255
34.1492 -29.2756 -24.7593 0 53 255
33.2178 -29.5268 -25.5746 242 255 13
31.814 -29.8134 -26.0079 72 255 183
30.3909 -29.6719 -25.9001 255 210 0
28.7083 -29.0443 -26.6394 164 255 91
27.4214 -28.889 -27.5446 0 163 255
32.4413 -28.9329 -27.2753 0 88 255
31.3969 -29.2838 -27.5558 49 255 206
29.9435 -29.3841 -27.8622 244 255 11
28.2508 -29.3293 -28.2924 255 164 0
26.4607 -29.2798 -28.8481 146 255 109
25.1487 -29.2555 -29.4457 0 81 255
31.9986 -28.6152 -28.3002 0 50 255
31.1118 -28.7641 -28.8298 0 230 255
29.6625 -28.9593 -29.6001 230 255 25
27.985 -29.3152 -29.918 199 255 56
26.3687 -29.6422 -30.1704 80 255 175
24.2448 -29.258 -30.2448 0 38 255
23.4503 -29.2187 -31.1489 0 91 255
28.8959 -28.705 -30.8858 0 188 255
27.5714 -28.9909 -31.5498 255 228 0
25.7618 -29.5427 -31.7471 255 252 0
24.1805 -29.5911 -32.3428 59 255 196
22.8769 -29.1655 -32.4502 146 255 109
21.646 -28.6342 -33.419 0 49 255
26.8545 -28.7069 -32.8351 0 75 255
25.5513 -28.9512 -33.5129 193 255 62
23.9389 -29.1861 -33.8909 221 255 34
22.3943 -29.0386 -34.1768 83 255 172
20.9366 -28.5393 -34.6641 105 255 150
19.9272 -28.223 -35.4204 0 63 255
24.8774 -28.6118 -34.7504 0 60 255
23.6254 -28.725 -35.3991 58 255 197
22.0282 -28.8072 -35.7402 187 255 68
20.5887 -28.6234 -36.0737 0 255 255
19.5087 -28.2163 -36.421 0 205 255
22.9285 -28.3801 -36.4661 0 124 255
21.5686 -28.357 -37.1647 53 255 202
20.1559 -28.4192 -37.4892 0 227 255
18.8748 -28.0935 -37.8886 0 198 255
18.0952 -27.8619 -38.722 0 0 246
20.729 -28.0772 -38.2496 0 157 255
19.7556 -28.0541 -38.7023 0 191 255
18.6785 -27.9794 -39.0948 0 93 255
17.9939 -27.819 -39.3787 0 0 183
15.6431 -27.9292 -47.2152 0 0 191
15.4589 -27.9158 -47.2411 0 0 167
15.5723 -28.039 -47.9992 0 0 205
15.3689 -28.0472 -48.0219 0 0 190
15.4617 -28.1382 -48.841 0 0 171
15.3201 -28.1911 -48.868 0 0 175
15.3371 -28.3279 -49.3705 0 0 130
15.263 -28.3569 -49.3835 0 0 139
36.4805 -30.1752 -17.4747 0 15 255
35.8748 -29.994 -17.4043 0 62 255
36.4127 -29.9644 -18.4058 0 178 255
35.3531 -29.5295 -18.3802 30 255 225
34.0036 -29.257 -18.8035 22 255 233
32.8164 -29.3094 -19.1273 0 206 255
32.059 -29.5368 -19.4316 0 138 255
36.2549 -29.7604 -19.7247 0 184 255
35.2073 -29.106 -20.0267 95 255 160
33.9236 -28.7253 -20.1818 95 255 160
32.6875 -28.7553 -20.3654 0 249 255
31.7747 -29.1836 -20.5631 15 255 240
36.0036 -29.6566 -20.8648 0 176 255
34.9859 -28.9034 -21.8945 255 153 0
33.7474 -28.2581 -21.6943 73 255 182
32.4789 -28.2015 -21.8236 40 255 215
31.3146 -28.6144 -22.325 174 255 81
34.6195 -28.7052 -23.6223 0 243 255
30.3224 -28.4391 -24.0431 0 245 255
29.3032 -28.2798 -25.2332 0 85 255
34.1652 -28.4992 -24.849 0 119 255
33.406 -28.4084 -25.9386 0 203 255
28.4305 -28.2261 -26.427 0 114 255
27.3401 -28.2499 -27.4069 0 126 255
32.695 -28.2095 -27.3522 0 171 255
26.3545 -28.3434 -28.4934 0 171 255
25.2224 -28.4138 -29.3318 0 156 255
32.0341 -28.0921 -28.5048 0 27 255
30.9823 -28.0565 -29.5431 0 166 255
30.059 -28.3617 -30.2322 0 29 255
24.2803 -28.3695 -30.2852 0 250 255
23.3286 -28.3545 -31.233 0 168 255
30.2498 -27.7926 -30.5022 0 17 255
29.2051 -28.0352 -31.2815 0 195 255
28.0928 -28.3677 -32.1017 0 103 255
22.4967 -28.1894 -32.3761 0 185 255
21.4543 -27.9661 -33.3687 0 138 255
28.3365 -27.7741 -32.3586 0 38 255
27.2185 -28.0241 -33.196 0 237 255
26.0967 -28.3404 -34.0249 0 142 255
20.5884 -27.7344 -34.4752 0 103 255
19.7126 -27.6321 -35.3746 0 85 255
26.3578 -27.7471 -34.2657 0 36 255
25.2622 -27.9621 -35.048 0 201 255
24.1836 -28.2068 -35.775 0 23 255
19.0805 -27.4955 -36.4508 0 88 255
24.4645 -27.6614 -35.9484 0 0 229
23.4415 -27.7948 -36.5278 0 252 255
21.9164 -27.5768 -37.5272 0 221 255
18.4135 -27.3962 -37.7634 0 178 255
17.8135 -27.296 -38.9622 0 114 255
20.7871 -27.4606 -38.6355 0 125 255
19.5141 -27.2299 -39.7754 49 255 206
18.368 -27.417 -40.3541 0 178 255
17.5575 -27.2211 -40.3527 121 255 134
18.775 -26.718 -41.1956 0 93 255
17.8933 -26.8522 -42.1452 93 255 162
16.8582 -26.8962 -42.5696 0 235 255
16.15 -26.8739 -43.5347 0 0 239
17.2774 -26.6896 -44.0524 0 247 255
16.47 -27.0849 -44.3884 0 163 255
15.9192 -27.0299 -44.6964 0 62 255
16.8631 -26.7271 -45.8718 19 255 236
16.0828 -27.4282 -46.317 0 167 255
15.6318 -27.3942 -46.4104 0 72 255
16.6146 -26.7954 -47.2276 0 146 255
16.0032 -27.5469 -47.6049 0 47 255
15.4339 -27.5828 -47.6793 0 0 240
16.3892 -26.8621 -48.0099 0 15 255
15.7971 -27.5473 -48.5376 0 17 255
15.4477 -27.782 -48.6457 0 0 220
15.4399 -28.1268 -49.2772 0 0 144
15.3211 -28.193 -49.306 0 0 143
34.3043 -28.0268 -22.9421 0 32 255
33.4556 -27.709 -22.9863 0 229 255
32.3088 -27.6304 -23.1096 0 251 255
31.3522 -27.8219 -23.3075 0 94 255
34.1424 -27.8997 -23.9482 0 123 255
33.2331 -27.492 -24.2897 0 147 255
31.9764 -27.3295 -24.5041 64 255 191
30.6155 -27.5822 -24.6773 189 255 66
29.4624 -27.6819 -25.4742 0 201 255
33.9229 -27.879 -24.8804 0 0 249
33.0249 -27.5915 -25.7392 84 255 171
31.6703 -27.1756 -26.0669 128 255 127
30.1982 -27.1752 -26.3361 131 255 124
28.714 -27.4735 -26.7537 85 255 170
27.5044 -27.6549 -27.5451 0 138 255
32.3476 -27.5444 -27.3715 0 215 255
31.2652 -27.1479 -27.6954 54 255 201
29.832 -26.9829 -27.9918 169 255 86
28.2687 -27.1 -28.3262 146 255 109
26.712 -27.4956 -28.7609 185 255 70
25.4568 -27.7221 -29.5029 0 58 255
31.8961 -27.5909 -28.4499 0 104 255
30.8665 -27.3644 -29.204 60 255 195
29.4738 -27.0272 -29.6043 161 255 94
27.9074 -26.9243 -29.9512 210 255 45
26.2815 -27.0793 -30.3 132 255 123
24.6921 -27.4758 -30.7047 146 255 109
23.4861 -27.6279 -31.4822 0 67 255
30.1706 -27.4038 -30.3647 0 0 246
29.0169 -27.2852 -31.0914 49 255 206
27.532 -26.9758 -31.5495 162 255 93
25.9275 -26.8629 -31.9241 217 255 38
24.2863 -26.9566 -32.3016 255 246 0
22.7155 -27.2373 -32.7805 128 255 127
21.5194 -27.2583 -33.5631 0 169 255
28.2445 -27.3646 -32.2646 0 0 253
27.0489 -27.2471 -33.0246 0 226 255
25.5589 -26.8882 -33.4985 99 255 156
23.9328 -26.6528 -33.9275 193 255 62
22.1324 -26.4821 -34.524 255 193 0
20.6845 -26.7261 -34.8269 33 255 222
19.7434 -26.943 -35.4749 0 49 255
26.2772 -27.3266 -34.1771 0 78 255
25.1185 -27.1675 -34.8817 0 253 255
23.7015 -26.7023 -35.3342 41 255 214
22.1764 -26.2962 -35.8983 23 255 232
19.9167 -26.2742 -35.8722 0 45 255
19.1785 -26.5713 -36.4996 0 203 255
24.4103 -27.2426 -35.8651 0 44 255
23.3729 -27.0269 -36.3842 0 196 255
21.6563 -26.5354 -37.4285 216 255 39
20.4817 -26.0165 -38.4872 0 104 255
18.3893 -26.4812 -37.9352 0 148 255
17.7167 -26.4529 -39.1715 0 152 255
20.8061 -26.7148 -38.6765 0 72 255
19.7976 -26.1706 -39.7569 181 255 74
17.272 -26.3313 -40.6321 0 158 255
18.829 -25.9252 -41.5576 0 230 255
18.2375 -26.2365 -42.5154 0 58 255
16.6627 -26.1913 -42.5987 84 255 171
16.0841 -26.5502 -43.5179 0 0 212
18.4163 -25.6107 -42.6906 0 0 236
17.8715 -25.87 -43.7582 97 255 158
16.3553 -25.9018 -44.2608 0 243 255
15.89 -26.5424 -44.6031 0 59 255
17.3942 -25.7702 -45.7188 0 221 255
16.2318 -25.8059 -45.8871 0 251 255
15.7372 -26.6498 -46.0752 0 187 255
17.0682 -25.8462 -47.0441 0 126 255
16.1833 -25.9699 -47.1553 0 122 255
15.6633 -26.8189 -47.3405 0 99 255
16.6771 -26.1205 -47.819 0 0 223
16.1805 -26.4308 -48.0055 0 23 255
15.6882 -27.0323 -48.1366 0 0 197
21.2802 -25.9948 -35.3736 0 4 255
20.6504 -26.0506 -35.5052 0 36 255
21.1239 -25.8677 -36.251 0 114 255
20.1287 -25.8149 -36.535 0 156 255
19.2607 -25.8974 -37.1262 0 94 255
20.907 -25.8767 -37.2923 0 57 255
19.8717 -25.5803 -38.1781 86 255 169
18.7057 -25.6419 -38.5475 69 255 186
17.9085 -25.7846 -39.3823 0 26 255
19.1445 -25.1189 -40.0866 0 197 255
18.4228 -24.9757 -40.3344 11 255 244
17.6386 -25.5222 -40.602 0 231 255
18.6753 -24.985 -41.4587 0 172 255
18.1459 -24.8315 -41.782 0 137 255
17.3083 -25.3557 -42.2269 16 255 239
18.3579 -25.1398 -42.6365 0 0 232
17.8237 -25.0721 -43.658 0 230 255
17.0724 -25.2248 -44.0239 23 255 232
17.8548 -24.0714 -46.602 0 0 173
17.5645 -24.6888 -45.9687 6 255 249
17.0039 -24.9053 -45.9328 0 192 255
17.8017 -24.0943 -46.9122 0 0 139
17.3692 -24.7694 -47.0044 0 43 255
16.9056 -25.0065 -47.0279 0 97 255
16.9471 -25.4063 -47.653 0 0 182
16.6801 -25.5422 -47.7058 0 0 202
18.8522 -24.4762 -40.6605 0 0 147
18.6056 -24.4214 -40.7381 0 0 173
18.7167 -24.4366 -41.1292 0 0 184
18.5094 -24.3793 -41.2229 0 0 196
17.9005 -23.8537 -46.7603 0 0 137
17.6664 -24.0988 -46.5994 0 0 172
17.3439 -24.2937 -46.5365 0 0 189
17.8764 -23.8652 -46.9251 0 0 142
17.6183 -24.1233 -46.9243 0 0 159
17.3115 -24.3253 -46.9048 0 0 146
3 0 1 2
3 3 2 1
3 0 21 22
3 0 22 1
3 0 2 26
3 0 26 21
3 1 22 3
3 27 3 22
3 2 3 5
3 2 5 4
3 2 4 26
3 31 26 4
3 3 27 5
3 32 5 27
3 4 5 7
3 4 7 6
3 4 6 36
3 4 36 31
3 5 32 7
3 37 7 32
3 6 7 9
3 10 9 7
3 6 9 40
3 6 40 36
3 7 8 11
3 7 11 10
3 7 37 38
3 7 38 8
3 8 38 42
3 8 42 11
3 9 10 40
3 41 40 10
3 10 11 42
3 10 42 41
3 12 13 16
3 17 16 13
3 12 53 13
3 54 13 53
3 12 16 53
3 58 53 16
3 13 14 17
3 18 17 14
3 13 54 55
3 13 55 14
3 14 55 59
3 14 59 18
3 15 16 21
3 15 21 20
3 15 57 58
3 15 58 16
3 15 20 57
3 62 57 20
3 16 17 22
3 16 22 21
3 17 18 22
3 23 22 18
3 18 19 23
3 24 23 19
3 18 59 19
3 60 19 59
3 19 60 24
3 64 24 60
3 20 21 26
3 20 26 25
3 20 25 62
3 66 62 25
3 22 23 28
3 22 28 27
3 23 24 28
3 29 28 24
3 24 64 29
3 68 29 64
3 25 26 30
3 31 30 26
3 25 30 70
3 25 70 66
3 27 28 33
3 27 33 32
3 28 29 34
3 28 34 33
3 29 68 73
3 29 73 34
3 30 31 35
3 36 35 31
3 30 35 75
3 30 75 70
3 32 33 38
3 32 38 37
3 33 34 73
3 33 73 72
3 33 72 38
3 78 38 72
3 35 36 40
3 35 40 39
3 35 39 75
3 80 75 39
3 38 78 83
3 38 83 42
3 39 40 80
3 81 80 40
3 40 41 82
3 40 82 81
3 41 42 44
3 41 44 43
3 41 43 84
3 41 84 82
3 42 83 44
3 85 44 83
3 43 44 46
3 43 46 45
3 43 45 84
3 86 84 45
3 44 85 46
3 87 46 85
3 45 46 86
3 87 86 46
3 47 48 52
3 53 52 48
3 47 92 93
3 47 93 48
3 47 52 98
3 47 98 92
3 48 49 54
3 48 54 53
3 48 93 49
3 94 49 93
3 49 50 55
3 49 55 54
3 49 94 50
3 95 50 94
3 50 51 56
3 50 56 55
3 50 95 51
3 96 51 95
3 51 96 56
3 99 56 96
3 52 53 57
3 58 57 53
3 52 57 98
3 101 98 57
3 55 56 59
3 60 59 56
3 56 99 103
3 56 103 60
3 57 62 105
3 57 105 101
3 60 103 64
3 107 64 103
3 61 62 66
3 61 66 65
3 61 104 62
3 105 62 104
3 61 65 104
3 108 104 65
3 63 67 64
3 68 64 67
3 63 64 106
3 107 106 64
3 63 106 67
3 110 67 106
3 65 66 69
3 70 69 66
3 65 69 111
3 65 111 108
3 67 72 73
3 67 73 68
3 67 110 113
3 67 113 72
3 69 70 75
3 69 75 74
3 69 74 111
3 114 111 74
3 71 77 72
3 78 72 77
3 71 72 113
3 71 113 112
3 71 112 116
3 71 116 77
3 74 75 79
3 80 79 75
3 74 79 114
3 117 114 79
3 76 81 82
3 76 82 77
3 76 77 115
3 116 115 77
3 76 115 81
3 119 81 115
3 77 82 83
3 77 83 78
3 79 80 118
3 79 118 117
3 80 81 119
3 80 119 118
3 82 84 83
3 85 83 84
3 84 86 85
3 87 85 86
3 88 89 93
3 88 93 92
3 88 129 89
3 130 89 129
3 88 92 135
3 88 135 129
3 89 90 94
3 89 94 93
3 89 130 90
3 131 90 130
3 90 91 95
3 90 95 94
3 90 131 91
3 132 91 131
3 91 132 136
3 91 136 95
3 92 98 135
3 139 135 98
3 95 136 137
3 95 137 96
3 96 137 140
3 96 140 99
3 97 98 100
3 101 100 98
3 97 138 98
3 139 98 138
3 97 100 138
3 141 138 100
3 99 140 103
3 144 103 140
3 100 101 105
3 100 105 104
3 100 104 145
3 100 145 141
3 102 106 107
3 102 107 103
3 102 103 144
3 102 144 143
3 102 143 106
3 147 106 143
3 104 108 149
3 104 149 145
3 106 147 152
3 106 152 110
3 108 111 149
3 154 149 111
3 109 112 110
3 113 110 112
3 109 110 151
3 152 151 110
3 109 151 156
3 109 156 112
3 111 114 154
3 158 154 114
3 112 156 116
3 160 116 156
3 114 117 161
3 114 161 158
3 115 116 160
3 115 160 159
3 115 159 119
3 163 119 159
3 117 118 162
3 117 162 161
3 118 119 121
3 118 121 120
3 118 120 165
3 118 165 162
3 119 163 166
3 119 166 121
3 120 121 165
3 166 165 121
3 122 123 125
3 126 125 123
3 122 172 123
3 173 123 172
3 122 125 172
3 177 172 125
3 123 173 126
3 178 126 173
3 124 125 129
3 130 129 125
3 124 176 125
3 177 125 176
3 124 129 182
3 124 182 176
3 125 126 130
3 131 130 126
3 126 127 132
3 126 132 131
3 126 178 127
3 179 127 178
3 127 179 183
3 127 183 132
3 128 129 135
3 128 135 134
3 128 181 182
3 128 182 129
3 128 134 185
3 128 185 181
3 132 133 137
3 132 137 136
3 132 183 184
3 132 184 133
3 133 184 186
3 133 186 137
3 134 135 138
3 139 138 135
3 134 138 185
3 187 185 138
3 137 186 140
3 190 140 186
3 138 141 187
3 191 187 141
3 140 190 144
3 196 144 190
3 141 145 197
3 141 197 191
3 142 146 147
3 142 147 143
3 142 143 195
3 142 195 194
3 142 194 146
3 200 146 194
3 143 144 196
3 143 196 195
3 145 149 202
3 145 202 197
3 146 151 147
3 152 147 151
3 146 200 205
3 146 205 151
3 148 149 153
3 154 153 149
3 148 201 202
3 148 202 149
3 148 153 201
3 206 201 153
3 150 155 151
3 156 151 155
3 150 151 204
3 205 204 151
3 150 204 155
3 208 155 204
3 153 154 157
3 158 157 154
3 153 157 206
3 209 206 157
3 155 159 160
3 155 160 156
3 155 208 159
3 212 159 208
3 157 158 210
3 157 210 209
3 158 161 213
3 158 213 210
3 159 212 215
3 159 215 163
3 161 162 165
3 161 165 164
3 161 164 216
3 161 216 213
3 163 215 218
3 163 218 166
3 164 165 216
3 217 216 165
3 165 166 167
3 168 167 166
3 165 167 217
3 219 217 167
3 166 218 220
3 166 220 168
3 167 168 219
3 220 219 168
3 169 170 172
3 173 172 170
3 169 224 170
3 225 170 224
3 169 172 224
3 228 224 172
3 170 225 173
3 229 173 225
3 171 172 177
3 171 177 176
3 171 227 172
3 228 172 227
3 171 176 233
3 171 233 227
3 173 174 179
3 173 179 178
3 173 229 174
3 230 174 229
3 174 230 234
3 174 234 179
3 175 176 182
3 175 182 181
3 175 232 233
3 175 233 176
3 175 181 236
3 175 236 232
3 179 180 183
3 184 183 180
3 179 234 235
3 179 235 180
3 180 235 238
3 180 238 184
3 181 185 236
3 239 236 185
3 184 238 186
3 242 186 238
3 185 187 239
3 243 239 187
3 186 242 190
3 248 190 242
3 187 191 192
3 187 192 188
3 187 188 244
3 187 244 243
3 188 192 249
3 188 249 244
3 189 195 196
3 189 196 190
3 189 190 248
3 189 248 247
3 189 247 195
3 252 195 247
3 191 197 198
3 191 198 192
3 192 198 253
3 192 253 249
3 193 199 194
3 200 194 199
3 193 194 251
3 193 251 250
3 193 250 254
3 193 254 199
3 194 195 252
3 194 252 251
3 197 202 198
3 203 198 202
3 198 203 199
3 204 199 203
3 198 199 253
3 254 253 199
3 199 204 200
3 205 200 204
3 201 255 256
3 201 256 202
3 201 206 255
3 258 255 206
3 202 256 203
3 257 203 256
3 203 207 208
3 203 208 204
3 203 257 207
3 260 207 257
3 206 209 261
3 206 261 258
3 207 211 212
3 207 212 208
3 207 260 211
3 263 211 260
3 209 210 262
3 209 262 261
3 210 213 214
3 210 214 211
3 210 211 263
3 210 263 262
3 211 214 215
3 211 215 212
3 213 216 214
3 217 214 216
3 214 217 215
3 218 215 217
3 217 219 218
3 220 218 219
3 221 222 224
3 225 224 222
3 221 264 265
3 221 265 222
3 221 224 264
3 267 264 224
3 222 265 268
3 222 268 225
3 223 224 228
3 223 228 227
3 223 266 267
3 223 267 224
3 223 227 271
3 223 271 266
3 225 226 230
3 225 230 229
3 225 268 269
3 225 269 226
3 226 269 273
3 226 273 230
3 227 233 275
3 227 275 271
3 230 231 235
3 230 235 234
3 230 273 231
3 274 231 273
3 231 274 235
3 277 235 274
3 232 236 233
3 237 233 236
3 233 237 275
3 278 275 237
3 235 277 238
3 280 238 277
3 236 239 237
3 240 237 239
3 237 240 278
3 282 278 240
3 238 280 285
3 238 285 242
3 239 243 240
3 244 240 243
3 240 244 245
3 240 245 241
3 240 241 282
3 283 282 241
3 241 245 287
3 241 287 283
3 242 285 290
3 242 290 248
3 244 249 250
3 244 250 245
3 245 250 251
3 245 251 246
3 245 246 288
3 245 288 287
3 246 251 252
3 246 252 247
3 246 247 289
3 246 289 288
3 247 248 290
3 247 290 289
3 249 253 250
3 254 250 253
3 255 258 256
3 259 256 258
3 256 259 257
3 260 257 259
3 258 261 259
3 262 259 261
3 259 262 260
3 263 260 262
3 264 291 265
3 292 265 291
3 264 267 293
3 264 293 291
3 265 292 268
3 294 268 292
3 266 271 272
3 266 272 267
3 267 272 297
3 267 297 293
3 268 294 295
3 268 295 269
3 269 270 274
3 269 274 273
3 269 295 296
3 269 296 270
3 270 296 299
3 270 299 274
3 271 275 272
3 276 272 275
3 272 276 297
3 301 297 276
3 274 299 302
3 274 302 277
3 275 278 276
3 279 276 278
3 276 279 301
3 304 301 279
3 277 302 306
3 277 306 280
3 278 282 279
3 283 279 282
3 279 283 304
3 308 304 283
3 280 281 285
3 286 285 281
3 280 306 281
3 307 281 306
3 281 307 286
3 311 286 307
3 283 287 288
3 283 288 284
3 283 284 309
3 283 309 308
3 284 288 312
3 284 312 309
3 285 286 311
3 285 311 310
3 285 310 290
3 314 290 310
3 288 289 313
3 288 313 312
3 289 290 314
3 289 314 313
3 291 293 292
3 294 292 293
3 293 316 317
3 293 317 294
3 293 297 316
3 319 316 297
3 294 317 318
3 294 318 295
3 295 298 296
3 299 296 298
3 295 318 321
3 295 321 298
3 297 301 319
3 324 319 301
3 298 321 322
3 298 322 299
3 299 300 302
3 303 302 300
3 299 322 323
3 299 323 300
3 300 323 328
3 300 328 303
3 301 304 330
3 301 330 324
3 302 303 307
3 302 307 306
3 303 328 307
3 332 307 328
3 304 308 309
3 304 309 305
3 304 305 331
3 304 331 330
3 305 309 334
3 305 334 331
3 307 332 311
3 335 311 332
3 309 312 337
3 309 337 334
3 310 311 315
3 310 315 314
3 311 335 340
3 311 340 315
3 312 313 338
3 312 338 337
3 313 314 338
3 339 338 314
3 314 315 339
3 340 339 315
3 316 319 317
3 320 317 319
3 317 320 318
3 321 318 320
3 319 324 320
3 325 320 324
3 320 357 321
3 358 321 357
3 320 325 357
3 359 357 325
3 321 326 322
3 327 322 326
3 321 358 326
3 360 326 358
3 322 327 328
3 322 328 323
3 324 330 331
3 324 331 325
3 325 331 364
3 325 364 359
3 326 360 327
3 361 327 360
3 327 361 328
3 362 328 361
3 328 329 333
3 328 333 332
3 328 362 363
3 328 363 329
3 329 363 368
3 329 368 333
3 331 334 369
3 331 369 364
3 332 333 336
3 332 336 335
3 333 368 370
3 333 370 336
3 334 337 369
3 371 369 337
3 335 336 340
3 341 340 336
3 336 370 373
3 336 373 341
3 337 338 371
3 372 371 338
3 338 339 342
3 343 342 339
3 338 342 372
3 374 372 342
3 339 340 343
3 344 343 340
3 340 341 344
3 345 344 341
3 341 373 345
3 376 345 373
3 342 343 374
3 375 374 343
3 343 344 346
3 347 346 344
3 343 346 375
3 379 375 346
3 344 345 347
3 348 347 345
3 345 376 348
3 381 348 376
3 346 347 379
3 380 379 347
3 347 348 381
3 347 381 380
3 349 350 352
3 349 352 351
3 349 388 389
3 349 389 350
3 349 351 394
3 349 394 388
3 350 389 395
3 350 395 352
3 351 352 355
3 351 355 354
3 351 354 399
3 351 399 394
3 352 353 356
3 352 356 355
3 352 395 396
3 352 396 353
3 353 396 401
3 353 401 356
3 354 355 400
3 354 400 399
3 355 356 401
3 355 401 400
3 357 359 360
3 357 360 358
3 359 431 432
3 359 432 360
3 359 364 431
3 433 431 364
3 360 365 361
3 366 361 365
3 360 432 434
3 360 434 365
3 361 366 362
3 367 362 366
3 362 367 363
3 368 363 367
3 364 369 433
3 438 433 369
3 365 434 435
3 365 435 366
3 366 435 436
3 366 436 367
3 367 436 437
3 367 437 368
3 368 437 370
3 442 370 437
3 369 371 443
3 369 443 438
3 370 442 373
3 447 373 442
3 371 372 444
3 371 444 443
3 372 374 448
3 372 448 444
3 373 447 376
3 449 376 447
3 374 375 379
3 374 379 378
3 374 378 451
3 374 451 448
3 376 377 382
3 376 382 381
3 376 449 377
3 450 377 449
3 377 450 382
3 453 382 450
3 378 379 452
3 378 452 451
3 379 380 385
3 379 385 384
3 379 384 455
3 379 455 452
3 380 381 386
3 380 386 385
3 381 382 387
3 381 387 386
3 382 383 387
3 388 387 383
3 382 453 454
3 382 454 383
3 383 454 456
3 383 456 388
3 384 385 390
3 391 390 385
3 384 390 455
3 458 455 390
3 385 386 391
3 392 391 386
3 386 387 392
3 393 392 387
3 387 388 393
3 394 393 388
3 388 456 457
3 388 457 389
3 389 457 461
3 389 461 395
3 390 391 458
3 459 458 391
3 391 392 459
3 460 459 392
3 392 393 397
3 398 397 393
3 392 397 464
3 392 464 460
3 393 394 398
3 399 398 394
3 395 461 396
3 462 396 461
3 396 462 401
3 466 401 462
3 397 398 465
3 397 465 464
3 398 399 404
3 398 404 403
3 398 403 469
3 398 469 465
3 399 400 405
3 399 405 404
3 400 401 406
3 400 406 405
3 401 402 407
3 401 407 406
3 401 466 402
3 467 402 466
3 402 467 407
3 471 407 467
3 403 404 470
3 403 470 469
3 404 405 410
3 404 410 409
3 404 409 470
3 474 470 409
3 405 406 411
3 405 411 410
3 406 407 411
3 412 411 407
3 407 408 412
3 413 412 408
3 407 471 408
3 472 408 471
3 408 472 413
3 476 413 472
3 409 410 474
3 475 474 410
3 410 411 414
3 415 414 411
3 410 414 475
3 478 475 414
3 411 412 415
3 416 415 412
3 412 413 416
3 417 416 413
3 413 476 480
3 413 480 417
3 414 415 478
3 479 478 415
3 415 416 419
3 420 419 416
3 415 419 479
3 482 479 419
3 416 417 420
3 421 420 417
3 417 418 421
3 422 421 418
3 417 480 481
3 417 481 418
3 418 481 485
3 418 485 422
3 419 420 483
3 419 483 482
3 420 421 484
3 420 484 483
3 421 422 485
3 421 485 484
3 423 424 426
3 423 426 425
3 423 494 424
3 495 424 494
3 423 425 497
3 423 497 494
3 424 495 426
3 498 426 495
3 425 426 428
3 425 428 427
3 425 427 500
3 425 500 497
3 426 498 428
3 501 428 498
3 427 428 430
3 427 430 429
3 427 429 502
3 427 502 500
3 428 501 430
3 503 430 501
3 429 430 503
3 429 503 502
3 431 433 432
3 434 432 433
3 433 438 434
3 439 434 438
3 434 439 435
3 440 435 439
3 435 440 436
3 441 436 440
3 436 441 437
3 442 437 441
3 438 443 439
3 444 439 443
3 439 444 440
3 445 440 444
3 440 445 441
3 446 441 445
3 441 446 442
3 447 442 446
3 444 504 505
3 444 505 445
3 444 448 508
3 444 508 504
3 445 505 506
3 445 506 446
3 446 506 507
3 446 507 447
3 447 507 511
3 447 511 449
3 448 451 513
3 448 513 508
3 449 511 512
3 449 512 450
3 450 512 453
3 517 453 512
3 451 452 514
3 451 514 513
3 452 455 519
3 452 519 514
3 453 517 454
3 518 454 517
3 454 518 456
3 523 456 518
3 455 458 525
3 455 525 519
3 456 523 457
3 524 457 523
3 457 524 461
3 530 461 524
3 458 459 525
3 526 525 459
3 459 460 463
3 464 463 460
3 459 463 526
3 532 526 463
3 461 530 531
3 461 531 462
3 462 531 537
3 462 537 466
3 463 464 532
3 533 532 464
3 464 465 468
3 469 468 465
3 464 468 533
3 539 533 468
3 466 537 538
3 466 538 467
3 467 538 544
3 467 544 471
3 468 469 539
3 540 539 469
3 469 470 473
3 474 473 470
3 469 473 546
3 469 546 540
3 471 544 472
3 545 472 544
3 472 545 476
3 551 476 545
3 473 474 547
3 473 547 546
3 474 475 478
3 474 478 477
3 474 477 552
3 474 552 547
3 476 551 480
3 556 480 551
3 477 478 553
3 477 553 552
3 478 479 554
3 478 554 553
3 479 482 558
3 479 558 554
3 480 556 481
3 557 481 556
3 481 557 485
3 560 485 557
3 482 483 559
3 482 559 558
3 483 484 487
3 483 487 486
3 483 486 559
3 561 559 486
3 484 485 487
3 488 487 485
3 485 560 563
3 485 563 488
3 486 487 561
3 562 561 487
3 487 488 490
3 491 490 488
3 487 490 562
3 566 562 490
3 488 489 491
3 492 491 489
3 488 563 564
3 488 564 489
3 489 564 568
3 489 568 492
3 490 491 493
3 494 493 491
3 490 493 566
3 569 566 493
3 491 492 494
3 495 494 492
3 492 568 571
3 492 571 495
3 493 494 496
3 497 496 494
3 493 496 569
3 572 569 496
3 495 571 574
3 495 574 498
3 496 497 499
3 500 499 497
3 496 499 572
3 575 572 499
3 498 574 501
3 577 501 574
3 499 500 576
3 499 576 575
3 500 502 503
3 500 503 501
3 500 501 577
3 500 577 576
3 504 508 509
3 504 509 505
3 505 509 510
3 505 510 506
3 506 510 511
3 506 511 507
3 508 513 514
3 508 514 509
3 509 514 510
3 515 510 514
3 510 515 511
3 516 511 515
3 511 516 512
3 517 512 516
3 514 519 515
3 520 515 519
3 515 520 516
3 521 516 520
3 516 521 517
3 522 517 521
3 517 522 518
3 523 518 522
3 519 525 520
3 526 520 525
3 520 526 521
3 527 521 526
3 521 527 522
3 528 522 527
3 522 528 523
3 529 523 528
3 523 529 530
3 523 530 524
3 526 532 533
3 526 533 527
3 527 533 534
3 527 534 528
3 528 534 535
3 528 535 529
3 529 535 536
3 529 536 530
3 530 536 537
3 530 537 531
3 533 539 540
3 533 540 534
3 534 540 541
3 534 541 535
3 535 541 542
3 535 542 536
3 536 542 543
3 536 543 537
3 537 543 538
3 544 538 543
3 540 546 541
3 547 541 546
3 541 547 542
3 548 542 547
3 542 548 543
3 549 543 548
3 543 578 579
3 543 579 544
3 543 549 578
3 580 578 549
3 544 550 545
3 551 545 550
3 544 579 581
3 544 581 550
3 547 552 548
3 553 548 552
3 548 553 549
3 554 549 553
3 549 554 580
3 583 580 554
3 550 581 582
3 550 582 551
3 551 582 585
3 551 585 556
3 554 558 559
3 554 559 555
3 554 555 584
3 554 584 583
3 555 559 587
3 555 587 584
3 556 585 557
3 586 557 585
3 557 586 560
3 589 560 586
3 559 561 590
3 559 590 587
3 560 589 563
3 592 563 589
3 561 562 566
3 561 566 565
3 561 565 593
3 561 593 590
3 563 567 568
3 563 568 564
3 563 592 567
3 595 567 592
3 565 566 594
3 565 594 593
3 566 569 597
3 566 597 594
3 567 570 571
3 567 571 568
3 567 595 570
3 598 570 595
3 569 572 597
3 600 597 572
3 570 573 571
3 574 571 573
3 570 598 601
3 570 601 573
3 572 575 600
3 602 600 575
3 573 576 574
3 577 574 576
3 573 601 603
3 573 603 576
3 575 576 602
3 603 602 576
3 578 580 579
3 581 579 580
3 580 583 581
3 584 581 583
3 581 584 582
3 585 582 584
3 584 587 588
3 584 588 585
3 585 588 589
3 585 589 586
3 587 604 605
3 587 605 588
3 587 590 606
3 587 606 604
3 588 591 592
3 588 592 589
3 588 605 607
3 588 607 591
3 590 593 594
3 590 594 591
3 590 591 607
3 590 607 606
3 591 594 595
3 591 595 592
3 594 597 598
3 594 598 595
3 596 597 600
3 596 600 599
3 596 608 597
3 609 597 608
3 596 599 611
3 596 611 608
3 597 609 598
3 610 598 609
3 598 610 601
3 613 601 610
3 599 600 611
3 612 611 600
3 600 602 601
3 603 601 602
3 600 601 612
3 613 612 601
3 604 606 605
3 607 605 606
3 608 611 609
3 612 609 611
3 609 612 610
3 613 610 612
