ply
format ascii 1.0
element vertex 672
property float x
property float y
property float z
property uchar red
property uchar green
property uchar blue
element face 1336
property list uchar int vertex_index
end_header
-36.3808 -48.1493 -23.4011 0 15 255
-37.0621 -48.0292 -23.4242 0 104 255
-35.2492 -48.3355 -24.9718 0 127 255
-36.0903 -48.428 -24.5166 0 176 255
-37.1735 -48.2998 -24.5426 25 255 230
-35.213 -48.4579 -26.2746 0 187 255
-36.241 -48.6664 -26.2005 133 255 122
-37.4078 -48.5076 -26.1214 180 255 75
-35.2658 -48.4496 -27.9083 65 255 190
-36.3944 -48.7125 -27.9511 153 255 102
-37.7867 -48.5348 -27.9251 221 255 34
-38.688 -48.2034 -28.4346 0 77 255
-35.3969 -48.2966 -29.5646 70 255 185
-36.4495 -48.6283 -29.688 103 255 152
-37.7711 -48.4865 -29.817 40 255 215
-38.6499 -48.2234 -29.412 0 104 255
-35.6322 -48.1845 -31.0474 0 213 255
-36.43 -48.4339 -31.1682 0 150 255
-37.4032 -48.3024 -31.3104 0 221 255
-35.8674 -48.0291 -31.9537 0 0 222
-36.4708 -48.0509 -32.1959 0 123 255
-37.1659 -47.981 -32.2418 0 0 215
-35.263 -46.0824 -19.382 0 62 255
-36.0383 -46.2505 -19.3105 0 132 255
-36.8456 -46.157 -19.3624 0 154 255
-34.9768 -46.456 -20.553 48 255 207
-36.0307 -46.834 -20.6619 255 241 0
-37.1603 -46.5735 -20.5991 130 255 125
-33.9304 -46.4997 -22.9053 0 188 255
-34.6501 -46.9606 -22.2843 160 255 95
-36.0148 -47.5599 -22.451 190 255 65
-37.5843 -47.2261 -22.5121 255 186 0
-38.6758 -46.6444 -23.019 1 255 254
-33.8751 -46.7906 -24.2836 159 255 96
-34.6605 -47.7047 -24.2226 210 255 45
-35.5392 -48.0341 -23.6779 0 93 255
-38.0891 -47.7144 -24.2827 110 255 145
-39.0597 -46.8911 -24.3416 255 249 0
-33.8214 -47.0454 -25.9368 0 182 255
-34.4164 -47.8618 -26.0409 118 255 137
-38.3943 -48.0031 -25.8933 90 255 165
-39.3254 -47.2239 -26.0016 0 250 255
-33.8755 -47.1499 -27.4451 0 166 255
-34.4217 -47.8171 -27.719 0 220 255
-38.5974 -48.1225 -27.2447 0 127 255
-39.4707 -47.4633 -27.9172 255 151 0
-40.2647 -46.6304 -28.6191 7 255 248
-34.0231 -47.1022 -28.502 0 0 235
-34.6271 -47.4202 -29.3239 191 255 64
-38.5094 -48.0732 -30.5029 0 210 255
-39.3327 -47.5734 -29.8796 172 255 83
-40.2688 -46.5949 -29.8808 0 133 255
-35.2327 -47.477 -31.0442 0 118 255
-38.2861 -47.757 -31.6198 0 128 255
-39.4038 -46.996 -31.4924 68 255 187
-40.2153 -46.415 -31.0265 0 242 255
-35.8075 -47.4729 -32.1598 0 67 255
-36.6768 -47.2681 -32.8435 0 109 255
-37.7098 -47.1991 -32.7861 132 255 123
-38.8993 -46.7018 -32.5025 0 74 255
-36.9432 -47.0363 -33.4812 0 0 156
-37.3198 -47.007 -33.4873 0 0 183
-36.3429 -43.9843 -15.5332 0 0 214
-36.9101 -43.9143 -15.5932 0 70 255
-35.1958 -44.496 -17.064 0 87 255
-36.0512 -44.5373 -16.5606 43 255 212
-37.0827 -44.3958 -16.655 181 255 74
-34.9059 -45.1583 -18.4899 255 126 0
-36.0626 -45.4209 -18.1207 80 255 175
-37.293 -45.2599 -18.4003 175 255 80
-33.6477 -44.9619 -20.8114 0 105 255
-34.1949 -45.4943 -20.1129 45 255 210
-38.103 -45.6231 -20.1133 133 255 122
-38.9175 -45.0454 -20.8242 0 236 255
-33.624 -45.4702 -22.2438 178 255 77
-34.0504 -46.0689 -21.5063 0 241 255
-38.3513 -46.2232 -21.6034 103 255 152
-39.2179 -45.5483 -22.3462 255 94 0
-33.5654 -45.5765 -24.133 222 255 33
-33.6926 -44.8335 -24.8253 0 140 255
-39.9125 -45.6527 -24.1992 222 255 33
-40.5238 -44.9109 -24.9411 0 38 255
-33.6458 -46.0696 -25.9323 0 239 255
-33.8921 -45.085 -26.1506 50 255 205
-40.1172 -46.1925 -25.917 149 255 106
-40.6813 -45.1735 -26.2561 172 255 83
-33.7958 -46.3593 -27.4519 34 255 221
-34.1597 -45.494 -27.7342 97 255 158
-40.2027 -46.4862 -27.2812 0 157 255
-40.7202 -45.5912 -28.0163 255 129 0
-34.0175 -46.5399 -28.527 0 17 255
-34.6552 -46.0214 -29.4233 255 220 0
-35.4078 -45.1929 -30.3427 0 211 255
-40.8186 -45.4417 -29.8637 250 255 5
-35.3263 -46.4924 -31.1733 39 255 216
-35.9885 -45.53 -31.5722 95 255 160
-39.9172 -46.0919 -32.0493 0 104 255
-40.6167 -45.4086 -31.5188 17 255 238
-35.8524 -46.7794 -32.1986 0 105 255
-36.7322 -46.2159 -32.7994 65 255 190
-37.9457 -46.0216 -33.1851 104 255 151
-39.4312 -45.6725 -32.843 90 255 165
-40.3906 -45.01 -32.5499 0 104 255
-36.9719 -46.6579 -33.4935 0 0 185
-37.3841 -46.6034 -33.5913 0 0 243
-36.3603 -42.3384 -13.6769 0 106 255
-36.9687 -42.2728 -13.7435 0 81 255
-35.1252 -42.8246 -15.0778 0 45 255
-36.0361 -43.1061 -14.7281 166 255 89
-37.217 -42.9725 -14.872 91 255 164
-34.7421 -43.4553 -16.3439 255 151 0
-35.5922 -43.8139 -15.7976 0 71 255
-37.9641 -43.4122 -16.3682 120 255 135
-38.6587 -42.7865 -16.9471 67 255 188
-33.5257 -43.1433 -18.7552 73 255 182
-34.0621 -43.8062 -18.0381 58 255 197
-38.2415 -44.1871 -18.062 255 185 0
-38.9095 -43.1659 -18.2945 136 255 119
-33.4736 -43.7135 -20.1663 206 255 49
-33.8086 -44.4062 -19.4067 0 233 255
-38.5881 -44.5988 -19.3934 0 137 255
-39.2431 -43.7764 -20.1488 194 0 0
-33.4763 -43.9241 -21.9812 223 255 32
-33.7148 -43.2101 -22.7775 0 194 255
-39.9239 -43.8952 -22.2874 192 255 63
-40.4601 -43.4437 -23.3009 0 135 255
-33.5472 -44.4467 -23.4263 0 108 255
-33.9313 -43.717 -24.2056 255 219 0
-40.2614 -44.4792 -23.6108 0 246 255
-40.6621 -43.8163 -24.4668 252 255 3
-34.4464 -43.8119 -26.0627 255 162 0
-35.1375 -43.1171 -26.7783 0 154 255
-40.9342 -43.8757 -26.2188 235 255 20
-34.6906 -44.3985 -27.7579 0 192 255
-35.4352 -43.45 -28.084 115 255 140
-41.0723 -44.0222 -28.0371 167 255 88
-34.9845 -44.8174 -29.0414 2 255 253
-35.8504 -44.024 -29.7838 255 159 0
-41.1489 -44.0101 -29.9027 163 255 92
-36.815 -44.1951 -31.5325 255 80 0
-37.8906 -43.6415 -32.2084 0 208 255
-41.1383 -43.8883 -31.7593 246 255 9
-41.5393 -43.4335 -32.4153 0 0 194
-37.3012 -44.8781 -32.6338 0 178 255
-38.5247 -44.2707 -33.1413 104 255 151
-39.7101 -44.3546 -33.3145 0 210 255
-40.7752 -43.8768 -32.9417 0 176 255
-41.4287 -43.4538 -32.8331 0 0 193
-39.2954 -43.6904 -33.6891 0 0 165
-39.9104 -43.657 -33.7373 0 0 233
-40.4879 -43.5451 -33.5891 0 0 206
-36.3586 -40.5117 -12.0196 0 11 255
-36.9459 -40.4693 -12.0822 0 101 255
-35.1064 -40.9797 -13.1901 0 42 255
-36.0354 -41.3095 -12.8998 166 255 89
-37.2251 -41.1831 -13.02 13 255 242
-34.6893 -41.641 -14.3832 255 73 0
-35.5741 -42.1106 -13.9078 0 38 255
-38.025 -41.6629 -14.3493 255 237 0
-38.6592 -41.0514 -14.9482 0 113 255
-33.3971 -41.1994 -16.7299 15 255 240
-33.9586 -41.9395 -16.0037 151 255 104
-38.3621 -42.2957 -15.6167 0 108 255
-38.8707 -41.5899 -16.3287 255 159 0
-33.3601 -41.7782 -18.1193 86 255 169
-33.7034 -42.5528 -17.3629 77 255 178
-39.2096 -41.7239 -18.1749 255 201 0
-33.4273 -41.9301 -19.9632 255 104 0
-33.7536 -41.2989 -20.8724 0 225 255
-39.5392 -42.0066 -20.1181 255 69 0
-33.5347 -42.6102 -21.3664 0 189 255
-34.0217 -41.9327 -22.1817 255 157 0
-40.0421 -42.1471 -22.2113 255 125 0
-40.4841 -42.6272 -23.2758 0 55 255
-34.634 -42.1881 -23.9759 229 255 26
-35.4398 -41.6158 -24.7641 0 191 255
-40.2612 -41.6959 -23.4922 0 154 255
-40.6286 -42.3754 -24.4232 66 255 189
-34.8678 -42.6998 -25.398 0 203 255
-35.6586 -42.1342 -26.1598 178 255 77
-40.8405 -42.5312 -26.1801 233 255 22
-36.2543 -42.3465 -27.9097 255 164 0
-40.9577 -42.6644 -27.9815 168 255 87
-36.9129 -42.5901 -29.6448 255 248 0
-37.8905 -42.1319 -30.3039 0 171 255
-40.9956 -42.755 -29.7989 161 255 94
-37.3433 -43.0662 -31.0065 0 210 255
-38.4632 -42.6365 -31.5936 182 255 73
-39.8126 -42.4413 -31.8411 0 221 255
-40.9009 -42.8167 -31.6441 39 255 216
-41.4724 -43.0789 -32.3849 0 0 159
-39.1 -43.2114 -32.9827 0 149 255
-39.9798 -42.9233 -32.9897 0 112 255
-40.8285 -43.1465 -32.9128 0 73 255
-41.4225 -43.1701 -32.8197 0 0 198
-39.4631 -43.3015 -33.6279 0 0 209
-40.0028 -43.2144 -33.6535 0 0 208
-40.5224 -43.239 -33.5617 0 0 200
-35.106 -38.9869 -11.5663 0 158 255
-36.0568 -39.5076 -11.4912 108 255 147
-37.1462 -39.4711 -11.6159 0 222 255
-34.6801 -39.7789 -12.5741 255 195 0
-35.5758 -40.2704 -12.1991 0 17 255
-37.9454 -39.8176 -12.5414 125 255 130
-38.5558 -39.1825 -13.037 0 218 255
-33.2094 -39.2461 -14.73 117 255 138
-33.8717 -40.049 -14.049 162 255 93
-38.3459 -40.4636 -13.6649 0 157 255
-38.8004 -39.7516 -14.3442 149 255 106
-33.1512 -39.7989 -16.1085 255 194 0
-33.5838 -40.6275 -15.3593 26 255 229
-39.0463 -39.895 -16.1571 255 229 0
-33.2209 -39.9561 -17.8236 255 135 0
-39.1691 -40.0645 -18.0675 255 57 0
-33.515 -40.1942 -19.3095 36 255 219
-34.1042 -40.0527 -20.4699 170 255 85
-39.3209 -40.3988 -20.0299 242 0 0
-34.8467 -40.3757 -21.9418 211 255 44
-36.0215 -39.8149 -22.6237 85 255 170
-36.9801 -39.5156 -22.9103 0 199 255
-39.5659 -40.6512 -22.0005 255 155 0
-35.1594 -41.0297 -23.3579 75 255 180
-36.1236 -40.6347 -24.1567 255 199 0
-37.3364 -39.9289 -24.0865 11 255 244
-39.8015 -40.7562 -23.893 173 255 82
-40.3744 -41.4352 -24.8091 0 109 255
-36.7391 -41.068 -25.9112 255 143 0
-38.0631 -40.3706 -25.6091 255 167 0
-39.4058 -40.5949 -25.6104 151 255 104
-40.3614 -41.4466 -26.1221 1 255 254
-37.1607 -41.4351 -27.6401 33 255 222
-38.2834 -40.9581 -27.6361 184 255 71
-39.4722 -41.0133 -27.6639 192 255 63
-40.4126 -41.6259 -27.8437 197 255 58
-37.4568 -41.7326 -28.9648 0 188 255
-38.4025 -41.4942 -29.4538 96 255 159
-39.5595 -41.3975 -29.394 16 255 239
-40.4544 -41.8299 -29.4855 58 255 197
-38.8606 -41.8433 -30.6775 0 75 255
-39.7186 -41.7957 -30.7317 0 171 255
-40.4583 -42.0208 -30.6971 0 47 255
-35.3347 -36.8312 -10.1531 0 139 255
-36.1759 -36.9774 -10.0072 0 176 255
-37.031 -36.9994 -10.0964 0 10 255
-33.608 -36.8407 -11.5639 68 255 187
-34.6906 -37.5105 -11.0275 206 255 49
-36.0966 -38.0043 -10.6963 64 255 191
-37.456 -37.8709 -10.864 213 255 42
-38.2136 -37.3402 -11.2963 0 107 255
-33.1475 -37.2444 -12.5645 23 255 232
-33.9374 -38.3631 -12.3115 135 255 120
-38.0949 -38.5555 -11.8427 0 122 255
-38.5901 -37.9011 -12.4608 220 255 35
-32.8477 -37.8185 -14.1159 255 214 0
-33.48 -38.7752 -13.4351 0 238 255
-38.8933 -38.0502 -14.1578 255 215 0
-32.757 -37.8859 -15.9387 255 46 0
-38.9193 -38.1419 -15.9915 255 72 0
-33.2473 -38.0339 -17.7328 255 24 0
-34.0017 -37.4835 -18.5814 104 255 151
-37.952 -37.4713 -18.5565 0 229 255
-38.701 -38.2915 -17.9535 239 0 0
-33.7007 -38.8672 -18.9402 114 255 141
-34.6166 -38.4294 -19.7132 255 141 0
-36.0718 -38.0491 -20.0661 195 255 60
-37.4923 -38.0665 -19.9205 255 194 0
-38.6482 -39.0227 -19.9565 192 255 63
-35.1771 -39.2102 -21.0505 0 159 255
-36.1968 -38.9708 -21.4453 81 255 174
-37.5416 -39.057 -21.9674 255 201 0
-38.7548 -39.5621 -21.8763 255 236 0
-38.1164 -39.5611 -23.5838 0 90 255
-38.9858 -39.8506 -23.5201 78 255 177
-38.4397 -39.834 -24.6466 0 69 255
-39.0072 -39.9593 -24.6296 0 110 255
-35.2576 -35.9303 -9.96935 0 105 255
-36.2371 -35.9941 -9.78917 0 91 255
-37.3044 -36.1177 -9.96532 0 91 255
-37.9198 -35.8564 -10.2235 0 0 210
-33.2353 -35.6786 -11.4626 0 181 255
-34.3455 -35.8485 -10.6357 215 255 40
-37.7685 -36.7396 -10.4254 0 30 255
-38.231 -36.2597 -10.937 0 170 255
-32.5203 -35.8473 -12.5794 255 200 0
-38.6136 -36.3761 -12.3492 101 255 154
-31.472 -34.8394 -14.525 0 141 255
-32.0339 -35.8366 -14.0795 255 181 0
-38.7596 -36.4382 -13.9838 255 65 0
-31.4918 -34.8422 -15.3624 0 47 255
-32.1304 -35.845 -15.8006 255 56 0
-37.9313 -35.5321 -16.4104 7 255 248
-38.562 -36.4041 -15.732 255 224 0
-32.9671 -36 -17.29 246 255 9
-34.3439 -36.0527 -18.2079 255 209 0
-35.9024 -35.7527 -18.14 255 217 0
-37.4158 -36.2008 -17.724 230 0 0
-38.3346 -36.9267 -17.1558 0 100 255
-34.9507 -37.1044 -19.0356 0 225 255
-35.9904 -36.9382 -19.0796 68 255 187
-37.0122 -37.0171 -18.9414 0 138 255
-35.2608 -35.0283 -10.0162 0 137 255
-36.1646 -34.9687 -9.95754 0 169 255
-37.2013 -35.0809 -10.1343 0 127 255
-37.8424 -35.3033 -10.2854 0 0 242
-32.0152 -33.4499 -12.0324 0 65 255
-32.8144 -34.1232 -11.5615 228 255 27
-34.443 -34.2368 -10.6959 229 255 26
-35.8722 -33.8846 -10.611 127 255 128
-37.1625 -34.0946 -11.0046 193 255 62
-38.0177 -35.122 -11.0087 0 206 255
-31.5941 -33.4894 -12.84 42 255 213
-32.04 -34.5558 -12.539 0 156 255
-37.6475 -33.7568 -12.3723 143 255 112
-38.3138 -35.0269 -12.3113 221 255 34
-31.2208 -33.7703 -14.2148 84 255 171
-31.652 -34.7368 -13.5491 0 189 255
-37.7933 -33.7726 -13.9269 225 255 30
-38.4228 -35.0497 -13.8035 47 255 208
-31.192 -33.767 -15.7732 136 255 119
-31.8242 -34.5785 -16.3126 0 155 255
-36.5718 -33.3134 -16.4959 0 206 255
-37.5047 -34.1088 -15.7049 255 92 0
-38.291 -35.1443 -15.0864 5 255 250
-31.3851 -33.2983 -16.917 0 235 255
-32.4247 -34.055 -17.3202 128 0 0
-34.0592 -34.0031 -17.8318 255 21 0
-35.7824 -33.9352 -17.4099 255 111 0
-36.9732 -34.7162 -16.9775 0 214 255
-32.0018 -32.7694 -12.0956 0 57 255
-32.7747 -32.7331 -11.7063 45 255 210
-34.1124 -32.4064 -11.4097 228 255 27
-35.6041 -32.4164 -11.4079 125 255 130
-36.6274 -32.8905 -11.5285 0 126 255
-31.5672 -32.188 -12.9609 38 255 217
-32.4882 -31.7516 -12.3024 0 196 255
-33.451 -31.4994 -12.0164 0 91 255
-36.0292 -31.7681 -12.1791 0 61 255
-36.8538 -32.3685 -12.5457 49 255 206
-30.1041 -31.2157 -15.4585 0 32 255
-30.7463 -31.955 -14.6241 255 88 0
-37.1352 -32.3849 -13.9202 40 255 215
-29.9325 -31.1303 -16.4443 0 184 255
-30.5476 -32.2299 -16.0878 134 255 121
-36.2056 -31.9903 -16.2947 64 255 191
-36.9374 -32.3932 -15.2499 196 255 59
-29.8677 -30.9191 -17.8205 107 255 148
-30.8298 -31.9808 -17.6125 239 255 16
-32.1768 -32.307 -18.1214 229 255 26
-33.7221 -31.9679 -18.2544 255 95 0
-35.2143 -31.9812 -17.4496 255 13 0
-29.7793 -30.5513 -19.0554 0 193 255
-30.6463 -30.9741 -19.094 122 255 133
-31.8884 -31.0994 -19.1959 35 255 220
-33.003 -30.926 -19.1055 0 253 255
-21.9336 -30.1615 -30.1739 0 0 197
-22.4977 -30.0861 -29.9372 0 0 241
-23.2978 -29.92 -29.6687 0 0 250
-21.6717 -30.1408 -30.8461 0 3 255
-22.3251 -30.2738 -30.6842 0 0 255
-23.2075 -30.0643 -30.4265 0 143 255
-21.3146 -30.0647 -31.9704 0 54 255
-22.1539 -30.1932 -31.8251 0 130 255
-23.037 -30.0124 -31.3495 0 115 255
-21.0952 -30.0133 -32.8583 0 21 255
-21.6639 -30.0694 -32.7755 0 48 255
-34.391 -31.3812 -11.896 0 0 243
-35.1765 -31.439 -11.9427 0 132 255
-31.5408 -31.0653 -13.4577 0 241 255
-32.4519 -30.7417 -13.0201 3 255 252
-33.8493 -30.517 -12.7485 225 255 30
-35.3983 -30.7596 -12.9169 158 255 97
-36.3618 -31.3771 -13.1061 0 55 255
-30.1212 -30.5507 -15.5098 0 53 255
-30.9135 -30.3737 -14.7205 125 255 130
-32.1472 -29.841 -14.0108 26 255 229
-33.2045 -29.6066 -13.6921 0 211 255
-35.7302 -30.275 -14.3826 71 255 184
-36.5379 -31.2566 -14.0815 35 255 220
-29.8127 -30.0936 -16.5811 0 242 255
-30.3433 -29.7141 -15.8613 0 98 255
-35.7804 -30.4274 -15.9294 255 71 0
-36.5243 -31.2903 -15.0738 0 102 255
-29.4761 -29.8834 -18.2505 0 189 255
-34.0513 -30.5636 -18.6155 0 164 255
-34.9115 -30.0985 -17.737 245 0 0
-28.382 -29.134 -21.3804 0 7 255
-29.2101 -29.6086 -20.2869 255 231 0
-30.4012 -30.0581 -20.4806 165 255 90
-31.8072 -30.0128 -20.3686 247 255 8
-33.3123 -29.622 -19.7724 255 27 0
-34.3002 -29.2497 -18.875 0 160 255
-28.0962 -28.9542 -22.5845 0 125 255
-28.9204 -29.3175 -22.2674 116 255 139
-30.1811 -29.4002 -22.1755 250 255 5
-31.5993 -29.0835 -21.9582 255 165 0
-32.6697 -28.866 -21.2273 0 68 255
-27.6003 -28.7556 -24.3001 175 255 80
-28.5628 -29.0204 -24.1248 161 255 94
-29.9333 -28.8548 -24.006 198 255 57
-31.083 -28.6385 -23.3256 0 57 255
-25.419 -28.7707 -27.5154 0 168 255
-26.6847 -28.6707 -26.4175 179 255 76
-28.0189 -28.8014 -25.9955 114 255 141
-29.235 -28.567 -25.7301 65 255 190
-21.9351 -29.8235 -30.1196 0 0 196
-22.7315 -29.4391 -29.6539 0 111 255
-24.3466 -29.1722 -28.9212 146 255 109
-26.1158 -28.904 -28.1998 172 255 83
-27.6656 -28.5625 -27.7281 229 255 26
-28.7984 -28.3011 -26.9848 1 255 254
-21.4595 -29.5185 -30.9215 0 196 255
-22.1223 -29.1043 -30.2811 0 29 255
-24.2842 -29.4609 -30.2298 120 255 135
-25.82 -28.8179 -29.8198 255 255 0
-27.0423 -28.4134 -29.0813 0 112 255
-19.6417 -28.9526 -33.5533 0 3 255
-20.6195 -29.3656 -32.538 34 255 221
-22.5904 -29.8242 -32.4518 0 94 255
-23.7822 -29.3218 -31.8588 255 187 0
-25.1414 -28.7369 -31.135 0 147 255
-17.9891 -28.4701 -35.6265 0 50 255
-19.0403 -28.8039 -34.7483 104 255 151
-20.4831 -29.461 -33.8721 130 255 125
-21.836 -29.5424 -33.6291 127 255 128
-23.0123 -28.9256 -33.4946 0 221 255
-17.6487 -28.4581 -36.5942 0 147 255
-18.7314 -28.8253 -36.1544 4 255 251
-20.0817 -29.0632 -35.6528 89 255 166
-21.4129 -28.8956 -35.4131 94 255 161
-22.4059 -28.6504 -34.7999 0 217 255
-17.4215 -28.4175 -37.8077 0 55 255
-18.4575 -28.6239 -37.6871 0 235 255
-19.7665 -28.6923 -37.0809 0 235 255
-20.7748 -28.5728 -36.6418 0 186 255
-17.2954 -28.3254 -38.7574 0 0 237
-17.8679 -28.4116 -38.7311 0 35 255
-34.1567 -29.5277 -13.5781 0 83 255
-34.8725 -29.6558 -13.6735 0 159 255
-31.19 -29.2843 -15.323 0 128 255
-32.2121 -28.876 -14.9853 85 255 170
-33.6146 -28.7144 -14.631 172 255 83
-34.8416 -29.0016 -14.8196 104 255 151
-29.8932 -29.2108 -17.1246 0 173 255
-30.6931 -28.7603 -16.5121 224 255 31
-32.0052 -27.954 -16.3019 153 255 102
-33.0956 -27.903 -15.7233 0 118 255
-35.0685 -28.7964 -16.2179 139 255 116
-29.5793 -28.8413 -18.4729 211 255 44
-30.4542 -27.8509 -18.2683 208 255 47
-31.5142 -27.4026 -17.6078 5 255 250
-34.7718 -28.4428 -17.7505 46 255 209
-28.2969 -28.6864 -21.4103 0 62 255
-28.9801 -28.4552 -20.4435 138 255 117
-29.7882 -27.4871 -20.0524 155 255 100
-33.6627 -28.0592 -20.3073 200 255 55
-34.3556 -28.1129 -19.0511 32 255 223
-27.9769 -28.3686 -22.558 0 115 255
-28.5841 -27.6101 -22.1879 157 255 98
-29.416 -27.1016 -21.3985 0 157 255
-32.0988 -28.2595 -22.6249 0 35 255
-32.8711 -27.8267 -21.8835 234 255 21
-27.4153 -28.0865 -24.2219 0 207 255
-27.9346 -27.3454 -23.9314 26 255 229
-30.5935 -28.2669 -24.6345 0 113 255
-31.5917 -27.7977 -23.9547 255 250 0
-32.4156 -27.3482 -23.1609 0 55 255
-25.4074 -28.2139 -27.4051 0 55 255
-26.5174 -27.7339 -26.2499 227 255 28
-27.4217 -27.1202 -25.3242 0 199 255
-30.101 -27.9691 -25.8474 7 255 248
-30.9729 -27.3206 -25.4628 0 185 255
-23.1473 -28.5721 -29.5354 0 225 255
-24.4849 -28.0033 -28.6448 201 255 54
-25.6667 -27.3983 -27.6241 0 219 255
-28.2416 -27.9588 -28.2884 0 154 255
-29.3591 -27.528 -27.3778 82 255 173
-30.4013 -27.0779 -26.5408 0 42 255
-21.4176 -28.734 -31.3049 0 187 255
-22.4639 -28.1626 -30.6024 115 255 140
-23.7102 -27.585 -29.7774 0 206 255
-26.4006 -28.1391 -30.3959 0 168 255
-27.5122 -27.6155 -29.5943 95 255 160
-28.6102 -27.2108 -28.6613 0 130 255
-19.587 -28.4789 -33.5915 0 6 255
-20.6124 -28.4101 -32.665 46 255 209
-21.682 -27.7403 -32.1511 46 255 209
-24.4988 -28.398 -32.3786 0 145 255
-25.6988 -27.83 -31.6165 127 255 128
-26.7251 -27.2987 -30.9042 0 198 255
-17.6814 -27.9822 -35.7727 0 37 255
-18.8159 -27.9853 -34.7892 0 227 255
-20.1315 -27.6456 -34.039 52 255 203
-21.2201 -27.431 -33.3111 0 92 255
-23.8456 -27.9068 -33.4754 255 214 0
-25.0555 -27.4107 -32.6137 0 99 255
-16.3226 -27.5376 -37.68 0 0 202
-16.9502 -27.8634 -36.9889 0 104 255
-18.8556 -27.4696 -35.3327 0 0 249
-19.5926 -27.3513 -35.0389 0 64 255
-21.7398 -28.3003 -36.0483 0 69 255
-22.5683 -27.9697 -35.2569 0 166 255
-16.2153 -27.5128 -38.6033 0 73 255
-16.7254 -27.9568 -38.2369 0 98 255
-18.7237 -28.3534 -38.5436 0 117 255
-19.69 -28.2043 -38.1376 0 175 255
-20.9502 -27.9554 -37.2008 0 150 255
-21.9188 -27.7423 -36.3597 0 15 255
-16.234 -27.4326 -40.0251 0 82 255
-16.9032 -27.8931 -39.6724 27 255 228
-18.0234 -28.0202 -39.6281 12 255 243
-19.1096 -27.6598 -39.432 0 206 255
-20.1774 -27.6094 -38.4372 0 50 255
-16.2022 -27.2698 -41.6857 0 0 234
-16.7459 -27.5155 -41.5857 0 160 255
-17.5821 -27.5445 -41.4637 0 224 255
-18.2804 -27.348 -41.2056 0 168 255
-16.1758 -27.1386 -43.1469 0 0 239
-16.6144 -27.2466 -43.1966 0 68 255
-17.2543 -27.2015 -43.0443 0 61 255
-17.8839 -27.1785 -42.3218 0 0 165
-16.1849 -27.0651 -44.0657 0 0 170
-16.5185 -27.0783 -44.4713 0 0 215
-16.8529 -27.0719 -44.5095 0 0 167
-16.6275 -27.0314 -45.2117 0 0 141
-16.7612 -27.03 -45.2278 0 0 128
-33.9763 -27.9251 -15.4615 0 109 255
-34.5227 -28.0795 -15.5241 0 21 255
-32.6045 -27.2119 -17.0031 0 176 255
-33.5764 -27.3686 -16.4691 0 189 255
-34.4634 -27.7113 -16.5093 0 205 255
-31.04 -26.9784 -18.936 0 204 255
-32.1712 -26.6489 -18.4265 139 255 116
-33.4523 -26.6775 -17.9434 0 219 255
-34.2944 -27.1029 -18.0212 60 255 195
-30.5941 -26.6671 -20.2465 68 255 187
-31.5934 -26.1702 -20.0766 1 255 254
-33.6808 -26.8458 -20.4447 0 152 255
-34.2066 -26.971 -19.2282 0 149 255
-29.0322 -26.792 -22.7548 0 122 255
-30.0717 -26.3117 -22.0385 243 255 12
-31.1536 -25.942 -21.3672 0 157 255
-33.0373 -26.6912 -21.9735 40 255 215
-28.5903 -26.5753 -24.0862 41 255 214
-29.5517 -26.0248 -23.8265 23 255 232
-31.9424 -26.8647 -24.3067 0 36 255
-32.4539 -26.4985 -23.5221 0 243 255
-26.846 -26.8097 -26.7212 0 199 255
-27.9706 -26.3263 -25.8532 196 255 59
-29.1096 -25.9104 -25.141 0 91 255
-31.4359 -26.4368 -25.2611 3 255 252
-32.0711 -26.1361 -24.4813 0 0 220
-24.9596 -27.0046 -28.9717 0 205 255
-26.1622 -26.5028 -28.1154 167 255 88
-27.3495 -26.1087 -27.3069 0 101 255
-29.578 -26.5217 -27.5822 0 199 255
-30.5671 -26.4205 -26.5375 0 77 255
-23.1083 -27.2414 -30.9838 0 219 255
-24.3699 -26.6808 -30.2684 191 255 64
-25.5446 -26.2163 -29.4508 0 102 255
-27.6737 -26.5573 -29.8766 0 199 255
-28.6966 -26.5011 -28.7729 0 96 255
-22.6415 -27.0703 -32.1924 150 255 105
-23.9343 -26.5277 -31.8629 26 255 229
-26.0225 -26.9093 -31.8783 0 49 255
-26.7286 -26.489 -31.2402 0 117 255
-17.5005 -27.5892 -36.0416 0 0 202
-18.1214 -27.5533 -35.6351 0 10 255
-20.6484 -27.204 -34.5544 0 47 255
-21.9388 -27.0585 -33.7937 155 255 100
-23.7811 -26.8274 -33.266 255 166 0
-25.4057 -26.5717 -32.4669 0 131 255
-26.2072 -26.1901 -31.9758 0 0 247
-16.3882 -27.2983 -37.6983 0 0 168
-17.1105 -27.3452 -37.0171 0 135 255
-18.3663 -27.2195 -36.3248 65 255 190
-19.901 -27.113 -35.82 167 255 88
-21.3508 -27.1085 -35.523 163 255 92
-22.4787 -27.2608 -35.173 18 255 237
-16.2929 -27.1661 -38.6518 0 25 255
-16.9955 -27.0006 -38.3909 0 231 255
-18.1642 -26.9417 -38.0242 144 255 111
-19.5355 -27.0376 -37.6131 188 255 67
-20.8595 -27.2949 -37.0826 0 203 255
-21.8714 -27.3746 -36.307 0 0 228
-16.2483 -27.0653 -40.1051 0 106 255
-16.8759 -26.8622 -40.0049 0 235 255
-17.9017 -26.8617 -39.7669 57 255 198
-19.0543 -27.1189 -39.3493 0 190 255
-20.1406 -27.2827 -38.3836 0 61 255
-16.2046 -26.998 -41.7218 0 36 255
-16.7351 -26.8387 -41.6888 0 133 255
-17.5467 -26.8598 -41.5144 0 157 255
-18.2621 -27.0411 -41.1954 0 65 255
-16.1764 -26.9774 -43.1589 0 0 203
-16.6118 -26.895 -43.2249 0 47 255
-17.2478 -26.9595 -43.0552 0 58 255
-17.8783 -27.0241 -42.3204 0 0 213
-16.1851 -26.9862 -44.0692 0 0 141
-16.5182 -26.9686 -44.4763 0 0 193
-16.8518 -26.9812 -44.5121 0 0 214
-16.6274 -26.987 -45.2128 0 0 138
-16.761 -26.99 -45.2285 0 0 130
-36.2121 -23.7346 -55.4025 0 0 141
-36.4154 -23.8369 -55.5193 0 0 137
-36.2889 -23.8631 -55.7151 0 0 154
-36.4939 -23.9285 -55.7899 0 0 137
-36.3305 -23.8785 -55.9706 0 0 141
-36.4857 -23.9352 -56.0102 0 0 131
-32.7413 -26.0609 -19.239 0 48 255
-33.4818 -26.1329 -19.0225 0 84 255
-34.0434 -26.3428 -18.7921 0 0 242
-32.4101 -25.8587 -20.3745 0 194 255
-33.3457 -26.075 -20.23 0 249 255
-33.9931 -26.2999 -19.405 0 0 230
-30.7763 -25.7602 -22.6961 0 215 255
-31.7489 -25.6915 -22.0215 76 255 179
-32.6904 -25.9395 -21.9365 0 160 255
-30.4262 -25.6463 -24.0012 0 232 255
-31.4559 -25.5982 -23.6982 0 164 255
-32.2405 -25.8278 -23.4457 0 89 255
-28.578 -25.8186 -26.5161 0 178 255
-29.7579 -25.6864 -25.6724 50 255 205
-31.0953 -25.766 -25.1633 0 201 255
-31.9279 -25.7784 -24.4361 0 3 255
-26.7552 -25.909 -28.689 0 106 255
-27.9228 -25.7999 -27.9185 29 255 226
-29.3248 -25.8674 -27.3143 0 211 255
-30.4339 -25.9027 -26.4253 0 145 255
-25.155 -26.0047 -30.6427 0 0 252
-26.1675 -25.8164 -29.9625 34 255 221
-27.4479 -25.8814 -29.5632 51 255 204
-28.5727 -25.9662 -28.6349 0 151 255
-24.9605 -25.9492 -31.6076 0 142 255
-25.8852 -25.7383 -31.2698 0 105 255
-26.638 -25.8578 -31.0792 0 35 255
-24.8311 -26.0946 -32.418 0 97 255
-25.6423 -25.9274 -32.1055 0 0 242
-26.2373 -25.848 -31.8457 0 0 159
-34.8938 -22.4529 -54.2967 0 0 143
-35.1863 -22.6283 -54.3983 0 0 162
-35.0855 -22.6929 -54.7201 0 0 186
-35.6996 -23.1409 -54.995 0 0 217
-36.2253 -23.486 -55.3609 0 0 156
-35.3071 -22.9144 -55.2799 0 0 205
-35.8508 -23.4292 -55.5132 0 0 179
-36.3932 -23.6202 -55.7239 0 0 152
-35.5471 -23.1062 -55.7033 0 0 154
-36.0059 -23.483 -55.8861 0 0 156
-36.3458 -23.6513 -55.9759 0 0 139
-34.1215 -21.6695 -54.0295 0 0 144
-34.517 -21.9941 -54.1139 0 0 165
-34.9534 -22.2255 -54.2463 0 0 161
-34.1369 -21.7111 -54.2849 0 0 154
-34.5708 -22.1492 -54.4868 0 0 186
-35.4274 -22.5624 -54.7853 0 0 205
-36.0111 -23.0781 -55.2319 0 0 154
-34.2654 -21.7879 -54.5975 0 0 141
-34.8591 -22.3004 -55.005 0 0 211
-35.4376 -22.5726 -55.2147 0 0 203
-36.0883 -23.1499 -55.565 0 0 175
-35.3717 -22.8137 -55.6017 0 0 150
-35.7745 -23.0466 -55.7537 0 0 164
-36.1545 -23.3022 -55.8763 0 0 159
-34.0648 -21.5143 -53.9898 0 0 128
-34.3487 -21.6542 -54.0241 0 0 141
-34.6978 -21.8455 -54.1237 0 0 146
-34.0715 -21.5061 -54.2101 0 0 137
-34.3798 -21.6068 -54.2761 0 0 152
-34.8501 -21.9117 -54.435 0 0 184
-34.1631 -21.5846 -54.4807 0 0 137
-34.514 -21.7747 -54.6391 0 0 156
-34.9219 -21.9889 -54.7681 0 0 154
3 0 1 3
3 4 3 1
3 0 30 1
3 31 1 30
3 0 3 35
3 0 35 30
3 1 31 4
3 36 4 31
3 2 3 6
3 2 6 5
3 2 34 35
3 2 35 3
3 2 5 34
3 39 34 5
3 3 4 6
3 7 6 4
3 4 36 7
3 40 7 36
3 5 6 8
3 9 8 6
3 5 8 39
3 43 39 8
3 6 7 9
3 10 9 7
3 7 40 44
3 7 44 10
3 8 9 12
3 13 12 9
3 8 12 43
3 48 43 12
3 9 10 13
3 14 13 10
3 10 11 15
3 10 15 14
3 10 44 45
3 10 45 11
3 11 45 50
3 11 50 15
3 12 13 16
3 17 16 13
3 12 16 48
3 52 48 16
3 13 14 17
3 18 17 14
3 14 15 49
3 50 49 15
3 14 49 18
3 53 18 49
3 16 17 20
3 16 20 19
3 16 19 52
3 56 52 19
3 17 18 20
3 21 20 18
3 18 53 58
3 18 58 21
3 19 20 56
3 57 56 20
3 20 21 58
3 20 58 57
3 22 23 26
3 22 26 25
3 22 67 23
3 68 23 67
3 22 25 67
3 71 67 25
3 23 24 26
3 27 26 24
3 23 68 24
3 69 24 68
3 24 69 27
3 72 27 69
3 25 26 29
3 30 29 26
3 25 29 75
3 25 75 71
3 26 27 31
3 26 31 30
3 27 72 76
3 27 76 31
3 28 29 34
3 28 34 33
3 28 74 75
3 28 75 29
3 28 33 74
3 78 74 33
3 29 30 34
3 35 34 30
3 31 32 36
3 37 36 32
3 31 76 32
3 77 32 76
3 32 77 37
3 80 37 77
3 33 34 39
3 33 39 38
3 33 38 82
3 33 82 78
3 36 37 40
3 41 40 37
3 37 80 84
3 37 84 41
3 38 39 42
3 43 42 39
3 38 42 86
3 38 86 82
3 40 41 45
3 40 45 44
3 41 84 45
3 88 45 84
3 42 43 48
3 42 48 47
3 42 47 86
3 90 86 47
3 45 46 50
3 51 50 46
3 45 88 89
3 45 89 46
3 46 89 93
3 46 93 51
3 47 48 90
3 91 90 48
3 48 52 94
3 48 94 91
3 49 50 54
3 49 54 53
3 50 51 55
3 50 55 54
3 51 93 55
3 97 55 93
3 52 56 94
3 98 94 56
3 53 54 58
3 59 58 54
3 54 55 96
3 97 96 55
3 54 96 59
3 101 59 96
3 56 57 98
3 99 98 57
3 57 58 61
3 57 61 60
3 57 60 103
3 57 103 99
3 58 59 101
3 58 101 100
3 58 100 104
3 58 104 61
3 60 61 104
3 60 104 103
3 62 63 65
3 66 65 63
3 62 108 63
3 109 63 108
3 62 65 108
3 111 108 65
3 63 109 66
3 112 66 109
3 64 65 67
3 68 67 65
3 64 110 111
3 64 111 65
3 64 67 110
3 115 110 67
3 65 66 68
3 69 68 66
3 66 112 116
3 66 116 69
3 67 71 119
3 67 119 115
3 69 116 72
3 120 72 116
3 70 71 75
3 70 75 74
3 70 118 71
3 119 71 118
3 70 74 118
3 122 118 74
3 72 73 76
3 77 76 73
3 72 120 73
3 121 73 120
3 73 121 77
3 124 77 121
3 74 78 122
3 126 122 78
3 77 124 128
3 77 128 80
3 78 82 83
3 78 83 79
3 78 79 127
3 78 127 126
3 79 83 130
3 79 130 127
3 80 81 85
3 80 85 84
3 80 128 129
3 80 129 81
3 81 129 85
3 132 85 129
3 82 86 83
3 87 83 86
3 83 87 130
3 133 130 87
3 84 85 88
3 89 88 85
3 85 132 89
3 135 89 132
3 86 90 91
3 86 91 87
3 87 91 136
3 87 136 133
3 89 135 138
3 89 138 93
3 91 94 95
3 91 95 92
3 91 92 137
3 91 137 136
3 92 95 139
3 92 139 137
3 93 138 141
3 93 141 97
3 94 98 95
3 99 95 98
3 95 99 139
3 143 139 99
3 96 97 101
3 102 101 97
3 97 141 102
3 146 102 141
3 99 103 104
3 99 104 100
3 99 100 143
3 144 143 100
3 100 101 145
3 100 145 144
3 101 102 146
3 101 146 145
3 105 106 109
3 105 109 108
3 105 154 155
3 105 155 106
3 105 108 154
3 157 154 108
3 106 155 158
3 106 158 109
3 107 108 110
3 111 110 108
3 107 156 108
3 157 108 156
3 107 110 156
3 161 156 110
3 109 158 112
3 162 112 158
3 110 115 165
3 110 165 161
3 112 113 116
3 117 116 113
3 112 162 113
3 163 113 162
3 113 163 166
3 113 166 117
3 114 115 119
3 114 119 118
3 114 164 165
3 114 165 115
3 114 118 167
3 114 167 164
3 116 117 121
3 116 121 120
3 117 166 169
3 117 169 121
3 118 122 167
3 170 167 122
3 121 169 172
3 121 172 124
3 122 126 123
3 127 123 126
3 122 123 170
3 171 170 123
3 123 127 171
3 174 171 127
3 124 125 128
3 129 128 125
3 124 172 125
3 173 125 172
3 125 173 129
3 177 129 173
3 127 130 178
3 127 178 174
3 129 177 180
3 129 180 132
3 130 133 134
3 130 134 131
3 130 131 179
3 130 179 178
3 131 134 181
3 131 181 179
3 132 180 182
3 132 182 135
3 133 136 134
3 137 134 136
3 134 137 181
3 183 181 137
3 135 182 185
3 135 185 138
3 137 139 183
3 186 183 139
3 138 185 141
3 189 141 185
3 139 143 144
3 139 144 140
3 139 140 186
3 187 186 140
3 140 144 191
3 140 191 187
3 141 142 147
3 141 147 146
3 141 189 142
3 190 142 189
3 142 190 147
3 194 147 190
3 144 145 149
3 144 149 148
3 144 148 195
3 144 195 191
3 145 146 150
3 145 150 149
3 146 147 194
3 146 194 193
3 146 193 197
3 146 197 150
3 148 149 195
3 196 195 149
3 149 150 196
3 197 196 150
3 151 152 154
3 155 154 152
3 151 199 200
3 151 200 152
3 151 154 199
3 202 199 154
3 152 200 203
3 152 203 155
3 153 154 156
3 157 156 154
3 153 201 154
3 202 154 201
3 153 156 201
3 206 201 156
3 155 203 158
3 207 158 203
3 156 161 210
3 156 210 206
3 158 159 163
3 158 163 162
3 158 207 159
3 208 159 207
3 159 208 163
3 211 163 208
3 160 161 165
3 160 165 164
3 160 209 161
3 210 161 209
3 160 164 212
3 160 212 209
3 163 211 213
3 163 213 166
3 164 167 212
3 214 212 167
3 166 213 216
3 166 216 169
3 167 170 168
3 171 168 170
3 167 168 214
3 215 214 168
3 168 171 215
3 217 215 171
3 169 216 220
3 169 220 172
3 171 174 221
3 171 221 217
3 172 176 177
3 172 177 173
3 172 220 176
3 224 176 220
3 174 178 179
3 174 179 175
3 174 175 222
3 174 222 221
3 175 179 226
3 175 226 222
3 176 224 177
3 225 177 224
3 177 225 180
3 229 180 225
3 179 181 226
3 230 226 181
3 180 229 233
3 180 233 182
3 181 183 230
3 234 230 183
3 182 233 237
3 182 237 185
3 183 186 184
3 187 184 186
3 183 184 234
3 235 234 184
3 184 187 235
3 238 235 187
3 185 237 189
3 240 189 237
3 187 191 192
3 187 192 188
3 187 188 239
3 187 239 238
3 188 192 193
3 188 193 189
3 188 189 240
3 188 240 239
3 189 193 194
3 189 194 190
3 191 195 196
3 191 196 192
3 192 196 197
3 192 197 193
3 198 199 201
3 202 201 199
3 198 245 246
3 198 246 199
3 198 201 245
3 250 245 201
3 199 246 247
3 199 247 200
3 200 247 251
3 200 251 203
3 201 206 250
3 254 250 206
3 203 204 207
3 208 207 204
3 203 251 252
3 203 252 204
3 204 252 255
3 204 255 208
3 205 206 210
3 205 210 209
3 205 253 254
3 205 254 206
3 205 209 256
3 205 256 253
3 208 255 211
3 257 211 255
3 209 212 258
3 209 258 256
3 211 257 213
3 261 213 257
3 212 214 262
3 212 262 258
3 213 261 216
3 266 216 261
3 214 215 262
3 263 262 215
3 215 217 263
3 267 263 217
3 216 266 270
3 216 270 220
3 217 221 218
3 222 218 221
3 217 218 267
3 268 267 218
3 218 222 219
3 223 219 222
3 218 219 268
3 269 268 219
3 219 223 269
3 271 269 223
3 220 270 272
3 220 272 224
3 222 226 227
3 222 227 223
3 223 227 273
3 223 273 271
3 224 228 229
3 224 229 225
3 224 272 274
3 224 274 228
3 226 230 231
3 226 231 227
3 227 231 232
3 227 232 228
3 227 228 274
3 227 274 273
3 228 232 233
3 228 233 229
3 230 234 231
3 235 231 234
3 231 235 232
3 236 232 235
3 232 236 233
3 237 233 236
3 235 238 236
3 239 236 238
3 236 239 237
3 240 237 239
3 241 242 246
3 241 246 245
3 241 275 242
3 276 242 275
3 241 245 280
3 241 280 275
3 242 243 247
3 242 247 246
3 242 276 277
3 242 277 243
3 243 277 281
3 243 281 247
3 244 245 250
3 244 250 249
3 244 279 280
3 244 280 245
3 244 249 283
3 244 283 279
3 247 248 252
3 247 252 251
3 247 281 282
3 247 282 248
3 248 282 284
3 248 284 252
3 249 250 254
3 249 254 253
3 249 253 283
3 286 283 253
3 252 284 287
3 252 287 255
3 253 256 286
3 289 286 256
3 255 287 257
3 291 257 287
3 256 258 289
3 292 289 258
3 257 291 261
3 296 261 291
3 258 262 259
3 263 259 262
3 258 259 292
3 293 292 259
3 259 263 297
3 259 297 293
3 260 265 266
3 260 266 261
3 260 261 295
3 296 295 261
3 260 295 265
3 299 265 295
3 263 267 268
3 263 268 264
3 263 264 298
3 263 298 297
3 264 268 269
3 264 269 265
3 264 265 299
3 264 299 298
3 265 269 270
3 265 270 266
3 269 271 272
3 269 272 270
3 271 273 272
3 274 272 273
3 275 300 301
3 275 301 276
3 275 280 300
3 306 300 280
3 276 301 302
3 276 302 277
3 277 278 281
3 282 281 278
3 277 302 303
3 277 303 278
3 278 303 282
3 309 282 303
3 279 305 280
3 306 280 305
3 279 283 305
3 311 305 283
3 282 309 284
3 313 284 309
3 283 286 315
3 283 315 311
3 284 313 287
3 317 287 313
3 285 286 289
3 285 289 288
3 285 314 286
3 315 286 314
3 285 288 318
3 285 318 314
3 287 317 322
3 287 322 291
3 288 289 319
3 288 319 318
3 289 292 324
3 289 324 319
3 290 295 291
3 296 291 295
3 290 291 322
3 290 322 321
3 290 321 327
3 290 327 295
3 292 293 324
3 325 324 293
3 293 297 294
3 298 294 297
3 293 294 325
3 326 325 294
3 294 298 295
3 299 295 298
3 294 295 326
3 327 326 295
3 300 306 307
3 300 307 301
3 301 307 308
3 301 308 302
3 302 308 309
3 302 309 303
3 304 305 311
3 304 311 310
3 304 328 305
3 329 305 328
3 304 310 333
3 304 333 328
3 305 329 306
3 330 306 329
3 306 330 307
3 331 307 330
3 307 331 308
3 332 308 331
3 308 312 313
3 308 313 309
3 308 332 312
3 337 312 332
3 310 311 315
3 310 315 314
3 310 314 339
3 310 339 333
3 312 316 313
3 317 313 316
3 312 337 340
3 312 340 316
3 314 318 339
3 342 339 318
3 316 321 317
3 322 317 321
3 316 340 344
3 316 344 321
3 318 319 323
3 324 323 319
3 318 323 342
3 346 342 323
3 320 326 321
3 327 321 326
3 320 321 343
3 344 343 321
3 320 343 349
3 320 349 326
3 323 324 346
3 347 346 324
3 324 325 348
3 324 348 347
3 325 326 349
3 325 349 348
3 328 333 334
3 328 334 329
3 329 334 335
3 329 335 330
3 330 365 366
3 330 366 331
3 330 335 369
3 330 369 365
3 331 336 337
3 331 337 332
3 331 366 370
3 331 370 336
3 333 367 368
3 333 368 334
3 333 339 367
3 373 367 339
3 334 368 369
3 334 369 335
3 336 370 371
3 336 371 337
3 337 371 377
3 337 377 340
3 338 339 341
3 342 341 339
3 338 372 373
3 338 373 339
3 338 341 372
3 378 372 341
3 340 377 344
3 381 344 377
3 341 342 345
3 346 345 342
3 341 345 378
3 382 378 345
3 343 344 380
3 381 380 344
3 343 380 349
3 384 349 380
3 345 346 350
3 351 350 346
3 345 350 386
3 345 386 382
3 346 347 351
3 352 351 347
3 347 348 353
3 347 353 352
3 348 349 384
3 348 384 383
3 348 383 353
3 389 353 383
3 350 351 387
3 350 387 386
3 351 352 388
3 351 388 387
3 352 353 389
3 352 389 388
3 354 355 358
3 354 358 357
3 354 404 355
3 405 355 404
3 354 357 410
3 354 410 404
3 355 356 359
3 355 359 358
3 355 405 356
3 406 356 405
3 356 406 359
3 412 359 406
3 357 358 361
3 357 361 360
3 357 360 410
3 416 410 360
3 358 359 361
3 362 361 359
3 359 412 362
3 418 362 412
3 360 361 363
3 364 363 361
3 360 363 416
3 422 416 363
3 361 362 417
3 418 417 362
3 361 417 364
3 423 364 417
3 363 364 422
3 423 422 364
3 365 369 366
3 370 366 369
3 367 373 374
3 367 374 368
3 368 374 375
3 368 375 369
3 369 436 370
3 437 370 436
3 369 375 440
3 369 440 436
3 370 376 377
3 370 377 371
3 370 437 376
3 441 376 437
3 372 378 379
3 372 379 373
3 373 438 374
3 439 374 438
3 373 379 443
3 373 443 438
3 374 439 375
3 440 375 439
3 376 380 381
3 376 381 377
3 376 441 380
3 446 380 441
3 378 442 379
3 443 379 442
3 378 382 447
3 378 447 442
3 380 446 384
3 450 384 446
3 382 386 447
3 452 447 386
3 383 384 389
3 390 389 384
3 384 450 455
3 384 455 390
3 385 386 391
3 392 391 386
3 385 451 452
3 385 452 386
3 385 391 451
3 456 451 391
3 386 387 392
3 393 392 387
3 387 388 393
3 394 393 388
3 388 389 394
3 395 394 389
3 389 390 454
3 455 454 390
3 389 454 460
3 389 460 395
3 391 392 396
3 397 396 392
3 391 396 456
3 461 456 396
3 392 393 397
3 398 397 393
3 393 394 398
3 399 398 394
3 394 395 460
3 394 460 459
3 394 459 464
3 394 464 399
3 396 397 402
3 396 402 401
3 396 401 467
3 396 467 461
3 397 398 403
3 397 403 402
3 398 399 464
3 398 464 463
3 398 463 403
3 469 403 463
3 400 401 407
3 400 407 406
3 400 466 401
3 467 401 466
3 400 406 472
3 400 472 466
3 401 402 408
3 401 408 407
3 402 403 409
3 402 409 408
3 403 469 409
3 475 409 469
3 404 410 405
3 411 405 410
3 405 471 406
3 472 406 471
3 405 411 471
3 478 471 411
3 406 407 412
3 413 412 407
3 407 408 413
3 414 413 408
3 408 409 474
3 475 474 409
3 408 474 481
3 408 481 414
3 410 477 478
3 410 478 411
3 410 416 477
3 484 477 416
3 412 413 418
3 419 418 413
3 413 414 480
3 481 480 414
3 413 480 487
3 413 487 419
3 415 416 421
3 422 421 416
3 415 483 484
3 415 484 416
3 415 421 483
3 490 483 421
3 417 418 423
3 424 423 418
3 418 419 486
3 487 486 419
3 418 486 493
3 418 493 424
3 420 421 426
3 420 426 425
3 420 489 421
3 490 421 489
3 420 425 496
3 420 496 489
3 421 422 427
3 421 427 426
3 422 423 428
3 422 428 427
3 423 424 429
3 423 429 428
3 424 493 429
3 500 429 493
3 425 426 431
3 425 431 430
3 425 430 502
3 425 502 496
3 426 427 432
3 426 432 431
3 427 428 433
3 427 433 432
3 428 429 500
3 428 500 499
3 428 499 433
3 505 433 499
3 430 431 435
3 430 435 434
3 430 434 502
3 508 502 434
3 431 432 503
3 504 503 432
3 431 503 509
3 431 509 435
3 432 433 504
3 505 504 433
3 434 435 508
3 509 508 435
3 436 440 437
3 441 437 440
3 438 443 439
3 444 439 443
3 439 444 440
3 445 440 444
3 440 525 441
3 526 441 525
3 440 445 525
3 528 525 445
3 441 526 446
3 529 446 526
3 442 447 448
3 442 448 443
3 443 448 449
3 443 449 444
3 444 527 445
3 528 445 527
3 444 449 531
3 444 531 527
3 446 529 450
3 533 450 529
3 447 452 453
3 447 453 448
3 448 530 449
3 531 449 530
3 448 453 534
3 448 534 530
3 450 533 455
3 537 455 533
3 451 456 457
3 451 457 452
3 452 457 458
3 452 458 453
3 453 458 539
3 453 539 534
3 454 455 537
3 454 537 536
3 454 536 541
3 454 541 460
3 456 461 457
3 462 457 461
3 457 538 539
3 457 539 458
3 457 462 538
3 542 538 462
3 459 460 464
3 465 464 460
3 460 541 545
3 460 545 465
3 461 467 462
3 468 462 467
3 462 468 542
3 547 542 468
3 463 464 469
3 470 469 464
3 464 465 544
3 545 544 465
3 464 544 549
3 464 549 470
3 466 472 467
3 473 467 472
3 467 546 468
3 547 468 546
3 467 473 546
3 552 546 473
3 469 470 475
3 476 475 470
3 470 549 476
3 555 476 549
3 471 478 479
3 471 479 472
3 472 551 473
3 552 473 551
3 472 479 557
3 472 557 551
3 474 475 482
3 474 482 481
3 475 476 555
3 475 555 554
3 475 554 482
3 560 482 554
3 477 484 485
3 477 485 478
3 478 556 479
3 557 479 556
3 478 485 561
3 478 561 556
3 480 481 488
3 480 488 487
3 481 482 560
3 481 560 559
3 481 559 488
3 564 488 559
3 483 490 484
3 491 484 490
3 484 491 485
3 492 485 491
3 485 492 561
3 568 561 492
3 486 487 493
3 494 493 487
3 487 488 563
3 564 563 488
3 487 563 570
3 487 570 494
3 489 565 566
3 489 566 490
3 489 496 565
3 573 565 496
3 490 497 491
3 498 491 497
3 490 566 574
3 490 574 497
3 491 567 568
3 491 568 492
3 491 498 567
3 575 567 498
3 493 494 569
3 570 569 494
3 493 569 577
3 493 577 500
3 495 496 501
3 502 501 496
3 495 572 573
3 495 573 496
3 495 501 578
3 495 578 572
3 497 574 498
3 575 498 574
3 499 500 506
3 499 506 505
3 500 577 506
3 583 506 577
3 501 502 508
3 501 508 507
3 501 507 584
3 501 584 578
3 503 504 510
3 503 510 509
3 504 505 511
3 504 511 510
3 505 506 583
3 505 583 582
3 505 582 511
3 588 511 582
3 507 508 513
3 507 513 512
3 507 512 589
3 507 589 584
3 508 509 514
3 508 514 513
3 509 510 515
3 509 515 514
3 510 511 588
3 510 588 587
3 510 587 515
3 592 515 587
3 512 513 516
3 517 516 513
3 512 516 589
3 593 589 516
3 513 514 517
3 518 517 514
3 514 515 518
3 519 518 515
3 515 592 596
3 515 596 519
3 516 517 520
3 521 520 517
3 516 520 593
3 597 593 520
3 517 518 521
3 522 521 518
3 518 519 595
3 596 595 519
3 518 595 599
3 518 599 522
3 520 521 597
3 598 597 521
3 521 522 523
3 524 523 522
3 521 523 598
3 600 598 523
3 522 599 601
3 522 601 524
3 523 524 600
3 601 600 524
3 525 528 529
3 525 529 526
3 527 531 532
3 527 532 528
3 528 532 533
3 528 533 529
3 530 534 535
3 530 535 531
3 531 608 532
3 609 532 608
3 531 535 611
3 531 611 608
3 532 609 533
3 610 533 609
3 533 610 537
3 613 537 610
3 534 539 540
3 534 540 535
3 535 540 615
3 535 615 611
3 536 537 613
3 536 613 612
3 536 612 541
3 616 541 612
3 538 542 539
3 543 539 542
3 539 614 540
3 615 540 614
3 539 543 614
3 617 614 543
3 541 616 545
3 619 545 616
3 542 547 543
3 548 543 547
3 543 548 617
3 621 617 548
3 544 545 549
3 550 549 545
3 545 619 623
3 545 623 550
3 546 552 547
3 553 547 552
3 547 620 621
3 547 621 548
3 547 553 620
3 625 620 553
3 549 550 622
3 623 622 550
3 549 622 627
3 549 627 555
3 551 557 558
3 551 558 552
3 552 624 625
3 552 625 553
3 552 558 629
3 552 629 624
3 554 555 627
3 554 627 626
3 554 626 631
3 554 631 560
3 556 561 562
3 556 562 557
3 557 628 629
3 557 629 558
3 557 562 632
3 557 632 628
3 559 560 631
3 559 631 630
3 559 630 564
3 634 564 630
3 561 568 569
3 561 569 562
3 562 569 635
3 562 635 632
3 563 564 571
3 563 571 570
3 564 634 571
3 637 571 634
3 565 573 566
3 574 566 573
3 567 575 568
3 576 568 575
3 568 576 569
3 577 569 576
3 569 570 635
3 636 635 570
3 570 571 636
3 637 636 571
3 572 578 573
3 579 573 578
3 573 579 574
3 580 574 579
3 574 580 575
3 581 575 580
3 575 581 576
3 582 576 581
3 576 582 577
3 583 577 582
3 578 584 579
3 585 579 584
3 579 585 580
3 586 580 585
3 580 586 581
3 587 581 586
3 581 587 588
3 581 588 582
3 584 589 590
3 584 590 585
3 585 590 591
3 585 591 586
3 586 591 592
3 586 592 587
3 589 593 594
3 589 594 590
3 590 594 595
3 590 595 591
3 591 595 596
3 591 596 592
3 593 597 598
3 593 598 594
3 594 598 599
3 594 599 595
3 598 600 599
3 601 599 600
3 602 603 604
3 605 604 603
3 602 641 642
3 602 642 603
3 602 604 641
3 644 641 604
3 603 642 645
3 603 645 605
3 604 605 606
3 607 606 605
3 604 606 644
3 647 644 606
3 605 645 648
3 605 648 607
3 606 607 647
3 648 647 607
3 608 611 609
3 612 609 611
3 609 612 610
3 613 610 612
3 611 615 612
3 616 612 615
3 614 617 618
3 614 618 615
3 615 618 619
3 615 619 616
3 617 621 622
3 617 622 618
3 618 622 623
3 618 623 619
3 620 625 626
3 620 626 621
3 621 626 627
3 621 627 622
3 624 629 630
3 624 630 625
3 625 630 631
3 625 631 626
3 628 632 629
3 633 629 632
3 629 633 630
3 634 630 633
3 632 635 633
3 636 633 635
3 633 636 634
3 637 634 636
3 638 639 640
3 641 640 639
3 638 650 651
3 638 651 639
3 638 640 650
3 653 650 640
3 639 651 654
3 639 654 641
3 640 641 643
3 644 643 641
3 640 643 653
3 657 653 643
3 641 654 655
3 641 655 642
3 642 655 659
3 642 659 645
3 643 644 646
3 647 646 644
3 643 646 660
3 643 660 657
3 645 659 662
3 645 662 648
3 646 647 661
3 646 661 660
3 647 648 662
3 647 662 661
3 649 650 653
3 649 653 652
3 649 663 664
3 649 664 650
3 649 652 666
3 649 666 663
3 650 664 665
3 650 665 651
3 651 665 668
3 651 668 654
3 652 653 657
3 652 657 656
3 652 656 669
3 652 669 666
3 654 658 659
3 654 659 655
3 654 668 658
3 671 658 668
3 656 657 670
3 656 670 669
3 657 660 661
3 657 661 658
3 657 658 671
3 657 671 670
3 658 661 662
3 658 662 659
3 663 666 664
3 667 664 666
3 664 667 665
3 668 665 667
3 666 669 667
3 670 667 669
3 667 670 668
3 671 668 670
