ply
format ascii 1.0
element vertex 458
property float x
property float y
property float z
property uchar red
property uchar green
property uchar blue
element face 912
property list uchar int vertex_index
end_header
-22.9676 -49.8501 -3.01063 0 21 255
-23.4289 -49.9372 -3.05733 0 0 250
-22.9573 -49.9248 -3.64288 0 0 211
-23.4939 -49.9875 -3.71137 0 0 237
-23.0585 -49.8495 -4.14141 0 0 209
-23.5087 -49.8715 -4.25549 0 0 170
-23.2442 -48.3326 0.55791 0 128 255
-24.0832 -48.466 0.608861 204 255 51
-24.9264 -48.3905 0.585136 0 70 255
-23.0325 -48.7499 -0.585155 73 255 182
-24.0706 -48.9631 -0.669895 253 255 2
-25.2185 -48.6736 -0.52086 162 255 93
-25.8691 -48.345 -0.891241 0 92 255
-22.112 -48.7632 -2.49678 0 79 255
-22.7161 -49.2324 -2.22646 171 255 84
-23.9057 -49.4972 -2.34999 177 255 78
-25.1148 -49.1045 -2.12637 150 255 105
-25.8327 -48.57 -2.07623 0 173 255
-22.1419 -48.9101 -3.33682 0 41 255
-22.5768 -49.4568 -3.42432 0 59 255
-24.1703 -49.6457 -3.60417 0 179 255
-25.1145 -49.2572 -3.48921 0 229 255
-25.7373 -48.8152 -3.33856 0 144 255
-22.3134 -49.0296 -3.94052 0 0 184
-22.9166 -49.3557 -4.17901 0 29 255
-24.0621 -49.3832 -4.54905 0 204 255
-25.0356 -49.112 -4.54692 0 122 255
-25.6199 -48.9093 -4.15299 0 0 227
-24.5543 -49.1895 -5.2325 0 0 177
-24.9064 -49.1072 -5.22797 0 0 128
-23.1533 -46.8896 2.7943 35 255 220
-24.1198 -46.9853 2.94835 183 255 72
-25.2057 -46.8557 2.871 217 255 38
-25.8888 -46.4983 2.71002 0 18 255
-22.0438 -46.8968 1.10712 0 163 255
-22.7898 -47.4684 1.45416 255 126 0
-24.0675 -47.7445 1.68649 115 255 140
-25.2607 -47.6884 1.45799 86 255 169
-26.0087 -46.9624 1.52776 255 248 0
-21.9115 -47.2883 -0.17012 123 255 132
-22.3667 -48.0667 -0.147281 132 255 123
-25.6535 -48.0562 0.320522 0 168 255
-26.0837 -47.5239 -0.114842 141 255 114
-21.9392 -47.9405 -1.76908 10 255 245
-22.2015 -48.4858 -1.38806 0 156 255
-25.5964 -47.2978 -2.35422 0 21 255
-26.0013 -47.718 -1.82747 169 255 86
-22.1634 -48.1599 -3.11871 0 234 255
-22.9176 -47.9187 -3.5759 69 255 186
-24.0291 -47.8332 -3.75642 68 255 187
-25.147 -47.8068 -3.44697 77 255 178
-25.7799 -48.2738 -3.28822 0 104 255
-22.3357 -48.6513 -3.90295 0 0 224
-22.99 -48.6845 -4.22196 0 130 255
-24.1484 -48.7213 -4.63612 0 187 255
-25.0575 -48.6585 -4.56494 0 196 255
-25.635 -48.6457 -4.14931 0 0 175
-24.5776 -48.963 -5.2635 0 0 202
-24.9166 -48.9256 -5.24374 0 0 151
-23.0081 -44.4991 6.64856 68 255 187
-23.9466 -44.5633 6.72077 73 255 182
-24.8641 -44.4207 6.67178 0 107 255
-21.8651 -44.5676 5.10709 0 152 255
-22.6712 -44.9553 5.54657 208 255 47
-23.9705 -45.2334 5.5743 255 236 0
-25.2064 -44.9596 5.59605 226 255 29
-25.9153 -44.7598 5.00464 0 233 255
-21.8771 -45.0858 3.77102 255 26 0
-22.7352 -45.9681 3.79077 255 192 0
-24.013 -46.1086 4.16881 255 231 0
-25.1978 -45.9216 4.11095 211 255 44
-26.0018 -45.4664 3.57128 255 74 0
-21.8768 -45.808 1.97494 255 184 0
-22.3458 -46.4723 2.44524 45 255 210
-26.201 -45.8969 1.90651 48 255 207
-21.907 -46.1371 0.146951 237 255 18
-22.3616 -45.694 -0.378245 0 139 255
-25.6615 -45.8627 -0.329945 0 171 255
-26.12 -46.2794 0.24762 89 255 166
-22.0623 -46.8761 -1.46351 137 255 118
-22.7877 -46.1888 -1.46428 143 255 112
-23.9813 -46.1741 -1.72713 141 255 114
-25.2392 -46.406 -1.5452 255 207 0
-25.9464 -46.7915 -1.08699 0 215 255
-22.2088 -47.3353 -2.52435 0 43 255
-22.8639 -47.0576 -2.70042 50 255 205
-23.9166 -46.9701 -2.82919 84 255 171
-24.8348 -47.0171 -2.71092 0 121 255
-21.6109 -42.43 8.63957 71 255 184
-22.5353 -42.7786 8.73784 197 255 58
-23.7487 -42.846 8.76575 181 255 74
-24.7505 -42.7087 8.5629 0 191 255
-21.4266 -42.8434 7.53951 148 255 107
-22.5388 -43.6798 7.45711 176 255 79
-23.8806 -43.729 7.68276 202 255 53
-25.1988 -43.4762 7.45886 255 148 0
-25.9239 -43.1164 6.95783 0 217 255
-21.4327 -43.4675 5.9142 255 35 0
-22.1154 -44.118 6.35555 92 255 163
-25.6285 -44.1036 6.31517 0 236 255
-26.0728 -43.6876 5.69751 220 255 35
-21.5608 -43.8364 4.14684 255 132 0
-25.6368 -43.4044 3.45051 39 255 216
-26.0845 -44.0413 3.94993 144 255 111
-21.9093 -44.3608 2.39193 255 77 0
-22.7617 -43.965 1.81635 210 255 45
-23.9605 -43.8231 1.76571 185 255 70
-25.2251 -43.9644 2.15869 255 55 0
-26.0143 -44.7934 2.22866 255 212 0
-22.0517 -45.0994 0.922578 0 224 255
-22.7737 -44.9205 0.359494 131 255 124
-23.9913 -44.7208 0.399237 255 195 0
-25.2301 -45.0304 0.452717 234 255 21
-25.9423 -45.3361 0.947755 0 198 255
-23.1158 -45.4217 -0.690889 0 173 255
-23.9943 -45.3882 -0.745439 0 203 255
-24.8913 -45.538 -0.680984 0 235 255
-21.3215 -40.6655 10.6557 99 255 156
-22.3241 -40.8366 10.8311 210 255 45
-23.5311 -40.805 10.7551 104 255 151
-24.4545 -40.7424 10.3443 36 255 219
-21.1469 -41.396 9.44754 250 255 5
-22.4021 -41.7951 9.76544 229 255 26
-23.7194 -41.8323 9.71073 255 204 0
-25.0262 -41.595 9.17948 255 195 0
-25.7941 -41.5264 8.50814 0 166 255
-20.001 -40.7436 7.83549 0 180 255
-20.5596 -41.502 7.99837 255 22 0
-25.5584 -42.4227 8.13708 0 93 255
-26.01 -42.0818 7.53688 49 255 206
-20.1466 -40.8471 7.12794 0 75 255
-20.8189 -41.729 6.36283 213 0 0
-25.5763 -41.6682 5.59855 0 163 255
-26.0469 -42.2914 6.08557 172 255 83
-21.5884 -42.3848 4.56945 160 255 95
-22.6062 -42.045 4.07803 153 255 102
-23.8588 -42.0084 4.02067 236 255 19
-25.1945 -42.3158 4.32181 195 0 0
-25.9377 -42.8576 4.77662 38 255 217
-21.9436 -43.2004 3.25233 41 255 214
-22.7186 -42.9709 2.95396 143 255 112
-23.8463 -42.8898 2.8989 255 217 0
-24.831 -42.9983 3.07795 0 80 255
-21.0167 -38.8107 12.6506 125 255 130
-21.9722 -38.8605 12.7878 105 255 150
-22.9122 -38.7255 12.6944 0 132 255
-19.8379 -38.8305 11.1202 0 212 255
-20.7083 -39.5112 11.4663 255 101 0
-22.1013 -39.7608 11.7942 248 255 7
-23.4232 -39.5442 11.7472 253 255 2
-24.4827 -39.687 10.8068 209 255 46
-19.7204 -39.2075 9.9398 89 255 166
-20.288 -40.2254 9.93732 255 123 0
-25.2197 -40.1323 9.35253 255 166 0
-25.8287 -40.8813 8.59506 0 47 255
-19.8167 -39.7773 8.49466 255 255 0
-20.0649 -40.5508 8.80179 0 83 255
-25.3281 -40.0342 8.02001 255 104 0
-25.9253 -41.0326 7.75772 0 115 255
-20.1443 -40.0141 7.3529 0 224 255
-21.0532 -40.3702 6.37622 255 117 0
-22.3091 -40.0285 6.03862 178 255 77
-23.6753 -40.0792 6.07424 255 238 0
-25.0486 -40.5401 6.46131 255 100 0
-25.8462 -41.246 6.76858 56 255 199
-21.6045 -41.2183 5.247 68 255 187
-22.5091 -41.0218 5.02142 255 226 0
-23.7205 -41.0201 5.01696 215 255 40
-24.7466 -41.2274 5.2144 0 100 255
-19.504 -36.3891 14.6911 0 224 255
-20.4239 -36.7921 14.7551 202 255 53
-21.5949 -36.8563 14.748 255 78 0
-22.5222 -36.6852 14.4923 24 255 231
-19.4423 -36.8607 13.5482 255 64 0
-20.5161 -37.813 13.4519 239 255 16
-21.8287 -37.8496 13.6484 122 255 133
-23.1473 -37.5836 13.2477 255 44 0
-23.9732 -37.5615 12.507 0 69 255
-19.4843 -37.6107 11.8903 255 99 0
-20.1366 -38.3816 12.3214 67 255 188
-23.7551 -38.4905 12.2451 0 255 255
-24.3527 -38.2456 11.4746 255 235 0
-19.5189 -37.8528 10.2469 255 97 0
-24.723 -38.5121 9.92663 255 155 0
-19.9127 -38.2715 8.74844 210 255 45
-20.8125 -37.7838 8.22889 255 187 0
-22.0813 -37.6724 8.04517 255 142 0
-23.402 -37.9714 8.12845 255 145 0
-24.5252 -38.6071 8.49957 237 255 18
-20.1837 -39.0685 7.68907 0 219 255
-20.953 -38.9821 7.2338 64 255 191
-22.1727 -38.86 7.00294 255 202 0
-23.4715 -38.9872 7.04818 252 255 3
-24.4565 -39.3074 7.28224 244 255 11
-19.2146 -34.7342 16.7518 35 255 220
-20.1938 -34.8757 16.8949 192 255 63
-21.3521 -34.7882 16.8081 66 255 189
-22.1703 -34.6454 16.4028 0 157 255
-18.1468 -34.5315 15.569 0 0 243
-18.9312 -35.2505 15.5943 255 88 0
-20.2287 -35.7634 15.8177 216 255 39
-21.479 -35.7854 15.7281 190 255 65
-22.554 -35.4294 15.1948 255 123 0
-18.1086 -34.6019 14.8622 0 131 255
-18.6961 -35.3709 14.0161 237 0 0
-23.3628 -35.9667 13.4279 128 0 0
-23.9902 -36.8304 12.5712 0 90 255
-19.0964 -35.9329 12.1715 158 0 0
-23.5525 -35.8054 11.9623 255 41 0
-24.1724 -36.9922 11.6077 195 255 60
-19.5295 -36.2873 10.5558 255 176 0
-20.1124 -35.7407 10.0991 0 35 255
-22.4193 -35.5933 10.0592 0 203 255
-23.3355 -36.0278 10.4888 227 255 28
-24.2235 -37.205 10.3161 255 222 0
-19.9043 -36.9444 9.43298 0 188 255
-20.6595 -36.3864 9.26373 255 212 0
-21.9994 -36.3186 9.18928 255 114 0
-23.2912 -36.8855 9.20641 109 255 146
-24.1369 -37.4973 9.29538 0 163 255
-17.9029 -32.3907 18.706 0 37 255
-18.708 -32.814 18.838 150 255 105
-19.8756 -32.9336 18.9655 195 255 60
-20.8907 -32.7975 18.9116 53 255 202
-17.8548 -32.886 17.6441 255 136 0
-18.7541 -33.7953 17.5762 255 251 0
-20.0309 -33.8689 17.8995 196 255 59
-21.3331 -33.5485 17.8824 255 103 0
-22.2673 -33.5414 16.9681 255 131 0
-17.8762 -33.5306 16.2214 203 255 52
-18.3881 -34.2735 16.4978 0 170 255
-22.718 -33.8583 15.5785 255 7 0
-17.9853 -33.7425 15.0258 0 198 255
-18.5475 -34.0054 13.9015 177 255 78
-22.9557 -34.1799 13.9383 255 55 0
-19.2 -34.4458 12.3377 255 127 0
-19.9059 -34.0615 11.7627 0 200 255
-22.1225 -34.0121 11.7744 0 43 255
-22.8435 -34.3974 12.3299 247 255 8
-19.6137 -35.0996 11.1412 24 255 231
-20.4353 -34.732 10.7618 255 254 0
-21.7874 -34.6702 10.7579 223 255 32
-22.7381 -34.9546 11.1296 41 255 214
-20.8231 -35.4226 9.84044 0 79 255
-21.5284 -35.3871 9.82244 0 165 255
-17.5697 -30.5546 20.7368 255 255 0
-18.5281 -30.9032 20.9418 199 255 56
-19.7809 -31.0451 20.9768 194 255 61
-20.8319 -30.9715 20.8073 0 168 255
-17.5316 -31.2215 19.4988 255 166 0
-18.5986 -31.8001 19.8631 208 255 47
-19.8924 -31.9425 19.9362 224 255 31
-21.2834 -31.7027 19.675 255 104 0
-22.1075 -31.2098 19.1568 0 198 255
-17.4316 -31.5573 17.9727 255 218 0
-21.7732 -32.4514 18.5043 0 186 255
-22.3517 -31.9726 17.7974 255 75 0
-17.736 -31.969 16.3669 255 118 0
-18.304 -31.5961 15.5456 55 255 200
-22.5489 -32.2578 16.0757 255 24 0
-18.0327 -32.7252 15.2109 113 255 142
-18.8353 -32.4751 14.3649 130 0 0
-20.1537 -32.1753 13.8141 255 165 0
-21.3993 -32.2075 13.8447 225 255 30
-22.379 -32.6181 14.3941 255 57 0
-19.3556 -33.322 12.9773 0 162 255
-20.2969 -33.2418 12.4236 255 239 0
-21.5459 -33.2344 12.4403 255 219 0
-22.3566 -33.3355 13.0068 105 255 150
-20.6693 -33.8278 11.4618 0 78 255
-21.3507 -33.8087 11.4666 0 71 255
-17.3181 -28.6929 22.8215 0 245 255
-18.4233 -28.9952 23.0189 255 239 0
-19.8251 -29.0999 23.0481 255 212 0
-21.1188 -28.94 22.8584 126 255 129
-21.9077 -28.5162 22.6566 2 255 253
-16.1989 -28.5537 21.5351 0 0 242
-16.9979 -29.292 21.6266 255 3 0
-18.3906 -29.8921 21.9424 255 208 0
-19.8242 -30.0734 21.9506 255 200 0
-21.2056 -29.9734 21.5701 255 221 0
-22.0708 -29.0565 21.5275 199 255 56
-16.1544 -28.6481 20.8595 0 226 255
-16.7609 -29.481 20.069 139 0 0
-21.7075 -30.561 20.4278 40 255 215
-22.2454 -29.8806 19.8967 193 0 0
-17.1976 -29.9962 18.3889 255 167 0
-22.3699 -30.36 18.169 222 0 0
-17.7425 -30.4072 17.0327 206 255 49
-18.7125 -30.4531 16.0704 255 82 0
-20.0219 -30.1087 15.9373 161 255 94
-21.2452 -30.1883 16.0858 182 255 73
-22.1691 -30.6941 16.5469 255 174 0
-19.1665 -31.2711 15.0363 0 83 255
-20.1556 -31.0923 14.8712 255 200 0
-21.2874 -31.1392 14.9536 165 255 90
-22.071 -31.406 15.2495 0 176 255
-17.2493 -26.8108 24.845 0 127 255
-18.3882 -27.0532 25.0612 255 220 0
-19.808 -27.1271 25.1145 255 213 0
-21.0894 -26.9827 24.9401 181 255 74
-21.8872 -26.6976 24.6082 0 240 255
-16.0513 -26.9904 23.2364 31 255 224
-16.85 -27.5642 23.6761 220 0 0
-18.327 -27.9992 24.0213 255 191 0
-19.8085 -28.106 24.0895 255 211 0
-21.128 -27.9174 23.8926 255 235 0
-22.0626 -27.3915 23.4022 255 91 0
-15.9705 -27.5407 22.1153 132 255 123
-16.4527 -28.1967 22.4941 0 155 255
-22.3205 -27.7169 21.8277 255 147 0
-16.0542 -27.7676 21.0211 0 207 255
-16.6506 -28.0566 20.0043 134 255 121
-21.7009 -27.4664 19.5991 0 167 255
-22.2346 -28.1642 20.1189 208 0 0
-17.4417 -28.5197 18.6126 255 95 0
-18.5787 -28.1073 18.14 200 255 55
-19.9007 -27.9611 18.0787 255 234 0
-21.2302 -28.0566 18.4467 255 70 0
-22.0917 -28.9839 18.4799 121 255 134
-17.8438 -29.312 17.5125 34 255 221
-18.7096 -29.156 17.1059 218 255 37
-19.9638 -29.0114 16.9945 255 199 0
-21.1837 -29.1234 17.1503 197 255 58
-21.956 -29.5331 17.3369 22 255 233
-17.2165 -24.8011 26.7678 92 255 163
-18.3476 -25.0005 26.976 255 246 0
-19.7436 -25.0326 26.9876 255 245 0
-21.0016 -24.8918 26.7265 226 255 29
-21.7905 -24.8383 26.2623 0 82 255
-15.9684 -25.0707 25.1298 141 255 114
-16.7961 -25.6174 25.6333 255 104 0
-18.2967 -26.0056 26.0042 255 190 0
-19.7803 -26.0919 26.0665 255 225 0
-21.088 -25.938 25.8313 174 255 81
-22.0085 -25.5652 25.2529 255 196 0
-15.8385 -25.7278 23.8878 190 255 65
-16.3499 -26.353 24.4304 0 191 255
-22.3 -25.9204 23.769 173 255 82
-15.9073 -26.0079 22.3307 255 197 0
-16.417 -25.605 21.574 31 255 224
-21.7066 -25.626 21.6112 0 100 255
-22.2446 -26.2114 22.1853 255 99 0
-16.1283 -26.7409 21.2307 0 223 255
-16.9425 -26.4697 20.49 193 0 0
-18.3446 -26.0826 20.067 255 244 0
-19.7859 -26.0293 20.048 255 239 0
-21.242 -26.3244 20.3742 228 0 0
-22.065 -26.8673 20.8659 0 255 255
-17.5177 -27.2908 19.3127 0 205 255
-18.5007 -27.0431 19.0614 214 255 41
-19.7688 -26.951 19.0279 204 255 51
-20.8254 -27.0438 19.2147 43 255 212
-17.1785 -22.7736 28.4563 11 255 244
-18.2156 -22.868 28.6497 157 255 98
-19.4354 -22.8575 28.6095 187 255 68
-20.3298 -22.7541 28.3431 0 144 255
-15.9405 -23.0813 27.0086 0 237 255
-16.7659 -23.5987 27.4784 255 249 0
-18.2206 -23.901 27.8189 255 251 0
-19.6322 -23.8939 27.8145 250 255 5
-20.8904 -23.5635 27.4467 233 255 22
-21.8303 -23.9574 26.5244 0 225 255
-15.7612 -23.7713 25.8026 195 255 60
-16.3015 -24.3715 26.352 106 255 149
-22.1636 -24.2961 25.4535 24 255 231
-15.707 -24.1139 24.3158 255 67 0
-21.6573 -23.907 23.5941 0 157 255
-22.1808 -24.4946 24.0972 194 255 61
-15.9845 -24.4416 23.0148 170 255 85
-16.8525 -24.4508 22.0878 255 19 0
-18.2365 -24.0679 21.9491 255 173 0
-19.7248 -24.085 22.0458 255 206 0
-21.2169 -24.4874 22.3863 255 73 0
-22.0466 -25.0215 22.875 31 255 224
-17.2786 -25.2576 21.1034 0 211 255
-18.347 -25.0388 20.9563 224 255 31
-19.6911 -25.0213 20.9934 252 255 3
-20.8037 -25.2104 21.1914 0 247 255
-16.0207 -21.1242 28.7044 87 255 168
-16.7851 -21.6924 28.9605 232 255 23
-18.0646 -21.7198 29.3138 207 255 48
-19.3088 -21.7211 29.2058 58 255 197
-20.2915 -21.7374 28.6423 153 255 102
-15.7787 -21.8017 27.6208 156 255 99
-16.3077 -22.3972 28.0887 30 255 225
-21.0231 -22.183 27.3795 255 193 0
-21.776 -23.0973 26.6121 0 227 255
-15.6743 -22.1636 26.1474 255 127 0
-20.1568 -21.4289 25.5467 0 206 255
-21.06 -22.0861 25.9622 255 55 0
-21.9031 -23.206 25.7266 28 255 227
-15.9259 -22.568 24.659 255 158 0
-16.8372 -22.1143 24.1741 198 255 57
-18.1355 -21.9411 24.0882 255 98 0
-19.6704 -22.008 24.4138 255 38 0
-21.127 -22.9196 24.3661 255 118 0
-21.912 -23.4876 24.7375 0 115 255
-16.1066 -23.3304 23.5304 0 149 255
-16.8887 -23.1521 23.1223 91 255 164
-18.1833 -22.9787 22.9934 255 169 0
-19.6189 -23.0474 23.1095 255 152 0
-20.7522 -23.4114 23.2373 150 255 105
-16.1654 -19.097 30.2199 0 104 255
-16.8374 -19.1807 30.5615 0 244 255
-17.8728 -19.2864 30.6397 44 255 211
-18.9634 -19.4174 30.3599 0 169 255
-19.6574 -19.5291 30.0237 0 34 255
-15.9717 -19.8615 29.3266 0 241 255
-16.805 -20.2983 29.8191 114 255 141
-17.9742 -20.4502 30.0167 193 255 62
-19.1447 -20.4613 29.8242 156 255 99
-19.9799 -20.2685 29.2619 111 255 144
-15.7333 -20.2453 28.0003 255 202 0
-19.7778 -19.9106 27.5181 0 123 255
-20.3613 -20.5142 27.9356 255 215 0
-15.9118 -20.617 26.5697 255 199 0
-16.7786 -20.1659 26.1812 123 255 132
-18.0027 -20.094 26.1319 213 255 42
-19.4508 -20.4066 26.3642 255 99 0
-20.4231 -20.9371 26.7539 0 252 255
-16.0604 -21.3482 25.3821 0 139 255
-16.8134 -21.0708 25.1235 121 255 134
-17.9749 -20.96 25.0653 66 255 189
-19.0663 -21.0452 25.2167 192 255 63
-16.9738 -17.7071 31.5868 0 0 180
-17.2846 -17.7217 31.5957 0 0 129
-16.1226 -18.3781 30.4401 0 52 255
-16.8128 -18.157 31.0582 0 136 255
-17.6709 -18.2061 31.0821 0 162 255
-18.7895 -18.5312 30.4575 0 100 255
-19.5594 -19.0352 30.091 0 12 255
-15.8675 -18.6872 29.5679 0 194 255
-18.2162 -18.0451 29.3504 0 31 255
-18.9639 -18.4548 29.5862 72 255 183
-19.7534 -19.2508 29.4556 0 131 255
-15.9438 -18.8982 28.4535 35 255 220
-16.7188 -18.4721 28.2634 0 232 255
-17.8755 -18.399 28.4253 235 255 20
-19.1716 -19.0551 28.2698 227 255 28
-19.9124 -19.5261 28.5911 0 82 255
-16.0558 -19.4779 27.349 0 174 255
-16.768 -19.2208 27.1811 95 255 160
-17.874 -19.1873 27.1849 169 255 86
-18.8906 -19.4504 27.2311 0 136 255
-16.9564 -17.5288 31.5353 0 0 154
-17.247 -17.5381 31.5434 0 0 145
-16.1892 -17.885 30.5076 0 0 227
-16.779 -17.6768 30.9319 0 51 255
-17.5402 -17.6988 30.9519 0 83 255
-18.3159 -17.9217 30.6293 0 0 211
-16.0702 -17.9567 29.8564 0 63 255
-16.7079 -17.6595 30.0247 0 78 255
-17.6535 -17.6929 29.9746 0 152 255
-18.3895 -17.89 30.1374 0 0 229
-16.0674 -18.0991 29.1502 0 0 248
-16.6283 -17.8707 29.145 0 103 255
-17.3626 -17.8332 29.1765 0 67 255
3 0 1 2
3 3 2 1
3 0 14 15
3 0 15 1
3 0 2 19
3 0 19 14
3 1 15 20
3 1 20 3
3 2 3 5
3 2 5 4
3 2 4 19
3 24 19 4
3 3 20 25
3 3 25 5
3 4 5 25
3 4 25 24
3 6 7 9
3 10 9 7
3 6 35 7
3 36 7 35
3 6 9 40
3 6 40 35
3 7 8 11
3 7 11 10
3 7 36 37
3 7 37 8
3 8 37 41
3 8 41 11
3 9 10 14
3 15 14 10
3 9 14 44
3 9 44 40
3 10 11 16
3 10 16 15
3 11 12 17
3 11 17 16
3 11 41 42
3 11 42 12
3 12 42 46
3 12 46 17
3 13 14 18
3 19 18 14
3 13 43 44
3 13 44 14
3 13 18 47
3 13 47 43
3 15 16 21
3 15 21 20
3 16 17 22
3 16 22 21
3 17 46 22
3 51 22 46
3 18 19 23
3 24 23 19
3 18 23 52
3 18 52 47
3 20 21 26
3 20 26 25
3 21 22 27
3 21 27 26
3 22 51 27
3 56 27 51
3 23 24 52
3 53 52 24
3 24 25 53
3 54 53 25
3 25 26 28
3 29 28 26
3 25 28 57
3 25 57 54
3 26 27 56
3 26 56 55
3 26 55 58
3 26 58 29
3 28 29 58
3 28 58 57
3 30 31 35
3 36 35 31
3 30 68 69
3 30 69 31
3 30 35 73
3 30 73 68
3 31 32 36
3 37 36 32
3 31 69 70
3 31 70 32
3 32 33 38
3 32 38 37
3 32 70 71
3 32 71 33
3 33 71 38
3 74 38 71
3 34 35 40
3 34 40 39
3 34 72 35
3 73 35 72
3 34 39 72
3 75 72 39
3 37 38 41
3 42 41 38
3 38 74 78
3 38 78 42
3 39 40 43
3 44 43 40
3 39 43 79
3 39 79 75
3 42 78 83
3 42 83 46
3 43 47 79
3 84 79 47
3 45 50 46
3 51 46 50
3 45 46 82
3 83 82 46
3 45 82 50
3 87 50 82
3 47 52 53
3 47 53 48
3 47 48 84
3 85 84 48
3 48 53 54
3 48 54 49
3 48 49 86
3 48 86 85
3 49 54 55
3 49 55 50
3 49 50 87
3 49 87 86
3 50 55 51
3 56 51 55
3 54 57 55
3 58 55 57
3 59 60 64
3 59 64 63
3 59 93 94
3 59 94 60
3 59 63 98
3 59 98 93
3 60 61 65
3 60 65 64
3 60 94 95
3 60 95 61
3 61 95 99
3 61 99 65
3 62 63 67
3 68 67 63
3 62 97 98
3 62 98 63
3 62 67 97
3 101 97 67
3 63 64 68
3 69 68 64
3 64 65 69
3 70 69 65
3 65 66 70
3 71 70 66
3 65 99 66
3 100 66 99
3 66 100 71
3 103 71 100
3 67 68 73
3 67 73 72
3 67 72 104
3 67 104 101
3 71 103 108
3 71 108 74
3 72 75 104
3 109 104 75
3 74 108 113
3 74 113 78
3 75 79 80
3 75 80 76
3 75 76 109
3 110 109 76
3 76 80 114
3 76 114 110
3 77 82 83
3 77 83 78
3 77 78 113
3 77 113 112
3 77 112 82
3 116 82 112
3 79 84 85
3 79 85 80
3 80 85 81
3 86 81 85
3 80 81 115
3 80 115 114
3 81 86 82
3 87 82 86
3 81 82 116
3 81 116 115
3 88 89 93
3 88 93 92
3 88 121 89
3 122 89 121
3 88 92 127
3 88 127 121
3 89 90 94
3 89 94 93
3 89 122 90
3 123 90 122
3 90 91 95
3 90 95 94
3 90 123 91
3 124 91 123
3 91 124 95
3 128 95 124
3 92 93 98
3 92 98 97
3 92 97 127
3 131 127 97
3 95 96 99
3 100 99 96
3 95 128 129
3 95 129 96
3 96 129 133
3 96 133 100
3 97 101 131
3 134 131 101
3 100 133 138
3 100 138 103
3 101 104 139
3 101 139 134
3 102 107 108
3 102 108 103
3 102 103 138
3 102 138 137
3 102 137 107
3 142 107 137
3 104 109 105
3 110 105 109
3 104 105 140
3 104 140 139
3 105 110 106
3 111 106 110
3 105 106 141
3 105 141 140
3 106 111 107
3 112 107 111
3 106 107 141
3 142 141 107
3 107 112 108
3 113 108 112
3 110 114 111
3 115 111 114
3 111 115 116
3 111 116 112
3 117 118 122
3 117 122 121
3 117 147 118
3 148 118 147
3 117 121 152
3 117 152 147
3 118 119 123
3 118 123 122
3 118 148 119
3 149 119 148
3 119 120 123
3 124 123 120
3 119 149 120
3 150 120 149
3 120 150 124
3 153 124 150
3 121 127 152
3 156 152 127
3 124 125 128
3 129 128 125
3 124 153 125
3 154 125 153
3 125 154 158
3 125 158 129
3 126 127 131
3 126 131 130
3 126 155 156
3 126 156 127
3 126 130 159
3 126 159 155
3 129 158 164
3 129 164 133
3 130 131 160
3 130 160 159
3 131 134 165
3 131 165 160
3 132 137 133
3 138 133 137
3 132 133 164
3 132 164 163
3 132 163 137
3 168 137 163
3 134 139 135
3 140 135 139
3 134 135 165
3 166 165 135
3 135 140 136
3 141 136 140
3 135 136 166
3 167 166 136
3 136 141 137
3 142 137 141
3 136 137 167
3 168 167 137
3 143 144 148
3 143 148 147
3 143 174 175
3 143 175 144
3 143 147 179
3 143 179 174
3 144 145 149
3 144 149 148
3 144 175 176
3 144 176 145
3 145 176 180
3 145 180 149
3 146 147 152
3 146 152 151
3 146 178 147
3 179 147 178
3 146 151 178
3 182 178 151
3 149 180 150
3 181 150 180
3 150 181 153
3 183 153 181
3 151 152 155
3 156 155 152
3 151 155 182
3 184 182 155
3 153 157 154
3 158 154 157
3 153 183 157
3 188 157 183
3 155 159 189
3 155 189 184
3 157 163 164
3 157 164 158
3 157 188 193
3 157 193 163
3 159 160 190
3 159 190 189
3 160 165 166
3 160 166 161
3 160 161 191
3 160 191 190
3 161 166 162
3 167 162 166
3 161 162 192
3 161 192 191
3 162 167 163
3 168 163 167
3 162 163 193
3 162 193 192
3 169 170 173
3 174 173 170
3 169 199 170
3 200 170 199
3 169 173 204
3 169 204 199
3 170 171 174
3 175 174 171
3 170 200 171
3 201 171 200
3 171 172 176
3 171 176 175
3 171 201 202
3 171 202 172
3 172 202 205
3 172 205 176
3 173 174 179
3 173 179 178
3 173 178 207
3 173 207 204
3 176 177 181
3 176 181 180
3 176 205 206
3 176 206 177
3 177 206 209
3 177 209 181
3 178 182 207
3 210 207 182
3 181 209 183
3 214 183 209
3 182 184 210
3 215 210 184
3 183 214 188
3 219 188 214
3 184 189 185
3 190 185 189
3 184 185 215
3 216 215 185
3 185 190 191
3 185 191 186
3 185 186 216
3 217 216 186
3 186 191 192
3 186 192 187
3 186 187 217
3 218 217 187
3 187 192 193
3 187 193 188
3 187 188 219
3 187 219 218
3 194 195 200
3 194 200 199
3 194 225 226
3 194 226 195
3 194 199 225
3 230 225 199
3 195 196 201
3 195 201 200
3 195 226 227
3 195 227 196
3 196 197 201
3 202 201 197
3 196 227 228
3 196 228 197
3 197 228 202
3 231 202 228
3 198 199 203
3 204 203 199
3 198 229 199
3 230 199 229
3 198 203 229
3 232 229 203
3 202 231 205
3 234 205 231
3 203 204 232
3 233 232 204
3 204 207 235
3 204 235 233
3 205 208 209
3 205 209 206
3 205 234 208
3 238 208 234
3 207 210 239
3 207 239 235
3 208 213 214
3 208 214 209
3 208 238 242
3 208 242 213
3 210 215 216
3 210 216 211
3 210 211 240
3 210 240 239
3 211 216 240
3 243 240 216
3 212 217 213
3 218 213 217
3 212 213 242
3 212 242 241
3 212 241 244
3 212 244 217
3 213 218 214
3 219 214 218
3 216 217 243
3 244 243 217
3 220 221 224
3 225 224 221
3 220 249 221
3 250 221 249
3 220 224 249
3 254 249 224
3 221 222 225
3 226 225 222
3 221 250 222
3 251 222 250
3 222 223 226
3 227 226 223
3 222 251 223
3 252 223 251
3 223 252 227
3 255 227 252
3 224 225 230
3 224 230 229
3 224 229 257
3 224 257 254
3 227 255 256
3 227 256 228
3 228 256 259
3 228 259 231
3 229 232 260
3 229 260 257
3 231 259 264
3 231 264 234
3 232 233 260
3 261 260 233
3 233 235 261
3 265 261 235
3 234 264 268
3 234 268 238
3 235 239 236
3 240 236 239
3 235 236 265
3 266 265 236
3 236 240 266
3 269 266 240
3 237 241 238
3 242 238 241
3 237 238 267
3 268 267 238
3 237 267 241
3 270 241 267
3 240 243 244
3 240 244 241
3 240 241 269
3 270 269 241
3 245 246 250
3 245 250 249
3 245 277 278
3 245 278 246
3 245 249 283
3 245 283 277
3 246 247 251
3 246 251 250
3 246 278 279
3 246 279 247
3 247 248 252
3 247 252 251
3 247 279 280
3 247 280 248
3 248 280 284
3 248 284 252
3 249 254 283
3 286 283 254
3 252 253 255
3 256 255 253
3 252 284 285
3 252 285 253
3 253 285 256
3 287 256 285
3 254 257 286
3 288 286 257
3 256 287 259
3 292 259 287
3 257 260 258
3 261 258 260
3 257 258 288
3 289 288 258
3 258 261 289
3 293 289 261
3 259 292 264
3 296 264 292
3 261 265 266
3 261 266 262
3 261 262 294
3 261 294 293
3 262 266 267
3 262 267 263
3 262 263 295
3 262 295 294
3 263 267 268
3 263 268 264
3 263 264 296
3 263 296 295
3 266 269 270
3 266 270 267
3 271 272 277
3 278 277 272
3 271 303 304
3 271 304 272
3 271 277 303
3 309 303 277
3 272 273 278
3 279 278 273
3 272 304 305
3 272 305 273
3 273 274 279
3 280 279 274
3 273 305 306
3 273 306 274
3 274 275 280
3 281 280 275
3 274 306 275
3 307 275 306
3 275 307 281
3 310 281 307
3 276 277 282
3 283 282 277
3 276 308 277
3 309 277 308
3 276 282 308
3 311 308 282
3 280 281 284
3 285 284 281
3 281 310 285
3 314 285 310
3 282 283 312
3 282 312 311
3 283 286 315
3 283 315 312
3 285 314 287
3 319 287 314
3 286 288 320
3 286 320 315
3 287 319 324
3 287 324 292
3 288 289 321
3 288 321 320
3 289 293 294
3 289 294 290
3 289 290 322
3 289 322 321
3 290 294 291
3 295 291 294
3 290 291 323
3 290 323 322
3 291 295 292
3 296 292 295
3 291 292 324
3 291 324 323
3 297 298 303
3 304 303 298
3 297 331 298
3 332 298 331
3 297 303 331
3 337 331 303
3 298 299 304
3 305 304 299
3 298 332 299
3 333 299 332
3 299 300 305
3 306 305 300
3 299 333 300
3 334 300 333
3 300 301 306
3 307 306 301
3 300 334 301
3 335 301 334
3 301 335 307
3 338 307 335
3 302 303 309
3 302 309 308
3 302 336 303
3 337 303 336
3 302 308 339
3 302 339 336
3 307 338 342
3 307 342 310
3 308 311 343
3 308 343 339
3 310 342 348
3 310 348 314
3 311 312 344
3 311 344 343
3 312 315 344
3 349 344 315
3 313 318 314
3 319 314 318
3 313 314 347
3 348 347 314
3 313 347 352
3 313 352 318
3 315 320 316
3 321 316 320
3 315 316 349
3 350 349 316
3 316 321 317
3 322 317 321
3 316 317 350
3 351 350 317
3 317 322 318
3 323 318 322
3 317 318 351
3 352 351 318
3 318 323 319
3 324 319 323
3 325 326 332
3 325 332 331
3 325 358 326
3 359 326 358
3 325 331 364
3 325 364 358
3 326 327 333
3 326 333 332
3 326 359 327
3 360 327 359
3 327 328 334
3 327 334 333
3 327 360 328
3 361 328 360
3 328 329 335
3 328 335 334
3 328 361 362
3 328 362 329
3 329 362 365
3 329 365 335
3 330 331 337
3 330 337 336
3 330 363 364
3 330 364 331
3 330 336 366
3 330 366 363
3 335 365 368
3 335 368 338
3 336 339 366
3 369 366 339
3 338 368 374
3 338 374 342
3 339 343 340
3 344 340 343
3 339 340 369
3 370 369 340
3 340 344 370
3 375 370 344
3 341 347 342
3 348 342 347
3 341 342 373
3 374 373 342
3 341 373 347
3 378 347 373
3 344 349 350
3 344 350 345
3 344 345 375
3 376 375 345
3 345 350 351
3 345 351 346
3 345 346 376
3 377 376 346
3 346 351 352
3 346 352 347
3 346 347 377
3 378 377 347
3 353 354 359
3 353 359 358
3 353 380 354
3 381 354 380
3 353 358 385
3 353 385 380
3 354 355 360
3 354 360 359
3 354 381 355
3 382 355 381
3 355 356 361
3 355 361 360
3 355 382 383
3 355 383 356
3 356 383 386
3 356 386 361
3 357 358 364
3 357 364 363
3 357 384 385
3 357 385 358
3 357 363 384
3 388 384 363
3 361 386 387
3 361 387 362
3 362 387 391
3 362 391 365
3 363 366 388
3 392 388 366
3 365 391 397
3 365 397 368
3 366 369 392
3 398 392 369
3 367 373 374
3 367 374 368
3 367 368 396
3 397 396 368
3 367 396 373
3 402 373 396
3 369 370 398
3 399 398 370
3 370 375 376
3 370 376 371
3 370 371 400
3 370 400 399
3 371 376 377
3 371 377 372
3 371 372 401
3 371 401 400
3 372 377 378
3 372 378 373
3 372 373 402
3 372 402 401
3 379 380 385
3 379 385 384
3 379 408 409
3 379 409 380
3 379 384 413
3 379 413 408
3 380 409 410
3 380 410 381
3 381 410 411
3 381 411 382
3 382 411 412
3 382 412 383
3 383 412 415
3 383 415 386
3 384 388 413
3 416 413 388
3 386 390 387
3 391 387 390
3 386 415 420
3 386 420 390
3 388 392 416
3 421 416 392
3 389 395 390
3 396 390 395
3 389 390 419
3 420 419 390
3 389 419 424
3 389 424 395
3 390 396 391
3 397 391 396
3 392 398 399
3 392 399 393
3 392 393 421
3 422 421 393
3 393 399 400
3 393 400 394
3 393 394 422
3 423 422 394
3 394 400 401
3 394 401 395
3 394 395 424
3 394 424 423
3 395 401 402
3 395 402 396
3 403 404 409
3 403 409 408
3 403 427 404
3 428 404 427
3 403 408 432
3 403 432 427
3 404 405 410
3 404 410 409
3 404 428 405
3 429 405 428
3 405 406 411
3 405 411 410
3 405 429 406
3 430 406 429
3 406 407 411
3 412 411 407
3 406 430 431
3 406 431 407
3 407 431 435
3 407 435 412
3 408 413 432
3 436 432 413
3 412 435 440
3 412 440 415
3 413 416 436
3 441 436 416
3 414 419 415
3 420 415 419
3 414 415 439
3 440 439 415
3 414 439 444
3 414 444 419
3 416 421 422
3 416 422 417
3 416 417 441
3 442 441 417
3 417 422 423
3 417 423 418
3 417 418 442
3 443 442 418
3 418 423 424
3 418 424 419
3 418 419 443
3 444 443 419
3 425 426 429
3 425 429 428
3 425 445 426
3 446 426 445
3 425 428 448
3 425 448 445
3 426 446 429
3 449 429 446
3 427 447 428
3 448 428 447
3 427 432 451
3 427 451 447
3 429 449 430
3 450 430 449
3 430 434 431
3 435 431 434
3 430 450 434
3 454 434 450
3 432 436 451
3 455 451 436
3 433 438 434
3 439 434 438
3 433 434 453
3 454 453 434
3 433 453 457
3 433 457 438
3 434 439 435
3 440 435 439
3 436 441 437
3 442 437 441
3 436 437 455
3 456 455 437
3 437 442 438
3 443 438 442
3 437 438 456
3 457 456 438
3 438 443 439
3 444 439 443
3 445 448 449
3 445 449 446
3 447 451 452
3 447 452 448
3 448 452 453
3 448 453 449
3 449 453 454
3 449 454 450
3 451 455 456
3 451 456 452
3 452 456 457
3 452 457 453
