ply
format ascii 1.0
element vertex 794
property float x
property float y
property float z
property uchar red
property uchar green
property uchar blue
element face 1584
property list uchar int vertex_index
end_header
44.5998 -45.5447 -20.046 0 0 157
44.4748 -45.582 -20.039 0 0 151
44.5908 -45.563 -20.2632 0 0 140
44.4775 -45.566 -20.2598 0 0 134
43.673 -43.7216 -13.4382 0 0 246
43.3432 -43.6165 -13.47 0 22 255
43.7927 -44.0166 -14.5247 0 13 255
43.3408 -43.8299 -14.5514 0 59 255
44.4575 -44.2007 -16.7144 0 0 213
44.0271 -44.3089 -16.1217 0 132 255
43.4579 -44.0707 -16.0887 0 192 255
44.4993 -44.5014 -17.9852 0 104 255
44.0867 -44.6963 -17.8631 0 48 255
43.6028 -44.3503 -17.7169 0 66 255
44.5521 -44.9862 -19.4218 0 36 255
44.2352 -45.1148 -19.3976 0 44 255
43.7812 -44.6343 -19.0952 0 30 255
44.5225 -45.0926 -20.0306 0 0 171
44.2587 -45.0625 -20.0197 0 0 195
43.9008 -44.7724 -19.7769 0 0 181
43.6878 -42.0266 -9.56408 0 55 255
43.332 -41.8859 -9.60999 0 6 255
43.8038 -42.4261 -10.6803 0 94 255
43.2613 -42.21 -10.7553 0 75 255
44.645 -42.6134 -12.8632 0 10 255
44.01 -43.0285 -12.4896 66 255 189
43.2466 -42.8006 -12.5886 137 255 118
44.7131 -42.9268 -14.1952 118 255 137
44.2373 -43.5969 -14.1243 0 68 255
43.0788 -43.0334 -14.2459 31 255 224
44.6778 -43.438 -15.9499 0 239 255
44.3539 -43.9073 -15.3946 0 55 255
43.1594 -43.2955 -15.9248 0 118 255
44.6745 -43.709 -17.6779 12 255 243
43.3726 -43.5872 -17.5678 14 255 241
44.6279 -44.1459 -19.0914 0 0 250
43.9023 -43.8199 -19.4869 0 0 175
43.6335 -43.9495 -19.0215 0 22 255
44.491 -44.3524 -19.8353 0 0 228
44.1377 -44.2835 -19.9197 0 0 201
43.8282 -44.3714 -19.741 0 0 172
44.7511 -39.8644 -5.50073 0 132 255
44.3056 -40.0519 -5.47767 0 0 236
44.8354 -40.1457 -6.6895 0 197 255
44.0594 -40.4845 -6.67761 0 184 255
43.4306 -40.4024 -7.17085 0 85 255
44.9869 -40.5955 -8.42189 71 255 184
44.061 -41.3203 -8.6538 123 255 132
43.2626 -40.9866 -8.75754 53 255 202
45.115 -41.0929 -10.1147 255 224 0
44.3823 -41.8979 -10.1835 0 175 255
42.959 -41.2059 -10.4083 255 216 0
45.0626 -41.582 -11.9661 185 255 70
44.5114 -42.2834 -11.5058 0 96 255
42.9198 -41.5076 -12.2086 123 255 132
45.0313 -41.7311 -13.8367 137 255 118
42.9842 -41.788 -13.981 77 255 178
44.8272 -42.1047 -15.6226 255 242 0
43.1628 -42.1913 -15.6883 144 255 111
44.5621 -42.5898 -17.3673 0 205 255
44.0289 -42.4 -17.6747 0 53 255
43.4893 -42.5809 -17.2933 0 179 255
44.4862 -43.4191 -18.9266 0 52 255
44.0565 -43.2773 -19.019 0 75 255
43.6578 -43.2379 -18.5819 0 0 248
44.4634 -43.8038 -19.6683 0 0 176
44.2383 -43.7467 -19.7162 0 0 161
44.9664 -38.181 -1.34257 0 137 255
44.4632 -38.2676 -1.35142 0 0 247
45.0012 -38.3766 -2.53649 98 255 157
44.1624 -38.5823 -2.55297 1 255 254
43.4997 -38.339 -3.00398 0 8 255
45.0222 -38.9675 -4.563 56 255 199
44.0982 -39.3613 -4.49548 9 255 246
43.3404 -38.7365 -4.4365 111 255 144
45.4144 -39.1478 -6.42464 255 89 0
43.7308 -39.8648 -5.75083 0 98 255
43.1466 -39.3527 -6.29076 255 219 0
46.2161 -39.1143 -9.17518 0 1 255
45.7648 -39.408 -8.44213 149 255 106
42.865 -39.5667 -8.25109 255 76 0
46.2362 -39.2577 -9.98197 0 12 255
45.7952 -39.9551 -10.0119 0 155 255
42.7699 -39.7356 -10.0979 201 255 54
46.1634 -39.2904 -10.7742 0 0 206
45.6808 -39.8762 -11.5293 255 182 0
42.9033 -39.9376 -11.9418 191 255 64
45.1801 -40.1982 -13.4282 255 210 0
43.7198 -39.6131 -14.1663 0 120 255
43.2072 -40.2433 -13.7312 255 211 0
44.7028 -40.6668 -15.0765 0 242 255
44.0253 -40.346 -15.1944 0 153 255
43.4272 -41.0586 -15.352 0 195 255
44.4835 -41.4783 -16.4438 0 54 255
44.0274 -41.3857 -16.5582 0 80 255
43.5874 -41.6139 -16.5005 0 41 255
45.2192 -36.349 4.70492 0 0 207
44.6507 -36.3331 4.70181 0 60 255
46.046 -36.3299 3.11347 0 96 255
45.4183 -36.572 3.53139 0 224 255
44.3881 -36.539 3.51183 116 255 139
43.6473 -36.2154 3.03728 0 118 255
46.0865 -36.5446 1.80107 6 255 249
45.3526 -37.0259 1.71258 70 255 185
44.3633 -37.0316 1.67318 24 255 231
43.5084 -36.4557 1.62756 91 255 164
46.0899 -36.8425 0.290621 0 56 255
45.3271 -37.504 -0.278474 45 255 210
44.2538 -37.6346 -0.318943 65 255 190
43.3566 -36.8305 -0.20328 158 255 97
46.149 -36.9104 -0.763637 0 57 255
45.7204 -37.3098 -1.86203 135 255 120
43.8221 -37.9777 -1.63354 0 137 255
43.1675 -37.3538 -2.17468 255 181 0
45.6743 -37.5436 -4.11283 128 0 0
42.8576 -37.4851 -4.14912 255 42 0
45.8014 -37.7066 -6.18813 255 234 0
42.7093 -37.7353 -6.07777 255 123 0
46.2931 -38.5603 -9.13869 0 0 236
46.0095 -37.9322 -8.30649 246 255 9
42.6498 -37.9071 -7.9937 230 255 25
46.2969 -38.5746 -9.93794 0 51 255
45.9996 -37.7586 -9.83378 42 255 213
42.7642 -38.0491 -9.84384 226 255 29
46.1876 -38.7126 -10.7161 0 29 255
45.722 -38.3054 -11.305 255 189 0
43.6026 -37.6679 -12.359 0 119 255
43.1104 -38.1991 -11.6695 255 134 0
44.9628 -38.6161 -12.9973 115 255 140
44.0324 -38.4396 -13.3074 0 242 255
43.3863 -38.9108 -12.9749 0 122 255
44.7033 -39.4612 -14.2565 0 65 255
44.2721 -39.3321 -14.3637 0 50 255
45.1052 -34.0331 12.6124 0 0 211
44.5308 -34.0987 12.6541 0 60 255
45.2376 -34.3272 11.4838 0 151 255
44.3174 -34.3424 11.5036 0 222 255
43.6362 -34.0903 11.0453 0 113 255
46.163 -34.3689 9.15864 0 0 255
45.5184 -34.6436 9.77796 142 255 113
44.4388 -34.7284 9.72574 128 255 127
43.5884 -34.2724 9.65311 50 255 205
46.2018 -34.646 7.71887 175 255 80
45.4514 -35.1614 7.79767 118 255 137
44.4188 -35.153 7.81353 61 255 194
43.5197 -34.5255 7.84155 160 255 95
46.2376 -35.0324 5.86936 0 253 255
45.4678 -35.7703 5.74498 71 255 184
44.3569 -35.728 5.7453 108 255 147
43.4157 -34.8665 5.86844 255 181 0
46.3256 -35.562 3.93212 48 255 207
45.8212 -36.0755 4.43711 0 107 255
43.9459 -35.9754 4.41124 0 123 255
43.2458 -35.3038 3.85087 153 255 102
46.4711 -35.6062 2.03364 81 255 174
46.4868 -34.9178 1.32578 0 170 255
42.9201 -35.3312 1.8627 254 255 1
46.4158 -36.0543 0.394421 0 209 255
46.374 -35.1975 -0.000678 83 255 172
42.7526 -35.4961 -0.079048 181 0 0
46.3329 -36.3213 -0.701364 0 24 255
46.1286 -35.8045 -1.68418 255 35 0
42.6393 -35.7168 -2.04373 255 92 0
45.9118 -35.9183 -3.92013 182 255 73
42.5505 -35.8543 -4.00707 255 242 0
45.8288 -36.0274 -5.97271 255 100 0
42.5576 -36.0169 -5.93749 255 138 0
45.7572 -36.1624 -7.9177 255 39 0
42.6674 -36.1984 -7.79692 217 255 38
45.5754 -36.3161 -9.62955 225 255 30
42.9238 -36.3861 -9.5189 255 140 0
45.3198 -36.7473 -11.1332 34 255 221
43.794 -36.6033 -11.8215 0 123 255
43.2717 -36.6178 -10.9673 0 254 255
44.8807 -37.0001 -12.2261 0 183 255
44.2889 -36.9231 -12.4424 0 118 255
42.045 -31.9985 20.7334 0 62 255
41.5858 -31.8006 20.7543 0 0 252
43.2711 -32.287 19.1286 0 129 255
42.4055 -32.2333 19.6284 0 85 255
41.6691 -31.9166 19.7796 0 79 255
44.6 -32.272 17.0392 0 30 255
43.7014 -32.464 17.6942 113 255 142
42.4848 -32.309 17.8941 106 255 149
41.7827 -31.9694 18.6779 0 64 255
44.9693 -32.6132 15.5252 102 255 153
43.9324 -32.878 15.745 169 255 86
42.8733 -32.4778 15.9401 116 255 139
46.179 -32.8433 12.9447 0 182 255
45.4331 -33.2764 13.5268 255 255 0
44.1739 -33.4945 13.684 188 255 67
43.1538 -32.8218 13.9027 230 255 25
46.3792 -33.117 11.667 0 247 255
45.8563 -33.7983 11.8498 0 180 255
43.8595 -33.8327 12.3933 0 42 255
43.2264 -33.2728 11.867 255 228 0
46.452 -33.5384 9.88981 81 255 174
46.0399 -34.092 10.5438 0 55 255
43.0671 -33.2973 9.87364 5 255 250
46.5568 -33.6963 7.9539 43 255 212
42.973 -33.4041 7.91143 223 255 32
46.5613 -33.8483 5.99353 218 255 37
46.4445 -33.1067 5.26485 0 168 255
42.8563 -33.5366 5.9119 255 200 0
46.5575 -34.3995 4.12257 107 255 148
46.3961 -33.3748 3.82336 150 255 105
42.6937 -33.7009 3.92554 248 0 0
46.5573 -34.6535 2.70887 0 72 255
46.3501 -33.8338 1.96642 255 251 0
42.5232 -33.7735 1.95672 249 0 0
46.1505 -33.8797 0.015312 234 255 21
42.4412 -33.87 0.002471 255 247 0
45.9507 -34.1024 -1.87998 255 168 0
42.4405 -33.9954 -1.95043 255 113 0
45.7581 -34.2386 -3.87511 255 96 0
42.5214 -34.1212 -3.88971 255 109 0
45.5766 -34.3638 -5.79982 255 178 0
42.6942 -34.3002 -5.80315 255 176 0
45.3192 -34.5306 -7.61452 255 228 0
42.9316 -34.607 -7.5984 254 255 1
44.9277 -34.8701 -9.35786 170 255 85
44.104 -34.6155 -9.66491 0 192 255
43.345 -34.9057 -9.23996 167 255 88
44.8199 -35.7196 -10.9785 0 138 255
44.1237 -35.6066 -11.1003 0 145 255
43.5262 -35.597 -10.5401 0 37 255
44.7466 -36.1325 -11.8547 0 0 231
44.4058 -36.0839 -11.9385 0 0 228
41.557 -29.9977 26.6312 0 124 255
40.9558 -30.0126 26.6182 0 30 255
42.7978 -30.152 24.9684 0 234 255
41.9627 -30.3142 25.4601 0 200 255
41.0155 -30.2217 25.4775 0 219 255
43.1441 -30.4794 23.6408 0 175 255
42.1252 -30.8218 23.6845 91 255 164
41.1197 -30.4851 23.7686 136 255 119
44.3799 -30.5442 21.1102 0 36 255
43.5865 -30.9679 21.8226 255 182 0
42.3471 -31.4846 21.7082 149 255 106
41.3281 -31.0279 21.6627 161 255 94
44.5973 -30.9142 19.6989 245 255 10
43.7157 -31.7349 19.9592 162 255 93
42.8029 -31.9641 20.4689 0 69 255
41.2736 -31.1149 19.986 71 255 184
44.9534 -31.422 17.774 255 93 0
44.1715 -31.9869 18.5123 0 24 255
41.9428 -31.7951 17.4601 0 145 255
41.4926 -31.2818 18.3392 3 255 252
46.2292 -31.5047 14.6361 0 118 255
45.6701 -31.6598 15.6117 114 255 141
42.1353 -31.4819 16.1656 255 249 0
41.6224 -31.1248 17.2272 0 5 255
46.37 -31.956 13.491 0 121 255
45.935 -32.3524 14.2634 0 94 255
42.5864 -31.6683 14.0449 156 255 99
46.5595 -32.0705 11.8384 7 255 248
42.8058 -31.8811 12.0066 167 255 88
46.5618 -32.1468 10.0122 215 255 40
46.2864 -31.3812 9.37784 0 154 255
42.8823 -31.9417 9.98144 255 104 0
46.5505 -32.5731 8.15716 109 255 146
46.139 -31.598 7.94199 187 255 68
42.864 -32.0051 7.93123 255 186 0
46.5115 -32.8368 6.70817 0 86 255
46.1101 -32.0662 5.96004 255 150 0
42.7446 -31.9664 5.8441 239 0 0
45.9345 -32.1172 3.92352 183 255 72
42.538 -32.0205 3.89669 255 139 0
45.8295 -32.2888 1.97593 255 192 0
42.4129 -32.0787 1.99134 228 255 27
45.6876 -32.3998 0.032212 212 255 43
42.4086 -32.1666 0.088587 255 161 0
45.5281 -32.558 -1.88657 255 202 0
42.5154 -32.302 -1.81234 224 255 31
45.3521 -32.7272 -3.77809 255 124 0
42.7559 -32.4541 -3.68236 255 187 0
45.149 -32.9126 -5.55838 169 255 86
43.6766 -32.1651 -6.10651 0 0 236
43.1132 -32.6744 -5.60333 255 172 0
44.7806 -33.0802 -7.11453 62 255 193
44.0122 -32.6951 -7.17851 4 255 251
43.3452 -33.3326 -7.29612 62 255 193
44.6206 -33.7018 -8.44513 0 96 255
44.0595 -33.5714 -8.54179 0 66 255
43.5337 -33.8074 -8.46164 0 23 255
39.2411 -28.0402 32.7981 0 137 255
38.3667 -28.0731 32.9293 0 142 255
37.6909 -27.891 33.0438 0 5 255
40.7105 -28.2074 30.9758 0 227 255
39.7263 -28.3583 31.5155 88 255 167
38.4625 -28.3055 31.5516 0 228 255
37.7508 -27.9831 32.2145 0 42 255
41.1518 -28.5795 29.5963 0 221 255
40.0192 -28.8378 29.6681 149 255 106
38.8799 -28.5309 29.8103 153 255 102
42.7407 -28.8042 27.0494 0 65 255
41.7719 -29.2274 27.6535 255 143 0
40.397 -29.3718 27.6086 172 255 83
39.2148 -28.6434 28.0415 191 255 64
43.1939 -29.2874 25.6503 193 255 62
42.3351 -29.7356 26.308 0 105 255
40.207 -29.5442 25.9243 35 255 220
39.434 -28.7607 26.4156 0 219 255
44.5559 -29.0045 23.1062 3 255 252
43.9367 -29.528 23.917 206 255 49
40.2658 -29.388 24.1551 255 45 0
39.6251 -28.7697 25.2222 0 0 242
44.7041 -29.5038 21.7073 242 255 13
44.1561 -30.0828 22.5197 0 95 255
40.7179 -29.6901 22.0104 158 255 97
45.0215 -29.664 19.83 155 255 100
41.0242 -29.827 20.1546 212 255 43
45.3344 -29.9589 17.8423 210 255 45
41.7206 -29.433 17.5184 0 35 255
41.3472 -29.9882 18.4007 131 255 124
46.2528 -30.862 14.6571 0 0 212
45.7806 -30.2166 15.6543 255 84 0
42.0699 -30.045 16.216 218 255 37
41.571 -30.4146 17.2486 0 100 255
46.35 -30.925 13.5671 0 241 255
45.8674 -29.9622 13.9353 135 255 120
42.5946 -30.3286 14.1269 255 130 0
46.4178 -31.0417 12.0829 0 243 255
45.8928 -30.1408 12.1239 171 255 84
42.9098 -30.5353 12.1313 255 235 0
46.3951 -31.1911 10.7648 0 143 255
45.8537 -30.519 10.207 114 255 141
43.7886 -29.9583 9.54773 0 154 255
43.1973 -30.5272 10.0954 160 255 95
45.289 -30.4957 8.2987 255 235 0
44.1377 -30.0647 8.12148 108 255 147
43.2542 -30.6783 7.92856 247 255 8
45.1895 -30.7544 5.94755 255 149 0
44.0437 -29.8583 5.58352 255 188 0
43.0969 -30.319 5.53581 255 234 0
45.1894 -30.8176 3.91645 200 255 55
44.3519 -29.704 3.75803 203 255 52
42.6715 -30.3962 3.74469 224 255 31
45.1554 -30.9091 1.99594 255 237 0
44.4132 -29.736 2.01237 130 255 125
42.5367 -30.466 2.01216 219 255 36
45.0568 -31.0405 0.094702 255 139 0
44.3247 -29.9133 0.240307 126 255 129
42.6012 -30.5869 0.247084 230 255 25
44.9211 -31.2522 -1.78756 204 255 51
44.1989 -30.2635 -1.57337 97 255 158
42.7776 -30.8305 -1.55299 255 227 0
44.7526 -31.5412 -3.59504 184 255 71
43.9253 -30.751 -3.27624 0 250 255
43.1652 -31.0403 -3.20156 76 255 179
44.66 -31.9086 -5.27082 0 154 255
43.9721 -31.5488 -5.24617 0 235 255
43.376 -31.6184 -4.77334 0 74 255
44.5977 -32.1691 -6.35134 0 0 233
44.2143 -31.9798 -6.36497 0 0 225
35.0404 -25.745 46.4781 0 79 255
34.6161 -25.8531 46.4787 0 0 240
35.2917 -25.9354 45.4211 0 165 255
34.6513 -26.0446 45.4091 0 93 255
35.6267 -26.0927 43.851 0 136 255
34.7937 -26.1677 43.8466 0 211 255
36.9043 -26.0706 41.2089 0 19 255
36.0628 -26.2685 41.9602 180 255 75
35.0233 -26.2235 42.0607 35 255 220
37.2424 -26.2549 39.8012 56 255 199
36.2258 -26.4893 40.0111 92 255 163
35.2565 -26.2147 40.2124 64 255 191
38.6792 -26.2609 37.1839 0 44 255
37.7355 -26.5242 37.9457 255 219 0
36.4904 -26.657 38.098 127 255 128
35.5795 -26.3024 38.3815 73 255 182
39.0706 -26.5903 35.7498 255 169 0
37.9024 -26.9766 36.0081 201 255 54
36.6321 -26.7969 36.1026 188 255 67
35.8291 -26.3817 36.966 0 0 250
40.6846 -26.8049 33.0752 102 255 153
39.6447 -27.2534 33.8142 149 255 106
38.247 -27.5027 34.1903 72 255 183
37.1971 -27.2047 33.9174 255 239 0
41.159 -27.3091 31.6651 181 255 74
40.2083 -27.7659 32.3793 0 165 255
37.8756 -27.9591 31.1602 0 107 255
37.3715 -27.3623 31.9901 36 255 219
42.7458 -27.0476 29.1119 0 62 255
42.008 -27.5911 29.9061 255 202 0
38.0905 -27.8731 29.9246 0 189 255
37.5432 -27.1439 30.4351 0 178 255
43.0988 -27.6205 27.6932 255 103 0
42.3471 -28.2336 28.4667 0 71 255
38.4653 -27.5191 28.342 84 255 171
37.8136 -26.9756 29.3235 0 125 255
44.4921 -27.3064 24.7796 0 18 255
43.8995 -27.7926 25.7809 255 79 0
39.0613 -27.7615 26.5427 96 255 159
44.7078 -27.847 23.5812 163 255 92
44.2806 -28.4286 24.4708 0 97 255
40.0869 -28.0775 23.885 136 255 119
39.4949 -27.9541 25.178 0 244 255
44.9253 -28.0176 21.8369 196 255 59
40.6429 -28.2664 22.1056 255 181 0
45.0286 -28.1938 19.9953 255 239 0
41.7752 -27.6309 19.5309 59 255 196
41.175 -28.338 20.2932 107 255 148
45.1613 -28.5313 18.0416 255 182 0
42.0265 -28.3075 18.0497 210 255 45
41.4218 -28.8603 18.8768 0 112 255
45.257 -28.775 16.1351 90 255 165
43.5414 -28.1219 15.6126 0 6 255
42.7334 -28.5986 16.1684 255 213 0
45.0476 -28.8306 14.391 152 255 103
44.0275 -28.5222 14.3382 158 255 97
43.1344 -29.1697 14.2142 61 255 194
45.0784 -29.3482 12.3192 23 255 232
44.1535 -29.1345 12.3417 52 255 203
43.3751 -29.566 12.3754 29 255 226
45.0411 -29.7227 10.5567 12 255 243
44.1649 -29.5619 10.5016 0 179 255
43.5198 -29.7864 10.956 0 121 255
44.9373 -29.8762 9.34514 0 93 255
44.4078 -29.7248 9.28839 0 50 255
43.5049 -28.8642 4.4144 0 4 255
43.076 -29.0356 4.40507 0 168 255
43.7229 -28.7752 3.42523 0 232 255
42.8212 -29.0993 3.42104 0 176 255
43.7526 -28.8248 2.06637 0 177 255
42.7696 -29.1655 2.06689 0 235 255
43.5691 -29.0744 0.567405 0 240 255
42.9677 -29.2882 0.570761 5 255 250
43.5838 -29.6487 -1.21987 0 48 255
43.0904 -29.8327 -1.2099 0 152 255
43.5521 -30.0202 -2.37609 0 0 247
43.2224 -30.1421 -2.35391 0 0 255
34.4127 -23.9605 50.1693 0 33 255
33.7537 -24.0229 50.4731 0 138 255
33.0404 -23.9433 50.5787 0 108 255
34.755 -24.3234 49.082 0 208 255
33.9555 -24.5942 49.1606 0 210 255
33.1072 -24.1837 49.4399 0 189 255
35.1998 -24.9345 47.3102 198 255 57
34.2026 -25.2413 47.3334 20 255 235
33.3186 -24.5195 47.7112 106 255 149
35.8623 -25.2419 45.7369 66 255 189
34.027 -25.5842 45.6998 0 211 255
33.4128 -24.7733 45.9229 78 255 177
37.0965 -24.8842 43.302 2 255 253
36.4152 -25.4144 44.0688 181 255 74
34.0694 -25.7127 43.9907 96 255 159
33.5449 -24.9032 44.1475 0 245 255
37.3904 -25.2675 41.8372 220 255 35
36.6305 -25.7821 42.6382 0 75 255
34.235 -25.6856 42.2503 0 232 255
33.7244 -25.02 42.5497 0 226 255
38.8115 -24.8652 39.1895 42 255 213
38.0875 -25.41 40.0155 67 255 188
34.5067 -25.3343 40.4889 243 255 12
33.9232 -24.9976 41.4259 0 11 255
39.1333 -25.3087 37.7983 203 255 52
38.3542 -25.8632 38.6021 0 95 255
35.102 -25.5049 38.3702 37 255 218
40.7253 -24.9522 34.8849 0 165 255
39.9512 -25.4282 35.8925 255 197 0
36.1123 -26.2464 35.5928 0 0 253
35.5998 -25.7369 36.5169 47 255 208
41.0841 -25.5649 33.6057 238 255 17
40.2818 -26.1719 34.4786 24 255 231
36.4459 -25.9763 34.2633 155 255 100
35.8629 -25.5934 35.3335 0 36 255
42.5801 -25.212 30.79 0 33 255
41.9305 -25.7404 31.766 255 64 0
36.9922 -26.1078 32.2638 236 255 19
42.8944 -25.7871 29.5949 255 105 0
42.3584 -26.4181 30.4706 0 193 255
37.3739 -26.147 30.6327 74 255 181
43.4195 -25.9981 27.8427 255 168 0
39.4505 -25.1941 27.3294 50 255 205
38.6384 -26.0823 28.0354 227 255 28
37.8202 -26.1509 29.3438 0 107 255
44.5299 -26.2919 24.8405 87 255 168
44.02 -26.1821 26.0949 6 255 249
40.7591 -25.0055 25.175 36 255 219
39.9845 -25.5777 25.9109 148 255 107
39.2422 -26.634 26.3843 50 255 205
44.7542 -26.4664 23.5513 0 154 255
41.0972 -25.4106 23.9054 22 255 233
40.286 -26.6004 24.2198 255 239 0
39.5902 -27.0721 25.2161 0 197 255
44.7974 -26.5839 22.006 112 255 143
41.626 -25.7966 22.2686 201 255 54
40.9344 -26.9279 22.35 193 255 62
44.564 -26.7051 20.2809 236 255 19
43.6121 -26.1705 20.0226 113 255 142
42.3175 -26.4222 20.3933 255 70 0
41.4138 -27.1786 20.9647 0 243 255
44.6193 -27.4258 18.23 146 255 109
43.7583 -27.0073 18.2214 84 255 171
42.7866 -27.2707 18.3535 73 255 182
44.6848 -27.8529 16.5156 47 255 208
43.8892 -27.6071 16.4816 15 255 240
43.1194 -27.7158 16.9501 0 114 255
44.7158 -28.0654 15.3702 0 36 255
44.2409 -27.9235 15.3437 0 0 202
43.2667 -28.3293 3.98155 0 0 175
43.0741 -28.3955 3.97942 0 0 185
43.3059 -28.2675 3.29198 0 0 231
43.0066 -28.3639 3.29109 0 0 247
43.3135 -28.3016 2.25388 0 0 248
42.9914 -28.4027 2.25408 0 13 255
43.2833 -28.4349 1.3693 0 0 208
43.0398 -28.5126 1.37025 0 0 209
30.1599 -22.1288 54.7977 0 6 255
29.7532 -22.0336 54.8945 0 0 194
32.8562 -22.4534 52.8728 0 173 255
31.9116 -22.5869 53.1894 0 143 255
30.7135 -22.4069 53.8397 0 147 255
29.9647 -22.1758 54.0935 0 27 255
34.5874 -23.0935 50.6608 35 255 220
33.5337 -23.0085 51.6543 87 255 168
32.3164 -23.1575 51.6245 152 255 103
30.9948 -22.5346 52.4243 0 235 255
30.1943 -22.2433 53.2536 0 0 232
35.307 -23.2548 49.3419 208 255 47
32.2574 -23.1225 50.1004 255 136 0
31.4233 -22.6895 51.2173 0 32 255
36.7032 -22.7923 46.7596 0 29 255
36.0401 -23.4642 47.577 255 35 0
32.7764 -23.3753 47.9937 141 255 114
37.0211 -23.1378 45.5909 255 245 0
36.4671 -24.177 45.9432 0 244 255
33.0833 -23.6466 46.0683 178 255 77
37.3985 -23.6761 43.9298 255 181 0
36.7926 -24.5143 44.6816 0 120 255
33.6571 -22.9682 43.4208 0 165 255
33.371 -23.729 44.1699 103 255 152
38.7387 -23.0806 40.9097 0 220 255
38.1102 -23.6999 41.945 255 192 0
33.9871 -23.2516 42.092 67 255 188
33.6446 -24.1566 42.5122 0 138 255
39.0496 -23.626 39.6884 146 255 109
38.468 -24.3168 40.5729 60 255 195
35.1358 -22.9113 39.3778 38 255 217
34.4976 -23.8326 40.3675 255 185 0
33.9088 -24.3924 41.3866 0 150 255
39.6337 -23.7196 38.0196 255 216 0
35.64 -23.1268 37.9168 190 255 65
35.1349 -24.3294 38.2569 255 252 0
40.9323 -23.7097 35.035 146 255 109
40.2867 -23.7669 36.4018 229 255 26
36.9684 -22.7596 35.255 0 183 255
36.2319 -23.4841 36.1136 255 163 0
35.6291 -24.6596 36.5226 84 255 171
41.48 -23.8971 33.619 255 241 0
37.4031 -23.12 33.9077 255 168 0
36.5695 -24.4839 34.3596 255 131 0
35.9128 -24.9401 35.3597 0 24 255
42.635 -24.0854 30.8675 78 255 177
42.1078 -24.0181 32.081 170 255 85
38.8265 -22.8223 31.3075 0 200 255
38.0176 -23.4434 32.0875 172 255 83
37.2163 -24.797 32.31 254 255 1
42.9547 -24.222 29.5601 88 255 167
39.2351 -23.2401 30.0303 160 255 95
38.3186 -24.1558 30.4087 63 255 192
37.6114 -25.1135 30.6882 28 255 227
43.3113 -24.4471 27.8368 255 216 0
40.9402 -23.5788 27.2443 0 243 255
39.8654 -23.9654 28.1618 255 130 0
38.6185 -24.8782 29.0051 143 255 112
37.9115 -25.37 29.6147 0 134 255
44.4116 -25.3858 24.7926 0 0 241
43.8447 -24.7656 25.7694 255 236 0
41.2153 -24.1556 25.7874 45 255 210
40.3495 -24.5286 26.5923 0 191 255
44.5169 -25.3563 23.6982 0 253 255
43.9832 -24.5359 24.0659 0 253 255
41.7859 -24.4469 24.098 83 255 172
44.4956 -25.4228 22.3803 0 209 255
43.9491 -24.6131 22.6287 0 148 255
42.2578 -24.7134 22.6255 0 214 255
44.3275 -25.5804 21.3083 0 126 255
43.6582 -24.9901 21.4283 0 228 255
42.8145 -24.9733 21.5387 0 194 255
27.7908 -20.9907 59.4618 0 0 128
27.6575 -20.9964 59.6009 0 0 131
28.8902 -20.9174 58.0976 0 0 185
28.2389 -20.9905 58.7755 0 0 182
27.8767 -21.0008 59.1942 0 0 135
30.664 -20.744 56.313 0 127 255
29.6542 -20.9785 57.0131 0 121 255
28.7931 -21.0863 57.6617 0 39 255
28.1643 -21.0226 58.6197 0 0 142
32.4831 -20.8136 54.5744 0 181 255
31.4309 -21.0462 55.3007 1 255 254
30.285 -21.613 55.551 0 146 255
29.5006 -21.4962 55.7316 0 119 255
33.0369 -21.4338 53.5611 131 255 124
31.8303 -21.8708 54.2307 0 215 255
30.903 -22.0703 54.5949 0 128 255
29.6962 -21.6381 54.4091 0 42 255
34.8626 -21.7273 51.1515 84 255 171
34.0052 -21.7632 52.3009 100 255 155
31.3565 -21.1388 51.4268 0 47 255
30.7645 -21.6927 52.2317 11 255 244
30.037 -21.7328 53.3284 0 72 255
35.6087 -21.7529 49.739 255 229 0
31.9487 -21.7053 50.1642 255 149 0
31.2877 -22.1029 51.1739 0 13 255
36.8669 -21.6031 46.9429 185 255 70
36.2808 -21.7619 48.2295 148 255 107
33.1657 -20.9927 47.2488 0 176 255
32.7124 -21.856 48.049 255 24 0
37.3187 -21.6918 45.5626 85 255 170
33.4886 -21.2783 45.8755 207 255 48
33.1 -22.4112 46.1896 105 255 150
37.7757 -21.8643 43.9889 255 98 0
33.8497 -21.7991 44.0764 255 154 0
33.3654 -22.6889 44.7958 0 98 255
38.874 -21.8117 41.0076 216 255 39
38.3336 -21.9002 42.357 217 255 38
35.0677 -21.1588 41.334 85 255 170
34.4475 -21.8847 42.1923 145 255 110
39.3165 -21.9447 39.6319 182 255 73
35.4143 -21.6694 39.931 109 255 146
34.7418 -22.494 40.8042 0 228 255
39.8231 -22.0371 38.0926 255 135 0
36.9758 -21.106 37.0459 0 208 255
36.2397 -21.6637 38.016 255 184 0
40.9596 -22.1924 35.0939 151 255 104
40.377 -22.1175 36.5444 193 255 62
37.3396 -21.6329 35.7887 167 255 88
36.5856 -22.2738 36.6264 0 250 255
41.4951 -22.3071 33.6029 113 255 142
38.9525 -21.3349 33.1193 0 14 255
38.1717 -21.7666 34.0081 255 176 0
42.5283 -23.0127 30.8963 0 88 255
42.0523 -22.4206 31.926 136 255 119
39.2533 -21.8484 31.8983 134 255 121
38.4784 -22.3354 32.6434 0 230 255
42.6061 -22.7597 29.8365 26 255 229
42.193 -22.0408 30.8099 0 111 255
39.9843 -22.1424 30.3938 212 255 43
42.6631 -23.0718 28.1021 168 255 87
41.676 -22.8302 27.8746 182 255 73
40.6695 -22.5886 28.9722 67 255 188
43.0598 -23.7001 26.0014 224 255 31
42.1645 -23.5314 25.9477 52 255 203
43.2981 -23.9017 24.2512 0 218 255
42.5436 -23.8655 24.2415 0 87 255
43.3969 -24.0627 22.8624 0 39 255
42.8154 -24.0855 22.8624 0 102 255
43.3816 -24.2743 22.0074 0 0 203
43.012 -24.2804 22.0336 0 0 236
27.7941 -20.958 59.4621 0 0 134
27.6592 -20.9739 59.6014 0 0 128
28.9305 -20.7412 58.076 0 0 178
28.2506 -20.8987 58.7763 0 0 167
27.8806 -20.9568 59.1957 0 0 135
30.8672 -20.1524 56.2573 0 33 255
29.8021 -20.4182 56.9237 0 178 255
28.8155 -20.8398 57.6853 0 1 255
28.1711 -20.9426 58.6261 0 0 155
32.8024 -19.8609 54.5432 0 200 255
31.7884 -19.9871 55.3719 0 116 255
30.11 -20.1667 55.6848 0 110 255
29.4621 -20.859 55.9511 0 227 255
34.4762 -19.4843 52.6333 0 8 255
33.7502 -19.9843 53.4366 174 255 81
31.2778 -19.4827 53.3009 0 43 255
30.5044 -20.0799 54.2063 92 255 163
29.8057 -20.9329 54.5275 0 120 255
34.9464 -20.0909 51.6116 255 189 0
34.3228 -20.6277 52.5345 0 131 255
31.5854 -19.9328 51.9669 255 95 0
30.627 -20.709 52.9686 0 201 255
30.024 -21.1412 53.5703 0 0 200
35.6929 -20.0998 49.9686 255 239 0
33.0915 -19.3097 49.2501 0 141 255
32.416 -20.0639 50.1373 255 236 0
36.9043 -20.0879 47.0173 154 255 101
36.3393 -20.1007 48.4293 255 212 0
33.4017 -19.7808 47.8366 225 255 30
32.8123 -20.5803 48.6697 45 255 210
37.3719 -20.106 45.5577 225 255 30
33.9954 -19.8338 46.02 255 139 0
37.8356 -20.1476 43.9716 175 255 80
35.1526 -19.3599 43.3146 61 255 194
34.5155 -20.0695 44.1711 216 255 39
38.8601 -20.336 41.0154 71 255 184
38.3515 -20.2051 42.368 231 255 24
35.4009 -19.9049 41.9306 152 255 103
34.768 -20.6174 42.7495 97 255 158
39.261 -20.3451 39.6402 161 255 94
35.9967 -20.0675 40.2137 255 159 0
39.7056 -20.453 38.0912 99 255 156
37.3584 -20.0686 37.3713 50 255 205
36.6614 -20.1247 38.6334 121 255 134
40.7501 -20.8322 35.0925 56 255 199
40.1744 -20.613 36.5029 178 255 77
38.0084 -20.3026 36.0578 114 255 141
41.1856 -20.9768 33.6822 113 255 142
39.3901 -20.5467 33.5139 0 225 255
38.6745 -20.5166 34.6485 0 193 255
41.5479 -21.1209 32.184 0 230 255
39.98 -20.8372 32.1659 22 255 233
42.2731 -21.9276 29.8234 0 49 255
41.6709 -21.3067 30.7054 0 194 255
40.7364 -21.1761 30.8454 0 237 255
42.2995 -22.1479 29.0259 0 46 255
41.7329 -21.8758 29.2636 0 142 255
41.0789 -21.7514 29.6351 0 60 255
31.1417 -19.5589 55.9273 0 0 200
30.6069 -19.751 56.2078 0 0 198
32.9286 -18.7469 54.3456 0 175 255
31.8982 -18.9802 54.9236 13 255 242
30.8982 -19.4754 55.411 0 55 255
34.4395 -18.498 52.5748 0 229 255
33.7315 -18.5803 53.4616 0 143 255
31.9009 -18.6274 53.6812 133 255 122
31.0592 -19.3082 54.4857 0 96 255
34.961 -18.5837 51.4205 138 255 117
33.2364 -17.7878 51.2304 0 141 255
32.498 -18.3965 52.0412 212 255 43
35.564 -18.5383 49.857 216 255 39
33.4985 -18.1738 49.7721 255 170 0
32.789 -18.8187 50.6596 0 130 255
36.7542 -18.6598 46.9486 66 255 189
36.189 -18.557 48.2957 0 239 255
34.0288 -18.2506 48.0071 255 255 0
37.1643 -18.6351 45.5144 94 255 161
35.3429 -17.7502 45.405 0 153 255
34.6532 -18.2717 46.2257 185 255 70
37.6045 -18.5828 43.8401 228 255 27
35.5738 -18.2255 43.8794 162 255 93
34.9024 -18.7987 44.7477 13 255 242
38.6985 -19.1907 40.9464 0 25 255
38.1434 -18.6315 42.0203 255 157 0
36.0789 -18.4605 42.1168 171 255 84
38.9026 -18.9167 39.7561 75 255 180
38.3832 -18.3117 40.6774 0 94 255
36.5757 -18.7224 40.4478 101 255 154
39.3094 -19.1495 38.0948 149 255 106
37.8063 -18.984 37.8383 0 211 255
37.1076 -18.8895 39.029 12 255 243
40.4097 -19.9785 35.0572 0 112 255
39.6165 -19.437 36.261 171 255 84
38.6403 -19.2656 36.5031 34 255 221
40.6771 -20.1357 33.8471 0 132 255
39.8759 -19.8803 34.2296 24 255 231
39.0822 -19.7553 35.0966 0 155 255
41.0236 -20.3287 32.4961 0 63 255
40.459 -20.2187 32.5721 0 106 255
41.2221 -20.5126 31.5372 0 0 222
40.8369 -20.4587 31.5867 0 0 206
33.0704 -17.9119 53.9987 0 0 248
32.6293 -17.9707 54.2159 0 3 255
34.2503 -17.6879 52.4283 0 71 255
33.5308 -17.4425 53.09 0 136 255
32.8543 -17.4529 53.401 0 149 255
34.5702 -17.5358 51.3551 0 151 255
33.7133 -17.1446 51.7908 98 255 157
33.0612 -17.2539 52.5554 0 80 255
35.131 -17.2606 49.5295 113 255 142
34.3638 -17.091 49.6562 0 216 255
36.481 -17.6957 46.7988 0 73 255
35.8314 -17.2812 47.7725 192 255 63
34.5983 -17.0792 48.1947 0 229 255
36.6733 -17.5497 45.5719 29 255 226
35.8049 -17.0833 46.1319 123 255 132
35.0443 -17.0876 46.986 0 180 255
37.061 -17.3263 43.7581 104 255 151
36.4174 -17.1761 43.8656 8 255 247
37.4453 -17.4116 42.2099 0 223 255
36.8107 -17.366 42.287 67 255 188
38.599 -18.1921 39.4256 0 28 255
37.9692 -17.837 40.2699 0 221 255
37.1946 -17.8694 40.555 0 222 255
38.8068 -18.3532 38.3206 0 115 255
38.1393 -18.2038 38.5988 0 204 255
37.4639 -18.1596 39.3474 0 35 255
39.0489 -18.569 37.2935 0 0 192
38.6249 -18.4936 37.4187 0 14 255
33.3697 -16.7243 53.0012 0 0 173
33.1338 -16.7317 53.1304 0 0 168
33.4265 -16.6313 52.5857 0 0 188
33.1969 -16.659 52.807 0 0 176
35.1249 -16.5607 48.821 0 22 255
34.8281 -16.5059 48.8822 0 0 207
35.3554 -16.5111 47.982 0 13 255
34.9778 -16.4594 48.1209 0 0 198
35.4375 -16.4957 47.1742 0 0 199
35.1443 -16.486 47.4182 0 0 209
37.0172 -16.676 43.2643 0 0 201
36.7942 -16.6345 43.2933 0 0 173
37.1411 -16.708 42.7409 0 0 174
36.9199 -16.6881 42.7641 0 0 199
3 0 1 2
3 3 2 1
3 0 14 15
3 0 15 1
3 0 2 17
3 0 17 14
3 1 15 18
3 1 18 3
3 2 3 18
3 2 18 17
3 4 5 7
3 4 7 6
3 4 25 5
3 26 5 25
3 4 6 28
3 4 28 25
3 5 26 29
3 5 29 7
3 6 7 9
3 10 9 7
3 6 9 31
3 6 31 28
3 7 29 10
3 32 10 29
3 8 9 11
3 12 11 9
3 8 30 9
3 31 9 30
3 8 11 30
3 33 30 11
3 9 10 12
3 13 12 10
3 10 32 34
3 10 34 13
3 11 12 15
3 11 15 14
3 11 14 33
3 35 33 14
3 12 13 15
3 16 15 13
3 13 34 16
3 37 16 34
3 14 17 38
3 14 38 35
3 15 16 19
3 15 19 18
3 16 37 40
3 16 40 19
3 17 18 38
3 39 38 18
3 18 19 39
3 40 39 19
3 20 21 23
3 20 23 22
3 20 47 48
3 20 48 21
3 20 22 50
3 20 50 47
3 21 48 51
3 21 51 23
3 22 23 26
3 22 26 25
3 22 25 50
3 53 50 25
3 23 51 26
3 54 26 51
3 24 25 27
3 28 27 25
3 24 52 25
3 53 25 52
3 24 27 52
3 55 52 27
3 26 54 56
3 26 56 29
3 27 28 31
3 27 31 30
3 27 30 57
3 27 57 55
3 29 56 58
3 29 58 32
3 30 33 57
3 59 57 33
3 32 58 34
3 61 34 58
3 33 35 62
3 33 62 59
3 34 61 64
3 34 64 37
3 35 38 62
3 65 62 38
3 36 39 37
3 40 37 39
3 36 37 63
3 64 63 37
3 36 63 66
3 36 66 39
3 38 39 65
3 66 65 39
3 41 42 44
3 41 44 43
3 41 72 73
3 41 73 42
3 41 43 75
3 41 75 72
3 42 73 76
3 42 76 44
3 43 44 47
3 43 47 46
3 43 46 75
3 79 75 46
3 44 45 47
3 48 47 45
3 44 76 77
3 44 77 45
3 45 77 48
3 80 48 77
3 46 47 49
3 50 49 47
3 46 49 79
3 82 79 49
3 48 80 51
3 83 51 80
3 49 50 53
3 49 53 52
3 49 52 85
3 49 85 82
3 51 83 86
3 51 86 54
3 52 55 85
3 87 85 55
3 54 86 89
3 54 89 56
3 55 57 87
3 90 87 57
3 56 89 58
3 92 58 89
3 57 59 93
3 57 93 90
3 58 92 61
3 95 61 92
3 59 62 63
3 59 63 60
3 59 60 94
3 59 94 93
3 60 63 61
3 64 61 63
3 60 61 95
3 60 95 94
3 62 65 63
3 66 63 65
3 67 68 70
3 67 70 69
3 67 107 108
3 67 108 68
3 67 69 111
3 67 111 107
3 68 108 112
3 68 112 70
3 69 70 73
3 69 73 72
3 69 72 114
3 69 114 111
3 70 71 74
3 70 74 73
3 70 112 113
3 70 113 71
3 71 113 74
3 115 74 113
3 72 75 114
3 116 114 75
3 73 74 76
3 77 76 74
3 74 115 77
3 117 77 115
3 75 79 119
3 75 119 116
3 77 117 80
3 120 80 117
3 78 79 82
3 78 82 81
3 78 118 79
3 119 79 118
3 78 81 121
3 78 121 118
3 80 120 123
3 80 123 83
3 81 82 85
3 81 85 84
3 81 84 121
3 124 121 84
3 83 123 127
3 83 127 86
3 84 85 124
3 125 124 85
3 85 87 125
3 128 125 87
3 86 127 89
3 130 89 127
3 87 90 131
3 87 131 128
3 88 91 92
3 88 92 89
3 88 89 130
3 88 130 129
3 88 129 91
3 132 91 129
3 90 93 94
3 90 94 91
3 90 91 132
3 90 132 131
3 91 94 95
3 91 95 92
3 96 97 99
3 100 99 97
3 96 147 97
3 148 97 147
3 96 99 147
3 151 147 99
3 97 148 100
3 152 100 148
3 98 99 102
3 103 102 99
3 98 150 151
3 98 151 99
3 98 102 154
3 98 154 150
3 99 100 103
3 104 103 100
3 100 101 105
3 100 105 104
3 100 152 153
3 100 153 101
3 101 153 156
3 101 156 105
3 102 103 107
3 102 107 106
3 102 106 157
3 102 157 154
3 103 104 108
3 103 108 107
3 104 105 109
3 104 109 108
3 105 156 159
3 105 159 109
3 106 107 110
3 111 110 107
3 106 110 157
3 160 157 110
3 108 109 112
3 113 112 109
3 109 159 113
3 162 113 159
3 110 111 160
3 161 160 111
3 111 114 161
3 163 161 114
3 113 162 115
3 164 115 162
3 114 116 165
3 114 165 163
3 115 164 166
3 115 166 117
3 116 119 167
3 116 167 165
3 117 166 168
3 117 168 120
3 118 121 119
3 122 119 121
3 119 122 167
3 169 167 122
3 120 168 170
3 120 170 123
3 121 124 122
3 125 122 124
3 122 125 169
3 171 169 125
3 123 170 127
3 173 127 170
3 125 128 174
3 125 174 171
3 126 129 130
3 126 130 127
3 126 127 173
3 126 173 172
3 126 172 129
3 175 129 172
3 128 131 132
3 128 132 129
3 128 129 175
3 128 175 174
3 133 134 135
3 136 135 134
3 133 189 134
3 190 134 189
3 133 135 189
3 193 189 135
3 134 190 136
3 194 136 190
3 135 136 139
3 140 139 136
3 135 139 193
3 197 193 139
3 136 137 140
3 141 140 137
3 136 194 137
3 195 137 194
3 137 195 141
3 198 141 195
3 138 139 142
3 143 142 139
3 138 196 139
3 197 139 196
3 138 142 196
3 199 196 142
3 139 140 143
3 144 143 140
3 140 141 145
3 140 145 144
3 141 198 200
3 141 200 145
3 142 143 147
3 142 147 146
3 142 146 201
3 142 201 199
3 143 144 148
3 143 148 147
3 144 145 149
3 144 149 148
3 145 200 203
3 145 203 149
3 146 147 151
3 146 151 150
3 146 150 201
3 204 201 150
3 148 149 152
3 153 152 149
3 149 203 206
3 149 206 153
3 150 154 204
3 207 204 154
3 153 206 156
3 209 156 206
3 154 157 158
3 154 158 155
3 154 155 207
3 208 207 155
3 155 158 210
3 155 210 208
3 156 209 159
3 211 159 209
3 157 160 161
3 157 161 158
3 158 161 212
3 158 212 210
3 159 211 213
3 159 213 162
3 161 163 214
3 161 214 212
3 162 213 215
3 162 215 164
3 163 165 214
3 216 214 165
3 164 215 217
3 164 217 166
3 165 167 216
3 218 216 167
3 166 217 219
3 166 219 168
3 167 169 218
3 220 218 169
3 168 219 170
3 222 170 219
3 169 171 220
3 223 220 171
3 170 222 173
3 225 173 222
3 171 174 226
3 171 226 223
3 172 173 225
3 172 225 224
3 172 224 175
3 227 175 224
3 174 175 227
3 174 227 226
3 176 177 180
3 176 180 179
3 176 238 239
3 176 239 177
3 176 179 242
3 176 242 238
3 177 239 243
3 177 243 180
3 178 179 183
3 178 183 182
3 178 241 242
3 178 242 179
3 178 182 241
3 245 241 182
3 179 180 183
3 184 183 180
3 180 243 184
3 247 184 243
3 181 182 185
3 186 185 182
3 181 244 182
3 245 182 244
3 181 185 244
3 249 244 185
3 182 183 186
3 187 186 183
3 183 184 246
3 247 246 184
3 183 246 187
3 250 187 246
3 185 186 189
3 190 189 186
3 185 189 249
3 253 249 189
3 186 187 190
3 191 190 187
3 187 250 191
3 254 191 250
3 188 189 193
3 188 193 192
3 188 252 253
3 188 253 189
3 188 192 255
3 188 255 252
3 190 191 195
3 190 195 194
3 191 254 256
3 191 256 195
3 192 193 197
3 192 197 196
3 192 196 257
3 192 257 255
3 195 256 259
3 195 259 198
3 196 199 257
3 260 257 199
3 198 259 200
3 262 200 259
3 199 201 260
3 263 260 201
3 200 262 203
3 265 203 262
3 201 204 202
3 205 202 204
3 201 202 263
3 264 263 202
3 202 205 264
3 266 264 205
3 203 265 206
3 267 206 265
3 204 207 208
3 204 208 205
3 205 208 268
3 205 268 266
3 206 267 209
3 269 209 267
3 208 210 270
3 208 270 268
3 209 269 271
3 209 271 211
3 210 212 272
3 210 272 270
3 211 271 273
3 211 273 213
3 212 214 274
3 212 274 272
3 213 273 275
3 213 275 215
3 214 216 274
3 276 274 216
3 215 275 278
3 215 278 217
3 216 218 276
3 279 276 218
3 217 278 281
3 217 281 219
3 218 220 279
3 282 279 220
3 219 281 222
3 284 222 281
3 220 223 221
3 224 221 223
3 220 221 282
3 283 282 221
3 221 224 222
3 225 222 224
3 221 222 283
3 284 283 222
3 223 226 227
3 223 227 224
3 228 229 232
3 228 232 231
3 228 296 297
3 228 297 229
3 228 231 300
3 228 300 296
3 229 297 301
3 229 301 232
3 230 231 234
3 230 234 233
3 230 299 300
3 230 300 231
3 230 233 304
3 230 304 299
3 231 232 235
3 231 235 234
3 232 301 305
3 232 305 235
3 233 234 237
3 238 237 234
3 233 237 304
3 308 304 237
3 234 235 238
3 239 238 235
3 235 305 239
3 309 239 305
3 236 237 240
3 241 240 237
3 236 307 237
3 308 237 307
3 236 240 307
3 310 307 240
3 237 238 241
3 242 241 238
3 239 309 243
3 311 243 309
3 240 241 244
3 245 244 241
3 240 244 312
3 240 312 310
3 243 311 247
3 314 247 311
3 244 249 316
3 244 316 312
3 246 247 251
3 246 251 250
3 247 314 318
3 247 318 251
3 248 249 253
3 248 253 252
3 248 315 316
3 248 316 249
3 248 252 319
3 248 319 315
3 250 251 318
3 250 318 317
3 250 317 321
3 250 321 254
3 252 255 319
3 322 319 255
3 254 321 324
3 254 324 256
3 255 257 322
3 325 322 257
3 256 324 259
3 328 259 324
3 257 260 258
3 261 258 260
3 257 258 325
3 326 325 258
3 258 261 326
3 329 326 261
3 259 328 262
3 331 262 328
3 260 263 264
3 260 264 261
3 261 264 332
3 261 332 329
3 262 331 265
3 334 265 331
3 264 266 335
3 264 335 332
3 265 334 337
3 265 337 267
3 266 268 338
3 266 338 335
3 267 337 340
3 267 340 269
3 268 270 341
3 268 341 338
3 269 340 343
3 269 343 271
3 270 272 341
3 344 341 272
3 271 343 346
3 271 346 273
3 272 274 344
3 347 344 274
3 273 346 275
3 349 275 346
3 274 276 347
3 350 347 276
3 275 349 278
3 352 278 349
3 276 279 350
3 353 350 279
3 277 280 278
3 281 278 280
3 277 278 351
3 352 351 278
3 277 351 280
3 354 280 351
3 279 282 280
3 283 280 282
3 279 280 353
3 354 353 280
3 280 283 284
3 280 284 281
3 285 286 290
3 285 290 289
3 285 376 286
3 377 286 376
3 285 289 380
3 285 380 376
3 286 287 291
3 286 291 290
3 286 377 287
3 378 287 377
3 287 378 291
3 382 291 378
3 288 289 293
3 288 293 292
3 288 379 289
3 380 289 379
3 288 292 384
3 288 384 379
3 289 290 294
3 289 294 293
3 290 291 382
3 290 382 381
3 290 381 294
3 385 294 381
3 292 293 296
3 297 296 293
3 292 296 384
3 388 384 296
3 293 294 297
3 298 297 294
3 294 385 298
3 389 298 385
3 295 296 299
3 300 299 296
3 295 387 296
3 388 296 387
3 295 299 387
3 392 387 299
3 297 298 301
3 302 301 298
3 298 389 393
3 298 393 302
3 299 304 392
3 395 392 304
3 301 302 305
3 306 305 302
3 302 393 397
3 302 397 306
3 303 304 308
3 303 308 307
3 303 394 395
3 303 395 304
3 303 307 398
3 303 398 394
3 305 306 397
3 305 397 396
3 305 396 399
3 305 399 309
3 307 310 400
3 307 400 398
3 309 399 311
3 402 311 399
3 310 312 403
3 310 403 400
3 311 402 314
3 405 314 402
3 312 316 403
3 406 403 316
3 313 317 314
3 318 314 317
3 313 314 404
3 405 404 314
3 313 404 317
3 408 317 404
3 315 319 316
3 320 316 319
3 316 320 406
3 409 406 320
3 317 408 321
3 411 321 408
3 319 322 320
3 323 320 322
3 320 323 409
3 412 409 323
3 321 411 414
3 321 414 324
3 322 325 323
3 326 323 325
3 323 326 415
3 323 415 412
3 324 414 417
3 324 417 328
3 326 329 418
3 326 418 415
3 327 330 331
3 327 331 328
3 327 328 417
3 327 417 416
3 327 416 419
3 327 419 330
3 329 332 333
3 329 333 330
3 329 330 419
3 329 419 418
3 330 333 334
3 330 334 331
3 332 335 336
3 332 336 333
3 333 420 421
3 333 421 334
3 333 336 422
3 333 422 420
3 334 421 337
3 423 337 421
3 335 338 336
3 339 336 338
3 336 339 422
3 424 422 339
3 337 423 340
3 425 340 423
3 338 341 339
3 342 339 341
3 339 342 424
3 426 424 342
3 340 425 343
3 427 343 425
3 341 344 342
3 345 342 344
3 342 345 426
3 428 426 345
3 343 427 346
3 429 346 427
3 344 347 345
3 348 345 347
3 345 348 430
3 345 430 428
3 346 429 349
3 431 349 429
3 347 350 351
3 347 351 348
3 348 351 352
3 348 352 349
3 348 349 431
3 348 431 430
3 350 353 354
3 350 354 351
3 355 356 358
3 355 358 357
3 355 438 439
3 355 439 356
3 355 357 441
3 355 441 438
3 356 439 442
3 356 442 358
3 357 358 360
3 357 360 359
3 357 359 445
3 357 445 441
3 358 442 446
3 358 446 360
3 359 360 362
3 363 362 360
3 359 362 445
3 449 445 362
3 360 446 363
3 450 363 446
3 361 362 364
3 365 364 362
3 361 448 362
3 449 362 448
3 361 364 448
3 453 448 364
3 362 363 365
3 366 365 363
3 363 450 366
3 454 366 450
3 364 365 368
3 369 368 365
3 364 368 453
3 457 453 368
3 365 366 369
3 370 369 366
3 366 454 370
3 458 370 454
3 367 368 371
3 372 371 368
3 367 456 368
3 457 368 456
3 367 371 456
3 460 456 371
3 368 369 372
3 373 372 369
3 369 370 373
3 374 373 370
3 370 458 462
3 370 462 374
3 371 372 377
3 371 377 376
3 371 376 464
3 371 464 460
3 372 373 378
3 372 378 377
3 373 374 462
3 373 462 461
3 373 461 465
3 373 465 378
3 375 376 380
3 375 380 379
3 375 463 464
3 375 464 376
3 375 379 468
3 375 468 463
3 378 465 469
3 378 469 382
3 379 384 471
3 379 471 468
3 381 382 386
3 381 386 385
3 382 469 472
3 382 472 386
3 383 384 387
3 388 387 384
3 383 470 384
3 471 384 470
3 383 387 470
3 473 470 387
3 385 386 389
3 390 389 386
3 386 472 390
3 476 390 472
3 387 392 473
3 478 473 392
3 389 390 475
3 476 475 390
3 389 475 393
3 481 393 475
3 391 392 394
3 395 394 392
3 391 477 392
3 478 392 477
3 391 394 477
3 482 477 394
3 393 481 397
3 485 397 481
3 394 398 486
3 394 486 482
3 396 397 485
3 396 485 484
3 396 484 488
3 396 488 399
3 398 400 489
3 398 489 486
3 399 488 492
3 399 492 402
3 400 403 493
3 400 493 489
3 401 404 405
3 401 405 402
3 401 402 492
3 401 492 491
3 401 491 495
3 401 495 404
3 403 406 496
3 403 496 493
3 404 495 498
3 404 498 408
3 406 409 496
3 499 496 409
3 407 410 408
3 411 408 410
3 407 408 497
3 498 497 408
3 407 497 410
3 500 410 497
3 409 412 410
3 413 410 412
3 409 410 499
3 500 499 410
3 410 413 411
3 414 411 413
3 412 415 413
3 416 413 415
3 413 416 414
3 417 414 416
3 415 418 416
3 419 416 418
3 420 501 421
3 502 421 501
3 420 422 503
3 420 503 501
3 421 502 423
3 504 423 502
3 422 424 505
3 422 505 503
3 423 504 425
3 506 425 504
3 424 426 507
3 424 507 505
3 425 506 427
3 508 427 506
3 426 428 429
3 426 429 427
3 426 427 508
3 426 508 507
3 428 430 431
3 428 431 429
3 432 433 435
3 436 435 433
3 432 515 516
3 432 516 433
3 432 435 515
3 520 515 435
3 433 434 436
3 437 436 434
3 433 516 517
3 433 517 434
3 434 517 521
3 434 521 437
3 435 436 438
3 439 438 436
3 435 438 520
3 524 520 438
3 436 437 439
3 440 439 437
3 437 521 440
3 525 440 521
3 438 441 524
3 527 524 441
3 439 440 442
3 443 442 440
3 440 525 443
3 528 443 525
3 441 445 527
3 530 527 445
3 442 443 446
3 447 446 443
3 443 528 447
3 532 447 528
3 444 445 449
3 444 449 448
3 444 529 445
3 530 445 529
3 444 448 534
3 444 534 529
3 446 447 451
3 446 451 450
3 447 532 451
3 536 451 532
3 448 453 538
3 448 538 534
3 450 451 455
3 450 455 454
3 451 536 541
3 451 541 455
3 452 453 457
3 452 457 456
3 452 537 538
3 452 538 453
3 452 456 542
3 452 542 537
3 454 455 541
3 454 541 540
3 454 540 544
3 454 544 458
3 456 460 542
3 546 542 460
3 458 544 549
3 458 549 462
3 459 460 463
3 464 463 460
3 459 545 546
3 459 546 460
3 459 463 545
3 550 545 463
3 461 462 465
3 466 465 462
3 462 549 553
3 462 553 466
3 463 468 550
3 555 550 468
3 465 466 552
3 553 552 466
3 465 552 469
3 558 469 552
3 467 468 470
3 471 470 468
3 467 554 468
3 555 468 554
3 467 470 554
3 559 554 470
3 469 558 472
3 562 472 558
3 470 473 563
3 470 563 559
3 472 562 476
3 567 476 562
3 473 478 569
3 473 569 563
3 474 480 481
3 474 481 475
3 474 475 566
3 474 566 565
3 474 565 480
3 571 480 565
3 475 476 567
3 475 567 566
3 477 568 569
3 477 569 478
3 477 482 572
3 477 572 568
3 479 483 484
3 479 484 480
3 479 480 571
3 479 571 570
3 479 570 574
3 479 574 483
3 480 484 485
3 480 485 481
3 482 486 572
3 575 572 486
3 483 487 484
3 488 484 487
3 483 574 577
3 483 577 487
3 486 489 575
3 578 575 489
3 487 491 488
3 492 488 491
3 487 577 580
3 487 580 491
3 489 493 490
3 494 490 493
3 489 490 578
3 579 578 490
3 490 494 491
3 495 491 494
3 490 491 579
3 580 579 491
3 493 496 494
3 497 494 496
3 494 497 495
3 498 495 497
3 496 499 497
3 500 497 499
3 501 503 504
3 501 504 502
3 503 505 506
3 503 506 504
3 505 507 508
3 505 508 506
3 509 510 514
3 509 514 513
3 509 592 593
3 509 593 510
3 509 513 596
3 509 596 592
3 510 593 597
3 510 597 514
3 511 512 517
3 511 517 516
3 511 594 595
3 511 595 512
3 511 516 594
3 599 594 516
3 512 513 517
3 518 517 513
3 512 595 596
3 512 596 513
3 513 514 518
3 519 518 514
3 514 597 602
3 514 602 519
3 515 598 599
3 515 599 516
3 515 520 598
3 603 598 520
3 517 518 521
3 522 521 518
3 518 519 601
3 602 601 519
3 518 601 605
3 518 605 522
3 520 524 603
3 607 603 524
3 521 522 604
3 605 604 522
3 521 604 609
3 521 609 525
3 523 524 526
3 527 526 524
3 523 606 524
3 607 524 606
3 523 526 606
3 610 606 526
3 525 609 528
3 612 528 609
3 526 527 530
3 526 530 529
3 526 529 613
3 526 613 610
3 528 612 532
3 615 532 612
3 529 534 617
3 529 617 613
3 531 535 536
3 531 536 532
3 531 532 615
3 531 615 614
3 531 614 535
3 619 535 614
3 533 534 538
3 533 538 537
3 533 616 534
3 617 534 616
3 533 537 620
3 533 620 616
3 535 540 541
3 535 541 536
3 535 619 540
3 622 540 619
3 537 542 623
3 537 623 620
3 539 543 540
3 544 540 543
3 539 540 622
3 539 622 621
3 539 621 625
3 539 625 543
3 542 546 623
3 627 623 546
3 543 548 544
3 549 544 548
3 543 625 629
3 543 629 548
3 545 626 627
3 545 627 546
3 545 550 626
3 630 626 550
3 547 551 548
3 552 548 551
3 547 548 628
3 629 628 548
3 547 628 632
3 547 632 551
3 548 552 549
3 553 549 552
3 550 555 630
3 634 630 555
3 551 557 558
3 551 558 552
3 551 632 636
3 551 636 557
3 554 633 555
3 634 555 633
3 554 559 637
3 554 637 633
3 556 560 561
3 556 561 557
3 556 557 636
3 556 636 635
3 556 635 560
3 639 560 635
3 557 561 562
3 557 562 558
3 559 563 640
3 559 640 637
3 560 565 566
3 560 566 561
3 560 639 565
3 642 565 639
3 561 566 567
3 561 567 562
3 563 569 643
3 563 643 640
3 564 570 571
3 564 571 565
3 564 565 642
3 564 642 641
3 564 641 570
3 644 570 641
3 568 572 569
3 573 569 572
3 569 573 643
3 645 643 573
3 570 644 574
3 646 574 644
3 572 575 573
3 576 573 575
3 573 576 645
3 647 645 576
3 574 646 648
3 574 648 577
3 575 578 576
3 579 576 578
3 576 579 647
3 649 647 579
3 577 648 650
3 577 650 580
3 579 580 649
3 650 649 580
3 581 582 584
3 585 584 582
3 581 651 652
3 581 652 582
3 581 584 651
3 654 651 584
3 582 652 655
3 582 655 585
3 583 584 587
3 588 587 584
3 583 653 654
3 583 654 584
3 583 587 657
3 583 657 653
3 584 585 589
3 584 589 588
3 585 655 659
3 585 659 589
3 586 587 592
3 586 592 591
3 586 656 657
3 586 657 587
3 586 591 661
3 586 661 656
3 587 588 593
3 587 593 592
3 588 589 659
3 588 659 658
3 588 658 663
3 588 663 593
3 590 591 595
3 590 595 594
3 590 660 591
3 661 591 660
3 590 594 665
3 590 665 660
3 591 592 596
3 591 596 595
3 593 663 597
3 668 597 663
3 594 599 670
3 594 670 665
3 597 668 602
3 673 602 668
3 598 669 599
3 670 599 669
3 598 603 669
3 674 669 603
3 600 604 601
3 605 601 604
3 600 601 671
3 672 671 601
3 600 671 604
3 676 604 671
3 601 602 672
3 673 672 602
3 603 607 674
3 678 674 607
3 604 676 680
3 604 680 609
3 606 677 678
3 606 678 607
3 606 610 677
3 681 677 610
3 608 611 609
3 612 609 611
3 608 609 679
3 680 679 609
3 608 679 682
3 608 682 611
3 610 613 681
3 683 681 613
3 611 614 612
3 615 612 614
3 611 682 685
3 611 685 614
3 613 617 687
3 613 687 683
3 614 685 689
3 614 689 619
3 616 686 687
3 616 687 617
3 616 620 690
3 616 690 686
3 618 621 622
3 618 622 619
3 618 619 689
3 618 689 688
3 618 688 691
3 618 691 621
3 620 623 692
3 620 692 690
3 621 691 625
3 694 625 691
3 623 627 696
3 623 696 692
3 624 628 629
3 624 629 625
3 624 625 694
3 624 694 693
3 624 693 628
3 697 628 693
3 626 695 627
3 696 627 695
3 626 630 698
3 626 698 695
3 628 697 632
3 700 632 697
3 630 634 698
3 701 698 634
3 631 635 632
3 636 632 635
3 631 632 699
3 700 699 632
3 631 699 635
3 702 635 699
3 633 637 634
3 638 634 637
3 634 638 701
3 704 701 638
3 635 702 639
3 705 639 702
3 637 703 638
3 704 638 703
3 637 640 703
3 706 703 640
3 639 705 708
3 639 708 642
3 640 643 641
3 644 641 643
3 640 641 706
3 707 706 641
3 641 642 707
3 708 707 642
3 643 645 644
3 646 644 645
3 645 647 648
3 645 648 646
3 647 649 650
3 647 650 648
3 651 654 655
3 651 655 652
3 653 657 658
3 653 658 654
3 654 658 659
3 654 659 655
3 656 709 710
3 656 710 657
3 656 661 712
3 656 712 709
3 657 662 663
3 657 663 658
3 657 710 713
3 657 713 662
3 660 711 712
3 660 712 661
3 660 665 711
3 715 711 665
3 662 667 663
3 668 663 667
3 662 713 717
3 662 717 667
3 664 665 669
3 670 669 665
3 664 714 665
3 715 665 714
3 664 669 714
3 718 714 669
3 666 671 667
3 672 667 671
3 666 667 716
3 717 716 667
3 666 716 671
3 720 671 716
3 667 672 668
3 673 668 672
3 669 674 718
3 721 718 674
3 671 720 676
3 723 676 720
3 674 678 721
3 725 721 678
3 675 679 680
3 675 680 676
3 675 676 722
3 723 722 676
3 675 722 679
3 726 679 722
3 677 724 678
3 725 678 724
3 677 681 727
3 677 727 724
3 679 726 682
3 729 682 726
3 681 683 730
3 681 730 727
3 682 729 732
3 682 732 685
3 683 687 734
3 683 734 730
3 684 688 689
3 684 689 685
3 684 685 732
3 684 732 731
3 684 731 735
3 684 735 688
3 686 733 734
3 686 734 687
3 686 690 736
3 686 736 733
3 688 735 738
3 688 738 691
3 690 692 739
3 690 739 736
3 691 738 741
3 691 741 694
3 692 696 739
3 743 739 696
3 693 694 740
3 741 740 694
3 693 740 744
3 693 744 697
3 695 742 743
3 695 743 696
3 695 698 742
3 745 742 698
3 697 744 747
3 697 747 700
3 698 701 745
3 748 745 701
3 699 700 746
3 747 746 700
3 699 746 702
3 749 702 746
3 701 704 748
3 750 748 704
3 702 749 705
3 751 705 749
3 703 706 704
3 707 704 706
3 704 707 705
3 708 705 707
3 704 705 750
3 751 750 705
3 709 712 713
3 709 713 710
3 711 752 712
3 753 712 752
3 711 715 755
3 711 755 752
3 712 716 717
3 712 717 713
3 712 753 716
3 756 716 753
3 714 754 715
3 755 715 754
3 714 718 757
3 714 757 754
3 716 756 720
3 759 720 756
3 718 721 760
3 718 760 757
3 719 722 723
3 719 723 720
3 719 720 759
3 719 759 758
3 719 758 722
3 761 722 758
3 721 725 763
3 721 763 760
3 722 761 764
3 722 764 726
3 724 762 763
3 724 763 725
3 724 727 762
3 765 762 727
3 726 764 767
3 726 767 729
3 727 730 765
3 768 765 730
3 728 731 729
3 732 729 731
3 728 729 766
3 767 766 729
3 728 766 769
3 728 769 731
3 730 734 768
3 770 768 734
3 731 769 771
3 731 771 735
3 733 736 734
3 737 734 736
3 734 737 770
3 773 770 737
3 735 771 774
3 735 774 738
3 736 772 773
3 736 773 737
3 736 739 772
3 775 772 739
3 738 774 777
3 738 777 741
3 739 743 775
3 778 775 743
3 740 741 776
3 777 776 741
3 740 776 744
3 779 744 776
3 742 745 746
3 742 746 743
3 743 746 747
3 743 747 744
3 743 744 779
3 743 779 778
3 745 748 749
3 745 749 746
3 748 750 751
3 748 751 749
3 752 755 756
3 752 756 753
3 754 757 758
3 754 758 755
3 755 780 756
3 781 756 780
3 755 758 782
3 755 782 780
3 756 781 759
3 783 759 781
3 757 760 758
3 761 758 760
3 758 759 783
3 758 783 782
3 760 784 761
3 785 761 784
3 760 763 784
3 786 784 763
3 761 785 764
3 787 764 785
3 762 765 763
3 766 763 765
3 763 766 786
3 788 786 766
3 764 787 789
3 764 789 767
3 765 768 766
3 769 766 768
3 766 767 788
3 789 788 767
3 768 790 791
3 768 791 769
3 768 770 790
3 792 790 770
3 769 791 793
3 769 793 771
3 770 773 771
3 774 771 773
3 770 771 792
3 793 792 771
3 772 775 773
3 776 773 775
3 773 776 774
3 777 774 776
3 775 778 779
3 775 779 776
3 780 782 783
3 780 783 781
3 784 786 787
3 784 787 785
3 786 788 789
3 786 789 787
3 790 792 793
3 790 793 791
