ply
format ascii 1.0
element vertex 626
property float x
property float y
property float z
property uchar red
property uchar green
property uchar blue
element face 1248
property list uchar int vertex_index
end_header
8.617 -41.5561 -33.3845 0 1 255
8.11278 -41.685 -33.2688 0 144 255
7.36018 -41.7831 -33.1919 156 255 99
6.49934 -41.8215 -33.1672 0 227 255
5.6386 -41.8018 -33.1912 9 255 246
4.88726 -41.7305 -33.2658 0 116 255
4.38627 -41.6329 -33.3767 0 41 255
8.72187 -41.6701 -33.8898 0 230 255
8.11871 -41.9183 -33.8805 0 165 255
7.35592 -42.0546 -33.857 0 228 255
6.49976 -42.0997 -33.8478 238 255 17
5.64342 -42.0639 -33.8576 0 228 255
4.88013 -41.9433 -33.8808 0 194 255
4.27613 -41.725 -33.8861 0 157 255
8.78914 -41.7464 -34.64 0 128 255
8.13999 -42.0451 -34.6487 198 255 57
7.36096 -42.2113 -34.6473 117 255 138
6.49952 -42.2662 -34.6471 0 210 255
5.63731 -42.2209 -34.6513 119 255 136
4.855 -42.0686 -34.6571 127 255 128
4.19856 -41.7979 -34.6507 19 255 236
8.80185 -41.7515 -35.5033 134 255 121
8.14554 -42.0821 -35.5196 17 255 238
7.36246 -42.2691 -35.5347 49 255 206
6.49801 -42.3361 -35.5433 255 241 0
5.63163 -42.2915 -35.5479 158 255 97
4.83893 -42.127 -35.5501 199 255 56
4.16107 -41.8357 -35.5471 78 255 177
8.7599 -41.6962 -36.3846 44 255 211
8.1308 -42.0439 -36.4166 0 252 255
7.35747 -42.2438 -36.4652 243 255 12
6.4934 -42.3306 -36.4881 195 255 60
5.62722 -42.2996 -36.4965 255 243 0
4.83302 -42.1391 -36.4992 38 255 217
4.15044 -41.8454 -36.4999 16 255 239
8.66715 -41.6243 -37.1842 0 192 255
8.10794 -41.9337 -37.2629 35 255 220
7.35137 -42.1294 -37.4005 164 255 91
6.48108 -42.2563 -37.4355 207 255 48
5.62006 -42.2557 -37.4454 63 255 192
4.83396 -42.1141 -37.4481 191 255 64
4.15958 -41.832 -37.4525 161 255 94
8.56696 -41.5459 -37.7448 0 58 255
8.1273 -41.7211 -37.9806 29 255 226
7.36485 -41.8822 -38.3765 164 255 91
6.44438 -42.1117 -38.347 138 255 117
5.60196 -42.156 -38.3421 88 255 167
4.84049 -42.0457 -38.34 0 217 255
4.19411 -41.7913 -38.3484 9 255 246
6.97905 -41.7655 -39.1802 56 255 199
6.30967 -41.9482 -39.1303 0 245 255
5.56078 -41.9962 -39.1239 0 240 255
4.85032 -41.9185 -39.1111 0 145 255
4.26687 -41.7172 -39.1111 0 189 255
6.74797 -41.6483 -39.6593 0 0 192
6.22903 -41.7201 -39.7295 0 122 255
5.52946 -41.7476 -39.7579 0 191 255
4.84894 -41.708 -39.715 0 228 255
4.37239 -41.624 -39.6163 0 0 186
8.88986 -41.1555 -33.1195 0 167 255
8.22159 -41.2928 -32.7679 68 255 187
7.39599 -41.4039 -32.61 0 246 255
6.49822 -41.4509 -32.5656 67 255 188
5.601 -41.4424 -32.6077 107 255 148
4.78017 -41.3894 -32.759 67 255 188
4.12505 -41.3215 -33.0955 0 216 255
9.19728 -41.2497 -33.7905 88 255 167
3.7999 -41.3655 -33.7705 0 251 255
9.32888 -41.3075 -34.5978 104 255 151
3.64739 -41.4099 -34.6076 0 224 255
9.34835 -41.2705 -35.4781 111 255 144
3.5851 -41.4336 -35.534 86 255 169
9.26811 -41.1518 -36.3855 28 255 227
3.56901 -41.4401 -36.5 173 255 82
9.05481 -41.1094 -37.2673 54 255 201
3.58477 -41.4328 -37.4659 0 173 255
8.76563 -41.1351 -38.0056 0 206 255
8.32224 -41.3351 -38.4642 0 210 255
7.81411 -41.4712 -38.8761 0 238 255
3.64621 -41.4081 -38.392 105 255 150
7.41931 -41.4205 -39.443 0 139 255
3.79649 -41.3619 -39.2274 31 255 224
6.97723 -41.3366 -39.9628 0 146 255
6.29462 -41.3652 -40.2193 0 243 255
5.51419 -41.384 -40.3006 0 243 255
4.74862 -41.3609 -40.2089 0 174 255
4.11525 -41.3113 -39.8956 0 245 255
10.3906 -39.4173 -29.3141 0 0 167
9.99929 -39.5154 -29.2475 0 72 255
9.30654 -39.6192 -29.1977 0 223 255
8.43494 -39.7364 -29.1607 64 255 191
7.49214 -39.81 -29.144 92 255 163
6.54353 -39.8277 -29.1498 154 255 101
5.6476 -39.7875 -29.1837 10 255 245
4.88154 -39.6836 -29.2534 0 102 255
4.37164 -39.5375 -29.3457 0 65 255
10.447 -39.4659 -29.5724 0 0 205
10.0242 -39.672 -29.6483 0 0 245
9.33171 -39.8467 -29.7736 0 206 255
8.44187 -40.0317 -29.7957 94 255 161
7.48982 -40.1361 -29.7937 208 255 47
6.53071 -40.163 -29.797 113 255 142
5.60895 -40.1157 -29.8148 85 255 170
4.77907 -39.9695 -29.8425 78 255 177
4.11815 -39.6678 -29.8338 0 99 255
10.437 -39.4354 -29.8492 0 0 208
10.0848 -39.5688 -30.081 0 66 255
9.41802 -39.8095 -30.5472 202 255 53
8.44571 -40.2031 -30.5498 207 255 48
7.48032 -40.3811 -30.5278 70 255 185
6.51136 -40.434 -30.5214 146 255 109
5.5562 -40.393 -30.5402 141 255 114
4.62918 -40.2329 -30.587 166 255 89
3.69417 -39.8585 -30.6525 255 6 0
2.91677 -39.6846 -31.1207 0 161 255
2.49555 -39.5322 -31.3895 0 0 233
9.24137 -40.0052 -31.5403 255 112 0
8.39285 -40.4357 -31.3816 193 255 62
7.4592 -40.6434 -31.2898 151 255 104
6.49838 -40.7145 -31.263 55 255 200
5.53694 -40.6935 -31.2942 156 255 99
4.59415 -40.5792 -31.3952 218 255 37
3.68435 -40.3457 -31.5812 174 255 81
2.91542 -40.0337 -31.7731 125 255 130
2.40409 -39.6623 -31.8905 0 167 255
10.4798 -39.8009 -33.4395 0 0 183
10.1286 -39.9899 -33.1882 0 184 255
9.38717 -40.3671 -32.6697 128 0 0
8.37981 -40.7928 -32.1877 243 255 12
7.44304 -40.9868 -32.0016 135 255 120
6.49689 -41.0564 -31.9525 204 255 51
5.55174 -41.0472 -31.9986 118 255 137
4.62634 -40.9655 -32.1714 108 255 147
3.68339 -40.7841 -32.5932 255 170 0
2.85977 -40.2774 -32.6217 135 255 120
2.31824 -39.7742 -32.6556 24 255 231
10.5656 -39.878 -33.873 0 3 255
10.221 -40.245 -33.7844 0 94 255
9.69582 -40.6944 -33.6713 69 255 186
3.29688 -40.8912 -33.5989 148 255 107
2.71216 -40.3844 -33.559 196 255 59
2.23682 -39.8349 -33.5558 75 255 180
10.6132 -39.9098 -34.5036 0 144 255
10.291 -40.3227 -34.5133 0 204 255
9.82846 -40.7889 -34.5405 0 220 255
3.12943 -40.9407 -34.5492 255 251 0
2.61878 -40.4284 -34.5241 21 255 234
2.18702 -39.8611 -34.5172 102 255 153
10.6011 -39.8789 -35.1342 0 0 219
10.2987 -40.2464 -35.2413 0 99 255
9.84438 -40.6984 -35.4129 110 255 145
3.06385 -40.9607 -35.5167 0 186 255
2.57714 -40.444 -35.5075 105 255 150
2.16502 -39.8704 -35.5042 106 255 149
10.5437 -39.8032 -35.5664 0 0 215
10.2672 -39.9934 -35.825 0 191 255
9.75513 -40.3624 -36.348 255 102 0
3.0473 -40.9657 -36.5 186 255 69
2.56622 -40.4476 -36.5 106 255 149
2.15934 -39.8725 -36.5 23 255 232
9.35627 -40.3628 -37.4196 255 241 0
3.06379 -40.9605 -37.4832 178 255 77
2.57714 -40.444 -37.4925 105 255 150
2.16506 -39.8705 -37.4958 191 255 64
8.95694 -40.4032 -38.4828 205 255 50
8.44939 -40.886 -38.9474 0 170 255
8.0535 -41.1376 -39.1738 0 55 255
3.12911 -40.9398 -38.4505 2 255 253
2.61873 -40.4281 -38.4758 110 255 145
2.18715 -39.8614 -38.4828 182 255 73
8.79158 -40.0777 -39.4951 200 255 55
8.33872 -40.5981 -39.643 50 255 205
7.81984 -41.0052 -39.6817 0 114 255
3.29539 -40.887 -39.3992 156 255 99
2.71181 -40.3828 -39.4405 109 255 146
2.23705 -39.8348 -39.4441 0 173 255
8.63706 -39.897 -40.3441 0 224 255
8.14545 -40.3648 -40.4024 0 235 255
7.36493 -40.8019 -40.4239 255 169 0
6.4161 -40.8992 -40.7603 26 255 229
5.50615 -40.9336 -40.8842 114 255 141
4.60516 -40.9063 -40.7889 147 255 108
3.67695 -40.7647 -40.3977 255 169 0
2.85826 -40.2712 -40.3764 183 255 72
2.3184 -39.7731 -40.3441 110 255 145
8.51779 -39.774 -41.0252 0 62 255
8.05751 -40.0783 -41.091 0 137 255
7.33427 -40.3032 -41.2004 143 255 112
6.44756 -40.4039 -41.4154 255 216 0
5.50016 -40.4445 -41.5914 229 255 26
4.56428 -40.4524 -41.5666 255 254 0
3.67085 -40.2993 -41.408 231 255 24
2.91199 -40.0201 -41.2245 0 234 255
2.40411 -39.6595 -41.1091 0 139 255
8.41228 -39.666 -41.4228 0 0 219
8.01901 -39.7548 -41.5515 0 108 255
7.33695 -39.82 -41.7258 0 110 255
6.4807 -39.8602 -41.9997 99 255 156
5.48332 -39.8645 -42.4092 255 218 0
4.54432 -40.0135 -42.3857 151 255 104
3.66025 -39.7951 -42.3359 255 228 0
2.91188 -39.6697 -41.8768 0 254 255
2.49584 -39.5289 -41.6099 0 33 255
5.03761 -39.6006 -43.1574 0 205 255
4.51728 -39.7387 -43.1134 0 132 255
4.00842 -39.583 -43.1349 0 53 255
4.82271 -39.4529 -43.5912 0 19 255
4.50561 -39.499 -43.6183 0 0 249
4.19273 -39.4479 -43.5836 0 0 208
10.4723 -39.0524 -29.2107 0 28 255
10.0244 -39.0791 -28.9569 0 184 255
9.30184 -39.1308 -28.7394 70 255 185
8.42091 -39.2788 -28.6258 84 255 171
7.48411 -39.3727 -28.5825 4 255 251
6.54253 -39.3984 -28.5867 0 248 255
5.64995 -39.3587 -28.6418 39 255 216
4.86747 -39.2496 -28.7788 0 240 255
4.24396 -39.0987 -29.0605 0 214 255
10.6248 -39.0606 -29.5414 0 0 239
3.77656 -39.1123 -29.6194 97 255 158
10.5543 -39.063 -29.9077 0 0 254
10.2597 -39.1088 -30.3057 0 154 255
9.87355 -39.1905 -30.8508 123 255 132
3.30307 -39.1623 -30.2731 60 255 195
2.7634 -39.1335 -30.811 0 223 255
2.35996 -39.1025 -31.2914 0 113 255
9.71229 -39.2861 -31.6282 197 255 58
2.13622 -39.1374 -31.8912 0 222 255
10.5481 -39.4919 -33.3986 0 3 255
10.2441 -39.4734 -33.0188 0 190 255
9.8392 -39.42 -32.4713 0 224 255
2.00726 -39.1773 -32.6616 28 255 227
10.683 -39.4963 -33.8808 0 8 255
1.93546 -39.202 -33.5555 0 169 255
10.7291 -39.4978 -34.5011 0 10 255
1.90192 -39.2136 -34.5154 97 255 158
10.6978 -39.4988 -35.1223 0 39 255
1.88953 -39.2182 -35.5033 195 255 60
10.5795 -39.4991 -35.6083 0 0 227
10.2937 -39.497 -36.0021 0 14 255
9.87435 -39.4919 -36.585 69 255 186
1.88674 -39.2196 -36.5 197 255 58
9.51891 -39.488 -37.5077 255 133 0
1.88981 -39.2191 -37.4967 22 255 233
9.23439 -39.4674 -38.4873 255 158 0
1.90279 -39.2154 -38.4845 96 255 159
9.03733 -39.3576 -39.446 38 255 217
1.93725 -39.2045 -39.4445 141 255 114
8.85007 -39.2936 -40.3259 38 255 217
2.00998 -39.1801 -40.3383 0 180 255
8.68689 -39.3435 -41.0322 0 7 255
2.14035 -39.1409 -41.1087 0 127 255
8.47356 -39.369 -41.4793 0 0 205
8.04666 -39.3285 -41.7235 0 18 255
7.37897 -39.2427 -41.9619 16 255 239
6.59187 -39.2271 -42.3129 87 255 168
5.83613 -39.2048 -42.777 48 255 207
3.30928 -39.1683 -42.7175 0 195 255
2.77551 -39.1432 -42.1869 0 154 255
2.36751 -39.1089 -41.7083 0 157 255
5.30521 -39.1182 -43.3703 0 239 255
3.74214 -39.1066 -43.3487 49 255 206
4.90286 -39.0541 -43.8541 0 49 255
4.50304 -39.0822 -43.9932 0 46 255
4.11029 -39.0512 -43.8478 0 25 255
8.59703 -37.6384 -27.4134 0 75 255
8.10638 -37.7403 -27.3014 0 98 255
7.36149 -37.8109 -27.2258 0 235 255
6.50866 -37.8339 -27.2059 13 255 242
5.66711 -37.8101 -27.2455 0 230 255
4.95579 -37.7378 -27.3489 0 125 255
4.5106 -37.6324 -27.4915 0 0 225
8.85095 -37.9039 -27.7501 0 65 255
8.21486 -38.2075 -27.6605 0 214 255
7.40245 -38.3485 -27.606 11 255 244
6.51856 -38.3882 -27.5986 36 255 219
5.65605 -38.3457 -27.6437 14 255 241
4.90623 -38.2 -27.7507 0 212 255
4.35325 -37.8876 -27.8979 0 210 255
10.5227 -38.4652 -29.137 0 97 255
10.0642 -38.4272 -28.7678 0 217 255
9.28344 -38.3619 -28.3156 253 255 2
8.37135 -38.7094 -28.1393 101 255 154
7.45716 -38.8633 -28.0754 157 255 98
6.5322 -38.9046 -28.0739 59 255 196
5.64431 -38.856 -28.1334 33 255 222
4.84545 -38.6912 -28.2892 44 255 211
4.12715 -38.3216 -28.6265 255 211 0
10.6917 -38.4774 -29.5219 0 27 255
3.5901 -38.3563 -29.4235 127 255 128
10.6177 -38.4726 -29.9299 0 68 255
10.354 -38.4517 -30.3756 0 175 255
10.0387 -38.4297 -30.9467 0 133 255
3.12657 -38.3993 -30.1258 0 165 255
2.66323 -38.445 -30.7079 0 243 255
2.28501 -38.4744 -31.2483 0 166 255
9.87239 -38.4435 -31.7196 136 255 119
2.03946 -38.488 -31.8816 0 185 255
10.5451 -39.1817 -33.4405 0 0 153
10.3043 -38.9618 -33.1921 0 53 255
9.94864 -38.4989 -32.6922 255 113 0
1.89985 -38.4951 -32.6601 4 255 251
10.6111 -39.1082 -33.87 0 91 255
10.3478 -38.7087 -33.7699 0 197 255
9.98355 -38.1675 -33.6081 154 255 101
1.83285 -38.5 -33.5546 149 255 106
10.6364 -39.0798 -34.5011 0 70 255
10.3543 -38.6397 -34.5027 0 176 255
9.95622 -38.0958 -34.5035 87 255 168
1.80794 -38.5043 -34.5148 187 255 68
10.6115 -39.115 -35.1339 0 14 255
10.3277 -38.7312 -35.2404 0 86 255
9.90419 -38.234 -35.4122 67 255 188
1.801 -38.5086 -35.5032 109 255 146
10.5502 -39.1935 -35.5678 0 0 184
10.2844 -38.9964 -35.8303 0 206 255
9.80527 -38.6082 -36.3723 255 162 0
1.80008 -38.5116 -36.5001 22 255 233
9.4794 -38.6224 -37.4655 155 255 100
1.80234 -38.5129 -37.497 104 255 151
9.25372 -38.618 -38.4545 186 255 69
1.81188 -38.5129 -38.4851 92 255 163
9.05127 -38.5828 -39.3969 132 255 123
1.84095 -38.5115 -39.4453 0 245 255
8.7748 -38.5393 -40.344 208 255 47
8.38809 -38.1504 -40.7995 0 93 255
8.03665 -37.9374 -41.0415 0 0 227
1.91177 -38.5087 -40.3398 82 255 173
8.61506 -38.8625 -41.0815 0 99 255
8.27623 -38.5011 -41.2804 0 133 255
7.81839 -38.1454 -41.4222 0 118 255
2.05584 -38.505 -41.1183 0 189 255
8.46567 -39.0432 -41.4692 0 0 218
8.0995 -38.8558 -41.6461 0 93 255
7.41349 -38.5172 -41.8863 133 255 122
6.60632 -38.5195 -42.3729 0 237 255
5.9209 -38.5011 -42.9054 26 255 229
3.20215 -38.4902 -42.8664 46 255 209
2.71412 -38.5 -42.2904 0 185 255
2.31196 -38.5023 -41.7514 0 150 255
5.39186 -38.4606 -43.5619 0 195 255
3.64728 -38.4566 -43.5476 0 172 255
4.93272 -38.3728 -44.2841 0 243 255
4.50176 -38.5086 -44.4527 0 88 255
4.0759 -38.3719 -44.2808 10 255 245
4.75704 -37.9847 -44.985 0 38 255
4.50043 -38.0896 -45.029 0 0 238
4.24452 -37.9846 -44.9844 0 0 213
4.67147 -37.7955 -45.3475 0 0 150
4.50007 -37.8161 -45.3925 0 0 156
4.32882 -37.7955 -45.3474 0 0 128
8.68212 -37.1787 -27.3613 0 80 255
8.10223 -37.1768 -27.1157 0 201 255
7.35184 -37.1955 -26.9892 0 244 255
6.50402 -37.2036 -26.9531 15 255 240
5.66361 -37.1952 -26.9991 0 232 255
4.93994 -37.1749 -27.1429 0 141 255
4.4194 -37.1708 -27.4203 0 98 255
9.12724 -37.3055 -27.7887 0 197 255
4.09631 -37.2766 -27.9136 0 220 255
10.543 -37.8556 -29.1422 0 0 220
10.1668 -37.7344 -28.7927 0 191 255
9.60749 -37.5239 -28.3536 77 255 178
3.82088 -37.4339 -28.6192 110 255 145
10.6763 -37.8733 -29.5112 0 0 255
3.46976 -37.4985 -29.4206 198 255 57
10.6088 -37.8619 -29.8945 0 9 255
10.3516 -37.7577 -30.2953 0 90 255
10.0148 -37.6003 -30.8497 236 255 19
3.0785 -37.5647 -30.2028 175 255 80
2.64419 -37.7246 -30.7895 0 159 255
2.30037 -37.8305 -31.2855 0 113 255
9.79529 -37.5411 -31.6651 213 255 42
2.09526 -37.8266 -31.8896 0 134 255
9.70592 -37.5071 -32.5847 238 255 17
1.98215 -37.8071 -32.66 4 255 251
9.62652 -37.4036 -33.5261 128 255 127
1.93576 -37.7983 -33.5533 69 255 186
9.50468 -37.3947 -34.4936 242 255 13
1.92761 -37.8023 -34.5142 99 255 156
9.43011 -37.5639 -35.4825 255 196 0
1.92904 -37.8142 -35.5035 102 255 153
9.34433 -37.766 -36.4673 144 255 111
1.93103 -37.8244 -36.5006 16 255 239
9.20035 -37.8462 -37.4637 159 255 96
1.93343 -37.8301 -37.4972 93 255 162
9.06378 -37.8775 -38.4053 81 255 174
1.94077 -37.8338 -38.4854 158 255 97
8.91044 -37.8849 -39.2578 5 255 250
1.96382 -37.8399 -39.4456 118 255 137
8.68248 -37.8556 -39.9623 0 94 255
8.29006 -37.6831 -40.4118 0 133 255
7.80713 -37.574 -40.8172 0 146 255
2.02224 -37.8541 -40.3392 0 225 255
7.43262 -37.6772 -41.3431 0 182 255
2.14403 -37.879 -41.1101 0 105 255
7.03327 -37.8395 -41.8263 0 159 255
6.4341 -37.8488 -42.2634 99 255 156
5.79101 -37.8222 -42.8142 47 255 208
3.28933 -37.8254 -42.7918 7 255 248
2.76895 -37.8655 -42.2092 0 137 255
2.36651 -37.9014 -41.7142 0 47 255
5.33142 -37.8243 -43.5703 0 208 255
3.69382 -37.8246 -43.5627 48 255 207
5.0137 -37.784 -44.3347 0 92 255
3.99233 -37.784 -44.3327 0 127 255
4.83057 -37.6593 -44.9889 0 0 189
4.17053 -37.6593 -44.9886 0 0 249
4.69047 -37.584 -45.3783 0 0 165
4.50002 -37.5676 -45.477 0 0 139
4.30969 -37.584 -45.3782 0 0 162
8.69486 -36.5397 -27.3718 0 157 255
8.10012 -36.5205 -27.0709 0 200 255
7.3487 -36.5152 -26.9198 0 255 255
6.5021 -36.5142 -26.8755 14 255 241
5.6607 -36.515 -26.9239 0 170 255
4.93037 -36.5192 -27.083 0 171 255
4.38929 -36.5327 -27.3968 0 138 255
9.1618 -36.595 -27.8885 137 255 118
4.03857 -36.5661 -27.9222 0 206 255
10.5082 -37.4373 -29.2076 0 0 244
10.2027 -37.1909 -29.0245 0 85 255
9.64569 -36.716 -28.6664 194 255 61
3.78363 -36.6122 -28.65 0 232 255
10.563 -37.4002 -29.5087 0 0 224
10.263 -37.0339 -29.5195 0 95 255
9.80342 -36.538 -29.5442 101 255 154
3.52526 -36.6381 -29.5259 173 255 82
10.5469 -37.441 -29.8171 0 0 189
10.287 -37.201 -30.0337 0 106 255
9.82682 -36.7414 -30.4912 166 255 89
3.18797 -36.6625 -30.5663 255 157 0
2.68057 -37.1087 -31.0953 0 255 255
2.37672 -37.3668 -31.3814 0 33 255
9.58681 -36.6694 -31.5322 244 255 11
3.12554 -36.298 -31.5702 224 255 31
2.65144 -36.7981 -31.7628 0 209 255
2.2925 -37.2623 -31.8867 0 205 255
9.43748 -36.6383 -32.4924 199 255 56
3.15282 -36.1505 -32.5006 71 255 184
2.65115 -36.6586 -32.5926 38 255 217
2.24026 -37.1917 -32.6481 24 255 231
9.26525 -36.6023 -33.4358 197 255 58
3.30148 -36.1176 -33.4341 232 255 23
2.71567 -36.6207 -33.5127 109 255 146
2.23837 -37.1671 -33.5447 1 255 254
8.92956 -36.5777 -34.4544 252 0 0
8.17788 -36.1892 -34.8541 106 255 149
7.36358 -36.0003 -35.0187 88 255 167
6.46967 -35.9246 -35.0633 102 255 153
5.54115 -35.9196 -35.0189 116 255 139
4.61842 -35.9798 -34.8548 177 255 78
3.67621 -36.1516 -34.4556 255 216 0
2.83979 -36.6509 -34.4972 124 255 131
2.27009 -37.179 -34.5107 130 255 125
8.8702 -36.9349 -35.5326 145 255 110
8.17464 -36.5327 -35.6744 176 255 79
7.3625 -36.3182 -35.7615 136 255 119
6.46013 -36.227 -35.7886 149 255 106
5.51404 -36.2126 -35.7626 167 255 88
4.56883 -36.2655 -35.6777 194 255 61
3.66185 -36.4216 -35.5418 255 250 0
2.87288 -36.7525 -35.5116 255 198 0
2.28727 -37.2156 -35.5051 118 255 137
8.81734 -37.1454 -36.5118 255 249 0
8.155 -36.7418 -36.5677 133 255 122
7.35539 -36.5187 -36.6078 255 249 0
6.45439 -36.4186 -36.6225 203 255 52
5.50387 -36.395 -36.6122 226 255 29
4.55436 -36.4344 -36.578 236 255 19
3.65776 -36.5616 -36.5306 212 255 43
2.88187 -36.825 -36.5097 145 255 110
2.29401 -37.2457 -36.5026 102 255 153
8.75271 -37.251 -37.4704 178 255 77
8.13021 -36.857 -37.4952 130 255 125
7.34693 -36.6326 -37.5227 90 255 165
6.45043 -36.5241 -37.5368 231 255 24
5.50016 -36.4904 -37.5374 252 255 3
4.55043 -36.5178 -37.5272 244 255 11
3.65685 -36.6269 -37.5119 205 255 50
2.8846 -36.8624 -37.5025 59 255 196
2.29702 -37.2623 -37.4984 181 255 74
8.6853 -37.3137 -38.3815 0 198 255
8.10509 -36.9428 -38.4115 57 255 198
7.33858 -36.7216 -38.4638 159 255 96
6.44526 -36.5967 -38.4916 238 255 17
5.4968 -36.546 -38.5032 255 244 0
4.54867 -36.5605 -38.5042 255 251 0
3.65697 -36.6589 -38.4987 216 255 39
2.88701 -36.8824 -38.4916 231 255 24
2.30185 -37.2723 -38.4868 2 255 253
8.60954 -37.3777 -39.1793 0 162 255
8.0865 -37.0642 -39.2598 0 244 255
7.33438 -36.8569 -39.4034 255 214 0
6.4337 -36.692 -39.4543 255 253 0
5.48863 -36.609 -39.4812 255 240 0
4.54545 -36.6042 -39.4895 246 255 9
3.65779 -36.6934 -39.4824 179 255 76
2.893 -36.9084 -39.4642 93 255 162
2.31596 -37.2876 -39.4498 0 233 255
8.52718 -37.4538 -39.7304 0 39 255
8.10945 -37.2841 -39.9681 0 228 255
7.35385 -37.1248 -40.3764 202 255 53
6.40036 -36.849 -40.4013 242 255 13
5.46806 -36.7187 -40.4535 255 250 0
4.53785 -36.6864 -40.4712 246 255 9
3.65877 -36.7682 -40.451 173 255 82
2.90564 -36.9694 -40.3922 55 255 200
2.35014 -37.3236 -40.348 4 255 251
6.98104 -37.2737 -41.1905 0 83 255
6.27871 -37.0409 -41.2561 42 255 213
5.42773 -36.9062 -41.4145 214 255 41
4.52461 -36.8393 -41.4513 255 247 0
3.65635 -36.9314 -41.4075 219 255 36
2.92062 -37.1056 -41.2303 49 255 206
2.41317 -37.3955 -41.1116 0 230 255
6.77257 -37.4359 -41.6814 0 61 255
6.24087 -37.3419 -41.9333 0 254 255
5.4127 -37.2438 -42.4348 255 200 0
4.51393 -37.0657 -42.4569 227 255 28
3.64085 -37.2533 -42.4253 255 213 0
2.90764 -37.3734 -41.9022 0 175 255
2.49639 -37.4981 -41.618 0 0 228
5.03817 -37.351 -43.4665 56 255 199
4.50439 -37.1844 -43.4478 36 255 219
3.97677 -37.3527 -43.4635 0 113 255
4.84252 -37.3828 -44.3143 0 136 255
4.50094 -37.2409 -44.307 0 8 255
4.16075 -37.3831 -44.3136 0 114 255
4.73297 -37.3798 -44.9739 0 0 228
4.50013 -37.2819 -44.9769 0 0 208
4.26757 -37.3799 -44.9737 0 0 240
4.66367 -37.3978 -45.3358 0 0 131
4.50001 -37.3662 -45.3722 0 0 148
4.3364 -37.3978 -45.3358 0 0 152
8.6132 -35.9211 -27.4341 0 100 255
8.07209 -35.8881 -27.1682 0 118 255
7.34039 -35.86 -27.0364 0 204 255
6.50106 -35.8502 -26.9973 0 249 255
5.66487 -35.86 -27.0378 77 255 178
4.94614 -35.8879 -27.1725 0 107 255
4.43679 -35.9196 -27.4427 0 79 255
8.96136 -35.9096 -27.937 0 71 255
4.14658 -35.9036 -27.9461 0 177 255
9.21762 -35.9002 -28.6755 61 255 194
3.95947 -35.8879 -28.6716 44 255 211
9.32598 -35.8493 -29.5541 135 255 120
3.80884 -35.8717 -29.5497 71 255 184
9.32743 -35.8903 -30.5043 255 198 0
3.67108 -35.8361 -30.52 192 255 63
9.22867 -35.8898 -31.4802 160 255 95
3.62759 -35.7125 -31.4909 35 255 220
9.1182 -35.8931 -32.4053 97 255 158
3.66264 -35.6479 -32.4085 122 255 133
8.96127 -35.8974 -33.24 66 255 189
3.80377 -35.6458 -33.24 0 214 255
8.67177 -35.8768 -33.9163 0 124 255
8.10366 -35.7145 -34.2479 6 255 249
7.34721 -35.5961 -34.3965 35 255 220
6.48207 -35.545 -34.4382 54 255 201
5.59614 -35.5484 -34.3965 29 255 226
4.77804 -35.5951 -34.2479 0 216 255
4.12419 -35.6635 -33.9164 14 255 241
8.48955 -35.5167 -27.5389 0 3 255
8.0421 -35.4085 -27.4327 0 127 255
7.33339 -35.3353 -27.3614 0 154 255
6.50065 -35.3112 -27.338 0 245 255
5.66996 -35.3355 -27.3618 0 156 255
4.96944 -35.4091 -27.434 0 122 255
4.53826 -35.5175 -27.5419 0 0 251
8.624 -35.4109 -27.97 0 126 255
8.07896 -35.133 -27.9431 0 157 255
7.34298 -34.9916 -27.9148 61 255 194
6.50093 -34.9491 -27.9044 40 255 215
5.66163 -34.9923 -27.915 0 255 255
4.93734 -35.1347 -27.9437 0 159 255
4.42258 -35.4123 -27.9724 0 105 255
8.73954 -35.3336 -28.6841 17 255 238
8.12159 -34.9832 -28.677 42 255 213
7.35588 -34.8013 -28.6674 94 255 161
6.50134 -34.7466 -28.6636 209 255 46
5.65041 -34.8025 -28.6674 76 255 179
4.9005 -34.9862 -28.6768 9 255 246
4.32744 -35.3368 -28.6832 0 160 255
8.79499 -35.2869 -29.5573 188 255 67
8.14437 -34.9143 -29.5555 119 255 136
7.36318 -34.7154 -29.5528 161 255 94
6.50103 -34.655 -29.5517 81 255 174
5.64152 -34.7164 -29.5527 150 255 105
4.87188 -34.9169 -29.5551 103 255 152
4.25486 -35.2933 -29.556 154 255 101
8.79613 -35.2873 -30.5028 130 255 125
8.14548 -34.8991 -30.5012 134 255 121
7.36355 -34.6929 -30.5006 174 255 81
6.49988 -34.6297 -30.5005 194 255 61
5.6358 -34.6906 -30.5006 81 255 174
4.85248 -34.8903 -30.5016 139 255 116
4.20002 -35.262 -30.5056 206 255 49
8.75487 -35.3006 -31.4566 10 255 245
8.13005 -34.9178 -31.4505 101 255 154
7.3587 -34.7145 -31.4508 146 255 109
6.49849 -34.6513 -31.4515 178 255 77
5.63436 -34.7074 -31.4509 255 251 0
4.84707 -34.892 -31.4509 117 255 138
4.18233 -35.2265 -31.4589 82 255 173
8.69534 -35.3342 -32.3526 21 255 234
8.1052 -34.9785 -32.3435 39 255 216
7.35055 -34.7909 -32.3485 101 255 154
6.49732 -34.732 -32.3514 132 255 123
5.63769 -34.7799 -32.3485 112 255 143
4.8577 -34.9398 -32.3437 120 255 135
4.20609 -35.2284 -32.3534 0 133 255
8.61141 -35.3962 -33.1165 0 147 255
8.07301 -35.1054 -33.1198 0 228 255
7.34042 -34.9515 -33.1425 52 255 203
6.49567 -34.9011 -33.152 75 255 180
5.64276 -34.9363 -33.1425 32 255 223
4.8807 -35.0585 -33.1198 0 128 255
4.27815 -35.2814 -33.1165 0 184 255
8.50264 -35.4775 -33.6264 0 0 245
8.04994 -35.3295 -33.7357 0 123 255
7.33468 -35.221 -33.8096 0 241 255
6.49137 -35.1786 -33.8335 41 255 214
5.63661 -35.1964 -33.8096 22 255 233
4.88684 -35.2662 -33.7357 0 182 255
4.38644 -35.3639 -33.6264 0 95 255
3 0 1 7
3 8 7 1
3 0 59 1
3 60 1 59
3 0 7 66
3 0 66 59
3 1 2 8
3 9 8 2
3 1 60 2
3 61 2 60
3 2 3 10
3 2 10 9
3 2 61 62
3 2 62 3
3 3 4 10
3 11 10 4
3 3 62 63
3 3 63 4
3 4 5 12
3 4 12 11
3 4 63 5
3 64 5 63
3 5 6 12
3 13 12 6
3 5 64 6
3 65 6 64
3 6 65 13
3 67 13 65
3 7 8 15
3 7 15 14
3 7 14 68
3 7 68 66
3 8 9 15
3 16 15 9
3 9 10 16
3 17 16 10
3 10 11 18
3 10 18 17
3 11 12 19
3 11 19 18
3 12 13 19
3 20 19 13
3 13 67 20
3 69 20 67
3 14 15 21
3 22 21 15
3 14 21 68
3 70 68 21
3 15 16 23
3 15 23 22
3 16 17 24
3 16 24 23
3 17 18 24
3 25 24 18
3 18 19 25
3 26 25 19
3 19 20 26
3 27 26 20
3 20 69 27
3 71 27 69
3 21 22 29
3 21 29 28
3 21 28 70
3 72 70 28
3 22 23 30
3 22 30 29
3 23 24 30
3 31 30 24
3 24 25 31
3 32 31 25
3 25 26 32
3 33 32 26
3 26 27 34
3 26 34 33
3 27 71 73
3 27 73 34
3 28 29 36
3 28 36 35
3 28 35 72
3 74 72 35
3 29 30 36
3 37 36 30
3 30 31 37
3 38 37 31
3 31 32 38
3 39 38 32
3 32 33 40
3 32 40 39
3 33 34 41
3 33 41 40
3 34 73 41
3 75 41 73
3 35 36 43
3 35 43 42
3 35 42 74
3 76 74 42
3 36 37 43
3 44 43 37
3 37 38 44
3 45 44 38
3 38 39 45
3 46 45 39
3 39 40 46
3 47 46 40
3 40 41 48
3 40 48 47
3 41 75 79
3 41 79 48
3 42 43 77
3 42 77 76
3 43 44 78
3 43 78 77
3 44 45 49
3 50 49 45
3 44 49 78
3 80 78 49
3 45 46 50
3 51 50 46
3 46 47 51
3 52 51 47
3 47 48 52
3 53 52 48
3 48 79 53
3 81 53 79
3 49 50 55
3 49 55 54
3 49 54 82
3 49 82 80
3 50 51 56
3 50 56 55
3 51 52 57
3 51 57 56
3 52 53 57
3 58 57 53
3 53 81 86
3 53 86 58
3 54 55 82
3 83 82 55
3 55 56 83
3 84 83 56
3 56 57 84
3 85 84 57
3 57 58 86
3 57 86 85
3 59 127 60
3 128 60 127
3 59 66 127
3 138 127 66
3 60 128 61
3 129 61 128
3 61 129 62
3 130 62 129
3 62 130 63
3 131 63 130
3 63 131 64
3 132 64 131
3 64 132 133
3 64 133 65
3 65 133 139
3 65 139 67
3 66 68 144
3 66 144 138
3 67 139 145
3 67 145 69
3 68 70 150
3 68 150 144
3 69 145 71
3 151 71 145
3 70 72 156
3 70 156 150
3 71 151 157
3 71 157 73
3 72 74 156
3 160 156 74
3 73 157 161
3 73 161 75
3 74 76 160
3 164 160 76
3 75 161 79
3 167 79 161
3 76 77 164
3 165 164 77
3 77 78 166
3 77 166 165
3 78 80 172
3 78 172 166
3 79 167 81
3 173 81 167
3 80 82 178
3 80 178 172
3 81 173 182
3 81 182 86
3 82 83 178
3 179 178 83
3 83 84 179
3 180 179 84
3 84 85 180
3 181 180 85
3 85 86 181
3 182 181 86
3 87 88 96
3 97 96 88
3 87 209 88
3 210 88 209
3 87 96 218
3 87 218 209
3 88 89 98
3 88 98 97
3 88 210 89
3 211 89 210
3 89 90 99
3 89 99 98
3 89 211 90
3 212 90 211
3 90 91 100
3 90 100 99
3 90 212 91
3 213 91 212
3 91 92 101
3 91 101 100
3 91 213 92
3 214 92 213
3 92 93 102
3 92 102 101
3 92 214 215
3 92 215 93
3 93 94 103
3 93 103 102
3 93 215 216
3 93 216 94
3 94 95 103
3 104 103 95
3 94 216 217
3 94 217 95
3 95 217 219
3 95 219 104
3 96 97 105
3 106 105 97
3 96 105 220
3 96 220 218
3 97 98 106
3 107 106 98
3 98 99 107
3 108 107 99
3 99 100 108
3 109 108 100
3 100 101 110
3 100 110 109
3 101 102 111
3 101 111 110
3 102 103 112
3 102 112 111
3 103 104 113
3 103 113 112
3 104 219 113
3 223 113 219
3 105 106 221
3 105 221 220
3 106 107 221
3 222 221 107
3 107 108 116
3 117 116 108
3 107 116 222
3 226 222 116
3 108 109 117
3 118 117 109
3 109 110 118
3 119 118 110
3 110 111 119
3 120 119 111
3 111 112 120
3 121 120 112
3 112 113 121
3 122 121 113
3 113 114 123
3 113 123 122
3 113 223 224
3 113 224 114
3 114 115 124
3 114 124 123
3 114 224 225
3 114 225 115
3 115 225 227
3 115 227 124
3 116 117 128
3 116 128 127
3 116 127 226
3 230 226 127
3 117 118 129
3 117 129 128
3 118 119 130
3 118 130 129
3 119 120 130
3 131 130 120
3 120 121 131
3 132 131 121
3 121 122 132
3 133 132 122
3 122 123 133
3 134 133 123
3 123 124 134
3 135 134 124
3 124 227 135
3 231 135 227
3 125 126 136
3 137 136 126
3 125 228 126
3 229 126 228
3 125 136 232
3 125 232 228
3 126 127 138
3 126 138 137
3 126 229 127
3 230 127 229
3 133 134 139
3 140 139 134
3 134 135 140
3 141 140 135
3 135 231 141
3 233 141 231
3 136 137 142
3 143 142 137
3 136 142 232
3 234 232 142
3 137 138 143
3 144 143 138
3 139 140 145
3 146 145 140
3 140 141 147
3 140 147 146
3 141 233 235
3 141 235 147
3 142 143 149
3 142 149 148
3 142 148 236
3 142 236 234
3 143 144 150
3 143 150 149
3 145 146 152
3 145 152 151
3 146 147 153
3 146 153 152
3 147 235 237
3 147 237 153
3 148 149 154
3 155 154 149
3 148 154 236
3 238 236 154
3 149 150 155
3 156 155 150
3 151 152 157
3 158 157 152
3 152 153 158
3 159 158 153
3 153 237 159
3 241 159 237
3 154 155 238
3 239 238 155
3 155 156 240
3 155 240 239
3 156 160 242
3 156 242 240
3 157 158 162
3 157 162 161
3 158 159 163
3 158 163 162
3 159 241 163
3 243 163 241
3 160 164 244
3 160 244 242
3 161 162 168
3 161 168 167
3 162 163 169
3 162 169 168
3 163 243 245
3 163 245 169
3 164 165 170
3 171 170 165
3 164 170 244
3 246 244 170
3 165 166 171
3 172 171 166
3 167 168 173
3 174 173 168
3 168 169 174
3 175 174 169
3 169 245 247
3 169 247 175
3 170 171 176
3 177 176 171
3 170 176 248
3 170 248 246
3 171 172 178
3 171 178 177
3 173 174 183
3 173 183 182
3 174 175 184
3 174 184 183
3 175 247 184
3 249 184 247
3 176 177 186
3 176 186 185
3 176 185 248
3 250 248 185
3 177 178 187
3 177 187 186
3 178 179 188
3 178 188 187
3 179 180 188
3 189 188 180
3 180 181 189
3 190 189 181
3 181 182 190
3 191 190 182
3 182 183 191
3 192 191 183
3 183 184 192
3 193 192 184
3 184 249 193
3 251 193 249
3 185 186 194
3 195 194 186
3 185 194 252
3 185 252 250
3 186 187 195
3 196 195 187
3 187 188 197
3 187 197 196
3 188 189 198
3 188 198 197
3 189 190 199
3 189 199 198
3 190 191 200
3 190 200 199
3 191 192 201
3 191 201 200
3 192 193 202
3 192 202 201
3 193 251 259
3 193 259 202
3 194 195 253
3 194 253 252
3 195 196 254
3 195 254 253
3 196 197 254
3 255 254 197
3 197 198 255
3 256 255 198
3 198 199 203
3 204 203 199
3 198 203 256
3 260 256 203
3 199 200 204
3 205 204 200
3 200 201 257
3 258 257 201
3 200 257 261
3 200 261 205
3 201 202 258
3 259 258 202
3 203 204 206
3 207 206 204
3 203 206 260
3 262 260 206
3 204 205 207
3 208 207 205
3 205 261 208
3 264 208 261
3 206 207 263
3 206 263 262
3 207 208 264
3 207 264 263
3 209 279 280
3 209 280 210
3 209 218 279
3 288 279 218
3 210 280 281
3 210 281 211
3 211 281 282
3 211 282 212
3 212 282 283
3 212 283 213
3 213 283 214
3 284 214 283
3 214 284 215
3 285 215 284
3 215 285 216
3 286 216 285
3 216 286 217
3 287 217 286
3 217 287 219
3 289 219 287
3 218 220 288
3 290 288 220
3 219 289 223
3 293 223 289
3 220 221 290
3 291 290 221
3 221 222 291
3 292 291 222
3 222 226 296
3 222 296 292
3 223 293 294
3 223 294 224
3 224 294 295
3 224 295 225
3 225 295 297
3 225 297 227
3 226 230 300
3 226 300 296
3 227 297 301
3 227 301 231
3 228 298 299
3 228 299 229
3 228 232 302
3 228 302 298
3 229 299 300
3 229 300 230
3 231 301 305
3 231 305 233
3 232 234 302
3 306 302 234
3 233 305 235
3 309 235 305
3 234 236 306
3 310 306 236
3 235 309 237
3 313 237 309
3 236 238 310
3 314 310 238
3 237 313 241
3 317 241 313
3 238 239 314
3 315 314 239
3 239 240 315
3 316 315 240
3 240 242 316
3 318 316 242
3 241 317 319
3 241 319 243
3 242 244 320
3 242 320 318
3 243 319 321
3 243 321 245
3 244 246 322
3 244 322 320
3 245 321 323
3 245 323 247
3 246 248 324
3 246 324 322
3 247 323 327
3 247 327 249
3 248 250 328
3 248 328 324
3 249 327 251
3 331 251 327
3 250 252 332
3 250 332 328
3 251 331 259
3 339 259 331
3 252 253 332
3 333 332 253
3 253 254 333
3 334 333 254
3 254 255 334
3 335 334 255
3 255 256 335
3 336 335 256
3 256 260 336
3 340 336 260
3 257 258 337
3 338 337 258
3 257 337 261
3 341 261 337
3 258 259 338
3 339 338 259
3 260 262 342
3 260 342 340
3 261 341 344
3 261 344 264
3 262 263 343
3 262 343 342
3 263 264 344
3 263 344 343
3 265 266 273
3 265 273 272
3 265 351 352
3 265 352 266
3 265 272 358
3 265 358 351
3 266 267 274
3 266 274 273
3 266 352 267
3 353 267 352
3 267 268 275
3 267 275 274
3 267 353 268
3 354 268 353
3 268 269 276
3 268 276 275
3 268 354 269
3 355 269 354
3 269 270 277
3 269 277 276
3 269 355 270
3 356 270 355
3 270 271 278
3 270 278 277
3 270 356 271
3 357 271 356
3 271 357 278
3 359 278 357
3 272 273 281
3 282 281 273
3 272 281 358
3 362 358 281
3 273 274 282
3 283 282 274
3 274 275 283
3 284 283 275
3 275 276 284
3 285 284 276
3 276 277 285
3 286 285 277
3 277 278 286
3 287 286 278
3 278 359 287
3 363 287 359
3 279 360 361
3 279 361 280
3 279 288 364
3 279 364 360
3 280 361 362
3 280 362 281
3 287 363 365
3 287 365 289
3 288 290 366
3 288 366 364
3 289 365 369
3 289 369 293
3 290 291 367
3 290 367 366
3 291 292 368
3 291 368 367
3 292 296 368
3 372 368 296
3 293 369 294
3 370 294 369
3 294 370 295
3 371 295 370
3 295 371 297
3 373 297 371
3 296 300 372
3 374 372 300
3 297 373 301
3 375 301 373
3 298 302 299
3 303 299 302
3 299 303 300
3 304 300 303
3 300 304 374
3 376 374 304
3 301 375 305
3 377 305 375
3 302 306 307
3 302 307 303
3 303 307 308
3 303 308 304
3 304 308 378
3 304 378 376
3 305 377 309
3 379 309 377
3 306 310 311
3 306 311 307
3 307 311 312
3 307 312 308
3 308 312 380
3 308 380 378
3 309 379 381
3 309 381 313
3 310 314 315
3 310 315 311
3 311 315 312
3 316 312 315
3 312 316 380
3 382 380 316
3 313 381 383
3 313 383 317
3 316 318 382
3 384 382 318
3 317 383 385
3 317 385 319
3 318 320 384
3 386 384 320
3 319 385 387
3 319 387 321
3 320 322 386
3 388 386 322
3 321 387 389
3 321 389 323
3 322 324 388
3 390 388 324
3 323 389 327
3 393 327 389
3 324 328 329
3 324 329 325
3 324 325 391
3 324 391 390
3 325 329 330
3 325 330 326
3 325 326 392
3 325 392 391
3 326 330 394
3 326 394 392
3 327 393 331
3 395 331 393
3 328 332 333
3 328 333 329
3 329 333 334
3 329 334 330
3 330 334 396
3 330 396 394
3 331 395 339
3 401 339 395
3 334 335 397
3 334 397 396
3 335 336 397
3 398 397 336
3 336 340 398
3 402 398 340
3 337 338 399
3 400 399 338
3 337 399 403
3 337 403 341
3 338 339 400
3 401 400 339
3 340 342 402
3 404 402 342
3 341 403 405
3 341 405 344
3 342 343 345
3 346 345 343
3 342 345 404
3 406 404 345
3 343 344 346
3 347 346 344
3 344 405 407
3 344 407 347
3 345 346 348
3 349 348 346
3 345 348 408
3 345 408 406
3 346 347 349
3 350 349 347
3 347 407 410
3 347 410 350
3 348 349 409
3 348 409 408
3 349 350 410
3 349 410 409
3 351 411 352
3 412 352 411
3 351 358 418
3 351 418 411
3 352 412 353
3 413 353 412
3 353 413 354
3 414 354 413
3 354 414 355
3 415 355 414
3 355 415 356
3 416 356 415
3 356 416 357
3 417 357 416
3 357 417 359
3 419 359 417
3 358 362 418
3 422 418 362
3 359 419 363
3 423 363 419
3 360 420 361
3 421 361 420
3 360 364 420
3 424 420 364
3 361 421 422
3 361 422 362
3 363 423 427
3 363 427 365
3 364 366 424
3 428 424 366
3 365 427 431
3 365 431 369
3 366 367 428
3 429 428 367
3 367 368 429
3 430 429 368
3 368 372 434
3 368 434 430
3 369 431 432
3 369 432 370
3 370 432 433
3 370 433 371
3 371 433 437
3 371 437 373
3 372 374 438
3 372 438 434
3 373 437 375
3 441 375 437
3 374 376 442
3 374 442 438
3 375 441 377
3 445 377 441
3 376 378 446
3 376 446 442
3 377 445 379
3 454 379 445
3 378 380 455
3 378 455 446
3 379 454 463
3 379 463 381
3 380 382 464
3 380 464 455
3 381 463 472
3 381 472 383
3 382 384 464
3 473 464 384
3 383 472 385
3 481 385 472
3 384 386 473
3 482 473 386
3 385 481 387
3 490 387 481
3 386 388 482
3 491 482 388
3 387 490 499
3 387 499 389
3 388 390 491
3 500 491 390
3 389 499 508
3 389 508 393
3 390 391 500
3 501 500 391
3 391 392 501
3 502 501 392
3 392 394 502
3 509 502 394
3 393 508 515
3 393 515 395
3 394 396 516
3 394 516 509
3 395 515 401
3 522 401 515
3 396 397 517
3 396 517 516
3 397 398 518
3 397 518 517
3 398 402 523
3 398 523 518
3 399 400 521
3 399 521 520
3 399 520 403
3 525 403 520
3 400 401 522
3 400 522 521
3 402 404 526
3 402 526 523
3 403 525 528
3 403 528 405
3 404 406 529
3 404 529 526
3 405 528 531
3 405 531 407
3 406 408 529
3 532 529 408
3 407 531 534
3 407 534 410
3 408 409 532
3 533 532 409
3 409 410 533
3 534 533 410
3 411 535 536
3 411 536 412
3 411 418 535
3 542 535 418
3 412 536 537
3 412 537 413
3 413 537 538
3 413 538 414
3 414 538 539
3 414 539 415
3 415 539 416
3 540 416 539
3 416 540 417
3 541 417 540
3 417 541 419
3 543 419 541
3 418 422 544
3 418 544 542
3 419 543 423
3 545 423 543
3 420 424 425
3 420 425 421
3 421 425 426
3 421 426 422
3 422 426 546
3 422 546 544
3 423 545 427
3 547 427 545
3 424 428 429
3 424 429 425
3 425 429 430
3 425 430 426
3 426 430 548
3 426 548 546
3 427 547 431
3 549 431 547
3 430 434 548
3 550 548 434
3 431 435 432
3 436 432 435
3 431 549 435
3 551 435 549
3 432 436 433
3 437 433 436
3 434 438 550
3 552 550 438
3 435 439 436
3 440 436 439
3 435 551 553
3 435 553 439
3 436 440 437
3 441 437 440
3 438 442 552
3 554 552 442
3 439 443 440
3 444 440 443
3 439 553 555
3 439 555 443
3 440 444 441
3 445 441 444
3 442 446 554
3 556 554 446
3 443 452 453
3 443 453 444
3 443 555 562
3 443 562 452
3 444 453 454
3 444 454 445
3 446 455 456
3 446 456 447
3 446 447 557
3 446 557 556
3 447 456 457
3 447 457 448
3 447 448 558
3 447 558 557
3 448 457 458
3 448 458 449
3 448 449 559
3 448 559 558
3 449 458 459
3 449 459 450
3 449 450 560
3 449 560 559
3 450 459 460
3 450 460 451
3 450 451 561
3 450 561 560
3 451 460 461
3 451 461 452
3 451 452 562
3 451 562 561
3 452 461 462
3 452 462 453
3 453 462 454
3 463 454 462
3 455 464 456
3 465 456 464
3 456 465 457
3 466 457 465
3 457 466 458
3 467 458 466
3 458 467 459
3 468 459 467
3 459 468 460
3 469 460 468
3 460 469 461
3 470 461 469
3 461 470 462
3 471 462 470
3 462 471 463
3 472 463 471
3 464 473 465
3 474 465 473
3 465 474 466
3 475 466 474
3 466 475 476
3 466 476 467
3 467 476 477
3 467 477 468
3 468 477 478
3 468 478 469
3 469 478 479
3 469 479 470
3 470 479 480
3 470 480 471
3 471 480 481
3 471 481 472
3 473 482 483
3 473 483 474
3 474 483 484
3 474 484 475
3 475 484 485
3 475 485 476
3 476 485 486
3 476 486 477
3 477 486 487
3 477 487 478
3 478 487 488
3 478 488 479
3 479 488 489
3 479 489 480
3 480 489 481
3 490 481 489
3 482 491 483
3 492 483 491
3 483 492 484
3 493 484 492
3 484 493 485
3 494 485 493
3 485 494 486
3 495 486 494
3 486 495 487
3 496 487 495
3 487 496 488
3 497 488 496
3 488 497 489
3 498 489 497
3 489 498 490
3 499 490 498
3 491 500 492
3 501 492 500
3 492 501 493
3 502 493 501
3 493 502 503
3 493 503 494
3 494 503 504
3 494 504 495
3 495 504 505
3 495 505 496
3 496 505 506
3 496 506 497
3 497 506 507
3 497 507 498
3 498 507 508
3 498 508 499
3 502 509 510
3 502 510 503
3 503 510 511
3 503 511 504
3 504 511 512
3 504 512 505
3 505 512 513
3 505 513 506
3 506 513 514
3 506 514 507
3 507 514 515
3 507 515 508
3 509 516 510
3 517 510 516
3 510 517 511
3 518 511 517
3 511 518 512
3 519 512 518
3 512 519 513
3 520 513 519
3 513 520 514
3 521 514 520
3 514 521 515
3 522 515 521
3 518 523 519
3 524 519 523
3 519 524 520
3 525 520 524
3 523 526 524
3 527 524 526
3 524 527 528
3 524 528 525
3 526 529 530
3 526 530 527
3 527 530 531
3 527 531 528
3 529 532 533
3 529 533 530
3 530 533 534
3 530 534 531
3 535 563 536
3 564 536 563
3 535 542 570
3 535 570 563
3 536 564 537
3 565 537 564
3 537 565 538
3 566 538 565
3 538 566 539
3 567 539 566
3 539 567 568
3 539 568 540
3 540 568 569
3 540 569 541
3 541 569 576
3 541 576 543
3 542 544 570
3 577 570 544
3 543 576 583
3 543 583 545
3 544 546 577
3 584 577 546
3 545 583 590
3 545 590 547
3 546 548 584
3 591 584 548
3 547 590 549
3 597 549 590
3 548 550 591
3 598 591 550
3 549 597 551
3 604 551 597
3 550 552 598
3 605 598 552
3 551 604 553
3 611 553 604
3 552 554 605
3 612 605 554
3 553 611 618
3 553 618 555
3 554 556 619
3 554 619 612
3 555 618 625
3 555 625 562
3 556 557 620
3 556 620 619
3 557 558 621
3 557 621 620
3 558 559 622
3 558 622 621
3 559 560 623
3 559 623 622
3 560 561 624
3 560 624 623
3 561 562 625
3 561 625 624
3 563 570 571
3 563 571 564
3 564 571 572
3 564 572 565
3 565 572 566
3 573 566 572
3 566 573 567
3 574 567 573
3 567 574 568
3 575 568 574
3 568 575 569
3 576 569 575
3 570 577 571
3 578 571 577
3 571 578 572
3 579 572 578
3 572 579 573
3 580 573 579
3 573 580 574
3 581 574 580
3 574 581 575
3 582 575 581
3 575 582 576
3 583 576 582
3 577 584 578
3 585 578 584
3 578 585 579
3 586 579 585
3 579 586 580
3 587 580 586
3 580 587 588
3 580 588 581
3 581 588 589
3 581 589 582
3 582 589 590
3 582 590 583
3 584 591 592
3 584 592 585
3 585 592 593
3 585 593 586
3 586 593 594
3 586 594 587
3 587 594 595
3 587 595 588
3 588 595 596
3 588 596 589
3 589 596 597
3 589 597 590
3 591 598 599
3 591 599 592
3 592 599 600
3 592 600 593
3 593 600 601
3 593 601 594
3 594 601 602
3 594 602 595
3 595 602 596
3 603 596 602
3 596 603 597
3 604 597 603
3 598 605 599
3 606 599 605
3 599 606 600
3 607 600 606
3 600 607 601
3 608 601 607
3 601 608 602
3 609 602 608
3 602 609 603
3 610 603 609
3 603 610 604
3 611 604 610
3 605 612 606
3 613 606 612
3 606 613 607
3 614 607 613
3 607 614 608
3 615 608 614
3 608 615 609
3 616 609 615
3 609 616 610
3 617 610 616
3 610 617 618
3 610 618 611
3 612 619 620
3 612 620 613
3 613 620 621
3 613 621 614
3 614 621 622
3 614 622 615
3 615 622 623
3 615 623 616
3 616 623 624
3 616 624 617
3 617 624 625
3 617 625 618
