ply
format ascii 1.0
element vertex 754
property float x
property float y
property float z
property uchar red
property uchar green
property uchar blue
element face 1504
property list uchar int vertex_index
end_header
31.4364 -53.4264 10.8031 0 0 171
31.0691 -53.5359 10.8832 0 15 255
30.4984 -53.5822 10.9194 0 48 255
29.9259 -53.5392 10.8909 0 0 253
29.5541 -53.431 10.8158 0 0 236
31.4778 -53.4581 10.4953 0 0 244
31.0706 -53.6409 10.4981 0 0 243
30.4998 -53.6966 10.5 0 28 255
29.9283 -53.6411 10.502 0 0 244
29.5181 -53.4589 10.5047 0 0 213
31.4393 -53.429 10.1847 0 0 197
31.0713 -53.5382 10.1096 0 32 255
30.5007 -53.5818 10.081 0 0 236
29.9302 -53.5358 10.117 0 51 255
29.5615 -53.4266 10.1969 0 0 171
31.5559 -53.0429 10.9941 0 33 255
31.1079 -53.1828 11.2637 0 210 255
30.4941 -53.2456 11.3591 0 208 255
29.8738 -53.1951 11.2905 0 152 255
29.4119 -53.057 11.0327 0 18 255
31.6972 -53.025 10.4857 0 218 255
29.2874 -53.0281 10.5144 0 135 255
31.5662 -53.0498 9.97004 0 119 255
31.1165 -53.1906 9.7125 0 52 255
30.503 -53.2438 9.64321 0 203 255
29.89 -53.1825 9.73719 0 119 255
29.4376 -53.0437 10.0058 0 216 255
29.6742 -51.3927 16.401 0 0 187
29.4253 -51.4469 16.4485 0 0 195
29.1536 -51.4281 16.4125 0 0 161
29.7857 -51.4826 16.01 0 0 209
29.4628 -51.6395 16.0071 0 3 255
29.0908 -51.5531 16.007 0 126 255
29.9208 -51.557 15.3398 24 255 231
29.511 -51.7483 15.3186 0 131 255
29.0548 -51.6507 15.3131 0 129 255
30.1181 -51.6425 14.501 0 151 255
29.5979 -51.8431 14.4684 18 255 237
29.0617 -51.7273 14.4529 12 255 243
31.5394 -51.621 12.6658 0 0 251
31.1418 -51.7355 12.9815 37 255 218
30.4634 -51.8169 13.5103 255 66 0
29.7206 -51.9974 13.5381 123 255 132
29.0956 -51.8269 13.514 129 255 126
31.6344 -51.8717 12.1696 0 145 255
31.1363 -52.1904 12.4007 0 213 255
30.4704 -52.3162 12.6231 105 255 150
29.7616 -52.2975 12.6387 136 255 119
29.1204 -52.0073 12.5435 255 153 0
31.7213 -52.2903 11.365 255 15 0
31.1511 -52.6582 11.7514 0 225 255
30.4839 -52.7769 11.9048 33 255 222
29.7953 -52.6969 11.8378 94 255 161
29.158 -52.3367 11.4934 255 191 0
31.9026 -52.3004 10.4646 17 255 238
29.0476 -52.3091 10.5358 242 255 13
31.7613 -52.3085 9.52194 255 54 0
31.1779 -52.6809 9.17716 210 255 45
30.5101 -52.7702 9.10656 10 255 245
29.8448 -52.6564 9.25312 30 255 225
29.2602 -52.2917 9.63448 255 188 0
31.7466 -51.9175 8.52128 120 255 135
31.1966 -52.2541 8.41902 0 145 255
30.5267 -52.2978 8.42176 79 255 176
29.8646 -52.1846 8.6167 33 255 222
29.3601 -51.8702 8.83486 0 232 255
31.7279 -51.6787 7.6698 23 255 232
31.2298 -51.9126 7.63644 63 255 192
30.5576 -51.7787 7.63623 150 255 105
29.8698 -51.7248 8.0627 0 173 255
29.4634 -51.6175 8.34795 0 0 249
31.7096 -51.5247 6.99295 0 0 236
31.3466 -51.6861 6.96804 0 14 255
30.9412 -51.5547 6.933 0 191 255
31.6627 -51.4057 6.60469 0 0 162
31.4197 -51.4544 6.54794 0 0 217
31.1517 -51.4172 6.56531 0 0 155
29.7192 -50.9964 16.5041 0 47 255
29.3466 -51.0107 16.6618 0 37 255
28.9373 -51.0458 16.541 0 105 255
29.9849 -51.0255 16.0583 0 190 255
28.7082 -51.2044 16.0544 0 136 255
30.2061 -51.0601 15.3951 0 107 255
28.5933 -51.3166 15.3264 71 255 184
30.4588 -51.0985 14.6274 179 255 76
28.5516 -51.3762 14.4527 165 255 90
31.6817 -51.118 12.7526 0 199 255
31.2918 -51.1278 13.269 41 255 214
30.8157 -51.1439 13.8626 114 255 141
28.551 -51.4076 13.5091 0 208 255
31.9192 -51.2201 12.137 157 255 98
28.5695 -51.4253 12.5344 255 117 0
32.0705 -51.3683 11.3504 161 255 94
28.6128 -51.423 11.5246 164 0 0
32.1689 -51.4043 10.4537 255 175 0
28.7029 -51.4144 10.5406 233 255 22
32.1479 -51.3789 9.50347 232 255 23
28.8751 -51.3696 9.64137 182 255 73
32.1136 -51.2401 8.54665 255 159 0
29.0632 -51.2182 8.86163 163 255 92
32.0526 -51.1256 7.67854 80 255 175
30.2596 -51.1237 7.29991 100 255 155
29.735 -51.1195 7.7823 15 255 240
29.3208 -51.114 8.2594 0 197 255
31.9421 -51.0485 6.97408 0 179 255
30.7074 -51.0583 6.78748 0 100 255
31.7496 -51.0011 6.52229 0 0 226
31.4417 -51.0035 6.36472 0 0 253
31.082 -51.0069 6.4473 0 40 255
29.7324 -50.3021 16.6034 0 126 255
29.2225 -50.2996 16.8381 0 249 255
28.5348 -50.2979 16.744 192 255 63
27.8097 -49.8894 16.7092 24 255 231
27.3656 -49.6258 16.6117 0 68 255
30.0933 -50.3132 16.1095 102 255 153
28.2514 -50.6795 16.1152 117 255 138
27.7104 -50.2008 16.1153 0 216 255
27.264 -49.7316 16.1113 0 207 255
30.3687 -50.3267 15.4414 81 255 174
28.1141 -50.8462 15.3455 0 151 255
27.6249 -50.3437 15.352 65 255 190
27.1972 -49.8006 15.3604 146 255 109
30.6454 -50.3409 14.7092 139 255 116
28.0598 -50.9019 14.4646 96 255 159
27.5882 -50.3867 14.4833 96 255 159
27.181 -49.823 14.4997 89 255 166
31.7852 -50.3617 12.8147 68 255 187
31.4046 -50.3557 13.4007 86 255 169
30.9916 -50.3547 14.0108 127 255 128
28.0538 -50.8809 13.5337 255 175 0
27.593 -50.3526 13.5934 56 255 199
27.2104 -49.8025 13.6382 0 137 255
32.064 -50.3981 12.1474 21 255 234
28.0787 -50.7584 12.5864 16 255 239
27.6254 -50.2193 12.766 84 255 171
27.2789 -49.7366 12.8851 0 250 255
32.2394 -50.4455 11.3508 234 255 21
28.1369 -50.4123 11.5657 131 0 0
27.6578 -49.9093 12.0947 0 248 255
27.366 -49.6349 12.3805 0 33 255
32.3302 -50.4612 10.4517 179 0 0
28.4293 -50.451 10.5145 221 0 0
32.3432 -50.4466 9.50076 255 175 0
28.6593 -50.439 9.62083 143 255 112
32.3127 -50.3983 8.55213 252 255 3
28.8995 -50.3887 8.84097 141 255 114
32.232 -50.3534 7.67588 0 214 255
30.113 -50.3426 7.14362 0 241 255
29.6298 -50.3442 7.64457 0 238 255
29.2123 -50.35 8.19073 166 255 89
32.0736 -50.3225 6.95228 44 255 211
30.5843 -50.3241 6.68383 82 255 173
31.8117 -50.305 6.46769 0 196 255
31.4481 -50.3032 6.27512 0 102 255
31.0277 -50.3071 6.36272 0 152 255
29.7434 -49.4326 16.704 167 255 88
29.1811 -49.4145 17.0635 149 255 106
28.4586 -49.3656 17.216 229 255 26
27.7106 -49.2654 17.157 80 255 175
27.1239 -49.1179 16.868 52 255 203
30.1448 -49.4403 16.1515 45 255 210
26.9224 -49.1343 16.2086 138 255 117
30.4435 -49.4455 15.4646 159 255 96
26.8626 -49.1527 15.3953 122 255 133
30.7275 -49.4527 14.737 183 255 72
26.8778 -49.1592 14.5138 140 255 115
31.8263 -49.4909 12.8357 106 255 149
31.4549 -49.4802 13.4387 123 255 132
31.0649 -49.4647 14.0523 63 255 192
26.9484 -49.1565 13.6486 152 255 103
32.1124 -49.4951 12.1544 255 131 0
27.0771 -49.1496 12.8857 0 125 255
32.2965 -49.495 11.3528 255 216 0
27.9883 -49.422 11.1868 183 255 72
27.6034 -49.2615 11.7823 0 198 255
27.2817 -49.1538 12.2822 0 99 255
32.3943 -49.4918 10.4514 220 255 35
28.3018 -49.4705 10.3908 255 191 0
32.4237 -49.483 9.50012 255 148 0
28.5591 -49.4759 9.5759 255 12 0
32.4003 -49.4669 8.55255 199 255 56
28.8236 -49.4627 8.81532 184 255 71
32.3139 -49.4521 7.67226 255 169 0
30.0483 -49.4469 7.07696 98 255 157
29.5755 -49.4477 7.58394 213 255 42
29.1563 -49.4506 8.15249 50 255 205
32.1352 -49.4421 6.93921 90 255 165
30.5286 -49.4422 6.63222 0 142 255
31.8431 -49.4366 6.44041 26 255 229
31.4498 -49.4357 6.23487 0 173 255
30.9994 -49.4373 6.31976 0 235 255
27.6379 -47.5818 18.5927 0 27 255
27.1771 -47.6438 18.6575 0 117 255
26.5404 -47.6254 18.6796 0 141 255
25.9419 -47.5373 18.6818 0 37 255
25.5706 -47.4303 18.6296 0 0 165
27.9032 -47.843 18.2541 0 74 255
27.2957 -48.0543 18.2302 0 222 255
26.5757 -47.9916 18.1777 25 255 230
25.936 -47.7736 18.2916 0 128 255
25.5163 -47.5142 18.3504 0 25 255
29.7597 -48.4844 16.7847 255 243 0
29.1849 -48.4513 17.2669 255 255 0
28.3703 -48.3475 17.6854 255 68 0
27.4945 -48.5284 17.6434 202 255 53
26.601 -48.2801 17.3319 211 0 0
25.8936 -47.7956 17.7991 0 90 255
25.5275 -47.5405 18.0226 0 0 144
30.1644 -48.4917 16.1764 182 255 73
26.5635 -48.3848 16.3369 15 255 240
30.4645 -48.4928 15.4623 255 183 0
26.5921 -48.3791 15.4365 209 255 46
30.7467 -48.5002 14.7153 105 255 150
26.6814 -48.374 14.5254 231 255 24
31.8138 -48.6068 12.8162 2 255 253
31.457 -48.5782 13.4028 82 255 173
31.0781 -48.5254 14.014 255 233 0
26.8155 -48.3893 13.646 255 238 0
32.0884 -48.5823 12.1497 32 255 223
26.9918 -48.4348 12.8714 93 255 162
32.275 -48.5335 11.3529 254 255 1
27.9411 -48.4916 11.0765 212 255 43
27.5727 -48.4845 11.6844 65 255 190
27.2384 -48.4689 12.2369 0 222 255
32.3909 -48.5095 10.4493 255 25 0
28.259 -48.4952 10.339 255 245 0
32.4397 -48.4988 9.49808 255 138 0
28.5245 -48.4943 9.55471 26 255 229
32.4275 -48.4921 8.55146 255 46 0
28.7965 -48.4902 8.80319 229 255 26
32.3429 -48.4875 7.67015 129 255 126
30.0246 -48.4858 7.05295 135 255 120
29.5547 -48.4859 7.5617 55 255 200
29.135 -48.4868 8.13704 255 224 0
32.1583 -48.4848 6.93367 127 255 128
30.5079 -48.4848 6.61249 167 255 88
31.8553 -48.4834 6.42975 0 194 255
31.4502 -48.4831 6.21983 0 203 255
30.9882 -48.4836 6.30311 65 255 190
27.7397 -47.0991 18.7023 0 234 255
27.1758 -47.0868 18.9089 0 203 255
26.5192 -47.0778 18.9836 0 194 255
25.8966 -47.0518 18.9253 0 104 255
25.4574 -47.0248 18.7137 0 48 255
28.2062 -47.2173 18.3281 99 255 156
25.2931 -47.059 18.321 0 65 255
29.7903 -47.5282 16.8173 147 255 108
29.296 -47.4944 17.3533 72 255 183
28.711 -47.4042 17.8395 202 255 53
26.0667 -47.6377 16.9812 0 138 255
25.6808 -47.3921 17.4416 0 212 255
25.3661 -47.1385 17.841 0 73 255
30.1613 -47.5282 16.1773 83 255 172
26.2181 -47.6355 16.2791 191 255 64
30.4463 -47.5176 15.4338 239 255 16
26.3586 -47.5131 15.4509 255 245 0
30.7217 -47.5208 14.641 255 120 0
26.5748 -47.4841 14.5319 255 7 0
31.7581 -47.8091 12.7588 43 255 212
31.4297 -47.722 13.2782 104 255 151
31.0526 -47.5625 13.8756 175 255 80
26.8136 -47.5161 13.6304 131 255 124
31.9927 -47.7231 12.1472 192 255 63
27.0232 -47.672 12.8585 0 230 255
32.1751 -47.5644 11.3622 255 150 0
27.9466 -47.5463 11.1528 182 255 73
27.5789 -47.6885 11.7505 0 212 255
27.2579 -47.7612 12.2596 0 171 255
32.3356 -47.519 10.4432 244 255 11
28.2639 -47.5107 10.3759 255 197 0
32.4189 -47.5055 9.4915 242 255 13
28.5241 -47.5016 9.56909 245 0 0
32.4252 -47.5006 8.54824 255 157 0
28.7926 -47.4986 8.80655 225 255 30
32.3478 -47.4983 7.66859 255 119 0
30.0177 -47.4971 7.04611 134 255 121
29.5488 -47.4971 7.55567 255 246 0
29.13 -47.4974 8.13443 85 255 170
32.1639 -47.4972 6.93176 140 255 115
30.5017 -47.4969 6.60672 77 255 178
31.8586 -47.4967 6.42649 12 255 243
31.4502 -47.4966 6.21537 30 255 225
30.9847 -47.4967 6.29818 0 117 255
27.8101 -46.3486 18.7811 0 242 255
27.1913 -46.3357 19.0698 58 255 197
26.4957 -46.3357 19.1944 73 255 182
25.8239 -46.3443 19.1141 29 255 226
25.3153 -46.338 18.809 0 234 255
28.3444 -46.4012 18.3542 88 255 167
25.1011 -46.3595 18.2651 9 255 246
29.7894 -46.6161 16.8015 0 167 255
29.3591 -46.5746 17.3408 194 255 61
28.8547 -46.4879 17.848 126 255 129
25.8301 -47.1667 16.7964 0 0 255
25.5408 -46.8808 17.0811 0 137 255
25.192 -46.4048 17.5144 255 175 0
30.116 -46.5942 16.1594 244 255 11
25.9225 -46.9597 16.2968 6 255 249
25.5754 -46.5109 16.5575 0 209 255
25.2768 -46.0821 16.8098 0 101 255
30.3766 -46.5453 15.3904 255 244 0
26.1021 -46.5163 15.5509 235 0 0
25.656 -46.107 16.0887 0 206 255
25.3838 -45.8982 16.3858 0 0 148
30.6446 -46.5189 14.5246 239 0 0
26.5337 -46.4971 14.5577 255 186 0
31.6827 -47.2441 12.6836 0 67 255
31.4082 -46.9844 13.0145 0 233 255
30.9963 -46.5059 13.5582 255 99 0
27.6773 -45.756 12.6834 0 65 255
27.3932 -46.0149 13.0135 0 216 255
26.9672 -46.491 13.5631 255 68 0
31.8078 -46.9853 12.2058 0 107 255
31.4961 -46.5024 12.4967 0 221 255
31.1764 -46.0206 12.7837 0 243 255
27.8094 -46.0157 12.21 0 158 255
27.4937 -46.4958 12.5006 67 255 188
27.1792 -46.9692 12.7924 63 255 192
31.9636 -46.5107 11.4217 255 123 0
31.5797 -46.0261 11.9733 1 255 254
31.3078 -45.7627 12.3039 0 71 255
27.9819 -46.4964 11.4437 128 0 0
27.5878 -46.9731 11.9919 0 249 255
27.3172 -47.2269 12.3218 0 0 244
32.2411 -46.5131 10.4208 234 0 0
28.3042 -46.4989 10.4744 255 134 0
32.3761 -46.5112 9.47302 255 10 0
28.545 -46.4999 9.6042 180 255 75
32.4066 -46.5073 8.54048 255 183 0
28.8 -46.5001 8.81796 243 255 12
32.3401 -46.5034 7.6662 246 255 9
30.0165 -46.5 7.04495 242 255 13
29.5483 -46.5 7.55524 172 255 83
29.1316 -46.5001 8.137 94 255 161
32.1612 -46.5011 6.93088 117 255 138
30.5005 -46.5 6.60566 9 255 246
31.8578 -46.5003 6.42573 0 185 255
31.4498 -46.5 6.21449 0 151 255
30.984 -46.5 6.29725 163 255 92
27.8392 -45.4545 18.82 49 255 206
27.1985 -45.442 19.1964 178 255 77
26.4558 -45.4375 19.4106 224 255 31
25.7089 -45.4959 19.3471 255 189 0
25.0886 -45.4719 19.0041 188 255 67
28.3869 -45.483 18.3145 179 255 76
24.8431 -45.5066 18.3423 207 255 48
29.7416 -45.8141 16.744 98 255 157
29.3676 -45.7207 17.2265 90 255 165
28.8948 -45.5486 17.7323 225 255 30
24.9122 -45.4646 17.5737 93 255 162
30.0033 -45.7355 16.1455 144 255 111
25.1175 -45.4843 16.8663 0 151 255
30.2246 -45.5867 15.3735 255 175 0
26.0875 -45.4945 15.4144 173 255 82
25.6523 -45.4965 15.9598 0 59 255
25.3339 -45.4947 16.3641 0 67 255
30.4768 -45.5258 14.4921 218 255 37
26.5387 -45.4831 14.6314 255 125 0
30.7355 -45.4561 13.6046 229 255 26
27.754 -45.1913 12.76 0 219 255
27.4054 -45.278 13.2762 5 255 250
26.9793 -45.4376 13.8687 255 3 0
30.9652 -45.2887 12.8241 200 255 55
27.9981 -45.2783 12.1515 150 255 105
31.9017 -45.4854 11.089 255 195 0
31.5476 -45.3119 11.6858 0 238 255
31.2185 -45.2083 12.2057 0 163 255
28.1944 -45.439 11.3775 195 255 60
32.1724 -45.5324 10.3003 127 255 128
28.3949 -45.4858 10.4914 255 145 0
32.3246 -45.5367 9.42948 255 95 0
28.5827 -45.499 9.6205 187 255 68
32.3709 -45.5262 8.52703 255 203 0
28.8141 -45.5023 8.82561 252 255 3
32.317 -45.5132 7.66291 251 255 4
30.018 -45.5031 7.04634 46 255 209
29.5503 -45.5032 7.55702 165 255 90
29.1363 -45.5031 8.14014 255 208 0
32.1485 -45.5065 6.93017 133 255 122
30.5016 -45.5032 6.60674 182 255 73
31.8522 -45.5042 6.42591 73 255 182
31.4482 -45.5036 6.21517 0 216 255
30.9842 -45.5034 6.29813 0 197 255
25.7574 -43.5633 20.5442 0 0 183
25.4029 -43.6217 20.5699 0 12 255
25.0205 -43.6102 20.5277 0 12 255
25.9814 -43.8328 20.2493 0 103 255
25.4505 -44.0343 20.2198 0 167 255
24.8556 -43.9085 20.1617 0 243 255
27.8434 -44.4925 18.8335 255 190 0
27.2146 -44.4633 19.3207 255 231 0
26.3986 -44.3742 19.7437 255 84 0
25.5446 -44.6149 19.7155 102 255 153
24.6535 -44.434 19.4163 255 99 0
23.9258 -43.9715 19.1864 0 228 255
23.5707 -43.6621 19.0713 0 0 195
28.3672 -44.5037 18.2218 255 103 0
24.4779 -44.6343 18.4948 255 222 0
23.9215 -44.0971 18.6119 0 37 255
23.5577 -43.7272 18.6849 0 0 211
29.6677 -45.2535 16.6653 0 0 247
29.3675 -44.9917 16.9674 0 223 255
28.8859 -44.5114 17.4308 255 241 0
25.6047 -43.7468 16.6938 0 4 255
25.2361 -43.9808 17.0178 19 255 236
24.6838 -44.396 17.6128 240 0 0
23.9844 -43.9314 18.141 0 118 255
23.6213 -43.715 18.3651 0 0 224
29.8007 -45.0112 16.1883 0 154 255
29.4729 -44.5288 16.451 0 212 255
29.1264 -44.0454 16.6968 100 255 155
25.809 -44.0036 16.26 0 191 255
25.44 -44.4439 16.5382 5 255 250
25.113 -44.8627 16.8274 5 255 250
29.957 -44.5857 15.3982 255 122 0
29.5548 -44.0977 15.8967 0 186 255
29.2706 -43.8094 16.2006 0 7 255
26.0877 -44.4726 15.5931 208 0 0
25.6131 -44.8799 16.0954 0 188 255
25.3231 -45.0847 16.3923 0 0 201
30.2798 -44.5667 14.4513 255 79 0
26.5814 -44.4906 14.7415 255 203 0
30.5411 -44.5057 13.5765 255 110 0
27.8249 -44.3952 12.8284 179 255 76
27.4468 -44.4231 13.4153 133 255 122
27.0196 -44.4741 14.0244 0 255 255
30.8074 -44.4439 12.7698 158 255 97
28.1109 -44.4229 12.1597 30 255 225
31.8325 -44.6094 10.9064 88 255 167
31.4848 -44.5176 11.4906 45 255 210
31.1196 -44.4363 12.0742 70 255 185
28.3116 -44.476 11.3693 238 255 17
32.0895 -44.6323 10.2076 66 255 189
28.4667 -44.5022 10.4973 255 207 0
32.2405 -44.6142 9.39458 88 255 167
28.6197 -44.5119 9.62748 255 105 0
32.296 -44.5762 8.51874 253 255 2
28.8318 -44.5151 8.83073 224 255 31
32.2604 -44.5368 7.66168 243 255 12
30.0248 -44.5159 7.05332 32 255 223
29.5569 -44.516 7.56377 149 255 106
29.1454 -44.5161 8.14545 255 237 0
32.1151 -44.5223 6.92962 142 255 113
30.5075 -44.5163 6.61244 153 255 102
31.8369 -44.5184 6.42735 64 255 191
31.4439 -44.5174 6.21875 0 198 255
30.9865 -44.517 6.30277 0 174 255
25.8177 -43.0942 20.6337 0 183 255
25.3299 -43.0971 20.7533 0 124 255
24.7991 -43.1629 20.6698 0 113 255
26.245 -43.2139 20.3086 28 255 227
24.3477 -43.4049 20.3114 0 239 255
23.8029 -43.139 20.1077 0 119 255
23.4969 -42.8791 19.9036 0 0 194
27.837 -43.5358 18.833 172 255 83
27.3139 -43.5012 19.3683 170 255 85
26.7267 -43.4108 19.8493 190 255 65
24.2249 -43.8328 19.816 0 67 255
23.7986 -43.5612 19.6349 0 157 255
23.4708 -43.1763 19.3669 0 230 255
28.2654 -43.5344 18.1934 0 248 255
23.4364 -43.3011 18.7853 0 66 255
28.621 -43.492 17.4439 255 163 0
25.6963 -43.1989 16.7686 0 133 255
25.2006 -43.2635 17.2282 36 255 219
24.5675 -43.3935 17.7051 215 255 40
23.9518 -43.4114 18.0871 0 252 255
23.5702 -43.3904 18.3823 0 0 224
28.8852 -43.3401 16.6841 54 255 201
26.0421 -43.3038 16.2076 188 255 67
29.8383 -43.7158 15.0227 112 255 143
29.4986 -43.4837 15.5184 26 255 229
29.1525 -43.2843 16.0149 0 250 255
26.3461 -43.4754 15.5194 101 255 154
30.0999 -43.6846 14.3221 76 255 179
26.7021 -43.5315 14.776 223 255 32
30.3493 -43.5769 13.503 255 198 0
27.8899 -43.5188 12.8846 126 255 129
27.4995 -43.5281 13.4967 108 255 147
27.0868 -43.541 14.1015 168 255 87
30.6507 -43.5505 12.6524 255 210 0
28.1932 -43.5257 12.1846 170 255 85
31.743 -43.8635 10.7706 0 132 255
31.409 -43.7441 11.2797 0 237 255
31.0047 -43.5826 11.8662 181 255 74
28.395 -43.5412 11.3776 240 255 15
31.9565 -43.8468 10.1513 82 255 173
28.5319 -43.5512 10.5026 255 246 0
32.0863 -43.7779 9.38364 129 255 126
28.6659 -43.5565 9.6325 255 171 0
32.1463 -43.6798 8.52628 215 255 40
28.8638 -43.5601 8.83857 168 255 87
32.1403 -43.5781 7.66438 232 255 23
30.0479 -43.5615 7.07742 185 255 70
29.5778 -43.5617 7.58639 117 255 138
29.1682 -43.5623 8.1603 30 255 225
32.0449 -43.5651 6.92635 96 255 159
30.5273 -43.5631 6.63169 0 206 255
31.8045 -43.5658 6.4311 0 183 255
31.4363 -43.5661 6.23043 0 158 255
30.9954 -43.5654 6.31816 0 225 255
25.8358 -42.3581 20.697 28 255 227
25.2374 -42.354 20.8831 0 192 255
24.5121 -42.3927 20.8477 152 255 103
23.8831 -42.0667 20.7639 0 174 255
23.5278 -41.875 20.5921 0 0 234
26.3502 -42.4105 20.323 47 255 208
24.1807 -42.8258 20.5924 0 15 255
23.7754 -42.5912 20.4515 0 123 255
23.4355 -42.2276 20.1617 57 255 198
27.8001 -42.6465 18.801 0 253 255
27.3574 -42.5936 19.3365 84 255 171
26.8487 -42.5018 19.8378 102 255 153
23.8588 -41.7315 18.7963 0 0 161
23.6059 -41.9553 19.0356 0 92 255
23.4025 -42.3278 19.4277 178 255 77
28.1417 -42.65 18.1629 204 255 51
24.0902 -41.9811 18.4537 0 241 255
23.7235 -42.4148 18.6208 0 154 255
23.4661 -42.7932 18.7995 0 34 255
28.4108 -42.6232 17.4062 146 255 109
25.8368 -42.4266 16.8902 201 255 54
25.2617 -42.4111 17.4111 228 255 27
24.5154 -42.4259 17.9543 255 162 0
23.8958 -42.8405 18.2482 0 78 255
23.5718 -43.0312 18.4403 0 0 137
28.6582 -42.5661 16.5752 255 249 0
26.2402 -42.5152 16.2502 16 255 239
29.7296 -43.1554 14.8224 0 21 255
29.4304 -42.8659 15.1352 0 207 255
28.9826 -42.5251 15.6744 158 255 97
26.5437 -42.6114 15.5286 107 255 148
29.8632 -42.937 14.2877 0 251 255
29.4768 -42.3699 14.5203 48 255 207
29.1011 -42.1813 15.0152 0 52 255
26.8383 -42.6629 14.8076 86 255 169
30.0657 -42.6312 13.4566 255 213 0
29.7111 -42.222 13.8814 0 139 255
27.9837 -42.6711 12.962 0 255 255
27.5746 -42.6781 13.5812 49 255 206
27.1745 -42.6825 14.1633 76 255 179
30.435 -42.6611 12.4793 226 255 29
28.3017 -42.6688 12.2281 241 255 14
31.6434 -43.3599 10.6466 0 46 255
31.3405 -43.0976 10.9353 0 244 255
30.8305 -42.6674 11.451 252 0 0
28.5055 -42.67 11.3962 184 255 71
31.7418 -43.222 10.1483 0 185 255
31.3967 -42.74 10.2901 36 255 219
30.9571 -42.2676 10.494 123 255 132
28.6341 -42.6726 10.5107 192 255 63
31.8301 -43.0632 9.41608 77 255 178
31.4656 -42.4903 9.52704 55 255 200
31.061 -42.0545 9.68939 12 255 243
28.7552 -42.6778 9.64001 136 255 119
31.8863 -42.8643 8.56946 244 255 11
31.4994 -42.2044 8.7027 55 255 200
31.1493 -41.9305 9.08762 0 0 185
28.9362 -42.686 8.85515 85 255 170
31.9182 -42.6086 7.66741 212 255 43
31.6723 -42.1557 8.0249 0 59 255
30.11 -42.6901 7.14453 112 255 143
29.6301 -42.6906 7.64926 33 255 222
29.2229 -42.6931 8.19829 0 230 255
31.9285 -42.677 6.90463 0 214 255
30.5808 -42.6959 6.68141 0 226 255
31.7519 -42.7001 6.43726 0 41 255
31.4267 -42.7038 6.26101 0 81 255
31.0206 -42.7033 6.35719 0 159 255
25.8253 -41.491 20.712 0 161 255
25.2114 -41.4691 20.9673 176 255 79
24.5245 -41.4327 21.0251 86 255 169
23.8986 -41.316 20.9338 0 204 255
23.4741 -41.2567 20.6911 0 132 255
26.3527 -41.5211 20.268 111 255 144
23.3025 -41.3415 20.2735 0 223 255
27.7185 -41.8967 18.726 0 210 255
27.3334 -41.7801 19.1993 0 240 255
26.8433 -41.5962 19.7007 255 240 0
23.9297 -41.1801 18.8842 0 123 255
23.5864 -41.248 19.2805 0 207 255
23.3427 -41.3612 19.7363 0 239 255
27.9665 -41.9001 18.1295 0 228 255
24.3193 -41.2682 18.4658 0 182 255
28.1535 -41.8866 17.3769 151 255 104
26.0687 -41.5725 17.0943 255 136 0
25.4496 -41.4866 17.5725 234 255 21
24.8162 -41.4248 18.0161 145 255 110
28.3419 -41.8695 16.5276 10 255 245
26.4913 -41.7576 16.3526 111 255 144
28.5758 -41.8396 15.6512 116 255 139
26.7775 -41.8803 15.5724 32 255 223
29.2124 -41.7975 14.2665 0 169 255
28.834 -41.7577 14.8612 0 209 255
27.0218 -41.9501 14.8475 0 198 255
29.8706 -41.9186 13.0944 0 237 255
29.523 -41.792 13.6424 0 92 255
28.16 -41.9615 13.1224 56 255 199
27.691 -41.975 13.7371 0 190 255
27.296 -41.9884 14.2491 0 185 255
30.1356 -41.9324 12.3313 162 255 93
28.4996 -41.9523 12.3069 102 255 153
30.3635 -41.8891 11.4405 145 255 110
28.7038 -41.9441 11.4274 92 255 163
30.5095 -41.743 10.5274 50 255 205
28.8253 -41.9426 10.5225 81 255 174
30.6573 -41.6462 9.6662 0 168 255
28.9324 -41.9518 9.64909 0 209 255
31.2232 -41.7178 8.35587 0 20 255
30.8731 -41.6252 8.9068 0 255 255
29.0849 -41.973 8.87993 4 255 251
31.7393 -41.931 7.31329 0 58 255
31.4891 -41.7688 7.76846 0 150 255
30.2487 -41.9812 7.30221 0 156 255
29.7286 -41.9835 7.79699 0 244 255
29.3256 -41.9966 8.27411 0 174 255
31.7939 -41.9919 6.80613 0 60 255
30.6984 -42.0001 6.7785 0 120 255
31.6852 -42.0237 6.44682 0 0 239
31.4162 -42.021 6.3309 0 0 229
31.0714 -42.023 6.43286 0 51 255
25.7753 -40.6008 20.6755 232 255 23
25.1893 -40.564 20.9735 82 255 173
24.5213 -40.5052 21.0759 74 255 181
23.8913 -40.4501 21.003 0 169 255
23.4411 -40.4267 20.7582 0 177 255
26.2582 -40.6035 20.1527 223 255 32
23.2503 -40.4452 20.3644 0 179 255
27.6075 -41.4108 18.6192 0 36 255
27.2674 -41.148 18.8887 0 232 255
26.7078 -40.6451 19.3567 255 225 0
23.9954 -40.3923 18.9667 0 250 255
23.5982 -40.4124 19.4177 0 254 255
23.3187 -40.4471 19.8878 0 218 255
27.6975 -41.3375 18.1224 0 161 255
27.2666 -40.9153 18.2496 39 255 216
26.7102 -40.4074 18.4739 255 250 0
24.4502 -40.4232 18.5247 66 255 189
27.7888 -41.3311 17.3715 0 198 255
27.2532 -40.9582 17.4292 120 255 135
26.4434 -40.6773 17.5637 204 0 0
25.6126 -40.5407 17.803 221 255 34
24.9758 -40.4827 18.1211 208 255 47
27.9356 -41.3679 16.4929 123 255 132
27.422 -41.122 16.502 59 255 196
26.8697 -41.184 16.5017 70 255 185
28.1375 -41.398 15.5601 63 255 192
27.6024 -41.2347 15.5932 0 215 255
27.1201 -41.3818 15.6168 0 247 255
28.9635 -41.4842 14.031 0 61 255
28.4364 -41.4231 14.5289 169 255 86
27.7704 -41.3355 14.7433 0 176 255
27.3041 -41.4889 14.8655 0 137 255
29.6504 -41.5436 12.8988 0 0 252
29.2092 -41.4584 13.2916 57 255 198
28.4906 -41.4935 13.4812 171 255 84
27.8224 -41.5181 14.061 0 209 255
27.4347 -41.5842 14.3603 0 58 255
29.7853 -41.4873 12.2673 0 239 255
29.3387 -41.3443 12.365 0 111 255
28.8401 -41.4818 12.4106 118 255 137
29.9273 -41.4336 11.4233 0 181 255
29.4678 -41.2879 11.4474 6 255 249
29.0291 -41.4597 11.4586 0 245 255
30.0491 -41.3735 10.5093 0 241 255
29.5697 -41.26 10.519 0 206 255
29.1402 -41.4507 10.5297 0 229 255
30.2003 -41.3492 9.5777 0 246 255
29.6757 -41.2694 9.6096 0 220 255
29.2351 -41.4649 9.64635 0 186 255
30.9711 -41.4606 8.11305 0 33 255
30.4656 -41.3895 8.57906 62 255 193
29.802 -41.3404 8.76683 0 209 255
29.3477 -41.5118 8.8843 0 43 255
31.5623 -41.5884 7.14798 0 0 171
31.193 -41.488 7.47473 0 180 255
30.5275 -41.5147 7.63964 75 255 180
29.8457 -41.5264 8.10979 0 64 255
29.456 -41.5932 8.38042 0 3 255
31.6131 -41.5935 6.77512 0 0 188
31.3053 -41.4772 6.85822 0 0 206
30.9204 -41.5731 6.90173 0 89 255
31.6075 -41.6521 6.49817 0 0 132
31.3912 -41.611 6.48745 0 0 160
31.1363 -41.644 6.53693 0 0 205
25.6841 -39.7863 20.6243 0 114 255
25.1673 -39.7046 20.8995 0 224 255
24.5181 -39.5825 21.0209 74 255 181
23.8818 -39.5464 20.9872 95 255 160
23.4278 -39.5373 20.7716 0 161 255
26.0436 -39.7141 20.1349 89 255 166
23.2392 -39.541 20.4074 0 142 255
26.2878 -39.6035 19.4387 255 237 0
24.0477 -39.5215 19.0335 38 255 217
23.6236 -39.5282 19.4982 8 255 247
23.3226 -39.5401 19.9625 0 188 255
26.3027 -39.5333 18.6988 191 255 64
24.5182 -39.5318 18.5893 48 255 207
26.0572 -39.5874 18.1286 97 255 158
25.5499 -39.5704 18.0462 1 255 254
25.0188 -39.5521 18.2314 0 249 255
25.59 -39.2066 20.5586 0 0 244
25.1839 -38.96 20.7155 0 212 255
24.5319 -38.6457 20.848 116 255 139
23.8643 -38.6811 20.9006 0 169 255
23.4294 -38.6945 20.7397 0 77 255
25.7709 -38.9599 20.1667 0 187 255
25.3416 -38.4054 20.325 46 255 209
24.8586 -38.2402 20.592 0 0 242
23.2618 -38.6974 20.4181 0 79 255
25.9324 -38.6435 19.5058 255 212 0
25.6206 -38.2382 19.8489 0 0 192
24.1181 -38.6828 19.1128 142 255 113
23.6736 -38.6878 19.574 0 197 255
23.3569 -38.6967 20.0117 0 28 255
26.0181 -38.6709 18.8 0 217 255
24.5828 -38.6884 18.6612 0 215 255
25.8467 -38.6988 18.3345 0 120 255
25.4788 -38.7021 18.1939 0 117 255
25.0373 -38.6989 18.3235 0 46 255
24.2573 -37.9516 20.7132 0 49 255
23.7863 -37.9971 20.7836 0 45 255
23.4419 -38.0236 20.6814 0 0 235
25.1184 -37.8318 20.1133 0 0 244
24.6628 -37.82 20.4412 0 49 255
23.3293 -38.0203 20.414 0 0 224
25.7408 -37.9483 19.249 0 0 242
25.4526 -37.8185 19.6593 0 138 255
24.2532 -37.9924 19.2517 0 65 255
23.7627 -38.0028 19.6964 0 144 255
23.4289 -38.0229 20.0691 0 91 255
25.8213 -37.9914 18.7673 0 57 255
24.6993 -38.0028 18.7592 0 169 255
25.7161 -38.0214 18.415 0 0 245
25.4345 -38.0198 18.3094 0 0 233
25.078 -38.0229 18.4191 0 75 255
24.1149 -37.601 20.5504 0 0 169
23.7627 -37.5977 20.6086 0 0 189
23.4941 -37.6531 20.6059 0 0 142
24.915 -37.5361 19.9134 0 51 255
24.3995 -37.5175 20.1712 0 94 255
23.8364 -37.4852 20.2996 0 0 189
23.4819 -37.6127 20.3896 0 0 149
25.5598 -37.5992 19.1122 0 0 233
25.1745 -37.5169 19.3985 0 49 255
24.515 -37.5547 19.5143 0 232 255
23.8698 -37.5835 19.9157 0 34 255
23.5279 -37.6468 20.1345 0 0 144
25.6194 -37.5954 18.7576 0 0 176
25.3027 -37.4845 18.8347 0 0 199
24.9169 -37.5833 18.8687 0 7 255
25.6177 -37.6514 18.4859 0 0 128
25.3958 -37.612 18.4767 0 0 165
25.1375 -37.6465 18.525 0 0 180
3 0 1 5
3 6 5 1
3 0 15 16
3 0 16 1
3 0 5 15
3 20 15 5
3 1 2 6
3 7 6 2
3 1 16 17
3 1 17 2
3 2 3 8
3 2 8 7
3 2 17 3
3 18 3 17
3 3 4 8
3 9 8 4
3 3 18 4
3 19 4 18
3 4 19 21
3 4 21 9
3 5 6 10
3 11 10 6
3 5 10 22
3 5 22 20
3 6 7 11
3 12 11 7
3 7 8 13
3 7 13 12
3 8 9 13
3 14 13 9
3 9 21 26
3 9 26 14
3 10 11 23
3 10 23 22
3 11 12 24
3 11 24 23
3 12 13 24
3 25 24 13
3 13 14 25
3 26 25 14
3 15 49 16
3 50 16 49
3 15 20 49
3 54 49 20
3 16 50 51
3 16 51 17
3 17 51 52
3 17 52 18
3 18 52 53
3 18 53 19
3 19 53 21
3 55 21 53
3 20 22 56
3 20 56 54
3 21 55 26
3 60 26 55
3 22 23 57
3 22 57 56
3 23 24 57
3 58 57 24
3 24 25 58
3 59 58 25
3 25 26 59
3 60 59 26
3 27 28 31
3 27 31 30
3 27 77 28
3 78 28 77
3 27 30 80
3 27 80 77
3 28 29 32
3 28 32 31
3 28 78 29
3 79 29 78
3 29 79 32
3 81 32 79
3 30 31 33
3 34 33 31
3 30 33 80
3 82 80 33
3 31 32 34
3 35 34 32
3 32 81 83
3 32 83 35
3 33 34 37
3 33 37 36
3 33 36 84
3 33 84 82
3 34 35 38
3 34 38 37
3 35 83 85
3 35 85 38
3 36 37 41
3 42 41 37
3 36 41 84
3 88 84 41
3 37 38 42
3 43 42 38
3 38 85 43
3 89 43 85
3 39 40 44
3 45 44 40
3 39 86 40
3 87 40 86
3 39 44 90
3 39 90 86
3 40 41 46
3 40 46 45
3 40 87 41
3 88 41 87
3 41 42 47
3 41 47 46
3 42 43 48
3 42 48 47
3 43 89 91
3 43 91 48
3 44 45 49
3 50 49 45
3 44 49 90
3 92 90 49
3 45 46 50
3 51 50 46
3 46 47 51
3 52 51 47
3 47 48 52
3 53 52 48
3 48 91 93
3 48 93 53
3 49 54 94
3 49 94 92
3 53 93 55
3 95 55 93
3 54 56 94
3 96 94 56
3 55 95 60
3 97 60 95
3 56 57 61
3 62 61 57
3 56 61 98
3 56 98 96
3 57 58 63
3 57 63 62
3 58 59 64
3 58 64 63
3 59 60 65
3 59 65 64
3 60 97 99
3 60 99 65
3 61 62 67
3 61 67 66
3 61 66 98
3 100 98 66
3 62 63 67
3 68 67 63
3 63 64 68
3 69 68 64
3 64 65 69
3 70 69 65
3 65 99 70
3 103 70 99
3 66 67 72
3 66 72 71
3 66 71 104
3 66 104 100
3 67 68 73
3 67 73 72
3 68 69 102
3 68 102 101
3 68 101 73
3 105 73 101
3 69 70 103
3 69 103 102
3 71 72 75
3 71 75 74
3 71 74 104
3 106 104 74
3 72 73 75
3 76 75 73
3 73 105 108
3 73 108 76
3 74 75 106
3 107 106 75
3 75 76 107
3 108 107 76
3 77 109 78
3 110 78 109
3 77 80 114
3 77 114 109
3 78 110 79
3 111 79 110
3 79 111 81
3 115 81 111
3 80 82 118
3 80 118 114
3 81 115 83
3 119 83 115
3 82 84 118
3 122 118 84
3 83 119 123
3 83 123 85
3 84 88 122
3 128 122 88
3 85 123 129
3 85 129 89
3 86 126 87
3 127 87 126
3 86 90 132
3 86 132 126
3 87 127 88
3 128 88 127
3 89 129 91
3 133 91 129
3 90 92 136
3 90 136 132
3 91 133 137
3 91 137 93
3 92 94 140
3 92 140 136
3 93 137 141
3 93 141 95
3 94 96 140
3 142 140 96
3 95 141 97
3 143 97 141
3 96 98 142
3 144 142 98
3 97 143 99
3 145 99 143
3 98 100 144
3 146 144 100
3 99 145 103
3 149 103 145
3 100 104 150
3 100 150 146
3 101 102 148
3 101 148 147
3 101 147 151
3 101 151 105
3 102 103 149
3 102 149 148
3 104 106 152
3 104 152 150
3 105 151 154
3 105 154 108
3 106 107 152
3 153 152 107
3 107 108 153
3 154 153 108
3 109 155 110
3 156 110 155
3 109 114 155
3 160 155 114
3 110 156 111
3 157 111 156
3 111 112 115
3 116 115 112
3 111 157 112
3 158 112 157
3 112 113 116
3 117 116 113
3 112 158 113
3 159 113 158
3 113 159 117
3 161 117 159
3 114 118 162
3 114 162 160
3 115 116 120
3 115 120 119
3 116 117 121
3 116 121 120
3 117 161 163
3 117 163 121
3 118 122 162
3 164 162 122
3 119 120 123
3 124 123 120
3 120 121 124
3 125 124 121
3 121 163 165
3 121 165 125
3 122 128 164
3 168 164 128
3 123 124 129
3 130 129 124
3 124 125 130
3 131 130 125
3 125 165 169
3 125 169 131
3 126 166 127
3 167 127 166
3 126 132 170
3 126 170 166
3 127 167 128
3 168 128 167
3 129 130 134
3 129 134 133
3 130 131 135
3 130 135 134
3 131 169 135
3 171 135 169
3 132 136 170
3 172 170 136
3 133 134 137
3 138 137 134
3 134 135 138
3 139 138 135
3 135 171 139
3 175 139 171
3 136 140 172
3 176 172 140
3 137 138 173
3 174 173 138
3 137 173 177
3 137 177 141
3 138 139 174
3 175 174 139
3 140 142 178
3 140 178 176
3 141 177 179
3 141 179 143
3 142 144 180
3 142 180 178
3 143 179 145
3 181 145 179
3 144 146 182
3 144 182 180
3 145 181 149
3 185 149 181
3 146 150 182
3 186 182 150
3 147 148 184
3 147 184 183
3 147 183 151
3 187 151 183
3 148 149 184
3 185 184 149
3 150 152 186
3 188 186 152
3 151 187 190
3 151 190 154
3 152 153 188
3 189 188 153
3 153 154 189
3 190 189 154
3 155 201 156
3 202 156 201
3 155 160 208
3 155 208 201
3 156 202 157
3 203 157 202
3 157 203 158
3 204 158 203
3 158 204 159
3 205 159 204
3 159 205 161
3 209 161 205
3 160 162 210
3 160 210 208
3 161 209 211
3 161 211 163
3 162 164 210
3 212 210 164
3 163 211 213
3 163 213 165
3 164 168 212
3 216 212 168
3 165 213 217
3 165 217 169
3 166 214 215
3 166 215 167
3 166 170 214
3 218 214 170
3 167 215 216
3 167 216 168
3 169 217 219
3 169 219 171
3 170 172 220
3 170 220 218
3 171 219 175
3 223 175 219
3 172 176 224
3 172 224 220
3 173 174 222
3 173 222 221
3 173 221 177
3 225 177 221
3 174 175 223
3 174 223 222
3 176 178 226
3 176 226 224
3 177 225 179
3 227 179 225
3 178 180 228
3 178 228 226
3 179 227 229
3 179 229 181
3 180 182 228
3 230 228 182
3 181 229 233
3 181 233 185
3 182 186 230
3 234 230 186
3 183 184 231
3 232 231 184
3 183 231 235
3 183 235 187
3 184 185 232
3 233 232 185
3 186 188 234
3 236 234 188
3 187 235 190
3 238 190 235
3 188 189 237
3 188 237 236
3 189 190 238
3 189 238 237
3 191 192 197
3 191 197 196
3 191 239 192
3 240 192 239
3 191 196 244
3 191 244 239
3 192 193 198
3 192 198 197
3 192 240 193
3 241 193 240
3 193 194 199
3 193 199 198
3 193 241 194
3 242 194 241
3 194 195 200
3 194 200 199
3 194 242 195
3 243 195 242
3 195 243 200
3 245 200 243
3 196 197 203
3 204 203 197
3 196 203 244
3 248 244 203
3 197 198 204
3 205 204 198
3 198 199 205
3 206 205 199
3 199 200 206
3 207 206 200
3 200 245 251
3 200 251 207
3 201 246 247
3 201 247 202
3 201 208 252
3 201 252 246
3 202 247 248
3 202 248 203
3 205 206 250
3 205 250 249
3 205 249 253
3 205 253 209
3 206 207 251
3 206 251 250
3 208 210 254
3 208 254 252
3 209 253 211
3 255 211 253
3 210 212 256
3 210 256 254
3 211 255 213
3 257 213 255
3 212 216 256
3 260 256 216
3 213 257 217
3 261 217 257
3 214 258 215
3 259 215 258
3 214 218 258
3 262 258 218
3 215 259 216
3 260 216 259
3 217 261 263
3 217 263 219
3 218 220 262
3 264 262 220
3 219 263 267
3 219 267 223
3 220 224 264
3 268 264 224
3 221 222 265
3 266 265 222
3 221 265 269
3 221 269 225
3 222 223 266
3 267 266 223
3 224 226 270
3 224 270 268
3 225 269 271
3 225 271 227
3 226 228 272
3 226 272 270
3 227 271 229
3 273 229 271
3 228 230 274
3 228 274 272
3 229 273 233
3 277 233 273
3 230 234 274
3 278 274 234
3 231 232 276
3 231 276 275
3 231 275 235
3 279 235 275
3 232 233 276
3 277 276 233
3 234 236 278
3 280 278 236
3 235 279 238
3 282 238 279
3 236 237 280
3 281 280 237
3 237 238 281
3 282 281 238
3 239 283 284
3 239 284 240
3 239 244 288
3 239 288 283
3 240 284 285
3 240 285 241
3 241 285 286
3 241 286 242
3 242 286 287
3 242 287 243
3 243 287 289
3 243 289 245
3 244 248 292
3 244 292 288
3 245 289 295
3 245 295 251
3 246 290 291
3 246 291 247
3 246 252 296
3 246 296 290
3 247 291 248
3 292 248 291
3 249 250 294
3 249 294 293
3 249 293 253
3 297 253 293
3 250 251 295
3 250 295 294
3 252 254 296
3 300 296 254
3 253 297 255
3 301 255 297
3 254 256 300
3 304 300 256
3 255 301 257
3 305 257 301
3 256 260 304
3 308 304 260
3 257 305 311
3 257 311 261
3 258 306 307
3 258 307 259
3 258 262 306
3 312 306 262
3 259 307 308
3 259 308 260
3 261 311 317
3 261 317 263
3 262 264 318
3 262 318 312
3 263 317 267
3 323 267 317
3 264 268 324
3 264 324 318
3 265 266 322
3 265 322 321
3 265 321 269
3 325 269 321
3 266 267 323
3 266 323 322
3 268 270 326
3 268 326 324
3 269 325 271
3 327 271 325
3 270 272 326
3 328 326 272
3 271 327 329
3 271 329 273
3 272 274 328
3 330 328 274
3 273 329 333
3 273 333 277
3 274 278 330
3 334 330 278
3 275 276 331
3 332 331 276
3 275 331 335
3 275 335 279
3 276 277 332
3 333 332 277
3 278 280 334
3 336 334 280
3 279 335 338
3 279 338 282
3 280 281 336
3 337 336 281
3 281 282 338
3 281 338 337
3 283 339 284
3 340 284 339
3 283 288 344
3 283 344 339
3 284 340 285
3 341 285 340
3 285 341 286
3 342 286 341
3 286 342 287
3 343 287 342
3 287 343 289
3 345 289 343
3 288 292 348
3 288 348 344
3 289 345 295
3 349 295 345
3 290 346 291
3 347 291 346
3 290 296 346
3 350 346 296
3 291 347 292
3 348 292 347
3 293 294 297
3 298 297 294
3 294 295 298
3 299 298 295
3 295 349 351
3 295 351 299
3 296 300 350
3 352 350 300
3 297 298 301
3 302 301 298
3 298 299 302
3 303 302 299
3 299 351 355
3 299 355 303
3 300 304 352
3 356 352 304
3 301 302 353
3 354 353 302
3 301 353 357
3 301 357 305
3 302 303 355
3 302 355 354
3 304 308 358
3 304 358 356
3 305 357 361
3 305 361 311
3 306 312 313
3 306 313 307
3 307 313 314
3 307 314 308
3 308 314 362
3 308 362 358
3 309 315 316
3 309 316 310
3 309 310 360
3 309 360 359
3 309 359 315
3 363 315 359
3 310 316 311
3 317 311 316
3 310 311 361
3 310 361 360
3 312 318 313
3 319 313 318
3 313 319 314
3 320 314 319
3 314 320 362
3 366 362 320
3 315 321 316
3 322 316 321
3 315 363 321
3 367 321 363
3 316 322 317
3 323 317 322
3 318 364 319
3 365 319 364
3 318 324 364
3 368 364 324
3 319 365 320
3 366 320 365
3 321 367 369
3 321 369 325
3 324 326 370
3 324 370 368
3 325 369 371
3 325 371 327
3 326 328 372
3 326 372 370
3 327 371 373
3 327 373 329
3 328 330 374
3 328 374 372
3 329 373 377
3 329 377 333
3 330 334 378
3 330 378 374
3 331 332 376
3 331 376 375
3 331 375 379
3 331 379 335
3 332 333 377
3 332 377 376
3 334 336 380
3 334 380 378
3 335 379 338
3 382 338 379
3 336 337 380
3 381 380 337
3 337 338 381
3 382 381 338
3 339 389 340
3 390 340 389
3 339 344 389
3 396 389 344
3 340 390 341
3 391 341 390
3 341 391 342
3 392 342 391
3 342 392 393
3 342 393 343
3 343 393 397
3 343 397 345
3 344 348 396
3 402 396 348
3 345 397 405
3 345 405 349
3 346 400 401
3 346 401 347
3 346 350 408
3 346 408 400
3 347 401 402
3 347 402 348
3 349 405 413
3 349 413 351
3 350 352 414
3 350 414 408
3 351 413 355
3 419 355 413
3 352 356 420
3 352 420 414
3 353 354 418
3 353 418 417
3 353 417 357
3 421 357 417
3 354 355 419
3 354 419 418
3 356 358 422
3 356 422 420
3 357 421 361
3 425 361 421
3 358 362 422
3 426 422 362
3 359 360 423
3 424 423 360
3 359 423 427
3 359 427 363
3 360 361 424
3 425 424 361
3 362 366 426
3 430 426 366
3 363 427 431
3 363 431 367
3 364 428 429
3 364 429 365
3 364 368 428
3 432 428 368
3 365 429 430
3 365 430 366
3 367 431 433
3 367 433 369
3 368 370 432
3 434 432 370
3 369 433 435
3 369 435 371
3 370 372 436
3 370 436 434
3 371 435 373
3 437 373 435
3 372 374 438
3 372 438 436
3 373 437 377
3 441 377 437
3 374 378 442
3 374 442 438
3 375 376 440
3 375 440 439
3 375 439 379
3 443 379 439
3 376 377 441
3 376 441 440
3 378 380 444
3 378 444 442
3 379 443 382
3 446 382 443
3 380 381 445
3 380 445 444
3 381 382 446
3 381 446 445
3 383 384 386
3 387 386 384
3 383 447 448
3 383 448 384
3 383 386 447
3 450 447 386
3 384 385 387
3 388 387 385
3 384 448 449
3 384 449 385
3 385 449 451
3 385 451 388
3 386 387 391
3 392 391 387
3 386 391 450
3 456 450 391
3 387 388 392
3 393 392 388
3 388 451 457
3 388 457 393
3 389 454 455
3 389 455 390
3 389 396 454
3 460 454 396
3 390 455 456
3 390 456 391
3 393 394 397
3 398 397 394
3 393 457 458
3 393 458 394
3 394 395 399
3 394 399 398
3 394 458 459
3 394 459 395
3 395 459 461
3 395 461 399
3 396 402 462
3 396 462 460
3 397 398 406
3 397 406 405
3 398 399 407
3 398 407 406
3 399 461 407
3 467 407 461
3 400 408 409
3 400 409 401
3 401 409 410
3 401 410 402
3 402 410 462
3 468 462 410
3 403 411 404
3 412 404 411
3 403 404 464
3 403 464 463
3 403 463 411
3 469 411 463
3 404 412 405
3 413 405 412
3 404 405 465
3 404 465 464
3 405 406 466
3 405 466 465
3 406 407 466
3 467 466 407
3 408 414 409
3 415 409 414
3 409 415 410
3 416 410 415
3 410 416 468
3 472 468 416
3 411 417 412
3 418 412 417
3 411 469 417
3 473 417 469
3 412 418 413
3 419 413 418
3 414 470 471
3 414 471 415
3 414 420 470
3 474 470 420
3 415 471 472
3 415 472 416
3 417 473 475
3 417 475 421
3 420 422 476
3 420 476 474
3 421 475 479
3 421 479 425
3 422 426 480
3 422 480 476
3 423 424 478
3 423 478 477
3 423 477 481
3 423 481 427
3 424 425 479
3 424 479 478
3 426 430 484
3 426 484 480
3 427 481 431
3 485 431 481
3 428 482 429
3 483 429 482
3 428 432 486
3 428 486 482
3 429 483 430
3 484 430 483
3 431 485 433
3 487 433 485
3 432 434 486
3 488 486 434
3 433 487 435
3 489 435 487
3 434 436 488
3 490 488 436
3 435 489 437
3 491 437 489
3 436 438 490
3 492 490 438
3 437 491 441
3 495 441 491
3 438 442 492
3 496 492 442
3 439 440 493
3 494 493 440
3 439 493 443
3 497 443 493
3 440 441 494
3 495 494 441
3 442 444 496
3 498 496 444
3 443 497 500
3 443 500 446
3 444 445 499
3 444 499 498
3 445 446 500
3 445 500 499
3 447 501 502
3 447 502 448
3 447 450 506
3 447 506 501
3 448 502 503
3 448 503 449
3 449 503 507
3 449 507 451
3 450 456 512
3 450 512 506
3 451 452 458
3 451 458 457
3 451 507 508
3 451 508 452
3 452 453 459
3 452 459 458
3 452 508 509
3 452 509 453
3 453 509 459
3 515 459 509
3 454 510 455
3 511 455 510
3 454 460 516
3 454 516 510
3 455 511 456
3 512 456 511
3 459 515 461
3 519 461 515
3 460 462 516
3 520 516 462
3 461 519 467
3 525 467 519
3 462 468 520
3 526 520 468
3 463 464 521
3 522 521 464
3 463 521 469
3 527 469 521
3 464 465 522
3 523 522 465
3 465 466 523
3 524 523 466
3 466 467 524
3 525 524 467
3 468 472 526
3 530 526 472
3 469 527 531
3 469 531 473
3 470 528 529
3 470 529 471
3 470 474 532
3 470 532 528
3 471 529 530
3 471 530 472
3 473 531 535
3 473 535 475
3 474 476 536
3 474 536 532
3 475 535 540
3 475 540 479
3 476 480 541
3 476 541 536
3 477 478 539
3 477 539 538
3 477 538 542
3 477 542 481
3 478 479 540
3 478 540 539
3 480 484 545
3 480 545 541
3 481 542 485
3 546 485 542
3 482 543 483
3 544 483 543
3 482 486 543
3 547 543 486
3 483 544 484
3 545 484 544
3 485 546 487
3 550 487 546
3 486 488 547
3 551 547 488
3 487 550 489
3 554 489 550
3 488 490 551
3 555 551 490
3 489 554 558
3 489 558 491
3 490 492 555
3 559 555 492
3 491 558 563
3 491 563 495
3 492 496 559
3 564 559 496
3 493 494 561
3 562 561 494
3 493 561 565
3 493 565 497
3 494 495 562
3 563 562 495
3 496 498 564
3 566 564 498
3 497 565 568
3 497 568 500
3 498 499 567
3 498 567 566
3 499 500 568
3 499 568 567
3 501 569 570
3 501 570 502
3 501 506 574
3 501 574 569
3 502 570 503
3 571 503 570
3 503 504 508
3 503 508 507
3 503 571 504
3 572 504 571
3 504 505 509
3 504 509 508
3 504 572 505
3 573 505 572
3 505 573 509
3 575 509 573
3 506 512 578
3 506 578 574
3 509 575 515
3 581 515 575
3 510 576 511
3 577 511 576
3 510 516 576
3 582 576 516
3 511 577 512
3 578 512 577
3 513 517 514
3 518 514 517
3 513 514 579
3 580 579 514
3 513 579 517
3 583 517 579
3 514 518 515
3 519 515 518
3 514 515 580
3 581 580 515
3 516 520 582
3 584 582 520
3 517 523 518
3 524 518 523
3 517 583 587
3 517 587 523
3 518 524 519
3 525 519 524
3 520 526 584
3 588 584 526
3 521 522 585
3 586 585 522
3 521 585 589
3 521 589 527
3 522 523 586
3 587 586 523
3 526 530 590
3 526 590 588
3 527 589 591
3 527 591 531
3 528 532 533
3 528 533 529
3 529 533 534
3 529 534 530
3 530 534 593
3 530 593 590
3 531 591 594
3 531 594 535
3 532 536 537
3 532 537 533
3 533 592 593
3 533 593 534
3 533 537 596
3 533 596 592
3 535 594 599
3 535 599 540
3 536 595 537
3 596 537 595
3 536 541 600
3 536 600 595
3 538 539 598
3 538 598 597
3 538 597 542
3 601 542 597
3 539 540 599
3 539 599 598
3 541 545 600
3 602 600 545
3 542 601 546
3 603 546 601
3 543 547 544
3 548 544 547
3 544 548 545
3 549 545 548
3 545 549 602
3 604 602 549
3 546 603 550
3 605 550 603
3 547 551 548
3 552 548 551
3 548 552 549
3 553 549 552
3 549 553 604
3 606 604 553
3 550 605 554
3 607 554 605
3 551 555 552
3 556 552 555
3 552 556 553
3 557 553 556
3 553 557 609
3 553 609 606
3 554 607 610
3 554 610 558
3 555 559 560
3 555 560 556
3 556 608 609
3 556 609 557
3 556 560 612
3 556 612 608
3 558 610 615
3 558 615 563
3 559 611 612
3 559 612 560
3 559 564 616
3 559 616 611
3 561 562 614
3 561 614 613
3 561 613 617
3 561 617 565
3 562 563 615
3 562 615 614
3 564 566 618
3 564 618 616
3 565 617 620
3 565 620 568
3 566 567 619
3 566 619 618
3 567 568 620
3 567 620 619
3 569 621 570
3 622 570 621
3 569 574 621
3 626 621 574
3 570 622 571
3 623 571 622
3 571 623 572
3 624 572 623
3 572 624 573
3 625 573 624
3 573 625 575
3 627 575 625
3 574 578 626
3 630 626 578
3 575 627 581
3 633 581 627
3 576 628 577
3 629 577 628
3 576 582 628
3 634 628 582
3 577 629 578
3 630 578 629
3 579 580 631
3 632 631 580
3 579 631 583
3 637 583 631
3 580 581 632
3 633 632 581
3 582 584 634
3 638 634 584
3 583 637 587
3 642 587 637
3 584 588 643
3 584 643 638
3 585 586 641
3 585 641 640
3 585 640 645
3 585 645 589
3 586 587 642
3 586 642 641
3 588 590 646
3 588 646 643
3 589 645 648
3 589 648 591
3 590 593 650
3 590 650 646
3 591 648 652
3 591 652 594
3 592 649 650
3 592 650 593
3 592 596 654
3 592 654 649
3 594 652 657
3 594 657 599
3 595 653 654
3 595 654 596
3 595 600 658
3 595 658 653
3 597 598 656
3 597 656 655
3 597 655 601
3 660 601 655
3 598 599 657
3 598 657 656
3 600 602 658
3 661 658 602
3 601 660 603
3 663 603 660
3 602 604 661
3 664 661 604
3 603 663 605
3 666 605 663
3 604 606 664
3 667 664 606
3 605 666 607
3 669 607 666
3 606 609 667
3 671 667 609
3 607 669 610
3 673 610 669
3 608 670 609
3 671 609 670
3 608 612 670
3 675 670 612
3 610 673 678
3 610 678 615
3 611 674 675
3 611 675 612
3 611 616 679
3 611 679 674
3 613 614 676
3 677 676 614
3 613 676 681
3 613 681 617
3 614 615 678
3 614 678 677
3 616 618 682
3 616 682 679
3 617 681 684
3 617 684 620
3 618 619 683
3 618 683 682
3 619 620 684
3 619 684 683
3 621 685 686
3 621 686 622
3 621 626 690
3 621 690 685
3 622 686 687
3 622 687 623
3 623 687 688
3 623 688 624
3 624 688 625
3 689 625 688
3 625 689 627
3 691 627 689
3 626 630 692
3 626 692 690
3 627 691 633
3 695 633 691
3 628 634 629
3 635 629 634
3 629 635 630
3 636 630 635
3 630 636 692
3 696 692 636
3 631 632 693
3 694 693 632
3 631 693 637
3 697 637 693
3 632 633 694
3 695 694 633
3 634 638 635
3 639 635 638
3 635 639 636
3 640 636 639
3 636 640 696
3 698 696 640
3 637 697 642
3 700 642 697
3 638 643 639
3 644 639 643
3 639 644 640
3 645 640 644
3 640 641 698
3 699 698 641
3 641 642 699
3 700 699 642
3 643 646 647
3 643 647 644
3 644 647 648
3 644 648 645
3 646 650 651
3 646 651 647
3 647 651 652
3 647 652 648
3 649 654 655
3 649 655 650
3 650 655 656
3 650 656 651
3 651 656 657
3 651 657 652
3 653 658 659
3 653 659 654
3 654 659 660
3 654 660 655
3 658 661 662
3 658 662 659
3 659 662 660
3 663 660 662
3 661 664 662
3 665 662 664
3 662 665 663
3 666 663 665
3 664 667 665
3 668 665 667
3 665 668 666
3 669 666 668
3 667 671 668
3 672 668 671
3 668 672 669
3 673 669 672
3 670 675 671
3 676 671 675
3 671 676 672
3 677 672 676
3 672 677 673
3 678 673 677
3 674 679 680
3 674 680 675
3 675 680 681
3 675 681 676
3 679 682 683
3 679 683 680
3 680 683 684
3 680 684 681
3 685 701 686
3 702 686 701
3 685 690 706
3 685 706 701
3 686 702 687
3 703 687 702
3 687 703 688
3 704 688 703
3 688 704 689
3 705 689 704
3 689 705 691
3 709 691 705
3 690 692 710
3 690 710 706
3 691 709 695
3 714 695 709
3 692 696 710
3 715 710 696
3 693 694 712
3 713 712 694
3 693 712 697
3 716 697 712
3 694 695 713
3 714 713 695
3 696 698 715
3 717 715 698
3 697 716 700
3 719 700 716
3 698 699 717
3 718 717 699
3 699 700 718
3 719 718 700
3 701 706 702
3 707 702 706
3 702 707 703
3 708 703 707
3 703 720 721
3 703 721 704
3 703 708 720
3 724 720 708
3 704 721 722
3 704 722 705
3 705 722 725
3 705 725 709
3 706 710 707
3 711 707 710
3 707 723 724
3 707 724 708
3 707 711 727
3 707 727 723
3 709 725 730
3 709 730 714
3 710 726 727
3 710 727 711
3 710 715 731
3 710 731 726
3 712 713 729
3 712 729 728
3 712 728 732
3 712 732 716
3 713 714 730
3 713 730 729
3 715 717 733
3 715 733 731
3 716 732 735
3 716 735 719
3 717 718 734
3 717 734 733
3 718 719 735
3 718 735 734
3 720 736 721
3 737 721 736
3 720 724 740
3 720 740 736
3 721 737 722
3 738 722 737
3 722 738 725
3 742 725 738
3 723 739 724
3 740 724 739
3 723 727 739
3 744 739 727
3 725 742 730
3 747 730 742
3 726 743 727
3 744 727 743
3 726 731 743
3 748 743 731
3 728 729 745
3 746 745 729
3 728 745 732
3 750 732 745
3 729 730 746
3 747 746 730
3 731 733 748
3 751 748 733
3 732 750 753
3 732 753 735
3 733 734 751
3 752 751 734
3 734 735 752
3 753 752 735
3 736 740 737
3 741 737 740
3 737 741 738
3 742 738 741
3 739 744 745
3 739 745 740
3 740 745 746
3 740 746 741
3 741 746 747
3 741 747 742
3 743 748 749
3 743 749 744
3 744 749 750
3 744 750 745
3 748 751 752
3 748 752 749
3 749 752 753
3 749 753 750
