ply
format ascii 1.0
element vertex 506
property float x
property float y
property float z
property uchar red
property uchar green
property uchar blue
element face 1008
property list uchar int vertex_index
end_header
19.7917 -11.4243 19.7921 0 0 143
19.5741 -11.4378 19.8154 0 0 187
19.3787 -11.3664 19.7958 0 0 128
19.8147 -11.4377 19.5743 0 0 164
19.5623 -11.5041 19.5624 0 0 146
19.3527 -11.3861 19.5813 0 0 151
19.7947 -11.3663 19.379 0 0 128
19.5809 -11.386 19.3529 0 0 169
19.39 -11.3395 19.3902 0 0 145
19.9815 -11.1259 19.9834 0 51 255
19.6404 -11.1081 20.0948 0 108 255
19.3371 -11.0008 19.9903 0 62 255
20.0912 -11.1076 19.6414 0 0 225
19.2494 -10.9808 19.6573 0 0 216
19.9849 -11.0004 19.3383 0 56 255
19.6551 -10.9807 19.2501 0 72 255
19.3652 -10.9678 19.3659 0 3 255
21.4815 -9.48372 21.5108 0 0 174
21.0857 -9.60807 21.631 0 127 255
20.4819 -9.69504 21.7134 4 255 251
19.8797 -9.6962 21.7089 58 255 197
19.477 -9.60254 21.6187 0 14 255
21.5736 -9.60622 21.0975 0 188 255
21.0987 -9.93735 21.1187 0 161 255
20.4588 -10.1423 21.1356 62 255 193
19.8378 -10.1219 21.1698 0 194 255
19.3661 -9.84768 21.1429 0 213 255
21.6131 -9.68826 20.4919 0 219 255
21.1012 -10.1385 20.4662 120 255 135
20.3785 -10.5707 20.3871 130 255 125
19.7575 -10.5755 20.5353 0 200 255
19.2718 -10.2629 20.4016 228 255 27
21.5829 -9.67791 19.896 0 193 255
21.1203 -10.1143 19.8453 0 234 255
20.5198 -10.5732 19.7612 39 255 216
19.1679 -10.2837 19.7872 0 186 255
21.4813 -9.59385 19.501 0 0 182
21.0677 -9.84311 19.3818 0 160 255
20.3758 -10.2615 19.2783 174 255 81
19.7783 -10.2834 19.1708 0 198 255
19.357 -10.2866 19.3599 4 255 251
21.5929 -9.03576 21.6442 0 139 255
21.1216 -9.06447 21.9737 24 255 231
20.479 -9.09097 22.1729 118 255 137
19.8369 -9.13699 22.1378 0 241 255
19.3466 -9.09637 21.8657 129 255 126
21.8392 -9.06728 21.1356 0 238 255
19.0942 -9.20563 21.2579 198 255 57
21.9188 -9.09566 20.5024 98 255 157
18.9994 -9.3616 20.5194 116 255 139
21.8395 -9.09817 19.8793 0 170 255
19.0489 -9.41173 19.8424 105 255 150
21.5854 -9.10221 19.4038 0 145 255
21.1044 -9.20922 19.136 53 255 202
20.4557 -9.36248 19.0205 140 255 115
19.8207 -9.41184 19.0578 92 255 163
19.3271 -9.42263 19.3349 105 255 150
19.8551 -7.54225 23.5153 0 17 255
19.577 -7.58074 23.5134 0 0 240
19.3227 -7.53714 23.4272 0 0 206
20.0648 -7.78863 23.2151 0 127 255
19.64 -7.95425 23.1534 0 121 255
19.2541 -7.78168 23.0369 0 72 255
21.688 -8.31437 21.7692 71 255 184
21.179 -8.30606 22.2418 196 255 59
20.4549 -8.24724 22.6638 255 114 0
19.754 -8.44757 22.6091 82 255 173
19.1832 -8.24893 22.2882 255 96 0
21.9862 -8.32458 21.1818 211 255 44
18.9102 -8.36028 21.4173 255 207 0
22.0821 -8.33325 20.5103 36 255 219
18.8446 -8.43546 20.5947 255 233 0
21.9755 -8.33612 19.8569 0 251 255
18.9656 -8.46724 19.8675 196 255 59
21.6596 -8.34558 19.3356 137 255 118
21.1392 -8.38697 19.0126 130 255 125
20.485 -8.44181 18.8937 178 255 77
19.8302 -8.46845 18.9855 255 240 0
19.2988 -8.47529 19.3136 79 255 176
19.9464 -7.09013 23.6083 0 119 255
19.5726 -7.06605 23.6682 0 57 255
19.2463 -7.07602 23.4953 0 99 255
20.3238 -7.21708 23.3147 0 224 255
19.0292 -7.18644 23.0366 14 255 241
21.7734 -7.44758 21.8592 180 255 75
21.3157 -7.44453 22.3959 218 255 37
20.7729 -7.39043 22.8683 144 255 111
18.8771 -7.35616 22.3185 156 255 99
22.0665 -7.44533 21.2224 218 255 37
18.7482 -7.43457 21.4715 255 9 0
22.1601 -7.44499 20.5205 198 255 57
18.749 -7.47336 20.6269 255 177 0
22.0387 -7.4453 19.8457 255 251 0
18.9173 -7.48919 19.8773 255 144 0
21.6974 -7.44937 19.3021 52 255 203
21.1579 -7.463 18.9587 183 255 72
20.4954 -7.48058 18.8393 210 255 45
19.8306 -7.49064 18.9515 106 255 149
19.2812 -7.49333 19.3023 206 255 49
20.0601 -6.37452 23.6818 0 163 255
19.6059 -6.33758 23.7508 0 189 255
19.2076 -6.33907 23.5455 0 214 255
20.5031 -6.47141 23.3907 85 255 170
18.9197 -6.38023 23.0553 255 193 0
21.8355 -6.5183 21.9491 255 62 0
21.4198 -6.56034 22.5082 136 255 119
20.9509 -6.55774 22.9778 0 168 255
18.7418 -6.4394 22.3342 255 181 0
22.1113 -6.49604 21.272 35 255 220
18.6595 -6.47416 21.4897 110 255 145
22.1955 -6.48807 20.5394 255 248 0
18.6996 -6.49065 20.6382 255 145 0
22.0646 -6.48589 19.8462 255 176 0
18.8942 -6.49696 19.8807 255 211 0
21.7128 -6.48656 19.2905 255 217 0
21.1653 -6.49016 18.9394 213 255 42
20.4986 -6.4949 18.8199 228 255 27
19.8298 -6.49781 18.9389 219 255 36
19.2729 -6.49856 19.2979 235 255 20
20.2248 -5.51038 23.7425 106 255 149
19.6812 -5.45931 23.8075 55 255 200
19.2133 -5.45068 23.5816 0 252 255
20.6825 -5.68569 23.4483 43 255 212
18.8808 -5.46191 23.0718 92 255 163
21.8839 -5.5584 22.1008 233 255 22
21.4893 -5.71512 22.6548 155 255 100
21.0783 -5.79107 23.0724 107 255 148
18.6892 -5.47998 22.3426 255 63 0
22.1467 -5.51338 21.3535 255 54 0
18.6216 -5.49184 21.4957 238 0 0
22.2175 -5.5009 20.5732 255 212 0
18.679 -5.49737 20.6416 255 152 0
22.0768 -5.49774 19.8561 135 255 120
18.8853 -5.49932 19.8816 255 229 0
21.7187 -5.49729 19.2898 106 255 149
21.1677 -5.49796 18.9343 215 255 40
20.4994 -5.49898 18.8143 232 255 23
19.8294 -5.49962 18.9354 229 255 26
19.27 -5.49978 19.2967 231 255 24
21.5587 -3.75545 23.5344 0 22 255
21.1713 -4.01428 23.6967 34 255 221
20.5215 -4.48846 23.8117 255 211 0
19.7893 -4.48503 23.868 255 194 0
19.2439 -4.4859 23.6155 255 255 0
21.7381 -4.01609 23.1307 153 255 102
21.3613 -4.49783 23.3335 0 128 255
20.9392 -4.97351 23.4692 0 222 255
18.8763 -4.48977 23.0863 255 242 0
21.9295 -4.49918 22.4083 255 126 0
21.508 -4.98091 22.9042 12 255 243
21.1795 -5.23738 23.1625 0 5 255
18.6735 -4.49474 22.348 231 255 24
22.1946 -4.49945 21.4663 255 39 0
18.609 -4.49801 21.4978 255 249 0
22.2436 -4.49952 20.6151 255 142 0
18.6723 -4.49944 20.6424 255 127 0
22.0877 -4.49952 19.8697 255 112 0
18.8826 -4.49989 19.8818 255 199 0
21.7224 -4.49955 19.2928 255 180 0
21.1688 -4.49967 18.9339 227 255 28
20.4997 -4.49985 18.8132 235 255 20
19.8293 -4.49996 18.9346 226 255 29
19.2692 -4.49998 19.2964 244 255 11
21.629 -3.18819 23.6034 0 235 255
21.1412 -3.27486 23.891 128 255 127
20.4939 -3.43437 24.0113 249 255 6
19.8159 -3.48001 23.9583 105 255 150
19.2598 -3.49301 23.6541 204 255 51
21.94 -3.27542 23.0925 67 255 188
18.8789 -3.49705 23.1004 145 255 110
22.1478 -3.43661 22.3584 128 0 0
18.6704 -3.49881 22.3523 255 159 0
22.2859 -3.48304 21.4892 255 92 0
18.6058 -3.49962 21.499 222 0 0
22.2804 -3.49589 20.6334 255 156 0
18.6706 -3.49992 20.6427 255 136 0
22.1007 -3.49911 19.8775 163 255 92
18.882 -3.49999 19.8819 255 98 0
21.7262 -3.49981 19.2951 231 255 24
21.1697 -3.49994 18.9342 116 255 139
20.4999 -3.49998 18.8131 235 255 20
19.8293 -3.5 18.9345 231 255 24
19.2691 -3.5 19.2964 233 255 22
21.684 -2.37999 23.6571 122 255 133
21.1514 -2.40794 23.9933 137 255 118
20.4936 -2.46107 24.1152 93 255 162
19.8246 -2.48703 24.0194 216 255 39
19.2662 -2.49627 23.682 215 255 40
22.0449 -2.40804 23.0998 255 163 0
18.8809 -2.49899 23.1105 255 113 0
22.2567 -2.46143 22.3523 232 255 23
18.6701 -2.49974 22.3552 255 139 0
22.3481 -2.48751 21.496 255 104 0
18.6052 -2.49994 21.4996 255 102 0
22.3081 -2.49674 20.64 255 140 0
18.6703 -2.49999 20.6428 255 8 0
22.1106 -2.49932 19.8807 180 255 75
18.8819 -2.5 19.8819 171 255 84
21.729 -2.49989 19.2961 241 255 14
21.1703 -2.49999 18.9344 255 175 0
20.5 -2.5 18.8131 236 255 19
19.8293 -2.5 18.9345 229 255 26
19.2691 -2.5 19.2964 239 255 16
21.7138 -1.46009 23.6866 197 255 58
21.1628 -1.46841 24.0405 186 255 69
20.4972 -1.48472 24.1624 255 187 0
19.8279 -1.49462 24.0496 220 255 35
19.2684 -1.49855 23.6963 232 255 23
22.0929 -1.46842 23.1104 158 255 97
18.8817 -1.49969 23.1157 255 215 0
22.305 -1.48476 22.3546 255 156 0
18.6702 -1.49995 22.3566 255 136 0
22.3788 -1.49467 21.4988 255 108 0
18.6051 -1.49999 21.4999 218 0 0
22.3224 -1.4986 20.6422 244 255 11
18.6702 -1.5 20.6429 236 255 19
22.1157 -1.49973 19.8816 255 87 0
18.8819 -1.5 19.8819 255 212 0
21.7304 -1.49996 19.2963 238 255 17
21.1706 -1.5 18.9345 229 255 26
20.5 -1.5 18.8131 236 255 19
19.8293 -1.5 18.9345 229 255 26
19.2691 -1.5 19.2964 239 255 16
21.7259 -0.489406 23.6986 222 255 33
21.1683 -0.491514 24.0582 217 255 38
20.4992 -0.495706 24.1799 230 255 25
19.829 -0.498492 24.0611 225 255 30
19.2689 -0.499625 23.7017 237 255 18
22.1108 -0.491513 23.1158 255 227 0
18.8819 -0.499938 23.1175 255 213 0
22.3227 -0.495706 22.3563 255 144 0
18.6702 -0.499994 22.357 251 0 0
22.3904 -0.498492 21.4997 255 244 0
18.6051 -0.5 21.5 255 240 0
22.3278 -0.499625 20.6428 253 0 0
18.6702 -0.5 20.6429 255 135 0
22.1175 -0.499938 19.8819 255 212 0
18.8819 -0.5 19.8819 255 212 0
21.7308 -0.499994 19.2964 239 255 16
21.1706 -0.5 18.9345 229 255 26
20.5 -0.5 18.8131 236 255 19
19.8293 -0.5 18.9345 255 173 0
19.2691 -0.5 19.2964 131 255 124
21.7288 0.499998 23.7015 230 255 25
21.1697 0.499986 24.0624 222 255 33
20.4997 0.499962 24.1839 232 255 23
19.8292 0.499948 24.0637 227 255 28
19.2691 0.499949 23.7029 238 255 17
22.115 0.5 23.1171 255 219 0
18.8819 0.499963 23.1179 255 212 0
22.3268 0.5 22.3568 255 139 0
18.6702 0.499985 22.3571 255 135 0
22.3931 0.5 21.4999 255 103 0
18.6051 0.499997 21.5 255 101 0
22.3291 0.5 20.6429 255 136 0
18.6702 0.5 20.6429 255 135 0
22.1179 0.5 19.8819 255 212 0
18.8819 0.5 19.8819 255 212 0
21.7309 0.5 19.2964 239 255 16
21.1707 0.5 18.9345 229 255 26
20.5 0.5 18.8131 236 255 19
19.8293 0.5 18.9345 229 255 26
19.2691 0.5 19.2964 239 255 16
21.7259 1.48937 23.6986 222 255 33
21.1683 1.49137 24.0582 215 255 40
20.4991 1.49536 24.1797 228 255 27
19.8291 1.49803 24.0609 224 255 31
19.2691 1.49917 23.7015 235 255 20
22.1108 1.49151 23.1158 255 224 0
18.8821 1.49961 23.1175 255 214 0
22.3227 1.49571 22.3563 230 255 25
18.6705 1.49984 22.357 255 136 0
22.3904 1.49849 21.4997 221 0 0
18.6053 1.49996 21.5 255 101 0
22.3278 1.49962 20.6428 255 136 0
18.6703 1.49999 20.6429 255 135 0
22.1175 1.49994 19.8819 255 212 0
18.8819 1.5 19.8819 255 212 0
21.7308 1.49999 19.2964 238 255 17
21.1706 1.5 18.9345 229 255 26
20.5 1.5 18.8131 236 255 19
19.8293 1.5 18.9345 229 255 26
19.2691 1.5 19.2964 239 255 16
21.7137 2.45982 23.6865 191 255 64
21.1626 2.46745 24.0401 189 255 66
20.4969 2.48253 24.1616 214 255 41
19.8281 2.49172 24.0486 215 255 40
19.2693 2.49571 23.6954 226 255 29
22.0928 2.46835 23.1104 255 245 0
18.8832 2.49762 23.1152 255 221 0
22.3049 2.48474 22.3546 255 11 0
18.6717 2.49892 22.3564 255 140 0
22.3788 2.49467 21.4987 255 244 0
18.6061 2.49964 21.4999 255 102 0
22.3224 2.4986 20.6422 255 138 0
18.6706 2.49992 20.6429 255 135 0
22.1157 2.49973 19.8816 255 214 0
18.882 2.49999 19.8819 255 212 0
21.7304 2.49996 19.2963 238 255 17
21.1706 2.5 18.9345 229 255 26
20.5 2.5 18.8131 236 255 19
19.8293 2.5 18.9345 121 255 134
19.2691 2.5 19.2964 255 163 0
21.6834 3.37858 23.6567 120 255 135
21.1502 3.40342 23.9919 133 255 122
20.4918 3.45065 24.1119 192 255 63
19.8253 3.47335 24.0149 198 255 57
19.2703 3.4829 23.6783 203 255 52
22.0443 3.40755 23.0996 222 255 33
18.8876 3.48915 23.1086 255 239 0
22.2558 3.46123 22.3521 255 155 0
18.677 3.49465 22.3543 222 255 33
22.3478 3.48747 21.4959 225 0 0
18.6098 3.498 21.4993 224 0 0
22.308 3.49674 20.64 232 255 23
18.6724 3.49944 20.6427 255 137 0
22.1105 3.49932 19.8807 255 217 0
18.8826 3.49989 19.8819 255 212 0
21.729 3.49989 19.2961 235 255 20
21.1703 3.49999 18.9344 228 255 27
20.5 3.5 18.8131 236 255 19
19.8294 3.5 18.9345 229 255 26
19.2692 3.49999 19.2964 239 255 16
21.6266 4.18324 23.6019 35 255 220
21.1361 4.25944 23.8865 0 254 255
20.4859 4.39532 23.9999 184 255 71
19.8177 4.4294 23.9431 178 255 77
19.2738 4.44358 23.6419 151 255 104
21.9368 4.27305 23.0915 165 255 90
18.9028 4.46051 23.0938 227 255 28
22.143 4.43539 22.3569 255 112 0
18.6955 4.47986 22.349 255 172 0
22.2839 4.4828 21.4886 255 94 0
18.623 4.49188 21.4972 255 118 0
22.2799 4.4959 20.6332 255 18 0
18.6792 4.4974 20.6418 255 141 0
22.1006 4.49916 19.8775 163 255 92
18.8853 4.49933 19.8816 255 215 0
21.7262 4.49986 19.295 231 255 24
21.1697 4.49998 18.9342 226 255 29
20.4999 4.49998 18.8131 235 255 20
19.8295 4.49995 18.9345 228 255 27
19.27 4.49984 19.2963 237 255 18
21.5516 4.74377 23.5308 0 0 200
21.1553 4.9782 23.6862 128 255 127
20.489 5.36787 23.7797 255 233 0
19.7923 5.33347 23.8252 6 255 249
19.2824 5.3379 23.5833 39 255 216
21.7257 5.00674 23.1264 70 255 185
21.3259 5.46376 23.3204 0 127 255
20.8589 5.87022 23.4362 0 202 255
18.9455 5.38052 23.0699 144 255 111
21.9077 5.49336 22.3998 239 0 0
21.4471 5.9556 22.8811 91 255 164
21.074 6.17486 23.1231 0 87 255
18.7489 5.44044 22.3388 255 208 0
22.1871 5.49873 21.4633 255 52 0
18.6609 5.4748 21.4909 242 255 13
22.2419 5.49982 20.6143 239 255 16
18.6996 5.49093 20.6385 255 19 0
22.0876 5.49998 19.8695 255 112 0
18.8942 5.49711 19.8803 255 222 0
21.7225 5.49999 19.2926 225 255 30
21.1689 5.49996 18.9338 224 255 31
20.4999 5.49984 18.8132 234 255 21
19.8303 5.4996 18.9346 226 255 29
19.2731 5.49903 19.2961 233 255 22
20.1494 6.15106 23.6598 0 69 255
19.6901 6.08393 23.7047 0 202 255
19.2994 6.08148 23.5144 0 145 255
20.5056 6.42222 23.3718 17 255 238
19.0487 6.19092 23.0447 0 248 255
21.8347 6.55259 22.0733 255 218 0
21.3716 6.68333 22.5948 92 255 163
20.8716 6.6871 22.9807 20 255 235
18.882 6.3629 22.3225 255 226 0
22.1312 6.51468 21.3439 255 137 0
18.7479 6.43835 21.4736 255 127 0
22.2149 6.50367 20.5705 255 71 0
18.7478 6.47522 20.6281 213 255 42
22.0777 6.50074 19.8552 244 255 11
18.917 6.49022 19.8758 255 228 0
21.7197 6.50002 19.289 110 255 145
21.1684 6.49964 18.9337 221 255 34
20.5005 6.49891 18.8142 231 255 24
19.8331 6.49759 18.9354 220 255 35
19.2821 6.49547 19.2952 255 184 0
19.9606 6.59532 23.5449 0 0 212
19.6402 6.6051 23.5321 0 12 255
19.3576 6.54722 23.4381 0 0 236
20.1488 6.89636 23.252 0 75 255
19.6768 7.00163 23.1712 0 147 255
19.2713 6.79807 23.0448 52 255 203
21.768 7.52539 21.8863 255 165 0
21.2336 7.53964 22.3644 255 254 0
20.5028 7.43822 22.735 255 135 0
19.769 7.53998 22.64 132 255 123
19.1849 7.28102 22.2994 255 95 0
22.0956 7.50947 21.2504 255 235 0
18.9042 7.37653 21.4256 227 255 28
22.1987 7.50238 20.5331 255 240 0
18.8385 7.44426 20.6013 255 217 0
22.0718 7.50007 19.8432 236 255 19
18.9643 7.47211 19.8644 237 255 18
21.7181 7.49918 19.2873 255 195 0
21.1686 7.4978 18.9366 218 255 37
20.5027 7.49458 18.8193 116 255 139
19.8407 7.48912 18.9393 203 255 52
19.303 7.48271 19.2936 180 255 75
21.7419 8.50493 21.7529 0 249 255
21.1978 8.50061 22.1213 255 154 0
20.5017 8.44984 22.2717 255 212 0
19.8276 8.32058 22.1924 101 255 154
19.3304 8.17897 21.8945 53 255 202
22.0798 8.50069 21.1882 215 255 40
19.0691 8.25604 21.2866 255 182 0
22.1905 8.49795 20.5096 235 255 20
18.9783 8.39436 20.5495 255 254 0
22.0682 8.49666 19.838 255 188 0
19.0462 8.42926 19.8418 161 255 94
21.7174 8.49501 19.2918 195 255 60
21.1703 8.49043 18.949 202 255 53
20.5082 8.47923 18.8372 255 206 0
19.8562 8.46035 18.9534 147 255 108
19.3423 8.44356 19.293 0 202 255
21.7465 9.48757 21.6581 248 255 7
21.2141 9.49074 21.9219 75 255 180
20.4838 9.4909 21.8742 255 82 0
19.8236 9.02487 21.8112 41 255 214
19.4339 8.75275 21.6758 0 30 255
22.075 9.48541 21.149 81 255 174
20.0844 9.9469 21.4379 0 193 255
19.6597 9.46884 21.3587 0 218 255
19.2938 8.98239 21.2251 43 255 212
22.1828 9.48442 20.4978 199 255 56
19.8672 10.1652 21.0721 0 69 255
19.558 9.86858 20.8696 15 255 240
19.2129 9.36844 20.5139 226 255 29
22.0625 9.48299 19.8411 84 255 171
19.1694 9.33355 19.8038 83 255 172
21.7165 9.47897 19.3089 167 255 88
21.1753 9.46718 18.9845 171 255 84
20.5193 9.43667 18.8886 177 255 78
19.8811 9.37943 18.9944 112 255 143
19.4026 9.33773 19.298 120 255 135
21.7745 10.4405 21.5983 105 255 150
21.3248 10.4529 21.8069 63 255 192
20.7986 10.4942 21.7078 77 255 178
22.0664 10.4389 21.1251 209 255 46
20.3715 10.6313 21.3286 0 157 255
22.1622 10.439 20.4946 147 255 108
20.014 10.651 20.8619 0 221 255
19.6274 10.41 20.5068 0 138 255
19.3388 10.1479 20.1549 0 150 255
22.0456 10.4363 19.8548 120 255 135
19.2919 10.0826 19.6953 0 133 255
21.7137 10.4284 19.348 98 255 157
21.1887 10.4075 19.0641 39 255 216
20.5396 10.3459 19.0142 134 255 121
19.9092 10.1858 19.0938 5 255 250
19.4727 10.0802 19.3126 0 141 255
21.7815 11.3037 21.5492 0 95 255
21.4104 11.3114 21.7211 0 149 255
20.9937 11.3319 21.5908 0 213 255
22.0255 11.3085 21.1054 0 243 255
20.6197 11.3677 21.1662 143 255 112
22.1049 11.3118 20.4959 52 255 203
20.2658 11.3182 20.495 172 255 83
19.7482 10.8656 20.1502 0 152 255
19.4549 10.5867 19.9628 0 0 239
22.0015 11.3067 19.8797 89 255 166
20.33 11.45 19.8028 67 255 188
19.8172 10.9766 19.6905 0 50 255
19.464 10.5991 19.6453 0 0 222
21.7079 11.2945 19.4136 0 231 255
21.2284 11.2759 19.2024 110 255 145
20.5818 11.2187 19.2932 76 255 179
19.9187 10.7821 19.3063 0 134 255
19.55 10.543 19.3695 0 0 189
21.75 11.9895 21.4884 0 49 255
21.4608 11.9974 21.6217 0 10 255
21.1476 12.0016 21.5014 0 39 255
21.9258 12.0115 21.0812 0 145 255
20.9034 12.0351 21.097 0 135 255
21.9821 12.0227 20.4979 0 135 255
20.7407 12.0466 20.4932 0 254 255
21.9076 12.0115 19.9112 0 79 255
20.7683 12.0629 19.8805 0 209 255
21.6982 11.9876 19.4932 0 72 255
21.3482 11.9899 19.3437 0 56 255
20.9611 11.9873 19.4538 0 215 255
21.6902 12.3791 21.4065 0 0 156
21.4814 12.4237 21.4485 0 0 188
21.2603 12.3846 21.4107 0 0 195
21.7494 12.4537 21.0558 0 0 244
21.4773 12.589 21.0601 0 0 228
21.177 12.4628 21.0592 0 48 255
21.7699 12.482 20.4988 0 131 255
21.4638 12.6373 20.4981 0 24 255
21.1131 12.4948 20.4961 0 60 255
21.7341 12.4555 19.94 0 0 251
21.4487 12.594 19.9338 0 0 239
21.1165 12.4749 19.9292 0 35 255
21.6567 12.3807 19.5843 0 0 165
21.4225 12.4264 19.5373 0 0 206
21.1658 12.3887 19.5693 0 0 167
3 0 1 3
3 4 3 1
3 0 9 1
3 10 1 9
3 0 3 12
3 0 12 9
3 1 2 4
3 5 4 2
3 1 10 11
3 1 11 2
3 2 11 5
3 13 5 11
3 3 4 6
3 7 6 4
3 3 6 14
3 3 14 12
3 4 5 8
3 4 8 7
3 5 13 8
3 16 8 13
3 6 7 14
3 15 14 7
3 7 8 16
3 7 16 15
3 9 29 10
3 30 10 29
3 9 12 34
3 9 34 29
3 10 30 31
3 10 31 11
3 11 31 35
3 11 35 13
3 12 14 34
3 38 34 14
3 13 35 16
3 40 16 35
3 14 15 38
3 39 38 15
3 15 16 40
3 15 40 39
3 17 18 22
3 23 22 18
3 17 41 18
3 42 18 41
3 17 22 41
3 46 41 22
3 18 19 23
3 24 23 19
3 18 42 19
3 43 19 42
3 19 20 24
3 25 24 20
3 19 43 20
3 44 20 43
3 20 21 26
3 20 26 25
3 20 44 45
3 20 45 21
3 21 45 47
3 21 47 26
3 22 23 28
3 22 28 27
3 22 27 46
3 48 46 27
3 23 24 28
3 29 28 24
3 24 25 29
3 30 29 25
3 25 26 30
3 31 30 26
3 26 47 31
3 49 31 47
3 27 28 33
3 27 33 32
3 27 32 48
3 50 48 32
3 28 29 34
3 28 34 33
3 31 49 51
3 31 51 35
3 32 33 37
3 32 37 36
3 32 36 52
3 32 52 50
3 33 34 38
3 33 38 37
3 35 51 40
3 56 40 51
3 36 37 52
3 53 52 37
3 37 38 53
3 54 53 38
3 38 39 54
3 55 54 39
3 39 40 55
3 56 55 40
3 41 63 42
3 64 42 63
3 41 46 63
3 68 63 46
3 42 64 43
3 65 43 64
3 43 65 44
3 66 44 65
3 44 66 45
3 67 45 66
3 45 67 69
3 45 69 47
3 46 48 68
3 70 68 48
3 47 69 71
3 47 71 49
3 48 50 72
3 48 72 70
3 49 71 73
3 49 73 51
3 50 52 74
3 50 74 72
3 51 73 56
3 78 56 73
3 52 53 74
3 75 74 53
3 53 54 75
3 76 75 54
3 54 55 76
3 77 76 55
3 55 56 77
3 78 77 56
3 57 58 61
3 57 61 60
3 57 79 80
3 57 80 58
3 57 60 82
3 57 82 79
3 58 59 62
3 58 62 61
3 58 80 81
3 58 81 59
3 59 81 83
3 59 83 62
3 60 61 66
3 60 66 65
3 60 65 82
3 86 82 65
3 61 62 67
3 61 67 66
3 62 83 67
3 87 67 83
3 63 84 64
3 85 64 84
3 63 68 84
3 88 84 68
3 64 85 65
3 86 65 85
3 67 87 89
3 67 89 69
3 68 70 90
3 68 90 88
3 69 89 91
3 69 91 71
3 70 72 92
3 70 92 90
3 71 91 93
3 71 93 73
3 72 74 92
3 94 92 74
3 73 93 78
3 98 78 93
3 74 75 94
3 95 94 75
3 75 76 95
3 96 95 76
3 76 77 96
3 97 96 77
3 77 78 98
3 77 98 97
3 79 99 100
3 79 100 80
3 79 82 102
3 79 102 99
3 80 100 101
3 80 101 81
3 81 101 103
3 81 103 83
3 82 86 102
3 106 102 86
3 83 103 87
3 107 87 103
3 84 104 85
3 105 85 104
3 84 88 104
3 108 104 88
3 85 105 86
3 106 86 105
3 87 107 89
3 109 89 107
3 88 90 110
3 88 110 108
3 89 109 111
3 89 111 91
3 90 92 112
3 90 112 110
3 91 111 113
3 91 113 93
3 92 94 114
3 92 114 112
3 93 113 118
3 93 118 98
3 94 95 114
3 115 114 95
3 95 96 115
3 116 115 96
3 96 97 116
3 117 116 97
3 97 98 117
3 118 117 98
3 99 119 100
3 120 100 119
3 99 102 122
3 99 122 119
3 100 120 101
3 121 101 120
3 101 121 103
3 123 103 121
3 102 106 126
3 102 126 122
3 103 123 127
3 103 127 107
3 104 124 125
3 104 125 105
3 104 108 128
3 104 128 124
3 105 125 126
3 105 126 106
3 107 127 129
3 107 129 109
3 108 110 128
3 130 128 110
3 109 129 111
3 131 111 129
3 110 112 130
3 132 130 112
3 111 131 113
3 133 113 131
3 112 114 134
3 112 134 132
3 113 133 118
3 138 118 133
3 114 115 135
3 114 135 134
3 115 116 136
3 115 136 135
3 116 117 137
3 116 137 136
3 117 118 138
3 117 138 137
3 119 141 142
3 119 142 120
3 119 122 141
3 146 141 122
3 120 142 143
3 120 143 121
3 121 143 123
3 147 123 143
3 122 126 146
3 150 146 126
3 123 147 127
3 151 127 147
3 124 148 125
3 149 125 148
3 124 128 152
3 124 152 148
3 125 149 126
3 150 126 149
3 127 151 153
3 127 153 129
3 128 130 154
3 128 154 152
3 129 153 155
3 129 155 131
3 130 132 156
3 130 156 154
3 131 155 157
3 131 157 133
3 132 134 158
3 132 158 156
3 133 157 162
3 133 162 138
3 134 135 158
3 159 158 135
3 135 136 159
3 160 159 136
3 136 137 160
3 161 160 137
3 137 138 161
3 162 161 138
3 139 140 144
3 145 144 140
3 139 163 140
3 164 140 163
3 139 144 168
3 139 168 163
3 140 141 146
3 140 146 145
3 140 164 141
3 165 141 164
3 141 165 142
3 166 142 165
3 142 166 167
3 142 167 143
3 143 167 169
3 143 169 147
3 144 145 149
3 144 149 148
3 144 148 170
3 144 170 168
3 145 146 150
3 145 150 149
3 147 169 171
3 147 171 151
3 148 152 170
3 172 170 152
3 151 171 173
3 151 173 153
3 152 154 172
3 174 172 154
3 153 173 155
3 175 155 173
3 154 156 174
3 176 174 156
3 155 175 157
3 177 157 175
3 156 158 178
3 156 178 176
3 157 177 162
3 182 162 177
3 158 159 179
3 158 179 178
3 159 160 180
3 159 180 179
3 160 161 181
3 160 181 180
3 161 162 182
3 161 182 181
3 163 183 184
3 163 184 164
3 163 168 183
3 188 183 168
3 164 184 185
3 164 185 165
3 165 185 186
3 165 186 166
3 166 186 187
3 166 187 167
3 167 187 189
3 167 189 169
3 168 170 188
3 190 188 170
3 169 189 171
3 191 171 189
3 170 172 192
3 170 192 190
3 171 191 173
3 193 173 191
3 172 174 194
3 172 194 192
3 173 193 175
3 195 175 193
3 174 176 196
3 174 196 194
3 175 195 177
3 197 177 195
3 176 178 198
3 176 198 196
3 177 197 202
3 177 202 182
3 178 179 199
3 178 199 198
3 179 180 199
3 200 199 180
3 180 181 200
3 201 200 181
3 181 182 201
3 202 201 182
3 183 203 204
3 183 204 184
3 183 188 203
3 208 203 188
3 184 204 205
3 184 205 185
3 185 205 186
3 206 186 205
3 186 206 187
3 207 187 206
3 187 207 189
3 209 189 207
3 188 190 210
3 188 210 208
3 189 209 191
3 211 191 209
3 190 192 212
3 190 212 210
3 191 211 193
3 213 193 211
3 192 194 214
3 192 214 212
3 193 213 195
3 215 195 213
3 194 196 216
3 194 216 214
3 195 215 217
3 195 217 197
3 196 198 216
3 218 216 198
3 197 217 222
3 197 222 202
3 198 199 218
3 219 218 199
3 199 200 219
3 220 219 200
3 200 201 220
3 221 220 201
3 201 202 221
3 222 221 202
3 203 223 204
3 224 204 223
3 203 208 228
3 203 228 223
3 204 224 205
3 225 205 224
3 205 225 206
3 226 206 225
3 206 226 207
3 227 207 226
3 207 227 209
3 229 209 227
3 208 210 230
3 208 230 228
3 209 229 211
3 231 211 229
3 210 212 232
3 210 232 230
3 211 231 213
3 233 213 231
3 212 214 234
3 212 234 232
3 213 233 235
3 213 235 215
3 214 216 234
3 236 234 216
3 215 235 237
3 215 237 217
3 216 218 236
3 238 236 218
3 217 237 242
3 217 242 222
3 218 219 238
3 239 238 219
3 219 220 239
3 240 239 220
3 220 221 240
3 241 240 221
3 221 222 241
3 242 241 222
3 223 243 224
3 244 224 243
3 223 228 248
3 223 248 243
3 224 244 225
3 245 225 244
3 225 245 226
3 246 226 245
3 226 246 227
3 247 227 246
3 227 247 229
3 249 229 247
3 228 230 250
3 228 250 248
3 229 249 231
3 251 231 249
3 230 232 252
3 230 252 250
3 231 251 253
3 231 253 233
3 232 234 252
3 254 252 234
3 233 253 255
3 233 255 235
3 234 236 254
3 256 254 236
3 235 255 257
3 235 257 237
3 236 238 256
3 258 256 238
3 237 257 262
3 237 262 242
3 238 239 258
3 259 258 239
3 239 240 259
3 260 259 240
3 240 241 260
3 261 260 241
3 241 242 262
3 241 262 261
3 243 263 244
3 264 244 263
3 243 248 268
3 243 268 263
3 244 264 245
3 265 245 264
3 245 265 246
3 266 246 265
3 246 266 247
3 267 247 266
3 247 267 249
3 269 249 267
3 248 250 270
3 248 270 268
3 249 269 251
3 271 251 269
3 250 252 272
3 250 272 270
3 251 271 273
3 251 273 253
3 252 254 272
3 274 272 254
3 253 273 275
3 253 275 255
3 254 256 274
3 276 274 256
3 255 275 277
3 255 277 257
3 256 258 276
3 278 276 258
3 257 277 282
3 257 282 262
3 258 259 278
3 279 278 259
3 259 260 279
3 280 279 260
3 260 261 280
3 281 280 261
3 261 262 282
3 261 282 281
3 263 283 264
3 284 264 283
3 263 268 288
3 263 288 283
3 264 284 265
3 285 265 284
3 265 285 266
3 286 266 285
3 266 286 267
3 287 267 286
3 267 287 269
3 289 269 287
3 268 270 290
3 268 290 288
3 269 289 271
3 291 271 289
3 270 272 290
3 292 290 272
3 271 291 293
3 271 293 273
3 272 274 292
3 294 292 274
3 273 293 295
3 273 295 275
3 274 276 294
3 296 294 276
3 275 295 297
3 275 297 277
3 276 278 296
3 298 296 278
3 277 297 302
3 277 302 282
3 278 279 298
3 299 298 279
3 279 280 299
3 300 299 280
3 280 281 300
3 301 300 281
3 281 282 302
3 281 302 301
3 283 303 284
3 304 284 303
3 283 288 308
3 283 308 303
3 284 304 285
3 305 285 304
3 285 305 286
3 306 286 305
3 286 306 287
3 307 287 306
3 287 307 289
3 309 289 307
3 288 290 310
3 288 310 308
3 289 309 291
3 311 291 309
3 290 292 312
3 290 312 310
3 291 311 313
3 291 313 293
3 292 294 312
3 314 312 294
3 293 313 315
3 293 315 295
3 294 296 314
3 316 314 296
3 295 315 317
3 295 317 297
3 296 298 316
3 318 316 298
3 297 317 322
3 297 322 302
3 298 299 318
3 319 318 299
3 299 300 319
3 320 319 300
3 300 301 320
3 321 320 301
3 301 302 321
3 322 321 302
3 303 323 304
3 324 304 323
3 303 308 328
3 303 328 323
3 304 324 305
3 325 305 324
3 305 325 306
3 326 306 325
3 306 326 307
3 327 307 326
3 307 327 309
3 329 309 327
3 308 310 330
3 308 330 328
3 309 329 311
3 331 311 329
3 310 312 332
3 310 332 330
3 311 331 313
3 333 313 331
3 312 314 334
3 312 334 332
3 313 333 335
3 313 335 315
3 314 316 334
3 336 334 316
3 315 335 337
3 315 337 317
3 316 318 336
3 338 336 318
3 317 337 342
3 317 342 322
3 318 319 338
3 339 338 319
3 319 320 339
3 340 339 320
3 320 321 340
3 341 340 321
3 321 322 341
3 342 341 322
3 323 343 344
3 323 344 324
3 323 328 348
3 323 348 343
3 324 344 325
3 345 325 344
3 325 345 326
3 346 326 345
3 326 346 327
3 347 327 346
3 327 347 329
3 351 329 347
3 328 330 352
3 328 352 348
3 329 351 331
3 355 331 351
3 330 332 356
3 330 356 352
3 331 355 333
3 357 333 355
3 332 334 358
3 332 358 356
3 333 357 359
3 333 359 335
3 334 336 360
3 334 360 358
3 335 359 361
3 335 361 337
3 336 338 360
3 362 360 338
3 337 361 366
3 337 366 342
3 338 339 362
3 363 362 339
3 339 340 363
3 364 363 340
3 340 341 364
3 365 364 341
3 341 342 365
3 366 365 342
3 343 348 344
3 349 344 348
3 344 349 350
3 344 350 345
3 345 367 368
3 345 368 346
3 345 350 370
3 345 370 367
3 346 368 347
3 369 347 368
3 347 369 351
3 371 351 369
3 348 352 353
3 348 353 349
3 349 353 354
3 349 354 350
3 350 354 374
3 350 374 370
3 351 371 355
3 375 355 371
3 352 372 353
3 373 353 372
3 352 356 376
3 352 376 372
3 353 373 354
3 374 354 373
3 355 375 357
3 377 357 375
3 356 358 378
3 356 378 376
3 357 377 359
3 379 359 377
3 358 360 378
3 380 378 360
3 359 379 381
3 359 381 361
3 360 362 380
3 382 380 362
3 361 381 386
3 361 386 366
3 362 363 382
3 383 382 363
3 363 364 383
3 384 383 364
3 364 365 384
3 385 384 365
3 365 366 385
3 386 385 366
3 367 387 388
3 367 388 368
3 367 370 387
3 390 387 370
3 368 388 389
3 368 389 369
3 369 389 392
3 369 392 371
3 370 374 395
3 370 395 390
3 371 392 375
3 397 375 392
3 372 393 373
3 394 373 393
3 372 376 398
3 372 398 393
3 373 394 374
3 395 374 394
3 375 397 377
3 399 377 397
3 376 378 400
3 376 400 398
3 377 399 379
3 401 379 399
3 378 380 402
3 378 402 400
3 379 401 381
3 403 381 401
3 380 382 404
3 380 404 402
3 381 403 386
3 408 386 403
3 382 383 404
3 405 404 383
3 383 384 405
3 406 405 384
3 384 385 406
3 407 406 385
3 385 386 407
3 408 407 386
3 387 390 388
3 391 388 390
3 388 391 389
3 392 389 391
3 390 395 391
3 396 391 395
3 391 396 392
3 397 392 396
3 393 409 410
3 393 410 394
3 393 398 414
3 393 414 409
3 394 410 411
3 394 411 395
3 395 411 412
3 395 412 396
3 396 412 413
3 396 413 397
3 397 413 415
3 397 415 399
3 398 400 416
3 398 416 414
3 399 415 401
3 417 401 415
3 400 402 418
3 400 418 416
3 401 417 403
3 419 403 417
3 402 404 420
3 402 420 418
3 403 419 408
3 424 408 419
3 404 405 421
3 404 421 420
3 405 406 422
3 405 422 421
3 406 407 422
3 423 422 407
3 407 408 423
3 424 423 408
3 409 425 410
3 426 410 425
3 409 414 425
3 430 425 414
3 410 426 427
3 410 427 411
3 411 427 428
3 411 428 412
3 412 428 429
3 412 429 413
3 413 429 433
3 413 433 415
3 414 416 430
3 434 430 416
3 415 433 437
3 415 437 417
3 416 418 434
3 438 434 418
3 417 437 439
3 417 439 419
3 418 420 440
3 418 440 438
3 419 439 444
3 419 444 424
3 420 421 441
3 420 441 440
3 421 422 442
3 421 442 441
3 422 423 443
3 422 443 442
3 423 424 444
3 423 444 443
3 425 445 426
3 446 426 445
3 425 430 448
3 425 448 445
3 426 446 427
3 447 427 446
3 427 431 432
3 427 432 428
3 427 447 431
3 449 431 447
3 428 432 433
3 428 433 429
3 430 434 448
3 450 448 434
3 431 435 432
3 436 432 435
3 431 449 435
3 451 435 449
3 432 436 433
3 437 433 436
3 434 438 450
3 454 450 438
3 435 451 436
3 452 436 451
3 436 452 453
3 436 453 437
3 437 453 455
3 437 455 439
3 438 440 454
3 456 454 440
3 439 455 460
3 439 460 444
3 440 441 456
3 457 456 441
3 441 442 457
3 458 457 442
3 442 443 458
3 459 458 443
3 443 444 459
3 460 459 444
3 445 461 462
3 445 462 446
3 445 448 464
3 445 464 461
3 446 462 463
3 446 463 447
3 447 463 465
3 447 465 449
3 448 450 466
3 448 466 464
3 449 465 451
3 467 451 465
3 450 454 470
3 450 470 466
3 451 467 452
3 468 452 467
3 452 468 453
3 469 453 468
3 453 469 455
3 473 455 469
3 454 456 474
3 454 474 470
3 455 473 460
3 478 460 473
3 456 457 475
3 456 475 474
3 457 458 475
3 476 475 458
3 458 459 476
3 477 476 459
3 459 460 477
3 478 477 460
3 461 479 480
3 461 480 462
3 461 464 479
3 482 479 464
3 462 480 481
3 462 481 463
3 463 481 483
3 463 483 465
3 464 466 482
3 484 482 466
3 465 483 485
3 465 485 467
3 466 470 484
3 486 484 470
3 467 471 468
3 472 468 471
3 467 485 487
3 467 487 471
3 468 472 469
3 473 469 472
3 470 474 488
3 470 488 486
3 471 476 477
3 471 477 472
3 471 487 490
3 471 490 476
3 472 477 478
3 472 478 473
3 474 475 489
3 474 489 488
3 475 476 490
3 475 490 489
3 479 491 480
3 492 480 491
3 479 482 494
3 479 494 491
3 480 492 481
3 493 481 492
3 481 493 483
3 496 483 493
3 482 484 497
3 482 497 494
3 483 496 485
3 499 485 496
3 484 486 497
3 500 497 486
3 485 499 487
3 502 487 499
3 486 488 500
3 503 500 488
3 487 502 490
3 505 490 502
3 488 489 503
3 504 503 489
3 489 490 504
3 505 504 490
3 491 494 492
3 495 492 494
3 492 495 493
3 496 493 495
3 494 497 495
3 498 495 497
3 495 498 496
3 499 496 498
3 497 500 501
3 497 501 498
3 498 501 502
3 498 502 499
3 500 503 504
3 500 504 501
3 501 504 505
3 501 505 502
