ply
format ascii 1.0
element vertex 738
property float x
property float y
property float z
property uchar red
property uchar green
property uchar blue
element face 1472
property list uchar int vertex_index
end_header
-28.2516 -55.396 11.5576 0 0 218
-28.4793 -55.4455 11.5988 0 0 208
-28.7049 -55.3906 11.5577 0 0 168
-28.2089 -55.4627 11.129 0 32 255
-28.4953 -55.5963 11.1195 0 13 255
-28.778 -55.4603 11.1307 0 52 255
-28.1999 -55.4859 10.4998 0 71 255
-28.5076 -55.6382 10.5006 0 17 255
-28.8229 -55.4877 10.5028 0 23 255
-28.2396 -55.4599 9.87152 0 26 255
-28.5242 -55.5967 9.88184 0 0 225
-28.8276 -55.4645 9.87409 0 50 255
-28.3171 -55.3911 9.44562 0 0 169
-28.5539 -55.4456 9.40377 0 0 194
-28.8009 -55.3945 9.44397 0 0 250
-28.0994 -55.0078 11.8011 0 186 255
-28.4384 -55.0465 11.9709 0 73 255
-28.7836 -54.9912 11.8012 0 67 255
-27.9633 -55.0221 11.2249 0 98 255
-28.9976 -55.0144 11.2326 0 178 255
-27.9461 -55.0269 10.4984 75 255 180
-29.1027 -55.0338 10.5106 123 255 132
-28.0355 -55.0122 9.77549 0 119 255
-29.1138 -55.0301 9.78641 0 102 255
-28.253 -54.9922 9.21087 0 165 255
-28.6242 -55.0463 9.03997 0 86 255
-29.0065 -55.0007 9.20197 0 220 255
-26.4903 -53.3874 14.7384 0 0 208
-26.8116 -53.4689 14.7602 0 19 255
-27.2327 -53.482 14.7078 0 26 255
-26.4677 -53.4453 14.4132 0 0 217
-26.8678 -53.6263 14.3289 0 16 255
-27.49 -53.6704 14.2193 88 255 167
-28.1515 -53.6749 13.9509 0 116 255
-28.5663 -53.5929 13.7239 0 6 255
-26.4954 -53.4527 14.0555 0 0 233
-26.8424 -53.6215 13.8167 0 88 255
-27.469 -53.8661 13.3443 103 255 152
-28.19 -54.0056 13.2763 69 255 186
-28.6971 -53.8083 13.1656 142 255 113
-27.7765 -54.2883 12.2837 255 127 0
-28.3406 -54.4496 12.493 6 255 249
-28.8781 -54.2293 12.2797 255 193 0
-27.6938 -54.3181 11.37 149 255 106
-29.2011 -54.2968 11.3967 87 255 168
-27.7243 -54.3135 10.4931 110 255 145
-29.3714 -54.3342 10.5317 108 255 147
-27.8639 -54.2906 9.62705 255 132 0
-29.4489 -54.3516 9.66863 255 182 0
-28.1823 -54.2327 8.76621 248 255 7
-28.756 -54.4509 8.54904 33 255 222
-29.4682 -54.2496 8.71381 255 222 0
-30.1281 -53.7901 8.19728 0 86 255
-30.4841 -53.5369 7.94642 0 0 245
-28.3587 -53.8208 7.96343 0 70 255
-28.843 -54.0366 7.87364 0 183 255
-29.4769 -53.9869 7.83631 3 255 252
-30.0839 -53.7775 7.67528 0 192 255
-30.497 -53.5137 7.58289 0 0 194
-28.4979 -53.5909 7.50762 0 78 255
-28.8958 -53.6496 7.36579 0 145 255
-29.493 -53.6318 7.26242 0 166 255
-30.0773 -53.5522 7.21469 0 0 246
-30.4472 -53.4338 7.24906 0 16 255
-26.3646 -52.9998 14.9646 0 48 255
-26.8067 -53.0704 15.1479 37 255 218
-27.4454 -53.075 15.0361 39 255 216
-27.9899 -52.9005 14.8823 0 32 255
-26.2383 -53.0164 14.4538 0 255 255
-27.7387 -53.3799 14.5997 0 0 251
-28.2449 -53.1952 14.4287 52 255 203
-28.7096 -53.1279 13.93 0 163 255
-26.3383 -53.0781 13.8919 0 64 255
-26.6629 -53.2936 13.4573 0 216 255
-27.0546 -53.487 12.9813 0 242 255
-28.9905 -53.2063 13.2359 36 255 219
-27.2824 -53.5653 12.2527 116 255 139
-29.2111 -53.3577 12.3856 255 120 0
-27.3752 -53.4726 11.3993 255 60 0
-29.4471 -53.4294 11.4816 255 40 0
-27.5099 -53.4435 10.4759 255 195 0
-29.6549 -53.489 10.5699 173 255 82
-27.6711 -53.4178 9.56317 60 255 195
-29.7943 -53.6221 9.73474 58 255 197
-27.887 -53.3616 8.69168 255 248 0
-29.9539 -53.6279 9.0313 59 255 196
-30.332 -53.3836 8.54891 0 237 255
-30.6471 -53.1238 8.1108 0 189 255
-28.1129 -53.2208 7.92894 181 255 74
-30.7265 -53.0406 7.55155 0 178 255
-28.4047 -53.1355 7.39029 0 103 255
-28.8771 -53.1032 7.05549 0 217 255
-29.513 -53.075 6.83465 10 255 245
-30.133 -53.0815 6.83036 0 217 255
-30.5754 -53.0071 7.04805 0 28 255
-26.1529 -51.4369 18.4167 0 0 180
-26.4246 -51.457 18.4539 0 0 214
-26.6737 -51.403 18.4075 0 0 205
-26.0894 -51.5771 18.0168 0 37 255
-26.461 -51.6726 18.0231 0 21 255
-26.7845 -51.5118 18.0268 0 73 255
-26.053 -51.7208 17.333 71 255 184
-26.5071 -51.8438 17.3599 0 139 255
-26.9181 -51.641 17.3835 0 63 255
-26.0636 -51.9081 16.4699 166 255 89
-26.5936 -52.0741 16.5585 35 255 220
-27.115 -51.8466 16.597 43 255 212
-26.1191 -52.261 15.4431 255 235 0
-26.7272 -52.4689 15.729 38 255 217
-27.4681 -52.2475 15.6953 255 67 0
-28.2087 -52.2704 15.0733 189 255 66
-28.6468 -52.0101 14.7181 0 142 255
-26.0035 -52.2992 14.5012 255 207 0
-28.4777 -52.6448 14.5993 0 91 255
-28.8546 -52.3445 14.1822 255 170 0
-26.1486 -52.3419 13.576 255 148 0
-26.527 -52.8186 13.092 0 161 255
-26.8288 -53.0927 12.792 0 16 255
-29.178 -52.3847 13.3387 255 233 0
-26.228 -51.9695 12.8009 0 104 255
-26.5556 -52.4428 12.5322 0 211 255
-26.9243 -52.9085 12.2648 0 255 255
-29.4138 -52.4422 12.4613 83 255 172
-26.3303 -51.7405 12.3201 0 77 255
-26.6104 -51.9989 11.9934 0 244 255
-27.0378 -52.4707 11.4473 255 91 0
-29.6581 -52.4767 11.5455 255 129 0
-27.3337 -52.4776 10.4452 232 0 0
-29.9793 -52.4899 10.5535 128 0 0
-30.3998 -52.015 10.0206 59 255 196
-30.6734 -51.7503 9.69638 0 14 255
-27.547 -52.4714 9.52429 255 176 0
-30.1048 -52.9418 9.73501 0 230 255
-30.4536 -52.4618 9.47281 0 193 255
-30.7687 -51.9783 9.20849 87 255 168
-27.761 -52.4509 8.65015 255 253 0
-30.1848 -53.1559 9.2124 0 0 202
-30.4741 -52.8584 8.91199 0 255 255
-30.8296 -52.3562 8.43246 255 235 0
-28.0197 -52.4225 7.86972 75 255 180
-30.9278 -52.2943 7.53353 74 255 181
-28.343 -52.46 7.29838 54 255 201
-28.8291 -52.3538 6.85614 107 255 148
-29.5533 -52.2483 6.39301 252 255 3
-30.2287 -52.4314 6.39401 4 255 251
-30.7594 -52.2189 6.68621 255 240 0
-29.9502 -51.7844 5.82281 0 75 255
-30.357 -51.9499 5.85601 0 83 255
-30.73 -51.7752 5.95969 0 216 255
-30.1607 -51.5394 5.50779 0 0 151
-30.4287 -51.5796 5.49606 0 0 224
-30.6754 -51.536 5.57506 0 0 207
-25.937 -51.0476 18.5441 0 121 255
-26.3465 -51.0134 18.6639 0 53 255
-26.719 -51.0017 18.5078 0 63 255
-25.7086 -51.2061 18.0632 33 255 222
-26.9844 -51.0429 18.0694 0 70 255
-25.5983 -51.318 17.3452 0 236 255
-27.205 -51.1101 17.4237 76 255 179
-25.5703 -51.374 16.4737 216 255 39
-27.4584 -51.2128 16.685 255 249 0
-25.6022 -51.3938 15.4986 255 113 0
-27.8225 -51.3485 15.9489 249 255 6
-28.3243 -51.3735 15.3315 116 255 139
-28.7473 -51.3297 14.7915 72 255 183
-25.6848 -51.4093 14.526 255 243 0
-29.0515 -51.4157 14.1599 105 255 150
-25.8368 -51.3865 13.6251 255 196 0
-29.315 -51.4546 13.3748 165 255 90
-26.0105 -51.2566 12.8493 179 255 76
-29.5385 -51.4828 12.5255 255 72 0
-26.2428 -51.1823 12.2398 56 255 199
-26.5726 -51.2712 11.7206 117 255 138
-26.9483 -51.4308 11.1177 255 209 0
-29.7817 -51.4985 11.6792 255 184 0
-27.2568 -51.4777 10.329 189 255 66
-30.0835 -51.4804 10.9083 255 240 0
-30.4445 -51.3057 10.3236 0 221 255
-30.7619 -51.1994 9.7993 0 227 255
-27.498 -51.4874 9.48124 255 173 0
-30.9747 -51.2639 9.17303 62 255 193
-27.7369 -51.4825 8.6213 255 196 0
-31.1033 -51.3886 8.38874 248 255 7
-28.0553 -51.4732 7.76212 232 255 23
-28.3408 -51.1256 7.28195 0 157 255
-31.1588 -51.398 7.51823 255 229 0
-28.3124 -51.8169 7.26918 0 45 255
-28.6722 -51.4627 6.86764 205 255 50
-29.271 -51.3724 6.29144 171 255 84
-31.083 -51.3429 6.67374 178 255 77
-29.7302 -51.1958 5.77449 0 239 255
-30.9601 -51.1842 5.96345 0 184 255
-30.0978 -51.0818 5.43625 0 84 255
-30.4515 -51.0655 5.35163 0 22 255
-30.7601 -51.077 5.51205 0 80 255
-24.342 -49.6438 18.6362 0 76 255
-24.8018 -49.8938 18.7222 0 205 255
-25.5341 -50.2964 18.7487 255 247 0
-26.2226 -50.2999 18.8393 7 255 248
-26.7324 -50.304 18.605 0 225 255
-24.2285 -49.7379 18.1687 0 111 255
-24.7013 -50.185 18.1518 34 255 221
-25.2515 -50.6621 18.1324 0 220 255
-27.0932 -50.3208 18.1148 105 255 150
-24.1858 -49.7584 17.5057 59 255 196
-24.6322 -50.2708 17.4511 93 255 162
-25.1252 -50.7829 17.3878 0 239 255
-27.3685 -50.3487 17.4549 29 255 226
-24.2431 -49.7123 16.8357 0 218 255
-24.6295 -50.1879 16.7141 0 231 255
-25.0965 -50.7198 16.5333 156 255 99
-27.6456 -50.3901 16.7356 68 255 187
-24.3379 -49.6153 16.356 0 0 255
-24.6489 -49.8916 16.0715 8 255 247
-25.1354 -50.397 15.5455 138 0 0
-27.9952 -50.4374 16.0472 185 255 70
-28.4187 -50.454 15.4312 255 243 0
-28.8183 -50.4513 14.8366 146 255 109
-25.4235 -50.4474 14.5047 255 114 0
-29.1377 -50.4741 14.1694 200 255 55
-25.6477 -50.4436 13.6145 255 237 0
-29.3918 -50.4901 13.3949 255 111 0
-25.8802 -50.4018 12.8351 255 255 0
-29.6213 -50.5064 12.5627 255 194 0
-26.1726 -50.3783 12.1748 23 255 232
-26.5339 -50.4073 11.5878 116 255 139
-26.9095 -50.4605 10.9727 196 255 59
-29.8801 -50.5344 11.7505 129 255 126
-27.2288 -50.4861 10.2576 255 244 0
-30.1584 -50.6032 11.0854 0 234 255
-30.4957 -50.4841 10.5266 65 255 190
-30.8362 -50.4128 9.92043 107 255 148
-27.4868 -50.4927 9.46948 255 207 0
-31.0944 -50.4156 9.21366 162 255 93
-27.7384 -50.4873 8.66384 255 214 0
-31.2488 -50.4504 8.39569 255 131 0
-28.0435 -50.4672 7.90565 183 255 72
-28.3919 -50.4088 7.29694 83 255 172
-31.3 -50.4584 7.51775 255 115 0
-28.7464 -50.5547 6.79799 0 211 255
-29.1915 -50.4672 6.28892 111 255 144
-31.239 -50.4364 6.66857 179 255 76
-29.6446 -50.3975 5.76946 152 255 103
-31.0804 -50.3849 5.95314 11 255 244
-30.0628 -50.3562 5.40597 0 163 255
-30.4638 -50.3422 5.2955 0 107 255
-30.8189 -50.3479 5.4764 0 86 255
-24.0994 -49.1545 18.901 41 255 214
-24.7134 -49.2771 19.1664 81 255 174
-25.4643 -49.3669 19.2176 225 255 30
-26.1834 -49.4144 19.0639 255 217 0
-26.7439 -49.433 18.7045 100 255 155
-23.8312 -49.1783 18.2925 0 209 255
-27.1449 -49.4427 18.1533 132 255 123
-23.7871 -49.1288 17.5685 34 255 221
-27.4434 -49.4529 17.4695 255 229 0
-23.9569 -49.1108 16.8457 63 255 192
-27.7276 -49.4694 16.7465 203 255 52
-24.217 -49.1109 16.2501 0 207 255
-24.5758 -49.2278 15.7469 0 254 255
-24.9769 -49.4045 15.154 255 36 0
-28.0664 -49.4923 16.0652 85 255 170
-28.4609 -49.513 15.4506 63 255 192
-28.8442 -49.5216 14.8474 147 255 108
-25.2955 -49.4647 14.3704 255 214 0
-29.1622 -49.5212 14.1752 186 255 69
-25.5541 -49.4758 13.566 255 255 0
-29.4226 -49.5141 13.4049 255 249 0
-25.8159 -49.4661 12.8092 103 255 152
-29.6815 -49.5148 12.5697 255 61 0
-26.1349 -49.4597 12.1377 168 255 87
-26.5131 -49.4685 11.5305 63 255 192
-26.8956 -49.4851 10.9151 191 255 64
-30.0137 -49.5297 11.6978 255 160 0
-30.3167 -49.1964 11.1989 0 109 255
-27.223 -49.4947 10.2288 234 255 21
-30.2186 -49.9062 11.1726 0 140 255
-30.5146 -49.5924 10.7444 114 255 141
-30.8763 -49.5139 10.0623 231 255 24
-27.4926 -49.4965 9.47486 255 126 0
-31.1496 -49.4897 9.28137 151 255 104
-27.7595 -49.4917 8.70392 255 135 0
-31.311 -49.4899 8.42183 192 255 63
-28.0892 -49.4793 7.96829 242 255 13
-28.5193 -49.463 7.26379 212 255 43
-28.8584 -49.1128 6.85114 0 99 255
-31.3608 -49.491 7.52645 255 198 0
-28.7975 -49.8396 6.81336 0 97 255
-29.1533 -49.4825 6.40825 255 252 0
-31.2995 -49.488 6.67092 251 255 4
-29.6413 -49.4883 5.80674 3 255 252
-31.1273 -49.4834 5.95288 186 255 69
-30.0675 -49.5046 5.41494 0 152 255
-30.4767 -49.4938 5.29181 0 141 255
-30.8465 -49.4869 5.47225 0 244 255
-24.0193 -47.6007 20.5229 0 0 216
-24.4026 -47.614 20.5633 0 29 255
-24.7574 -47.5584 20.5371 0 2 255
-23.8512 -47.8802 20.1491 0 168 255
-24.4498 -48.0075 20.1977 0 190 255
-24.9812 -47.8199 20.2291 0 248 255
-22.5453 -47.6512 19.0622 0 5 255
-22.8966 -47.9401 19.1743 0 178 255
-23.634 -48.3423 19.3846 255 34 0
-24.5429 -48.5325 19.6484 201 255 54
-25.3967 -48.3425 19.6812 255 215 0
-26.1914 -48.4497 19.266 141 255 114
-26.7611 -48.484 18.7847 172 255 83
-22.5029 -47.716 18.6683 0 18 255
-22.8357 -48.057 18.5983 0 107 255
-23.3664 -48.5095 18.4871 236 255 19
-27.1646 -48.4922 18.1768 181 255 74
-22.5205 -47.7055 18.3344 0 0 172
-22.804 -47.9015 18.115 0 22 255
-23.3332 -48.2916 17.6751 255 218 0
-27.4645 -48.4947 17.4636 255 172 0
-23.7222 -48.3272 16.8365 168 255 87
-27.7466 -48.5049 16.7177 237 255 18
-24.1049 -48.3455 16.1721 108 255 147
-24.5136 -48.392 15.5923 139 255 116
-24.9122 -48.453 14.9846 91 255 164
-28.0784 -48.5332 16.0171 255 229 0
-28.4601 -48.5875 15.4067 103 255 152
-28.8263 -48.6165 14.8237 101 255 154
-25.2433 -48.4831 14.2815 255 157 0
-29.13 -48.5933 14.1709 187 255 68
-25.5167 -48.4917 13.5282 253 255 2
-29.3926 -48.5481 13.4132 157 255 98
-25.791 -48.4908 12.792 224 255 31
-29.675 -48.5277 12.598 179 255 76
-26.1214 -48.4896 12.1228 193 255 62
-26.5086 -48.4926 11.5128 255 224 0
-26.8976 -48.4981 10.8999 209 255 46
-30.0188 -48.5195 11.8067 255 221 0
-30.4196 -48.4862 11.1359 145 255 110
-30.6958 -48.2281 10.7142 0 26 255
-27.2302 -48.5015 10.2244 127 255 128
-30.6272 -48.8711 10.7197 0 51 255
-30.8838 -48.5581 10.2215 189 255 66
-27.5047 -48.5004 9.48726 252 255 3
-31.1529 -48.5292 9.34656 228 0 0
-27.7765 -48.4951 8.74144 133 255 122
-31.3144 -48.5142 8.44725 255 174 0
-28.107 -48.4827 8.04386 228 255 27
-28.5067 -48.4541 7.41702 199 255 56
-28.9069 -48.3793 6.88796 73 255 182
-31.3641 -48.5112 7.5376 255 203 0
-29.3004 -48.4764 6.35551 223 255 32
-31.2998 -48.5219 6.68041 211 255 44
-29.7348 -48.5417 5.81002 73 255 182
-31.1223 -48.5518 5.96691 0 173 255
-30.1106 -48.652 5.43968 0 210 255
-30.49 -48.6142 5.32792 0 128 255
-30.8489 -48.5977 5.49733 0 204 255
-23.7985 -47.1591 20.6681 0 145 255
-24.3298 -47.095 20.7516 0 139 255
-24.8179 -47.0924 20.631 0 112 255
-22.492 -46.8776 19.9003 0 9 255
-22.8 -47.1345 20.1055 0 83 255
-23.3455 -47.3943 20.3072 41 255 214
-25.2454 -47.2091 20.3011 0 188 255
-22.4541 -47.1726 19.3568 0 169 255
-22.7883 -47.548 19.6287 0 235 255
-23.2173 -47.8015 19.805 0 0 243
-25.7251 -47.4008 19.8321 255 164 0
-26.2998 -47.4933 19.3518 167 255 88
-26.791 -47.5279 18.817 165 255 90
-22.388 -47.299 18.7565 0 76 255
-27.1613 -47.5284 18.1773 214 255 41
-22.4659 -47.3902 18.322 0 0 227
-22.7405 -47.4146 17.9686 0 225 255
-23.1758 -47.4206 17.4793 221 255 34
-27.4459 -47.5185 17.4334 34 255 221
-23.6168 -47.4376 16.7786 212 255 43
-27.7207 -47.5232 16.6395 255 220 0
-24.0491 -47.4497 16.1241 177 255 78
-24.4837 -47.4664 15.5268 177 255 78
-24.8897 -47.4856 14.918 206 255 49
-28.0508 -47.5668 15.8717 255 217 0
-28.4311 -47.7267 15.277 115 255 140
-28.7673 -47.8157 14.7624 0 222 255
-25.2275 -47.4966 14.2411 12 255 243
-29.0249 -47.7394 14.1607 35 255 220
-25.5068 -47.5005 13.5103 238 255 17
-29.2711 -47.6026 13.4049 255 8 0
-25.7867 -47.5012 12.7866 224 255 31
-29.5894 -47.5694 12.5673 255 180 0
-26.1239 -47.5019 12.1245 198 255 57
-26.5209 -47.5045 11.521 187 255 68
-26.921 -47.5091 10.9133 199 255 56
-29.9633 -47.5742 11.7663 201 255 54
-30.3713 -47.6668 11.1596 0 184 255
-30.6823 -47.68 10.695 0 125 255
-27.2589 -47.5129 10.2366 255 65 0
-30.8925 -47.6876 10.1407 21 255 234
-27.5319 -47.5088 9.50068 239 255 16
-31.0913 -47.5755 9.35181 151 255 104
-27.7981 -47.5027 8.76606 220 255 35
-31.2594 -47.5417 8.45058 255 161 0
-28.1248 -47.4941 8.08968 194 255 61
-28.5252 -47.4802 7.48531 159 255 96
-28.96 -47.4655 6.9295 150 255 105
-31.3174 -47.5327 7.54406 255 193 0
-29.4103 -47.5021 6.37228 86 255 169
-31.2492 -47.5571 6.69555 249 255 6
-29.9098 -47.5648 5.80886 119 255 136
-30.2884 -47.3015 5.59449 0 0 234
-31.0602 -47.6341 5.99028 204 255 51
-30.1668 -47.9733 5.48301 0 53 255
-30.485 -47.749 5.41772 0 76 255
-30.8273 -47.7749 5.54826 0 76 255
-22.5268 -45.875 20.5912 0 0 252
-22.8829 -46.0665 20.7636 0 188 255
-23.5119 -46.3918 20.8474 161 255 94
-24.2376 -46.3533 20.8829 32 255 223
-24.8371 -46.3566 20.6971 21 255 234
-22.4308 -46.2273 20.1576 75 255 180
-22.7742 -46.5901 20.4504 0 137 255
-23.1801 -46.8232 20.5913 0 31 255
-25.3541 -46.4055 20.3237 96 255 159
-22.3778 -46.3275 19.4057 208 255 47
-22.5432 -45.9562 18.9759 0 118 255
-22.7473 -45.7336 18.6871 0 0 248
-25.8553 -46.4897 19.8395 0 210 255
-26.3583 -46.5751 19.339 128 255 127
-26.7888 -46.6164 18.8011 94 255 161
-22.4039 -46.7938 18.7482 0 57 255
-22.6055 -46.4178 18.5152 0 173 255
-22.886 -45.9882 18.2598 0 225 255
-27.1152 -46.5951 18.1589 142 255 113
-22.4654 -47.0334 18.3582 0 0 190
-22.7003 -46.8476 18.0906 0 58 255
-23.1309 -46.4496 17.6139 239 255 16
-27.3742 -46.5486 17.388 255 132 0
-23.6099 -46.481 16.8008 255 217 0
-27.639 -46.5265 16.5164 255 124 0
-24.0476 -46.4959 16.1204 215 255 40
-24.4841 -46.5035 15.5127 184 255 71
-24.8922 -46.5089 14.902 188 255 67
-27.985 -46.5204 15.5354 212 0 0
-28.4064 -46.9955 15.0029 0 246 255
-28.6875 -47.2561 14.68 0 80 255
-25.2325 -46.5124 14.2311 255 191 0
-28.1505 -46.0563 14.7192 61 255 194
-28.4902 -46.5376 14.4618 0 228 255
-28.8206 -47.02 14.1973 0 231 255
-25.5141 -46.5144 13.5079 255 187 0
-28.2682 -45.8328 14.1895 0 14 255
-28.5617 -46.1276 13.8882 0 234 255
-28.9961 -46.6222 13.4019 255 180 0
-25.797 -46.516 12.7934 194 255 61
-29.4024 -46.6375 12.4497 255 148 0
-26.1426 -46.5185 12.1462 174 255 81
-26.5596 -46.5236 11.5646 181 255 74
-26.9896 -46.5337 10.973 216 255 39
-29.8356 -46.6005 11.4812 255 132 0
-30.3357 -46.9864 10.952 0 191 255
-30.6247 -47.2008 10.6398 0 43 255
-27.3391 -46.5456 10.2744 8 255 247
-30.0197 -46.1232 10.7045 0 229 255
-30.4171 -46.5413 10.4447 0 248 255
-30.7414 -46.9895 10.1777 75 255 180
-27.6028 -46.5316 9.51649 236 255 19
-30.1536 -45.8577 10.1923 0 93 255
-30.4792 -46.1142 9.88876 0 228 255
-30.8788 -46.5853 9.38741 255 157 0
-27.8436 -46.5215 8.779 208 255 47
-31.1323 -46.5819 8.43162 255 214 0
-28.1525 -46.5146 8.11448 175 255 80
-28.5504 -46.5082 7.52611 160 255 95
-29.0009 -46.506 6.98159 245 255 10
-31.2192 -46.5609 7.54513 255 133 0
-29.4699 -46.5233 6.45996 139 255 116
-31.1473 -46.5906 6.7206 213 255 42
-29.9567 -46.5643 6.00939 101 255 154
-30.4502 -46.6527 5.76781 45 255 210
-30.8904 -46.7192 6.00366 0 231 255
-30.5996 -47.1735 5.51378 0 0 186
-30.8036 -47.1966 5.6056 0 14 255
-22.4735 -45.2567 20.6905 0 204 255
-22.8985 -45.316 20.9337 0 218 255
-23.5246 -45.4325 21.0252 97 255 158
-24.2124 -45.4683 20.9678 111 255 144
-24.8298 -45.4874 20.7145 1 255 254
-22.2989 -45.3415 20.2699 0 191 255
-25.3673 -45.5076 20.2767 129 255 126
-22.327 -45.3612 19.7206 0 195 255
-22.5394 -45.2485 19.2317 0 237 255
-22.8156 -45.1823 18.763 0 177 255
-25.8755 -45.5593 19.7223 255 216 0
-26.3591 -45.7242 19.2244 82 255 173
-26.7383 -45.8157 18.7434 0 224 255
-23.0733 -45.2758 18.2026 2 255 253
-26.9991 -45.7393 18.1439 67 255 188
-23.3526 -45.4439 17.5239 255 191 0
-27.214 -45.6 17.3668 255 89 0
-23.706 -45.5127 16.7941 219 255 36
-27.4558 -45.5541 16.4716 255 140 0
-24.0943 -45.5415 16.1319 255 248 0
-24.5144 -45.5493 15.5301 161 255 94
-24.9224 -45.5508 14.9192 176 255 79
-27.6923 -45.5039 15.5492 201 255 54
-25.2648 -45.5534 14.2434 188 255 67
-27.8876 -45.3632 14.694 189 255 66
-25.5461 -45.557 13.5195 74 255 181
-28.1142 -45.3387 13.9696 0 247 255
-28.4731 -45.5704 13.4757 0 163 255
-28.8383 -45.8202 12.9969 0 251 255
-25.8283 -45.5616 12.8166 147 255 108
-29.1242 -45.8461 12.2981 55 255 200
-26.1824 -45.5673 12.2023 124 255 131
-26.6366 -45.5758 11.6794 172 255 83
-27.1496 -45.5961 11.1464 132 255 123
-29.3926 -45.7685 11.4828 255 229 0
-27.5261 -45.6428 10.3603 255 122 0
-29.6308 -45.5437 10.6842 51 255 204
-27.7711 -45.5883 9.53009 251 255 4
-29.9296 -45.3641 9.98232 53 255 202
-30.3757 -45.5103 9.50119 72 255 183
-30.7556 -45.7236 9.01625 58 255 197
-27.9405 -45.5723 8.77757 166 255 89
-30.9805 -45.6942 8.32493 211 255 44
-28.2048 -45.5661 8.12866 112 255 143
-28.5878 -45.5614 7.5624 109 255 146
-29.0426 -45.5603 7.03949 19 255 236
-31.0821 -45.6019 7.54072 100 255 155
-29.5148 -45.5681 6.55385 161 255 94
-31.0442 -45.6026 6.79352 124 255 131
-29.9858 -45.587 6.17575 14 255 241
-30.4405 -45.617 6.02857 0 217 255
-30.8216 -45.6337 6.23677 60 255 195
-22.4406 -44.4267 20.7577 0 187 255
-22.8913 -44.4501 21.0029 11 255 244
-23.5217 -44.505 21.076 4 255 251
-24.1916 -44.5626 20.9745 95 255 160
-24.7857 -44.5938 20.6799 168 255 87
-22.2476 -44.4452 20.3614 3 255 252
-25.2956 -44.5741 20.1702 195 255 60
-22.3068 -44.4472 19.8741 0 247 255
-22.5584 -44.4132 19.3701 19 255 236
-22.8888 -44.3963 18.8338 0 225 255
-25.8191 -44.5376 19.4198 255 138 0
-26.3445 -44.9999 18.9644 0 240 255
-26.6589 -45.2575 18.6641 0 79 255
-23.2111 -44.4372 18.2157 134 255 121
-26.0415 -44.0662 18.688 75 255 180
-26.437 -44.5418 18.4456 0 169 255
-26.7861 -45.0218 18.1847 58 255 197
-23.5169 -44.5193 17.5176 193 255 62
-26.1638 -43.8433 18.1833 0 96 255
-26.4893 -44.136 17.8809 63 255 192
-26.9196 -44.629 17.3832 249 255 6
-23.8262 -44.6002 16.8072 152 255 103
-27.2218 -44.6533 16.4154 255 220 0
-24.1728 -44.6485 16.1691 70 255 185
-24.5812 -44.6571 15.5916 107 255 148
-25.0032 -44.6563 14.984 136 255 119
-27.4313 -44.6395 15.4901 255 246 0
-25.3517 -44.6644 14.2859 135 255 120
-27.611 -44.6097 14.5559 255 251 0
-25.6267 -44.6754 13.5497 106 255 149
-27.8354 -44.6541 13.5362 255 105 0
-28.341 -45.082 13.0283 0 221 255
-28.6789 -45.3558 12.7603 0 7 255
-25.8938 -44.688 12.862 46 255 209
-27.7323 -44.4965 12.5549 183 255 72
-28.3097 -44.8864 12.3224 63 255 192
-28.7818 -45.281 12.2158 22 255 233
-26.2362 -44.7002 12.3073 1 255 254
-26.7274 -44.7068 11.9132 1 255 254
-27.4765 -44.722 11.6203 204 0 0
-28.3137 -44.8524 11.4843 172 255 83
-28.9243 -45.1897 11.4414 183 255 72
-27.8971 -44.923 10.5032 255 245 0
-28.5118 -44.7702 10.5616 119 255 136
-29.1525 -44.9975 10.5619 197 255 58
-28.1306 -44.6933 9.49057 255 254 0
-28.7044 -44.4539 9.69015 101 255 154
-29.5251 -44.6089 9.54606 255 158 0
-30.2442 -44.8936 9.09453 4 255 251
-30.6267 -45.1655 8.81302 0 119 255
-28.1065 -44.7019 8.73504 25 255 230
-29.8599 -44.2215 8.88815 0 166 255
-30.3475 -44.3875 8.48335 62 255 193
-30.7528 -44.9459 8.29848 0 121 255
-28.2924 -44.7028 8.13666 44 255 211
-28.6528 -44.6966 7.61633 31 255 224
-29.1131 -44.6936 7.11841 38 255 217
-30.6024 -44.2357 7.90816 0 75 255
-30.8676 -44.6482 7.55597 188 255 67
-29.5778 -44.6992 6.64611 0 163 255
-30.9192 -44.6983 6.83019 5 255 250
-30.0182 -44.711 6.29894 0 169 255
-30.4287 -44.7202 6.18119 0 108 255
-30.7559 -44.7224 6.35606 0 170 255
-22.4275 -43.5373 20.7712 0 163 255
-22.8818 -43.5464 20.9872 23 255 232
-23.5187 -43.5823 21.0209 168 255 87
-24.1706 -43.7036 20.8995 0 240 255
-24.6976 -43.781 20.6251 0 227 255
-22.2373 -43.541 20.4047 0 109 255
-25.0912 -43.6939 20.1372 60 255 195
-22.3141 -43.5403 19.9501 0 207 255
-22.5945 -43.5295 19.4529 26 255 229
-22.9696 -43.5279 18.9001 176 255 79
-25.4331 -43.5409 19.4396 233 255 22
-23.3493 -43.5563 18.263 159 255 96
-25.6908 -43.3834 18.6735 102 255 153
-23.7108 -43.6307 17.553 195 255 60
-25.9226 -43.3656 17.9794 38 255 217
-26.352 -43.5989 17.4768 0 210 255
-26.739 -43.8496 16.9859 0 245 255
-23.9982 -43.7913 16.838 82 255 173
-26.9739 -43.9082 16.2693 61 255 194
-24.2911 -43.8951 16.2449 0 176 255
-24.6984 -43.8937 15.7392 40 255 215
-25.1782 -43.8858 15.147 118 255 137
-27.1315 -43.9163 15.4257 192 255 63
-25.5377 -43.9168 14.3753 71 255 184
-27.2509 -43.9134 14.5209 131 255 124
-25.7912 -43.9459 13.6011 1 255 254
-27.3294 -43.9229 13.6095 125 255 130
-26.0099 -43.9771 12.924 0 156 255
-27.2631 -43.9127 12.8004 2 255 253
-26.2697 -44.0071 12.4435 0 78 255
-26.6371 -44.0012 12.2139 0 165 255
-27.0533 -43.9927 12.2362 0 147 255
-28.3459 -43.9975 8.99911 0 149 255
-28.7267 -43.9182 9.13059 0 128 255
-29.2436 -43.9168 9.00945 0 130 255
-28.2686 -44.0124 8.58333 0 44 255
-29.6607 -43.8057 8.59567 0 114 255
-30.1181 -43.8249 8.18788 0 110 255
-28.4014 -44.0214 8.14143 0 12 255
-28.7534 -44.0035 7.72262 0 129 255
-29.2506 -43.9942 7.25822 0 209 255
-30.4443 -43.8179 7.68793 0 28 255
-30.7178 -43.9523 7.26382 0 77 255
-29.697 -44.0052 6.75495 0 168 255
-30.7885 -44.0015 6.77455 0 75 255
-30.0706 -44.0262 6.41008 0 58 255
-30.4168 -44.0258 6.30301 0 1 255
-30.6859 -44.0304 6.41746 0 58 255
-22.4293 -42.6945 20.7394 0 79 255
-22.8644 -42.6811 20.9005 0 199 255
-23.5328 -42.6456 20.8475 117 255 138
-24.1885 -42.9593 20.7137 0 230 255
-24.6023 -43.2039 20.5553 0 9 255
-22.2608 -42.6974 20.4161 0 147 255
-23.8616 -42.2398 20.5903 0 3 255
-24.3539 -42.4036 20.3191 37 255 218
-24.8051 -42.9524 20.1548 76 255 179
-22.3522 -42.6968 20.0019 0 169 255
-22.6581 -42.6888 19.537 7 255 248
-23.0812 -42.6878 19 80 255 175
-24.6555 -42.233 19.8293 0 23 255
-25.0307 -42.6251 19.4543 255 244 0
-23.5279 -42.7081 18.3691 143 255 112
-25.3009 -42.6387 18.5822 160 255 95
-24.0471 -42.7662 17.6466 214 255 41
-24.6988 -42.5417 17.4507 0 253 255
-25.4269 -42.7323 17.6 255 65 0
-26.1521 -43.1656 17.0375 16 255 239
-26.5578 -43.4169 16.7545 0 74 255
-24.2898 -43.1771 16.853 0 229 255
-24.8082 -42.9411 16.6948 16 255 239
-25.4802 -42.9564 16.5192 150 255 105
-26.1518 -43.1134 16.3011 5 255 250
-26.6482 -43.4017 16.1941 0 210 255
-24.4339 -43.4101 16.3504 0 4 255
-24.8393 -43.3244 16.0535 0 235 255
-25.5143 -43.2868 15.5227 244 255 11
-26.215 -43.1899 15.4356 42 255 213
-26.7435 -43.4148 15.3984 0 191 255
-25.8694 -43.4022 14.5056 75 255 180
-26.3628 -43.247 14.5203 20 255 235
-26.8397 -43.4318 14.5157 0 202 255
-26.0729 -43.4618 13.6577 0 227 255
-26.4696 -43.2989 13.6696 0 72 255
-26.8988 -43.4582 13.6558 0 225 255
-26.2105 -43.5252 12.9773 0 46 255
-26.5284 -43.3835 12.9677 0 21 255
-26.8902 -43.5047 12.9342 0 110 255
-26.321 -43.6118 12.5697 0 0 183
-26.5678 -43.5649 12.4973 0 0 216
-26.8375 -43.5999 12.4948 0 5 255
-28.4585 -43.6331 8.7579 0 0 186
-28.7415 -43.5669 8.75478 0 0 246
-29.1065 -43.5791 8.68945 0 0 215
-28.4602 -43.6035 8.4743 0 0 234
-28.8278 -43.474 8.36094 0 19 255
-29.3968 -43.5088 8.2353 0 112 255
-29.9141 -43.5323 7.94956 0 42 255
-28.5158 -43.6431 8.17841 0 0 183
-28.8649 -43.5802 7.94104 0 53 255
-29.5135 -43.5531 7.52937 0 250 255
-30.1717 -43.5165 7.40998 0 101 255
-30.5516 -43.6011 7.11737 0 0 215
-29.9157 -43.5835 6.86983 0 55 255
-30.2999 -43.4853 6.83624 0 0 217
-30.6097 -43.5986 6.75919 0 0 194
-30.1348 -43.6475 6.52205 0 0 186
-30.3903 -43.6138 6.47464 0 0 178
-30.6072 -43.6549 6.48569 0 0 128
-22.4418 -42.0236 20.6812 0 0 207
-22.7864 -41.9971 20.7835 0 36 255
-23.2576 -41.9516 20.7128 0 98 255
-22.3289 -42.0202 20.4128 0 1 255
-23.6641 -41.8198 20.4394 0 72 255
-24.1248 -41.831 20.1081 0 87 255
-22.427 -42.0229 20.0634 0 40 255
-22.7564 -42.0028 19.6747 0 158 255
-23.2396 -41.9925 19.186 0 233 255
-24.474 -41.8158 19.6415 0 78 255
-24.8014 -41.9408 19.1983 0 97 255
-23.685 -42.0031 18.598 0 192 255
-24.9594 -41.9775 18.6241 0 125 255
-24.0983 -42.0185 18.1167 0 157 255
-24.5456 -41.9637 17.9657 0 195 255
-24.9302 -42.0067 18.1036 0 141 255
-22.4941 -41.6531 20.6057 0 0 160
-22.7626 -41.5977 20.6082 0 0 207
-23.1148 -41.601 20.5494 0 0 187
-22.4818 -41.6127 20.3888 0 0 148
-22.836 -41.4851 20.2974 0 0 208
-23.3995 -41.5171 20.1662 0 114 255
-23.9184 -41.5352 19.907 0 35 255
-22.5272 -41.6467 20.1316 0 0 185
-22.8681 -41.5831 19.9067 0 56 255
-23.5136 -41.553 19.4868 0 225 255
-24.1857 -41.5138 19.3766 0 120 255
-24.5934 -41.5942 19.0749 0 0 235
-23.9188 -41.5772 18.7874 0 115 255
-24.3259 -41.4745 18.7697 0 0 244
-24.6793 -41.5857 18.6779 0 10 255
-24.1533 -41.6338 18.3752 0 0 230
-24.4456 -41.5876 18.3262 0 0 219
-24.7108 -41.6354 18.3342 0 0 171
3 0 1 3
3 4 3 1
3 0 15 16
3 0 16 1
3 0 3 18
3 0 18 15
3 1 2 4
3 5 4 2
3 1 16 17
3 1 17 2
3 2 17 5
3 19 5 17
3 3 4 6
3 7 6 4
3 3 6 20
3 3 20 18
3 4 5 8
3 4 8 7
3 5 19 21
3 5 21 8
3 6 7 9
3 10 9 7
3 6 9 22
3 6 22 20
3 7 8 11
3 7 11 10
3 8 21 11
3 23 11 21
3 9 10 12
3 13 12 10
3 9 12 24
3 9 24 22
3 10 11 14
3 10 14 13
3 11 23 14
3 26 14 23
3 12 13 24
3 25 24 13
3 13 14 25
3 26 25 14
3 15 40 41
3 15 41 16
3 15 18 43
3 15 43 40
3 16 41 42
3 16 42 17
3 17 42 19
3 44 19 42
3 18 20 43
3 45 43 20
3 19 44 21
3 46 21 44
3 20 22 47
3 20 47 45
3 21 46 48
3 21 48 23
3 22 24 47
3 49 47 24
3 23 48 26
3 51 26 48
3 24 25 49
3 50 49 25
3 25 26 50
3 51 50 26
3 27 28 31
3 27 31 30
3 27 64 28
3 65 28 64
3 27 30 68
3 27 68 64
3 28 29 32
3 28 32 31
3 28 65 29
3 66 29 65
3 29 66 69
3 29 69 32
3 30 31 35
3 36 35 31
3 30 35 72
3 30 72 68
3 31 32 36
3 37 36 32
3 32 33 38
3 32 38 37
3 32 69 70
3 32 70 33
3 33 34 39
3 33 39 38
3 33 70 34
3 71 34 70
3 34 71 39
3 75 39 71
3 35 36 73
3 35 73 72
3 36 37 73
3 74 73 37
3 37 38 40
3 41 40 38
3 37 40 74
3 76 74 40
3 38 39 41
3 42 41 39
3 39 75 77
3 39 77 42
3 40 43 78
3 40 78 76
3 42 77 79
3 42 79 44
3 43 45 78
3 80 78 45
3 44 79 46
3 81 46 79
3 45 47 80
3 82 80 47
3 46 81 48
3 83 48 81
3 47 49 84
3 47 84 82
3 48 83 85
3 48 85 51
3 49 50 55
3 49 55 54
3 49 54 88
3 49 88 84
3 50 51 56
3 50 56 55
3 51 52 57
3 51 57 56
3 51 85 86
3 51 86 52
3 52 53 57
3 58 57 53
3 52 86 87
3 52 87 53
3 53 87 89
3 53 89 58
3 54 55 59
3 60 59 55
3 54 59 88
3 90 88 59
3 55 56 60
3 61 60 56
3 56 57 61
3 62 61 57
3 57 58 63
3 57 63 62
3 58 89 63
3 94 63 89
3 59 60 91
3 59 91 90
3 60 61 92
3 60 92 91
3 61 62 93
3 61 93 92
3 62 63 93
3 94 93 63
3 64 107 65
3 108 65 107
3 64 68 107
3 112 107 68
3 65 108 109
3 65 109 66
3 66 67 70
3 66 70 69
3 66 109 110
3 66 110 67
3 67 110 113
3 67 113 70
3 68 72 115
3 68 115 112
3 70 113 114
3 70 114 71
3 71 114 75
3 118 75 114
3 72 73 115
3 116 115 73
3 73 74 116
3 117 116 74
3 74 76 117
3 121 117 76
3 75 118 77
3 122 77 118
3 76 78 125
3 76 125 121
3 77 122 126
3 77 126 79
3 78 80 127
3 78 127 125
3 79 126 128
3 79 128 81
3 80 82 131
3 80 131 127
3 81 128 83
3 132 83 128
3 82 84 131
3 135 131 84
3 83 132 85
3 136 85 132
3 84 88 135
3 139 135 88
3 85 136 137
3 85 137 86
3 86 137 138
3 86 138 87
3 87 138 140
3 87 140 89
3 88 90 141
3 88 141 139
3 89 140 145
3 89 145 94
3 90 91 142
3 90 142 141
3 91 92 143
3 91 143 142
3 92 93 144
3 92 144 143
3 93 94 145
3 93 145 144
3 95 96 98
3 99 98 96
3 95 152 153
3 95 153 96
3 95 98 152
3 155 152 98
3 96 97 99
3 100 99 97
3 96 153 154
3 96 154 97
3 97 154 156
3 97 156 100
3 98 99 101
3 102 101 99
3 98 101 155
3 157 155 101
3 99 100 102
3 103 102 100
3 100 156 158
3 100 158 103
3 101 102 105
3 101 105 104
3 101 104 159
3 101 159 157
3 102 103 106
3 102 106 105
3 103 158 106
3 160 106 158
3 104 105 108
3 104 108 107
3 104 107 161
3 104 161 159
3 105 106 109
3 105 109 108
3 106 160 109
3 162 109 160
3 107 112 161
3 165 161 112
3 109 162 110
3 163 110 162
3 110 111 113
3 114 113 111
3 110 163 111
3 164 111 163
3 111 164 114
3 166 114 164
3 112 115 167
3 112 167 165
3 114 166 168
3 114 168 118
3 115 116 120
3 115 120 119
3 115 119 169
3 115 169 167
3 116 117 121
3 116 121 120
3 118 168 170
3 118 170 122
3 119 120 123
3 124 123 120
3 119 123 169
3 171 169 123
3 120 121 124
3 125 124 121
3 122 170 126
3 174 126 170
3 123 124 171
3 172 171 124
3 124 125 172
3 173 172 125
3 125 127 173
3 175 173 127
3 126 174 128
3 176 128 174
3 127 131 179
3 127 179 175
3 128 129 133
3 128 133 132
3 128 176 129
3 177 129 176
3 129 130 134
3 129 134 133
3 129 177 178
3 129 178 130
3 130 178 180
3 130 180 134
3 131 135 179
3 181 179 135
3 132 133 137
3 132 137 136
3 133 134 137
3 138 137 134
3 134 180 182
3 134 182 138
3 135 139 181
3 183 181 139
3 138 182 185
3 138 185 140
3 139 141 183
3 186 183 141
3 140 185 145
3 189 145 185
3 141 142 187
3 141 187 186
3 142 143 188
3 142 188 187
3 143 144 147
3 143 147 146
3 143 146 190
3 143 190 188
3 144 145 148
3 144 148 147
3 145 189 148
3 191 148 189
3 146 147 150
3 146 150 149
3 146 149 192
3 146 192 190
3 147 148 151
3 147 151 150
3 148 191 194
3 148 194 151
3 149 150 192
3 193 192 150
3 150 151 193
3 194 193 151
3 152 197 198
3 152 198 153
3 152 155 197
3 202 197 155
3 153 198 199
3 153 199 154
3 154 199 203
3 154 203 156
3 155 157 206
3 155 206 202
3 156 203 158
3 207 158 203
3 157 159 210
3 157 210 206
3 158 207 160
3 211 160 207
3 159 161 214
3 159 214 210
3 160 211 215
3 160 215 162
3 161 165 214
3 218 214 165
3 162 215 216
3 162 216 163
3 163 216 217
3 163 217 164
3 164 217 219
3 164 219 166
3 165 167 218
3 220 218 167
3 166 219 221
3 166 221 168
3 167 169 220
3 222 220 169
3 168 221 170
3 223 170 221
3 169 171 222
3 224 222 171
3 170 223 174
3 227 174 223
3 171 172 225
3 171 225 224
3 172 173 226
3 172 226 225
3 173 175 228
3 173 228 226
3 174 227 176
3 229 176 227
3 175 179 232
3 175 232 228
3 176 229 230
3 176 230 177
3 177 230 231
3 177 231 178
3 178 231 233
3 178 233 180
3 179 181 232
3 234 232 181
3 180 233 235
3 180 235 182
3 181 183 234
3 236 234 183
3 182 235 238
3 182 238 185
3 183 186 184
3 187 184 186
3 183 184 236
3 237 236 184
3 184 187 237
3 239 237 187
3 185 238 189
3 241 189 238
3 187 188 240
3 187 240 239
3 188 190 242
3 188 242 240
3 189 241 191
3 243 191 241
3 190 192 244
3 190 244 242
3 191 243 194
3 246 194 243
3 192 193 245
3 192 245 244
3 193 194 246
3 193 246 245
3 195 196 201
3 195 201 200
3 195 247 248
3 195 248 196
3 195 200 247
3 252 247 200
3 196 197 201
3 202 201 197
3 196 248 249
3 196 249 197
3 197 249 250
3 197 250 198
3 198 250 251
3 198 251 199
3 199 251 253
3 199 253 203
3 200 201 204
3 205 204 201
3 200 204 252
3 254 252 204
3 201 202 205
3 206 205 202
3 203 253 255
3 203 255 207
3 204 205 208
3 209 208 205
3 204 208 256
3 204 256 254
3 205 206 210
3 205 210 209
3 207 255 211
3 257 211 255
3 208 209 213
3 208 213 212
3 208 212 258
3 208 258 256
3 209 210 214
3 209 214 213
3 211 257 215
3 261 215 257
3 212 213 259
3 212 259 258
3 213 214 260
3 213 260 259
3 214 218 260
3 264 260 218
3 215 261 216
3 262 216 261
3 216 262 263
3 216 263 217
3 217 263 265
3 217 265 219
3 218 220 264
3 266 264 220
3 219 265 267
3 219 267 221
3 220 222 266
3 268 266 222
3 221 267 269
3 221 269 223
3 222 224 270
3 222 270 268
3 223 269 273
3 223 273 227
3 224 225 271
3 224 271 270
3 225 226 272
3 225 272 271
3 226 228 275
3 226 275 272
3 227 273 229
3 276 229 273
3 228 232 279
3 228 279 275
3 229 276 230
3 277 230 276
3 230 277 231
3 278 231 277
3 231 278 233
3 280 233 278
3 232 234 279
3 281 279 234
3 233 280 235
3 282 235 280
3 234 236 281
3 283 281 236
3 235 282 286
3 235 286 238
3 236 237 283
3 284 283 237
3 237 239 284
3 287 284 239
3 238 286 289
3 238 289 241
3 239 240 287
3 288 287 240
3 240 242 288
3 290 288 242
3 241 289 291
3 241 291 243
3 242 244 292
3 242 292 290
3 243 291 294
3 243 294 246
3 244 245 293
3 244 293 292
3 245 246 294
3 245 294 293
3 247 303 248
3 304 248 303
3 247 252 310
3 247 310 303
3 248 304 249
3 305 249 304
3 249 305 250
3 306 250 305
3 250 306 307
3 250 307 251
3 251 307 311
3 251 311 253
3 252 254 310
3 314 310 254
3 253 311 315
3 253 315 255
3 254 256 314
3 316 314 256
3 255 315 317
3 255 317 257
3 256 258 316
3 318 316 258
3 257 317 321
3 257 321 261
3 258 259 318
3 319 318 259
3 259 260 319
3 320 319 260
3 260 264 324
3 260 324 320
3 261 321 262
3 322 262 321
3 262 322 263
3 323 263 322
3 263 323 265
3 325 265 323
3 264 266 326
3 264 326 324
3 265 325 267
3 327 267 325
3 266 268 328
3 266 328 326
3 267 327 269
3 329 269 327
3 268 270 330
3 268 330 328
3 269 329 333
3 269 333 273
3 270 271 331
3 270 331 330
3 271 272 331
3 332 331 272
3 272 275 332
3 336 332 275
3 273 274 276
3 277 276 274
3 273 333 334
3 273 334 274
3 274 334 337
3 274 337 277
3 275 279 336
3 339 336 279
3 277 337 338
3 277 338 278
3 278 338 340
3 278 340 280
3 279 281 339
3 341 339 281
3 280 340 282
3 342 282 340
3 281 283 343
3 281 343 341
3 282 342 286
3 346 286 342
3 283 284 344
3 283 344 343
3 284 287 288
3 284 288 285
3 284 285 345
3 284 345 344
3 285 288 347
3 285 347 345
3 286 346 289
3 348 289 346
3 288 290 349
3 288 349 347
3 289 348 291
3 350 291 348
3 290 292 351
3 290 351 349
3 291 350 353
3 291 353 294
3 292 293 351
3 352 351 293
3 293 294 352
3 353 352 294
3 295 296 298
3 299 298 296
3 295 354 355
3 295 355 296
3 295 298 354
3 359 354 298
3 296 297 299
3 300 299 297
3 296 355 356
3 296 356 297
3 297 356 360
3 297 360 300
3 298 299 303
3 304 303 299
3 298 303 359
3 363 359 303
3 299 300 304
3 305 304 300
3 300 360 364
3 300 364 305
3 301 302 308
3 309 308 302
3 301 361 362
3 301 362 302
3 301 308 367
3 301 367 361
3 302 303 310
3 302 310 309
3 302 362 303
3 363 303 362
3 305 364 306
3 365 306 364
3 306 365 307
3 366 307 365
3 307 366 311
3 368 311 366
3 308 309 313
3 308 313 312
3 308 312 369
3 308 369 367
3 309 310 314
3 309 314 313
3 311 368 315
3 372 315 368
3 312 313 370
3 312 370 369
3 313 314 370
3 371 370 314
3 314 316 371
3 373 371 316
3 315 372 374
3 315 374 317
3 316 318 373
3 375 373 318
3 317 374 378
3 317 378 321
3 318 319 375
3 376 375 319
3 319 320 376
3 377 376 320
3 320 324 377
3 381 377 324
3 321 378 379
3 321 379 322
3 322 379 380
3 322 380 323
3 323 380 382
3 323 382 325
3 324 326 383
3 324 383 381
3 325 382 384
3 325 384 327
3 326 328 385
3 326 385 383
3 327 384 329
3 386 329 384
3 328 330 387
3 328 387 385
3 329 386 333
3 390 333 386
3 330 331 388
3 330 388 387
3 331 332 389
3 331 389 388
3 332 336 393
3 332 393 389
3 333 390 334
3 391 334 390
3 334 335 338
3 334 338 337
3 334 391 335
3 392 335 391
3 335 392 338
3 394 338 392
3 336 339 393
3 395 393 339
3 338 394 340
3 396 340 394
3 339 341 395
3 397 395 341
3 340 396 398
3 340 398 342
3 341 343 397
3 399 397 343
3 342 398 402
3 342 402 346
3 343 344 399
3 400 399 344
3 344 345 400
3 401 400 345
3 345 347 401
3 403 401 347
3 346 402 404
3 346 404 348
3 347 349 405
3 347 405 403
3 348 404 407
3 348 407 350
3 349 351 408
3 349 408 405
3 350 407 353
3 410 353 407
3 351 352 409
3 351 409 408
3 352 353 410
3 352 410 409
3 354 413 355
3 414 355 413
3 354 359 418
3 354 418 413
3 355 414 356
3 415 356 414
3 356 415 360
3 419 360 415
3 357 358 362
3 357 362 361
3 357 416 358
3 417 358 416
3 357 361 416
3 420 416 361
3 358 359 362
3 363 362 359
3 358 417 359
3 418 359 417
3 360 419 364
3 423 364 419
3 361 367 420
3 426 420 367
3 364 423 424
3 364 424 365
3 365 424 425
3 365 425 366
3 366 425 429
3 366 429 368
3 367 369 426
3 430 426 369
3 368 429 433
3 368 433 372
3 369 370 430
3 431 430 370
3 370 371 432
3 370 432 431
3 371 373 434
3 371 434 432
3 372 433 374
3 435 374 433
3 373 375 436
3 373 436 434
3 374 435 378
3 439 378 435
3 375 376 437
3 375 437 436
3 376 377 438
3 376 438 437
3 377 381 442
3 377 442 438
3 378 439 379
3 440 379 439
3 379 440 380
3 441 380 440
3 380 441 382
3 445 382 441
3 381 383 442
3 446 442 383
3 382 445 384
3 449 384 445
3 383 385 446
3 450 446 385
3 384 449 451
3 384 451 386
3 385 387 450
3 452 450 387
3 386 451 455
3 386 455 390
3 387 388 452
3 453 452 388
3 388 389 453
3 454 453 389
3 389 393 454
3 458 454 393
3 390 455 456
3 390 456 391
3 391 456 457
3 391 457 392
3 392 457 461
3 392 461 394
3 393 395 462
3 393 462 458
3 394 461 396
3 465 396 461
3 395 397 466
3 395 466 462
3 396 465 398
3 467 398 465
3 397 399 468
3 397 468 466
3 398 467 402
3 471 402 467
3 399 400 469
3 399 469 468
3 400 401 470
3 400 470 469
3 401 403 472
3 401 472 470
3 402 471 404
3 473 404 471
3 403 405 474
3 403 474 472
3 404 473 407
3 476 407 473
3 405 408 406
3 409 406 408
3 405 406 475
3 405 475 474
3 406 409 475
3 477 475 409
3 407 476 478
3 407 478 410
3 409 410 477
3 478 477 410
3 411 412 416
3 417 416 412
3 411 479 480
3 411 480 412
3 411 416 479
3 484 479 416
3 412 413 417
3 418 417 413
3 412 480 481
3 412 481 413
3 413 481 482
3 413 482 414
3 414 482 483
3 414 483 415
3 415 483 485
3 415 485 419
3 416 420 484
3 486 484 420
3 419 485 489
3 419 489 423
3 420 426 427
3 420 427 421
3 420 421 487
3 420 487 486
3 421 427 428
3 421 428 422
3 421 422 488
3 421 488 487
3 422 428 492
3 422 492 488
3 423 489 424
3 490 424 489
3 424 490 425
3 491 425 490
3 425 491 429
3 493 429 491
3 426 430 431
3 426 431 427
3 427 431 432
3 427 432 428
3 428 432 494
3 428 494 492
3 429 493 433
3 495 433 493
3 432 434 494
3 496 494 434
3 433 495 435
3 497 435 495
3 434 436 496
3 498 496 436
3 435 497 439
3 501 439 497
3 436 437 498
3 499 498 437
3 437 438 499
3 500 499 438
3 438 442 500
3 502 500 442
3 439 443 440
3 444 440 443
3 439 501 503
3 439 503 443
3 440 444 441
3 445 441 444
3 442 446 502
3 504 502 446
3 443 447 448
3 443 448 444
3 443 503 505
3 443 505 447
3 444 448 449
3 444 449 445
3 446 450 508
3 446 508 504
3 447 505 506
3 447 506 448
3 448 506 507
3 448 507 449
3 449 507 509
3 449 509 451
3 450 452 510
3 450 510 508
3 451 509 513
3 451 513 455
3 452 453 511
3 452 511 510
3 453 454 512
3 453 512 511
3 454 458 514
3 454 514 512
3 455 459 460
3 455 460 456
3 455 513 459
3 515 459 513
3 456 460 457
3 461 457 460
3 458 462 514
3 516 514 462
3 459 463 460
3 464 460 463
3 459 515 463
3 517 463 515
3 460 464 461
3 465 461 464
3 462 466 516
3 520 516 466
3 463 517 464
3 518 464 517
3 464 518 465
3 519 465 518
3 465 519 467
3 521 467 519
3 466 468 520
3 522 520 468
3 467 521 471
3 525 471 521
3 468 469 522
3 523 522 469
3 469 470 523
3 524 523 470
3 470 472 526
3 470 526 524
3 471 525 527
3 471 527 473
3 472 474 528
3 472 528 526
3 473 527 530
3 473 530 476
3 474 475 529
3 474 529 528
3 475 477 478
3 475 478 476
3 475 476 530
3 475 530 529
3 479 531 532
3 479 532 480
3 479 484 536
3 479 536 531
3 480 532 533
3 480 533 481
3 481 533 534
3 481 534 482
3 482 534 535
3 482 535 483
3 483 535 485
3 537 485 535
3 484 486 536
3 538 536 486
3 485 537 489
3 541 489 537
3 486 487 538
3 539 538 487
3 487 488 539
3 540 539 488
3 488 492 540
3 544 540 492
3 489 541 490
3 542 490 541
3 490 542 491
3 543 491 542
3 491 543 493
3 547 493 543
3 492 494 544
3 548 544 494
3 493 547 495
3 551 495 547
3 494 496 548
3 552 548 496
3 495 551 553
3 495 553 497
3 496 498 552
3 554 552 498
3 497 553 557
3 497 557 501
3 498 499 555
3 498 555 554
3 499 500 556
3 499 556 555
3 500 502 558
3 500 558 556
3 501 557 559
3 501 559 503
3 502 504 560
3 502 560 558
3 503 559 561
3 503 561 505
3 504 508 564
3 504 564 560
3 505 561 562
3 505 562 506
3 506 562 563
3 506 563 507
3 507 563 567
3 507 567 509
3 508 510 568
3 508 568 564
3 509 567 513
3 572 513 567
3 510 511 569
3 510 569 568
3 511 512 570
3 511 570 569
3 512 514 570
3 573 570 514
3 513 572 515
3 575 515 572
3 514 516 573
3 576 573 516
3 515 575 517
3 578 517 575
3 516 520 576
3 581 576 520
3 517 578 518
3 579 518 578
3 518 579 519
3 580 519 579
3 519 580 521
3 584 521 580
3 520 522 581
3 585 581 522
3 521 584 589
3 521 589 525
3 522 523 585
3 586 585 523
3 523 524 586
3 587 586 524
3 524 526 587
3 590 587 526
3 525 589 591
3 525 591 527
3 526 528 592
3 526 592 590
3 527 591 594
3 527 594 530
3 528 529 593
3 528 593 592
3 529 530 594
3 529 594 593
3 531 595 596
3 531 596 532
3 531 536 600
3 531 600 595
3 532 596 597
3 532 597 533
3 533 597 534
3 598 534 597
3 534 598 535
3 599 535 598
3 535 599 537
3 601 537 599
3 536 538 602
3 536 602 600
3 537 601 541
3 605 541 601
3 538 539 603
3 538 603 602
3 539 540 604
3 539 604 603
3 540 544 604
3 606 604 544
3 541 545 542
3 546 542 545
3 541 605 545
3 607 545 605
3 542 546 543
3 547 543 546
3 544 548 606
3 608 606 548
3 545 549 546
3 550 546 549
3 545 607 549
3 609 549 607
3 546 550 547
3 551 547 550
3 548 552 608
3 612 608 552
3 549 609 550
3 610 550 609
3 550 610 611
3 550 611 551
3 551 611 613
3 551 613 553
3 552 554 612
3 614 612 554
3 553 613 617
3 553 617 557
3 554 555 615
3 554 615 614
3 555 556 616
3 555 616 615
3 556 558 618
3 556 618 616
3 557 617 619
3 557 619 559
3 558 560 620
3 558 620 618
3 559 619 621
3 559 621 561
3 560 564 622
3 560 622 620
3 561 565 566
3 561 566 562
3 561 621 623
3 561 623 565
3 562 566 567
3 562 567 563
3 564 568 624
3 564 624 622
3 565 570 571
3 565 571 566
3 565 623 626
3 565 626 570
3 566 571 572
3 566 572 567
3 568 569 625
3 568 625 624
3 569 570 625
3 626 625 570
3 570 573 571
3 574 571 573
3 571 574 572
3 575 572 574
3 573 576 574
3 577 574 576
3 574 577 575
3 578 575 577
3 576 627 577
3 628 577 627
3 576 581 627
3 630 627 581
3 577 628 578
3 629 578 628
3 578 582 579
3 583 579 582
3 578 629 582
3 631 582 629
3 579 583 580
3 584 580 583
3 581 585 630
3 633 630 585
3 582 631 583
3 632 583 631
3 583 588 589
3 583 589 584
3 583 632 588
3 636 588 632
3 585 586 634
3 585 634 633
3 586 587 635
3 586 635 634
3 587 590 638
3 587 638 635
3 588 636 637
3 588 637 589
3 589 637 639
3 589 639 591
3 590 592 640
3 590 640 638
3 591 639 642
3 591 642 594
3 592 593 641
3 592 641 640
3 593 594 642
3 593 642 641
3 595 643 644
3 595 644 596
3 595 600 648
3 595 648 643
3 596 644 645
3 596 645 597
3 597 645 646
3 597 646 598
3 598 646 647
3 598 647 599
3 599 647 651
3 599 651 601
3 600 602 648
3 652 648 602
3 601 651 605
3 656 605 651
3 602 603 652
3 653 652 603
3 603 604 653
3 654 653 604
3 604 606 654
3 657 654 606
3 605 656 607
3 658 607 656
3 606 608 657
3 659 657 608
3 607 658 609
3 661 609 658
3 608 612 659
3 664 659 612
3 609 661 610
3 662 610 661
3 610 662 611
3 663 611 662
3 611 663 613
3 668 613 663
3 612 614 664
3 669 664 614
3 613 668 617
3 673 617 668
3 614 615 670
3 614 670 669
3 615 616 671
3 615 671 670
3 616 618 674
3 616 674 671
3 617 673 676
3 617 676 619
3 618 620 677
3 618 677 674
3 619 676 679
3 619 679 621
3 620 622 680
3 620 680 677
3 621 679 682
3 621 682 623
3 622 624 683
3 622 683 680
3 623 682 685
3 623 685 626
3 624 625 684
3 624 684 683
3 625 626 685
3 625 685 684
3 627 686 628
3 687 628 686
3 627 630 689
3 627 689 686
3 628 687 629
3 688 629 687
3 629 688 631
3 691 631 688
3 630 633 689
3 693 689 633
3 631 691 632
3 692 632 691
3 632 692 636
3 696 636 692
3 633 634 693
3 694 693 634
3 634 635 694
3 695 694 635
3 635 638 695
3 698 695 638
3 636 696 637
3 697 637 696
3 637 697 639
3 700 639 697
3 638 640 698
3 701 698 640
3 639 700 642
3 703 642 700
3 640 641 701
3 702 701 641
3 641 642 702
3 703 702 642
3 643 704 705
3 643 705 644
3 643 648 707
3 643 707 704
3 644 705 706
3 644 706 645
3 645 649 650
3 645 650 646
3 645 706 708
3 645 708 649
3 646 650 651
3 646 651 647
3 648 652 710
3 648 710 707
3 649 708 709
3 649 709 650
3 650 655 656
3 650 656 651
3 650 709 713
3 650 713 655
3 652 653 711
3 652 711 710
3 653 654 712
3 653 712 711
3 654 657 715
3 654 715 712
3 655 713 714
3 655 714 656
3 656 714 716
3 656 716 658
3 657 659 717
3 657 717 715
3 658 716 719
3 658 719 661
3 659 664 660
3 665 660 664
3 659 660 718
3 659 718 717
3 660 665 661
3 666 661 665
3 660 661 718
3 719 718 661
3 661 666 662
3 667 662 666
3 662 667 663
3 668 663 667
3 664 669 665
3 670 665 669
3 665 670 666
3 671 666 670
3 666 671 667
3 672 667 671
3 667 672 668
3 673 668 672
3 671 674 672
3 675 672 674
3 672 675 673
3 676 673 675
3 674 677 675
3 678 675 677
3 675 678 679
3 675 679 676
3 677 680 681
3 677 681 678
3 678 681 682
3 678 682 679
3 680 683 684
3 680 684 681
3 681 684 685
3 681 685 682
3 686 689 690
3 686 690 687
3 687 690 691
3 687 691 688
3 689 693 694
3 689 694 690
3 690 694 695
3 690 695 691
3 691 695 692
3 696 692 695
3 695 698 696
3 699 696 698
3 696 699 697
3 700 697 699
3 698 701 699
3 702 699 701
3 699 702 700
3 703 700 702
3 704 720 721
3 704 721 705
3 704 707 720
3 723 720 707
3 705 721 722
3 705 722 706
3 706 722 725
3 706 725 708
3 707 710 727
3 707 727 723
3 708 725 726
3 708 726 709
3 709 726 730
3 709 730 713
3 710 711 728
3 710 728 727
3 711 712 729
3 711 729 728
3 712 715 732
3 712 732 729
3 713 730 731
3 713 731 714
3 714 731 734
3 714 734 716
3 715 717 735
3 715 735 732
3 716 734 719
3 737 719 734
3 717 718 736
3 717 736 735
3 718 719 737
3 718 737 736
3 720 723 724
3 720 724 721
3 721 724 725
3 721 725 722
3 723 727 724
3 728 724 727
3 724 728 725
3 729 725 728
3 725 729 726
3 730 726 729
3 729 732 730
3 733 730 732
3 730 733 731
3 734 731 733
3 732 735 733
3 736 733 735
3 733 736 734
3 737 734 736
