ply
format ascii 1.0
element vertex 426
property float x
property float y
property float z
property uchar red
property uchar green
property uchar blue
element face 848
property list uchar int vertex_index
end_header
-33.2076 -7.43171 -15.2453 0 0 143
-33.439 -7.44299 -15.2155 0 0 182
-33.6577 -7.37016 -15.2471 0 0 130
-33.1936 -7.45132 -15.5012 0 0 172
-33.4668 -7.51654 -15.5023 0 0 157
-33.7153 -7.39396 -15.5032 0 0 162
-33.2326 -7.39287 -15.7649 0 0 134
-33.4835 -7.41841 -15.7978 0 0 188
-33.719 -7.35652 -15.7675 0 0 161
-32.9989 -7.13913 -15.0708 0 112 255
-33.3701 -7.11327 -14.9409 0 0 203
-33.7278 -7.00277 -15.0766 0 61 255
-32.8999 -7.13137 -15.5005 0 0 237
-33.911 -6.98367 -15.5076 0 186 255
-33.0474 -7.04855 -15.9626 0 118 255
-33.4915 -7.06418 -16.1086 0 176 255
-33.8892 -6.98184 -15.9717 0 2 255
-29.5978 -5.40354 -13.377 0 0 200
-29.9955 -5.50346 -13.315 0 0 242
-30.6795 -5.59527 -13.2971 0 158 255
-31.5103 -5.6771 -13.3005 84 255 171
-32.3477 -5.72157 -13.3332 0 255 255
-33.0541 -5.69042 -13.4005 0 179 255
-33.4951 -5.59838 -13.5181 0 0 231
-29.5356 -5.46756 -13.6515 0 0 215
-29.9739 -5.68863 -13.7 0 43 255
-30.6737 -5.85952 -13.8104 67 255 188
-31.5297 -6.04688 -13.8535 10 255 245
-32.3955 -6.18232 -13.8892 61 255 194
-33.1219 -6.12935 -13.8841 0 148 255
-33.6478 -5.84684 -13.9511 0 171 255
-29.5429 -5.46239 -13.9688 0 0 177
-29.9203 -5.62871 -14.165 0 156 255
-30.6428 -5.83864 -14.5392 129 255 126
-31.5758 -6.22402 -14.582 149 255 106
-32.5256 -6.60345 -14.6807 119 255 136
-33.2397 -6.58384 -14.5136 90 255 165
-33.8359 -6.26097 -14.7008 242 255 13
-30.9945 -5.81341 -15.293 0 137 255
-31.6614 -6.19569 -15.3423 32 255 223
-32.411 -6.61859 -15.4838 244 255 11
-34.1767 -6.26851 -15.5039 0 243 255
-31.2033 -5.70988 -15.8072 0 94 255
-31.7298 -5.96113 -16.0287 86 255 169
-32.6055 -6.34762 -16.439 255 169 0
-33.5258 -6.5283 -16.6477 92 255 163
-34.34 -6.23467 -16.474 140 0 0
-35.0994 -5.78635 -17.0538 0 240 255
-35.5096 -5.55452 -17.3518 0 26 255
-32.9156 -6.04768 -17.5221 255 169 0
-33.6485 -6.26302 -17.533 135 255 120
-34.4056 -6.19699 -17.5334 96 255 159
-35.0958 -5.94896 -17.7105 0 108 255
-35.585 -5.61148 -17.8334 0 70 255
-33.0938 -5.87384 -18.3976 0 127 255
-33.7433 -6.09437 -18.3848 22 255 233
-34.45 -6.11364 -18.3954 22 255 233
-35.112 -5.95109 -18.4486 62 255 193
-35.6191 -5.61925 -18.4985 0 157 255
-33.23 -5.74243 -19.1287 0 208 255
-33.8047 -5.92797 -19.1261 0 187 255
-34.4704 -5.96408 -19.139 0 187 255
-35.1059 -5.84972 -19.1452 0 37 255
-35.585 -5.57458 -19.1576 0 131 255
-33.3562 -5.6274 -19.6145 0 0 227
-33.8241 -5.69939 -19.709 0 94 255
-34.4679 -5.71151 -19.749 0 213 255
-35.0869 -5.63382 -19.7133 0 130 255
-35.4946 -5.49634 -19.6223 0 0 166
-29.5026 -5.00162 -13.3138 0 0 224
-29.967 -5.03174 -13.0858 0 164 255
-30.6706 -5.069 -12.9722 87 255 168
-31.5039 -5.0997 -12.9419 62 255 193
-32.3433 -5.11331 -12.9879 23 255 232
-33.0714 -5.10514 -13.1288 0 148 255
-33.6009 -5.10439 -13.4097 0 144 255
-29.3262 -5.0234 -13.6975 0 112 255
-33.9321 -5.20932 -13.9118 0 234 255
-29.3923 -5.07838 -14.1597 0 104 255
-29.7307 -5.27601 -14.5294 0 37 255
-30.1917 -5.41608 -14.9231 0 142 255
-34.1949 -5.3575 -14.6095 51 255 204
-30.5512 -5.3593 -15.4908 0 152 255
-34.4846 -5.38957 -15.3764 255 93 0
-30.9342 -5.26449 -16.0887 7 255 248
-31.4971 -5.47775 -16.5174 19 255 236
-32.049 -5.67613 -16.9668 193 255 62
-34.7986 -5.34818 -16.1391 0 247 255
-35.2779 -5.19166 -16.7426 75 255 180
-35.661 -5.0878 -17.2515 0 160 255
-32.3469 -5.59173 -17.6906 0 199 255
-35.867 -5.07831 -17.8432 0 220 255
-32.5498 -5.48079 -18.4853 93 255 162
-35.9393 -5.07774 -18.546 0 249 255
-32.7627 -5.38395 -19.2507 0 118 255
-35.8691 -5.06759 -19.2684 0 229 255
-33.1008 -5.30609 -19.8761 0 195 255
-33.7226 -5.33314 -20.1715 0 225 255
-34.44 -5.32118 -20.2579 0 156 255
-35.1135 -5.22826 -20.1694 0 180 255
-35.6209 -5.0777 -19.877 0 200 255
-29.4242 -4.3055 -13.2905 50 255 205
-29.9339 -4.31464 -12.9657 0 185 255
-30.6594 -4.32722 -12.7947 7 255 248
-31.502 -4.33689 -12.744 130 255 125
-32.3498 -4.34046 -12.8006 121 255 134
-33.0984 -4.33924 -12.9836 61 255 194
-33.6751 -4.34675 -13.3313 11 255 244
-29.1889 -4.31305 -13.7991 0 100 255
-34.075 -4.38702 -13.8696 230 255 25
-29.2413 -4.34413 -14.5111 95 255 160
-29.6096 -4.80059 -14.9114 0 153 255
-29.9572 -5.04458 -15.1616 0 33 255
-34.373 -4.43902 -14.556 158 255 97
-29.3098 -3.97201 -15.2206 41 255 214
-29.6831 -4.42043 -15.4549 0 209 255
-30.1591 -4.83469 -15.6615 0 237 255
-34.6609 -4.45659 -15.2918 63 255 192
-29.4293 -3.74688 -15.6802 0 0 249
-29.806 -3.98903 -15.9953 0 158 255
-30.5323 -4.43572 -16.5365 199 0 0
-31.293 -4.96275 -16.9983 61 255 194
-31.7484 -5.25284 -17.2414 0 19 255
-34.9952 -4.44016 -15.9909 134 255 121
-35.402 -4.39083 -16.6027 48 255 207
-35.7719 -4.35361 -17.1849 10 255 245
-30.8758 -4.10476 -17.6197 255 78 0
-31.3951 -4.68007 -17.7364 5 255 250
-31.8865 -5.13179 -17.7988 0 127 255
-36.021 -4.34374 -17.8384 121 255 134
-31.0698 -3.94999 -18.5537 115 255 140
-31.5347 -4.52149 -18.5761 97 255 158
-32.0492 -5.01543 -18.5693 30 255 225
-36.1228 -4.33981 -18.5959 9 255 246
-31.1985 -3.86184 -19.4634 0 170 255
-31.6828 -4.40992 -19.459 100 255 155
-32.2667 -4.90682 -19.4167 255 233 0
-36.0544 -4.32987 -19.4233 131 255 124
-31.3129 -3.77512 -20.321 91 255 164
-31.8537 -4.26692 -20.3263 101 255 154
-32.6651 -4.74564 -20.319 255 152 0
-33.5688 -4.84803 -20.671 72 255 183
-34.3948 -4.83159 -20.7647 13 255 242
-35.1335 -4.68056 -20.6587 21 255 234
-35.7567 -4.31195 -20.307 132 255 123
-31.4197 -3.6502 -21.0313 0 129 255
-31.9263 -3.9985 -21.0701 16 255 239
-32.6666 -4.25129 -21.1312 18 255 237
-33.5209 -4.34521 -21.2587 28 255 227
-34.3584 -4.32851 -21.2943 33 255 222
-35.0855 -4.1936 -21.22 0 213 255
-35.6122 -3.88382 -21.0757 51 255 204
-31.5375 -3.51396 -21.4621 0 0 206
-31.9669 -3.64341 -21.5777 0 88 255
-32.6713 -3.75339 -21.6713 0 240 255
-33.5058 -3.8021 -21.736 199 255 56
-34.3376 -3.7932 -21.7296 0 230 255
-35.0415 -3.72976 -21.6402 0 102 255
-35.4784 -3.6283 -21.4984 0 0 171
-29.3674 -3.4373 -13.2774 0 209 255
-29.9098 -3.44096 -12.9119 151 255 104
-30.6512 -3.44402 -12.7144 160 255 95
-31.5011 -3.44621 -12.6542 195 255 60
-32.3549 -3.44725 -12.7163 171 255 84
-33.1142 -3.44798 -12.9182 113 255 142
-33.7108 -3.4524 -13.2927 85 255 170
-29.0748 -3.43159 -13.8209 38 255 217
-34.1349 -3.4661 -13.8484 22 255 233
-29.0215 -3.40654 -14.4993 64 255 191
-34.4452 -3.48354 -14.5363 250 255 5
-29.1119 -3.28778 -15.1816 0 231 255
-34.733 -3.49355 -15.2644 162 255 93
-29.3328 -3.21794 -15.7513 0 152 255
-29.7173 -3.28627 -16.2525 119 255 136
-30.2074 -3.39449 -16.8587 239 255 16
-35.0667 -3.49718 -15.95 212 255 43
-35.4532 -3.49813 -16.5638 0 243 255
-35.8168 -3.49814 -17.1647 54 255 201
-30.5548 -3.32227 -17.6857 61 255 194
-36.0803 -3.49619 -17.8394 0 249 255
-30.7632 -3.25844 -18.5698 44 255 211
-36.2092 -3.49034 -18.6203 116 255 139
-30.8899 -3.2168 -19.4712 168 255 87
-36.197 -3.47373 -19.4733 151 255 104
-31.0029 -3.17928 -20.3282 0 201 255
-36.0538 -3.42452 -20.3285 255 213 0
-31.1634 -3.13302 -21.0523 0 200 255
-35.865 -3.2701 -21.0662 0 134 255
-31.4412 -3.09298 -21.5587 0 135 255
-31.946 -3.11517 -21.8354 0 186 255
-32.6648 -3.14077 -21.9824 34 255 221
-33.5015 -3.15519 -22.0385 0 240 255
-34.338 -3.15722 -22.0013 20 255 235
-35.0588 -3.15253 -21.8577 0 177 255
-35.5709 -3.16004 -21.5747 0 86 255
-29.3469 -2.49746 -13.2728 0 234 255
-29.9011 -2.49436 -12.8961 112 255 143
-30.6484 -2.49066 -12.6905 188 255 67
-31.5008 -2.48927 -12.6271 224 255 31
-32.3563 -2.49102 -12.6915 198 255 57
-33.1187 -2.49533 -12.8997 139 255 116
-33.7198 -2.50011 -13.2829 106 255 149
-29.0345 -2.49883 -13.8248 130 255 125
-34.1477 -2.50538 -13.8473 224 255 31
-28.9549 -2.49914 -14.4985 128 255 127
-34.457 -2.51236 -14.5456 74 255 181
-29.0482 -2.49964 -15.1812 0 165 255
-34.7394 -2.52366 -15.2904 176 255 79
-29.2901 -2.49989 -15.7821 0 208 255
-29.6707 -2.4999 -16.3289 22 255 233
-30.1103 -2.49998 -16.9462 132 255 123
-35.0687 -2.54907 -15.9952 123 255 132
-35.4492 -2.60066 -16.6062 63 255 192
-35.8013 -2.63835 -17.19 19 255 236
-30.448 -2.49993 -17.7192 57 255 198
-36.0545 -2.64243 -17.853 47 255 208
-30.6563 -2.49932 -18.5809 217 255 38
-36.1894 -2.6339 -18.6333 103 255 152
-30.7815 -2.49763 -19.476 82 255 173
-36.2088 -2.62087 -19.4896 124 255 131
-30.8965 -2.4938 -20.3337 16 255 239
-36.1218 -2.59653 -20.3372 0 253 255
-31.0772 -2.48608 -21.0666 0 232 255
-35.9363 -2.54679 -21.071 42 255 213
-31.3985 -2.47085 -21.6004 0 92 255
-31.9293 -2.44012 -21.9223 0 209 255
-32.659 -2.40122 -22.0936 62 255 193
-33.5003 -2.39091 -22.1548 106 255 149
-34.3418 -2.40669 -22.0989 62 255 193
-35.0728 -2.4539 -21.9288 0 211 255
-35.6077 -2.50011 -21.6055 0 158 255
-29.3668 -1.55178 -13.2753 43 255 212
-29.9096 -1.53643 -12.9067 94 255 161
-30.6516 -1.51914 -12.7049 183 255 72
-31.5011 -1.51215 -12.6417 224 255 31
-32.3542 -1.51796 -12.7073 197 255 58
-33.1133 -1.53421 -12.9147 129 255 126
-33.7074 -1.54778 -13.2955 86 255 169
-29.0741 -1.56249 -13.8202 35 255 220
-34.1239 -1.55292 -13.8635 13 255 242
-29.0211 -1.58843 -14.499 0 255 255
-34.4188 -1.5571 -14.5819 255 245 0
-29.1118 -1.71015 -15.1816 43 255 212
-34.686 -1.57164 -15.3759 231 255 24
-29.3328 -1.78137 -15.7513 0 155 255
-29.7174 -1.71301 -16.2526 59 255 196
-30.2071 -1.6054 -16.8591 225 255 30
-35.0093 -1.621 -16.1597 157 255 98
-35.4034 -1.77916 -16.755 8 255 247
-35.7334 -1.88713 -17.2642 0 158 255
-30.5522 -1.67769 -17.6861 253 255 2
-35.9399 -1.88032 -17.8771 0 208 255
-30.7551 -1.73909 -18.5706 23 255 232
-36.0522 -1.856 -18.6413 45 255 210
-30.8724 -1.77474 -19.4725 79 255 176
-36.0774 -1.84243 -19.4935 149 255 106
-30.9769 -1.8 -20.3299 10 255 245
-36.0179 -1.84161 -20.3352 4 255 251
-31.1396 -1.82483 -21.0553 0 115 255
-35.8632 -1.84711 -21.0572 0 60 255
-31.4248 -1.8301 -21.5656 0 92 255
-31.9292 -1.72723 -21.8493 0 246 255
-32.6569 -1.58084 -22.0087 115 255 140
-33.5001 -1.54925 -22.0884 156 255 99
-34.3432 -1.58228 -22.0098 108 255 147
-35.0715 -1.73134 -21.8508 0 183 255
-35.5771 -1.84012 -21.567 0 160 255
-29.422 -0.661762 -13.2846 20 255 235
-29.9333 -0.620891 -12.9517 118 255 137
-30.6615 -0.566661 -12.768 175 255 80
-31.5016 -0.546043 -12.7068 206 255 49
-32.3465 -0.561675 -12.7753 154 255 101
-33.0956 -0.613102 -12.9737 52 255 203
-33.667 -0.65327 -13.3348 14 255 241
-29.186 -0.665934 -13.7966 0 196 255
-34.0487 -0.660818 -13.8945 69 255 186
-29.2396 -0.633978 -14.5096 98 255 157
-29.6099 -0.152312 -14.9076 0 175 255
-29.962 0.117984 -15.1542 0 56 255
-34.3067 -0.659835 -14.635 0 211 255
-29.3095 -1.02011 -15.2204 0 174 255
-29.6838 -0.560714 -15.4543 0 225 255
-30.1626 -0.128692 -15.6601 5 255 250
-34.5369 -0.664741 -15.5138 232 255 23
-29.4293 -1.25063 -15.6802 0 0 245
-29.8062 -1.00704 -15.9956 0 206 255
-30.5315 -0.564095 -16.5384 128 0 0
-31.2828 -0.073751 -17.0049 0 216 255
-31.7223 0.178439 -17.2538 0 0 248
-34.8482 -0.680909 -16.5599 255 99 0
-35.34 -1.12487 -17.0869 63 255 192
-35.6383 -1.3864 -17.3739 0 35 255
-30.8671 -0.897236 -17.6216 150 255 105
-31.3729 -0.335888 -17.7431 103 255 152
-31.8423 0.085478 -17.816 0 180 255
-34.9171 -0.306024 -17.5821 251 255 4
-35.3736 -0.803178 -17.7633 0 215 255
-35.7256 -1.27745 -17.8819 0 183 255
-31.0446 -1.04491 -18.5575 207 255 48
-31.4765 -0.473896 -18.5897 124 255 131
-31.9465 0.005794 -18.6094 5 255 250
-34.9482 -0.14975 -18.5307 153 255 102
-35.4067 -0.657987 -18.5916 18 255 237
-35.7894 -1.20391 -18.6351 0 201 255
-31.1441 -1.11832 -19.4691 139 255 116
-31.5525 -0.554845 -19.4798 0 228 255
-32.0229 -0.057192 -19.4863 34 255 221
-34.941 -0.109125 -19.4617 51 255 204
-35.4072 -0.617388 -19.4788 48 255 207
-35.8036 -1.1791 -19.4901 0 221 255
-31.2292 -1.17739 -20.3257 0 168 255
-31.6312 -0.640932 -20.3375 2 255 253
-32.1129 -0.143469 -20.3452 18 255 237
-34.8776 -0.157669 -20.3386 0 129 255
-35.3585 -0.65919 -20.3369 19 255 236
-35.7591 -1.20015 -20.3307 72 255 183
-31.3476 -1.26006 -21.0358 0 124 255
-31.752 -0.799603 -21.0708 0 172 255
-32.2844 -0.319626 -21.0963 0 255 255
-34.7137 -0.322739 -21.0949 0 255 255
-35.2462 -0.804292 -21.0707 0 221 255
-35.6511 -1.26856 -21.037 0 167 255
-31.4965 -1.36792 -21.4717 0 15 255
-31.9099 -1.11589 -21.5925 0 126 255
-32.648 -0.696718 -21.6917 201 255 54
-33.5 -0.692128 -21.8677 104 255 151
-34.3518 -0.697336 -21.6917 242 255 13
-35.09 -1.11754 -21.5927 0 183 255
-35.5037 -1.37163 -21.4721 0 0 221
-29.4966 0.079663 -13.3018 0 104 255
-29.9655 0.184114 -13.0585 0 160 255
-30.6808 0.339339 -12.9164 122 255 133
-31.5019 0.385881 -12.8493 176 255 79
-32.328 0.356504 -12.9347 145 255 110
-33.0645 0.209155 -13.1103 0 228 255
-33.588 0.104548 -13.4099 0 145 255
-29.3174 0.081193 -13.6909 0 116 255
-33.8898 0.106236 -13.9301 0 220 255
-29.3867 0.141833 -14.1537 0 94 255
-29.7304 0.387223 -14.5159 0 96 255
-30.2058 0.582504 -14.8968 0 215 255
-34.0756 0.118509 -14.6634 86 255 169
-30.5618 0.435765 -15.486 0 204 255
-34.2195 0.120082 -15.547 182 255 73
-30.9363 0.264138 -16.0948 15 255 240
-31.4813 0.399839 -16.5331 0 242 255
-31.9913 0.505616 -16.9957 22 255 233
-34.3603 0.139012 -16.527 255 211 0
-32.2681 0.471459 -17.726 4 255 251
-34.4328 0.258011 -17.5239 21 255 234
-32.4159 0.425323 -18.5781 0 183 255
-34.4648 0.332808 -18.5003 70 255 185
-32.5007 0.382252 -19.4736 0 250 255
-34.46 0.350635 -19.4476 23 255 232
-32.5834 0.319009 -20.3301 24 255 231
-34.4063 0.310528 -20.3229 32 255 223
-32.7272 0.205812 -21.051 0 144 255
-34.2707 0.204074 -21.0494 0 122 255
-33.0029 0.049856 -21.5356 0 10 255
-33.4999 0.026919 -21.6805 0 102 255
-33.9968 0.04959 -21.5353 0 144 255
-29.5857 0.541808 -13.3584 0 0 145
-29.9891 0.778855 -13.2757 0 58 255
-30.7243 1.20926 -13.21 66 255 189
-31.5017 1.26112 -13.0715 58 255 197
-32.284 1.25948 -13.2458 133 255 122
-33.04 0.846738 -13.3802 0 217 255
-33.4804 0.598626 -13.5146 0 26 255
-29.5142 0.596629 -13.6355 0 35 255
-29.9254 0.969593 -13.6586 0 137 255
-30.5297 1.43301 -13.7067 0 176 255
-32.4831 1.58381 -13.7843 74 255 181
-33.1159 1.13046 -13.8908 0 179 255
-33.6072 0.691851 -13.9516 0 74 255
-29.5311 0.581347 -13.9547 0 0 199
-29.9146 0.851444 -14.1292 0 131 255
-30.688 1.28372 -14.4335 255 124 0
-31.5464 1.60434 -14.6048 77 255 178
-32.3242 1.60427 -14.4901 125 255 130
-33.12 1.18806 -14.6218 81 255 174
-33.6953 0.728283 -14.667 94 255 161
-31.0155 0.939851 -15.2807 0 166 255
-31.6687 1.19547 -15.361 38 255 217
-32.4176 1.2401 -15.4728 166 255 89
-33.168 1.07025 -15.5301 172 255 83
-33.7718 0.701943 -15.5505 193 255 62
-31.2065 0.709214 -15.8178 0 84 255
-31.6986 0.832615 -16.0598 12 255 243
-32.4337 0.897618 -16.5177 187 255 68
-33.2271 0.931005 -16.5155 133 255 122
-33.8482 0.669134 -16.5181 16 255 239
-32.758 0.785853 -17.5651 76 255 179
-33.3559 0.866268 -17.5187 44 255 211
-33.9206 0.678771 -17.5098 67 255 188
-32.9095 0.735855 -18.5235 64 255 191
-33.4401 0.838446 -18.4973 0 244 255
-33.9645 0.692237 -18.4912 0 209 255
-32.9834 0.700914 -19.4528 0 209 255
-33.48 0.814236 -19.4419 0 193 255
-33.9755 0.686478 -19.4403 0 236 255
-33.0359 0.649691 -20.3113 0 146 255
-33.4947 0.765836 -20.3058 0 121 255
-33.9533 0.645961 -20.3076 0 171 255
-33.104 0.558409 -21.0065 0 44 255
-33.4989 0.663406 -21.0061 0 21 255
-33.8938 0.557689 -21.0057 0 101 255
-33.192 0.433875 -21.4141 0 0 215
-33.4998 0.46398 -21.4569 0 0 219
-33.8076 0.433752 -21.4139 0 0 170
-31.0824 1.96832 -13.3098 0 86 255
-31.5006 1.97905 -13.2092 0 54 255
-31.92 2.00158 -13.3223 0 31 255
-30.9469 2.03452 -13.6233 0 0 214
-32.0577 2.11286 -13.647 0 0 208
-31.0774 2.02694 -13.9913 0 62 255
-31.5132 2.12411 -14.1131 0 75 255
-31.932 2.13793 -14.0093 0 121 255
-31.2488 2.35069 -13.3664 0 0 163
-31.5003 2.39178 -13.3371 0 0 172
-31.752 2.36946 -13.3708 0 0 138
-31.2173 2.40982 -13.5674 0 0 171
-31.5009 2.51428 -13.557 0 0 135
-31.7844 2.44246 -13.5739 0 0 157
-31.2483 2.38516 -13.7925 0 0 147
-31.5036 2.44848 -13.8179 0 0 166
-31.7559 2.43093 -13.7987 0 0 128
3 0 1 3
3 4 3 1
3 0 9 1
3 10 1 9
3 0 3 12
3 0 12 9
3 1 2 4
3 5 4 2
3 1 10 11
3 1 11 2
3 2 11 5
3 13 5 11
3 3 4 6
3 7 6 4
3 3 6 14
3 3 14 12
3 4 5 8
3 4 8 7
3 5 13 8
3 16 8 13
3 6 7 14
3 15 14 7
3 7 8 16
3 7 16 15
3 9 35 36
3 9 36 10
3 9 12 40
3 9 40 35
3 10 36 11
3 37 11 36
3 11 37 13
3 41 13 37
3 12 14 40
3 44 40 14
3 13 41 46
3 13 46 16
3 14 15 44
3 45 44 15
3 15 16 46
3 15 46 45
3 17 18 24
3 25 24 18
3 17 69 70
3 17 70 18
3 17 24 76
3 17 76 69
3 18 19 25
3 26 25 19
3 18 70 19
3 71 19 70
3 19 20 26
3 27 26 20
3 19 71 20
3 72 20 71
3 20 21 28
3 20 28 27
3 20 72 21
3 73 21 72
3 21 22 29
3 21 29 28
3 21 73 22
3 74 22 73
3 22 23 30
3 22 30 29
3 22 74 75
3 22 75 23
3 23 75 77
3 23 77 30
3 24 25 31
3 32 31 25
3 24 31 78
3 24 78 76
3 25 26 32
3 33 32 26
3 26 27 34
3 26 34 33
3 27 28 35
3 27 35 34
3 28 29 36
3 28 36 35
3 29 30 36
3 37 36 30
3 30 77 37
3 81 37 77
3 31 32 78
3 79 78 32
3 32 33 80
3 32 80 79
3 33 34 39
3 33 39 38
3 33 38 82
3 33 82 80
3 34 35 40
3 34 40 39
3 37 81 83
3 37 83 41
3 38 39 42
3 43 42 39
3 38 42 84
3 38 84 82
3 39 40 43
3 44 43 40
3 41 83 46
3 87 46 83
3 42 43 85
3 42 85 84
3 43 44 86
3 43 86 85
3 44 45 49
3 50 49 45
3 44 49 86
3 90 86 49
3 45 46 50
3 51 50 46
3 46 47 51
3 52 51 47
3 46 87 88
3 46 88 47
3 47 48 52
3 53 52 48
3 47 88 89
3 47 89 48
3 48 89 91
3 48 91 53
3 49 50 55
3 49 55 54
3 49 54 92
3 49 92 90
3 50 51 56
3 50 56 55
3 51 52 57
3 51 57 56
3 52 53 57
3 58 57 53
3 53 91 58
3 93 58 91
3 54 55 59
3 60 59 55
3 54 59 92
3 94 92 59
3 55 56 60
3 61 60 56
3 56 57 61
3 62 61 57
3 57 58 63
3 57 63 62
3 58 93 95
3 58 95 63
3 59 60 65
3 59 65 64
3 59 64 94
3 96 94 64
3 60 61 66
3 60 66 65
3 61 62 67
3 61 67 66
3 62 63 67
3 68 67 63
3 63 95 100
3 63 100 68
3 64 65 96
3 97 96 65
3 65 66 97
3 98 97 66
3 66 67 99
3 66 99 98
3 67 68 100
3 67 100 99
3 69 101 70
3 102 70 101
3 69 76 101
3 108 101 76
3 70 102 71
3 103 71 102
3 71 103 104
3 71 104 72
3 72 104 105
3 72 105 73
3 73 105 106
3 73 106 74
3 74 106 107
3 74 107 75
3 75 107 109
3 75 109 77
3 76 78 110
3 76 110 108
3 77 109 81
3 113 81 109
3 78 79 111
3 78 111 110
3 79 80 112
3 79 112 111
3 80 82 116
3 80 116 112
3 81 113 83
3 117 83 113
3 82 84 116
3 120 116 84
3 83 117 123
3 83 123 87
3 84 85 120
3 121 120 85
3 85 86 121
3 122 121 86
3 86 90 128
3 86 128 122
3 87 123 88
3 124 88 123
3 88 124 89
3 125 89 124
3 89 125 91
3 129 91 125
3 90 92 132
3 90 132 128
3 91 129 93
3 133 93 129
3 92 94 136
3 92 136 132
3 93 133 137
3 93 137 95
3 94 96 136
3 140 136 96
3 95 137 144
3 95 144 100
3 96 97 140
3 141 140 97
3 97 98 141
3 142 141 98
3 98 99 142
3 143 142 99
3 99 100 143
3 144 143 100
3 101 159 160
3 101 160 102
3 101 108 166
3 101 166 159
3 102 160 103
3 161 103 160
3 103 161 104
3 162 104 161
3 104 162 105
3 163 105 162
3 105 163 106
3 164 106 163
3 106 164 107
3 165 107 164
3 107 165 109
3 167 109 165
3 108 110 166
3 168 166 110
3 109 167 169
3 109 169 113
3 110 111 114
3 115 114 111
3 110 114 168
3 170 168 114
3 111 112 115
3 116 115 112
3 113 169 171
3 113 171 117
3 114 115 119
3 114 119 118
3 114 118 172
3 114 172 170
3 115 116 120
3 115 120 119
3 117 171 175
3 117 175 123
3 118 119 173
3 118 173 172
3 119 120 173
3 174 173 120
3 120 121 126
3 127 126 121
3 120 126 174
3 178 174 126
3 121 122 127
3 128 127 122
3 123 175 124
3 176 124 175
3 124 176 125
3 177 125 176
3 125 177 129
3 179 129 177
3 126 127 131
3 126 131 130
3 126 130 180
3 126 180 178
3 127 128 132
3 127 132 131
3 129 179 181
3 129 181 133
3 130 131 135
3 130 135 134
3 130 134 182
3 130 182 180
3 131 132 136
3 131 136 135
3 133 181 183
3 133 183 137
3 134 135 138
3 139 138 135
3 134 138 182
3 184 182 138
3 135 136 139
3 140 139 136
3 137 183 185
3 137 185 144
3 138 139 145
3 146 145 139
3 138 145 186
3 138 186 184
3 139 140 146
3 147 146 140
3 140 141 148
3 140 148 147
3 141 142 149
3 141 149 148
3 142 143 150
3 142 150 149
3 143 144 151
3 143 151 150
3 144 185 151
3 187 151 185
3 145 146 153
3 145 153 152
3 145 152 186
3 188 186 152
3 146 147 154
3 146 154 153
3 147 148 155
3 147 155 154
3 148 149 155
3 156 155 149
3 149 150 156
3 157 156 150
3 150 151 157
3 158 157 151
3 151 187 194
3 151 194 158
3 152 153 188
3 189 188 153
3 153 154 189
3 190 189 154
3 154 155 190
3 191 190 155
3 155 156 192
3 155 192 191
3 156 157 193
3 156 193 192
3 157 158 194
3 157 194 193
3 159 195 160
3 196 160 195
3 159 166 202
3 159 202 195
3 160 196 161
3 197 161 196
3 161 197 162
3 198 162 197
3 162 198 163
3 199 163 198
3 163 199 164
3 200 164 199
3 164 200 165
3 201 165 200
3 165 201 167
3 203 167 201
3 166 168 202
3 204 202 168
3 167 203 169
3 205 169 203
3 168 170 204
3 206 204 170
3 169 205 207
3 169 207 171
3 170 172 208
3 170 208 206
3 171 207 211
3 171 211 175
3 172 173 209
3 172 209 208
3 173 174 210
3 173 210 209
3 174 178 214
3 174 214 210
3 175 211 212
3 175 212 176
3 176 212 177
3 213 177 212
3 177 213 179
3 215 179 213
3 178 180 216
3 178 216 214
3 179 215 181
3 217 181 215
3 180 182 216
3 218 216 182
3 181 217 183
3 219 183 217
3 182 184 218
3 220 218 184
3 183 219 185
3 221 185 219
3 184 186 220
3 222 220 186
3 185 221 223
3 185 223 187
3 186 188 222
3 224 222 188
3 187 223 230
3 187 230 194
3 188 189 225
3 188 225 224
3 189 190 226
3 189 226 225
3 190 191 227
3 190 227 226
3 191 192 228
3 191 228 227
3 192 193 229
3 192 229 228
3 193 194 230
3 193 230 229
3 195 231 196
3 232 196 231
3 195 202 231
3 238 231 202
3 196 232 197
3 233 197 232
3 197 233 198
3 234 198 233
3 198 234 199
3 235 199 234
3 199 235 200
3 236 200 235
3 200 236 201
3 237 201 236
3 201 237 203
3 239 203 237
3 202 204 238
3 240 238 204
3 203 239 241
3 203 241 205
3 204 206 242
3 204 242 240
3 205 241 243
3 205 243 207
3 206 208 244
3 206 244 242
3 207 243 247
3 207 247 211
3 208 209 245
3 208 245 244
3 209 210 246
3 209 246 245
3 210 214 250
3 210 250 246
3 211 247 248
3 211 248 212
3 212 248 213
3 249 213 248
3 213 249 215
3 251 215 249
3 214 216 250
3 252 250 216
3 215 251 217
3 253 217 251
3 216 218 252
3 254 252 218
3 217 253 219
3 255 219 253
3 218 220 254
3 256 254 220
3 219 255 221
3 257 221 255
3 220 222 256
3 258 256 222
3 221 257 223
3 259 223 257
3 222 224 260
3 222 260 258
3 223 259 266
3 223 266 230
3 224 225 261
3 224 261 260
3 225 226 262
3 225 262 261
3 226 227 263
3 226 263 262
3 227 228 264
3 227 264 263
3 228 229 265
3 228 265 264
3 229 230 266
3 229 266 265
3 231 267 232
3 268 232 267
3 231 238 267
3 274 267 238
3 232 268 233
3 269 233 268
3 233 269 234
3 270 234 269
3 234 270 235
3 271 235 270
3 235 271 236
3 272 236 271
3 236 272 237
3 273 237 272
3 237 273 239
3 275 239 273
3 238 240 274
3 276 274 240
3 239 275 241
3 279 241 275
3 240 242 276
3 280 276 242
3 241 279 283
3 241 283 243
3 242 244 284
3 242 284 280
3 243 283 289
3 243 289 247
3 244 245 285
3 244 285 284
3 245 246 286
3 245 286 285
3 246 250 292
3 246 292 286
3 247 289 290
3 247 290 248
3 248 290 249
3 291 249 290
3 249 291 251
3 297 251 291
3 250 252 298
3 250 298 292
3 251 297 253
3 303 253 297
3 252 254 298
3 304 298 254
3 253 303 255
3 309 255 303
3 254 256 304
3 310 304 256
3 255 309 315
3 255 315 257
3 256 258 310
3 316 310 258
3 257 315 321
3 257 321 259
3 258 260 316
3 322 316 260
3 259 321 266
3 328 266 321
3 260 261 322
3 323 322 261
3 261 262 324
3 261 324 323
3 262 263 325
3 262 325 324
3 263 264 326
3 263 326 325
3 264 265 327
3 264 327 326
3 265 266 328
3 265 328 327
3 267 329 268
3 330 268 329
3 267 274 336
3 267 336 329
3 268 330 331
3 268 331 269
3 269 331 332
3 269 332 270
3 270 332 333
3 270 333 271
3 271 333 334
3 271 334 272
3 272 334 335
3 272 335 273
3 273 335 337
3 273 337 275
3 274 276 336
3 338 336 276
3 275 337 341
3 275 341 279
3 276 280 277
3 281 277 280
3 276 277 338
3 339 338 277
3 277 281 278
3 282 278 281
3 277 278 339
3 340 339 278
3 278 282 340
3 342 340 282
3 279 341 283
3 343 283 341
3 280 284 285
3 280 285 281
3 281 285 286
3 281 286 282
3 282 286 344
3 282 344 342
3 283 343 289
3 347 289 343
3 286 292 293
3 286 293 287
3 286 287 345
3 286 345 344
3 287 293 294
3 287 294 288
3 287 288 346
3 287 346 345
3 288 294 348
3 288 348 346
3 289 295 290
3 296 290 295
3 289 347 295
3 349 295 347
3 290 296 291
3 297 291 296
3 292 298 293
3 299 293 298
3 293 299 294
3 300 294 299
3 294 300 348
3 350 348 300
3 295 301 296
3 302 296 301
3 295 349 351
3 295 351 301
3 296 302 297
3 303 297 302
3 298 304 299
3 305 299 304
3 299 305 306
3 299 306 300
3 300 306 352
3 300 352 350
3 301 307 308
3 301 308 302
3 301 351 353
3 301 353 307
3 302 308 309
3 302 309 303
3 304 310 311
3 304 311 305
3 305 311 312
3 305 312 306
3 306 312 354
3 306 354 352
3 307 313 314
3 307 314 308
3 307 353 355
3 307 355 313
3 308 314 315
3 308 315 309
3 310 316 311
3 317 311 316
3 311 317 312
3 318 312 317
3 312 318 354
3 356 354 318
3 313 319 314
3 320 314 319
3 313 355 319
3 357 319 355
3 314 320 315
3 321 315 320
3 316 322 317
3 323 317 322
3 317 323 318
3 324 318 323
3 318 324 356
3 358 356 324
3 319 326 320
3 327 320 326
3 319 357 326
3 360 326 357
3 320 327 321
3 328 321 327
3 324 325 359
3 324 359 358
3 325 326 360
3 325 360 359
3 329 361 362
3 329 362 330
3 329 336 368
3 329 368 361
3 330 362 363
3 330 363 331
3 331 363 364
3 331 364 332
3 332 364 365
3 332 365 333
3 333 365 366
3 333 366 334
3 334 366 367
3 334 367 335
3 335 367 373
3 335 373 337
3 336 338 368
3 374 368 338
3 337 373 380
3 337 380 341
3 338 339 374
3 375 374 339
3 339 340 375
3 376 375 340
3 340 342 376
3 381 376 342
3 341 380 343
3 385 343 380
3 342 344 381
3 386 381 344
3 343 385 347
3 390 347 385
3 344 345 386
3 387 386 345
3 345 346 387
3 388 387 346
3 346 348 391
3 346 391 388
3 347 390 393
3 347 393 349
3 348 350 394
3 348 394 391
3 349 393 396
3 349 396 351
3 350 352 397
3 350 397 394
3 351 396 399
3 351 399 353
3 352 354 400
3 352 400 397
3 353 399 402
3 353 402 355
3 354 356 403
3 354 403 400
3 355 402 405
3 355 405 357
3 356 358 406
3 356 406 403
3 357 405 360
3 408 360 405
3 358 359 406
3 407 406 359
3 359 360 407
3 408 407 360
3 361 368 362
3 369 362 368
3 362 369 363
3 370 363 369
3 363 409 364
3 410 364 409
3 363 370 409
3 412 409 370
3 364 410 365
3 411 365 410
3 365 371 366
3 372 366 371
3 365 411 371
3 413 371 411
3 366 372 367
3 373 367 372
3 368 374 375
3 368 375 369
3 369 375 376
3 369 376 370
3 370 376 414
3 370 414 412
3 371 378 379
3 371 379 372
3 371 413 416
3 371 416 378
3 372 379 380
3 372 380 373
3 376 381 382
3 376 382 377
3 376 377 415
3 376 415 414
3 377 382 383
3 377 383 378
3 377 378 416
3 377 416 415
3 378 383 384
3 378 384 379
3 379 384 385
3 379 385 380
3 381 386 382
3 387 382 386
3 382 387 383
3 388 383 387
3 383 388 384
3 389 384 388
3 384 389 385
3 390 385 389
3 388 391 389
3 392 389 391
3 389 392 390
3 393 390 392
3 391 394 392
3 395 392 394
3 392 395 393
3 396 393 395
3 394 397 398
3 394 398 395
3 395 398 399
3 395 399 396
3 397 400 401
3 397 401 398
3 398 401 402
3 398 402 399
3 400 403 404
3 400 404 401
3 401 404 405
3 401 405 402
3 403 406 407
3 403 407 404
3 404 407 408
3 404 408 405
3 409 417 410
3 418 410 417
3 409 412 417
3 420 417 412
3 410 418 411
3 419 411 418
3 411 419 413
3 422 413 419
3 412 414 420
3 423 420 414
3 413 422 416
3 425 416 422
3 414 415 423
3 424 423 415
3 415 416 424
3 425 424 416
3 417 420 418
3 421 418 420
3 418 421 422
3 418 422 419
3 420 423 424
3 420 424 421
3 421 424 425
3 421 425 422
