ply
format ascii 1.0
element vertex 530
property float x
property float y
property float z
property uchar red
property uchar green
property uchar blue
element face 1056
property list uchar int vertex_index
end_header
-18.5918 -11.3792 18.7296 0 0 163
-18.9435 -11.455 18.8152 0 7 255
-19.5076 -11.487 18.8831 0 40 255
-20.0752 -11.4717 18.8827 0 1 255
-20.4381 -11.3885 18.8347 0 0 222
-18.5529 -11.4218 18.5128 0 0 193
-18.9406 -11.5872 18.5203 0 0 213
-19.5027 -11.6356 18.5352 0 0 249
-20.0677 -11.5933 18.551 0 0 223
-20.4674 -11.4268 18.5776 0 0 189
-18.5942 -11.3785 18.3068 0 0 174
-18.9444 -11.4534 18.2495 0 0 255
-19.5015 -11.4817 18.2297 0 0 219
-20.061 -11.4555 18.2658 0 19 255
-20.4184 -11.381 18.3432 0 0 163
-18.5068 -10.987 18.8236 0 0 226
-18.9134 -11.0071 19.0708 0 106 255
-19.5217 -11.0176 19.2484 85 255 170
-20.1355 -11.0526 19.2309 0 131 255
-20.5709 -10.9877 19.0426 0 60 255
-18.3836 -10.9922 18.5201 0 11 255
-20.6742 -10.992 18.6526 0 0 234
-18.5142 -10.9881 18.2412 0 9 255
-18.9199 -11.0112 18.0713 0 21 255
-19.5033 -11.0227 18.0171 0 170 255
-20.0923 -11.0119 18.0919 0 92 255
-20.516 -10.9888 18.3013 0 90 255
-20.1734 -9.54787 20.6644 0 0 251
-20.4865 -9.60315 20.6673 0 6 255
-20.7953 -9.55625 20.5911 0 0 202
-19.9489 -9.78408 20.301 0 125 255
-20.3919 -9.96325 20.2351 0 104 255
-20.8312 -9.80041 20.1565 12 255 243
-18.4362 -10.2946 18.9209 4 255 251
-18.8649 -10.2828 19.3061 68 255 187
-19.5548 -10.2243 19.7152 97 255 158
-20.2431 -10.4276 19.6784 0 252 255
-20.7966 -10.2248 19.4392 38 255 217
-18.2978 -10.299 18.5341 0 4 255
-20.8579 -10.2835 18.7739 28 255 227
-18.4605 -10.3006 18.1929 0 165 255
-18.8991 -10.3082 17.9657 1 255 254
-19.5092 -10.3122 17.8923 0 250 255
-20.1334 -10.3084 17.9963 0 220 255
-20.6177 -10.2989 18.2896 0 151 255
-20.1018 -9.07015 20.9017 0 145 255
-20.5601 -9.10073 21.0064 0 153 255
-21.0087 -9.07406 20.8161 0 227 255
-19.6934 -9.18234 20.4671 81 255 174
-21.222 -9.23261 20.2418 0 126 255
-18.3683 -9.4312 18.9817 0 156 255
-18.7376 -9.41164 19.4397 56 255 199
-19.2463 -9.34814 19.929 210 255 45
-21.2545 -9.36271 19.5077 255 159 0
-18.2503 -9.43669 18.5453 0 147 255
-21.099 -9.42858 18.8077 82 255 173
-18.4325 -9.43821 18.1687 0 127 255
-18.8903 -9.44005 17.9142 90 255 165
-19.5224 -9.44112 17.8306 80 255 175
-20.184 -9.44143 17.9463 81 255 174
-20.7379 -9.44091 18.2742 0 225 255
-20.3027 -7.53501 22.4125 0 0 177
-20.56 -7.57519 22.4709 0 0 219
-20.8368 -7.52897 22.4407 0 0 233
-20.2022 -7.77744 22.0279 0 49 255
-20.5996 -7.94215 22.0692 0 106 255
-21.0338 -7.75915 22.0559 0 234 255
-20.0237 -8.23902 21.3264 255 184 0
-20.6396 -8.42161 21.4641 26 255 229
-21.3855 -8.18112 21.2638 255 151 0
-22.1223 -7.76982 20.9521 0 184 255
-22.4881 -7.53854 20.761 0 0 208
-19.5299 -8.35447 20.651 0 230 255
-21.6684 -8.49901 20.3893 175 255 80
-22.1976 -7.98837 20.4314 0 231 255
-22.5537 -7.60132 20.4228 0 75 255
-18.3257 -8.49286 19.0089 71 255 184
-18.6486 -8.47669 19.5015 99 255 156
-19.0845 -8.43602 20.0412 140 255 115
-21.7361 -8.41612 19.5392 255 220 0
-22.2585 -7.89051 19.8916 0 93 255
-22.553 -7.59361 20.0699 0 0 156
-18.2295 -8.49752 18.5515 0 184 255
-21.359 -8.52025 18.7793 79 255 176
-18.424 -8.49728 18.1614 0 216 255
-18.8938 -8.4945 17.8965 0 223 255
-19.547 -8.49194 17.8047 122 255 133
-20.2515 -8.49529 17.9147 154 255 101
-20.8824 -8.50859 18.2407 255 187 0
-20.2229 -7.07405 22.4932 0 141 255
-20.5485 -7.05875 22.6451 0 8 255
-20.913 -7.0675 22.5564 0 66 255
-19.9747 -7.18544 22.0614 10 255 245
-21.2836 -7.15954 22.2074 0 107 255
-19.7224 -7.35556 21.4127 0 217 255
-21.7219 -7.2669 21.6795 184 255 71
-22.2397 -7.16242 21.2372 0 200 255
-22.5997 -7.07405 20.8287 0 107 255
-19.375 -7.43921 20.717 255 118 0
-22.7356 -7.0821 20.3609 0 78 255
-18.3126 -7.54785 19.0097 0 223 255
-18.6046 -7.52714 19.5092 73 255 182
-18.9919 -7.49068 20.0713 50 255 205
-21.981 -7.68291 19.1421 0 167 255
-22.3744 -7.42082 19.5089 0 195 255
-22.6686 -7.15048 19.8697 0 166 255
-18.2318 -7.55381 18.5537 0 180 255
-21.5939 -7.67959 18.6357 90 255 165
-18.4319 -7.54979 18.1672 0 207 255
-18.9092 -7.53554 17.9024 57 255 198
-19.5867 -7.51885 17.7997 159 255 96
-20.3478 -7.51783 17.8846 216 255 39
-21.0735 -7.55059 18.1742 223 255 32
-20.1683 -6.33576 22.5449 0 184 255
-20.5465 -6.32416 22.7299 0 120 255
-20.9704 -6.33167 22.6392 0 166 255
-19.8613 -6.3803 22.0855 32 255 223
-21.4124 -6.36405 22.3153 91 255 164
-19.5922 -6.44351 21.4297 152 255 103
-21.8775 -6.3925 21.8541 0 251 255
-22.3426 -6.36466 21.3684 36 255 219
-22.7001 -6.33371 20.854 0 255 255
-19.2992 -6.49132 20.7077 99 255 156
-22.8659 -6.33258 20.2564 37 255 218
-18.3306 -6.6617 18.9847 0 96 255
-18.6028 -6.61315 19.4633 86 255 169
-18.9618 -6.54231 20.029 254 255 1
-22.1235 -7.17415 18.9315 0 0 241
-22.4382 -6.86999 19.1467 0 158 255
-22.7891 -6.36773 19.5234 225 255 30
-18.2611 -6.67356 18.5541 0 173 255
-21.8815 -6.95557 18.5587 69 255 186
-22.3211 -6.46385 18.6772 0 122 255
-22.6883 -5.97821 18.8478 0 174 255
-18.4574 -6.66223 18.1903 0 119 255
-18.9335 -6.61567 17.94 25 255 230
-19.6351 -6.55117 17.8234 181 255 74
-20.4717 -6.5156 17.8594 255 199 0
-21.4028 -6.49666 18.1109 255 199 0
-22.1278 -6.00748 18.2815 24 255 231
-22.5316 -5.74392 18.4512 0 49 255
-20.143 -5.44683 22.5682 0 179 255
-20.5469 -5.44201 22.7676 0 244 255
-20.9998 -5.44504 22.681 0 228 255
-19.8166 -5.46273 22.0893 96 255 159
-21.47 -5.45506 22.3678 53 255 202
-19.5523 -5.48807 21.4079 193 255 62
-21.9463 -5.46244 21.9234 194 255 61
-22.4039 -5.45446 21.4219 102 255 153
-22.7756 -5.442 20.8667 95 255 160
-19.2957 -5.52471 20.637 244 255 11
-22.9898 -5.42909 20.2316 38 255 217
-18.3834 -5.92001 18.9295 0 44 255
-18.6432 -5.79799 19.34 0 100 255
-18.9978 -5.60574 19.8887 255 237 0
-23.0126 -5.39528 19.5276 47 255 208
-18.3309 -5.93571 18.5569 0 45 255
-22.8894 -5.25947 18.8677 116 255 139
-18.5027 -5.91998 18.2414 0 120 255
-18.9534 -5.79781 18.0389 31 255 224
-19.6592 -5.60434 17.9115 255 253 0
-20.5091 -5.51568 17.8331 255 198 0
-21.3689 -5.44351 17.9087 215 255 40
-22.0965 -5.27469 18.0811 0 173 255
-22.6038 -5.1835 18.3787 0 179 255
-20.1356 -4.48607 22.5745 0 179 255
-20.5478 -4.48455 22.7812 0 149 255
-21.0114 -4.48543 22.6971 0 243 255
-19.8091 -4.49135 22.081 106 255 149
-21.4916 -4.48811 22.3876 67 255 188
-19.5647 -4.50291 21.3688 255 40 0
-21.9726 -4.48984 21.9473 122 255 133
-22.4327 -4.4875 21.4406 140 255 115
-22.8185 -4.4825 20.8717 235 255 20
-19.3586 -4.53274 20.523 255 149 0
-23.0639 -4.47329 20.2243 235 255 20
-18.4657 -5.45043 18.8566 0 0 255
-18.7244 -5.17978 19.0922 0 123 255
-19.1394 -4.62757 19.5669 252 255 3
-23.1255 -4.45065 19.5221 120 255 135
-18.4748 -5.40804 18.5749 0 0 171
-18.8048 -5.00057 18.6473 0 124 255
-19.2708 -4.40515 18.7729 147 255 108
-22.9956 -4.40345 18.8545 0 244 255
-18.5654 -5.45033 18.3203 0 0 206
-18.9421 -5.17932 18.2522 0 140 255
-19.6577 -4.62542 18.1661 255 171 0
-20.5525 -4.52229 17.8797 255 91 0
-21.3861 -4.4694 17.8379 222 255 33
-22.1133 -4.40913 17.9875 181 255 74
-22.6612 -4.37881 18.3256 0 207 255
-20.1363 -3.49707 22.5753 98 255 157
-20.5487 -3.49676 22.785 0 221 255
-21.0151 -3.49697 22.7019 13 255 242
-19.8179 -3.49822 22.075 163 255 92
-21.4981 -3.49756 22.3933 179 255 76
-19.6028 -3.50097 21.3515 30 255 225
-21.9809 -3.49792 21.9541 140 255 115
-22.4435 -3.4973 21.4459 153 255 102
-22.8374 -3.49564 20.8731 62 255 193
-19.4717 -3.50721 20.5009 255 193 0
-23.0982 -3.49171 20.2216 160 255 95
-19.4295 -3.51484 19.6176 255 46 0
-23.1756 -3.48252 19.5172 55 255 200
-19.5945 -3.46787 18.8395 255 175 0
-23.0448 -3.46741 18.8428 121 255 134
-20.0014 -3.51364 18.2479 255 253 0
-20.6802 -3.50226 17.9096 105 255 150
-21.434 -3.48674 17.8167 197 255 58
-22.1389 -3.46865 17.9491 136 255 119
-22.695 -3.4598 18.2982 177 255 78
-20.1385 -2.49948 22.575 18 255 237
-20.5494 -2.49948 22.7858 35 255 220
-21.016 -2.49953 22.703 29 255 226
-19.8274 -2.49949 22.0723 35 255 220
-21.4997 -2.49963 22.3946 11 255 244
-19.6333 -2.49933 21.3458 255 152 0
-21.9829 -2.49969 21.9557 139 255 116
-22.4466 -2.49957 21.4471 157 255 98
-22.8439 -2.49916 20.8733 164 255 91
-19.5474 -2.49861 20.4974 255 204 0
-23.1107 -2.49799 20.2207 69 255 186
-19.5749 -2.49538 19.6348 255 123 0
-23.1941 -2.49521 19.515 255 253 0
-19.7675 -2.48419 18.8677 93 255 162
-23.0638 -2.49105 18.8373 131 255 124
-20.1652 -2.49503 18.28 171 255 84
-20.7669 -2.49711 17.9248 178 255 77
-21.4713 -2.49504 17.8122 170 255 85
-22.1563 -2.49101 17.936 139 255 116
-22.7105 -2.48892 18.2874 117 255 138
-20.1398 -1.49992 22.5749 0 254 255
-20.5496 -1.49994 22.7859 0 159 255
-21.0162 -1.49995 22.7031 16 255 239
-19.8326 -1.49981 22.0715 221 255 34
-21.4999 -1.49996 22.3948 91 255 164
-19.6491 -1.4994 21.3443 248 255 7
-21.9833 -1.49997 21.9559 139 255 116
-22.4473 -1.49995 21.4474 158 255 97
-22.8457 -1.49988 20.8734 166 255 89
-19.5839 -1.49828 20.4971 255 216 0
-23.1143 -1.49964 20.2204 170 255 85
-19.6384 -1.49597 19.6404 255 243 0
-23.1995 -1.49901 19.5143 163 255 92
-19.8439 -1.49301 18.8778 201 255 54
-23.0697 -1.49806 18.8356 139 255 116
-20.2351 -1.49591 18.2916 155 255 100
-20.8084 -1.49797 17.9314 153 255 102
-21.4902 -1.49846 17.8121 156 255 99
-22.1644 -1.49793 17.9325 138 255 117
-22.716 -1.49757 18.2841 124 255 131
-20.1402 -0.499991 22.5748 17 255 238
-20.5497 -0.499996 22.7859 0 224 255
-21.0162 -0.499996 22.7031 16 255 239
-19.8345 -0.499951 22.0713 138 255 117
-21.4999 -0.499997 22.3948 91 255 164
-19.655 -0.499774 21.344 247 255 8
-21.9833 -0.499998 21.956 139 255 116
-22.4474 -0.499997 21.4474 159 255 96
-22.846 -0.499991 20.8734 166 255 89
-19.5974 -0.499284 20.4971 255 98 0
-23.1151 -0.499956 20.2204 171 255 84
-19.6614 -0.498385 19.642 147 255 108
-23.2008 -0.499851 19.5141 165 255 90
-19.8716 -0.497602 18.8809 201 255 54
-23.071 -0.499686 18.8352 141 255 114
-20.26 -0.49838 18.2952 151 255 104
-20.8238 -0.499244 17.9336 145 255 110
-21.4972 -0.499628 17.8124 150 255 105
-22.1671 -0.49964 17.9317 136 255 119
-22.7174 -0.499594 18.2833 125 255 130
-20.1403 0.5 22.5748 17 255 238
-20.5497 0.5 22.7859 0 224 255
-21.0162 0.5 22.7032 16 255 239
-19.835 0.500007 22.0713 138 255 117
-21.4999 0.5 22.3948 91 255 164
-19.6566 0.500048 21.3439 247 255 8
-21.9833 0.5 21.956 139 255 116
-22.4474 0.5 21.4474 159 255 96
-22.846 0.5 20.8734 166 255 89
-19.6013 0.500184 20.4972 172 255 83
-23.1152 0.500003 20.2204 171 255 84
-19.668 0.500431 19.6424 255 123 0
-23.201 0.500014 19.5141 165 255 90
-19.8797 0.500624 18.8817 202 255 53
-23.0713 0.500036 18.8351 142 255 113
-20.2671 0.500431 18.2962 151 255 104
-20.8282 0.500187 17.9343 143 255 112
-21.4991 0.500062 17.8126 148 255 107
-22.1677 0.500044 17.9316 135 255 120
-22.7177 0.500047 18.2832 125 255 130
-20.1403 1.5 22.5748 17 255 238
-20.5497 1.5 22.7859 0 224 255
-21.0162 1.5 22.7031 16 255 239
-19.8351 1.5 22.0713 138 255 117
-21.4999 1.5 22.3948 91 255 164
-19.657 1.50001 21.3439 247 255 8
-21.9833 1.5 21.956 139 255 116
-22.4474 1.5 21.4474 159 255 96
-22.846 1.5 20.8734 166 255 89
-19.6021 1.50003 20.4972 255 218 0
-23.1153 1.5 20.2204 255 239 0
-19.6695 1.50008 19.6424 255 243 0
-23.201 1.5 19.5141 66 255 189
-19.8815 1.50012 18.8818 202 255 53
-23.0713 1.5 18.8351 142 255 113
-20.2688 1.50008 18.2964 151 255 104
-20.8291 1.50003 17.9344 142 255 113
-21.4995 1.50001 17.8126 147 255 108
-22.1678 1.5 17.9316 135 255 120
-22.7177 1.5 18.2832 125 255 130
-20.1403 2.49995 22.5748 35 255 220
-20.5497 2.49994 22.7859 0 222 255
-21.0162 2.49995 22.7031 82 255 173
-19.8351 2.49996 22.0713 55 255 200
-21.4999 2.49996 22.3948 91 255 164
-19.657 2.49999 21.3439 247 255 8
-21.9833 2.49997 21.9559 139 255 116
-22.4474 2.49996 21.4474 159 255 96
-22.846 2.49995 20.8733 166 255 89
-19.6023 2.5 20.4972 255 218 0
-23.1152 2.49995 20.2204 171 255 84
-19.6697 2.50001 19.6424 157 255 98
-23.201 2.49995 19.5141 255 248 0
-19.8818 2.50002 18.8819 255 197 0
-23.0713 2.49995 18.8351 45 255 210
-20.269 2.50001 18.2964 151 255 104
-20.8293 2.5 17.9344 142 255 113
-21.4995 2.49999 17.8127 147 255 108
-22.1678 2.49996 17.9317 135 255 120
-22.7177 2.49995 18.2832 125 255 130
-20.1405 3.49953 22.5747 16 255 239
-20.5497 3.49949 22.7857 0 223 255
-21.0161 3.49953 22.703 0 190 255
-19.8354 3.49967 22.0712 242 255 13
-21.4997 3.49963 22.3946 79 255 176
-19.6572 3.49985 21.3439 142 255 113
-21.983 3.4997 21.9557 230 255 25
-22.4472 3.49964 21.4471 158 255 97
-22.8458 3.49954 20.8732 165 255 90
-19.6024 3.49996 20.4972 255 218 0
-23.1149 3.49952 20.2203 170 255 85
-19.6698 3.5 19.6424 255 243 0
-23.2007 3.49952 19.5141 164 255 91
-19.8819 3.5 18.8819 104 255 151
-23.071 3.49952 18.8352 232 255 23
-20.2691 3.5 18.2964 156 255 99
-20.8293 3.49996 17.9346 235 255 20
-21.4995 3.49985 17.8129 147 255 108
-22.1678 3.49968 17.9319 134 255 121
-22.7175 3.49955 18.2834 33 255 222
-20.1412 4.49704 22.574 13 255 242
-20.5497 4.49676 22.7847 0 220 255
-21.0153 4.49698 22.7019 12 255 243
-19.8366 4.4979 22.0709 135 255 120
-21.4982 4.49758 22.3933 88 255 167
-19.6585 4.49899 21.3437 245 255 10
-21.9814 4.49801 21.9541 41 255 214
-22.4458 4.49763 21.4456 154 255 101
-22.8444 4.49709 20.8722 255 252 0
-19.6032 4.49967 20.4971 255 219 0
-23.1132 4.49691 20.2199 166 255 89
-19.6701 4.49993 19.6424 255 243 0
-23.1988 4.49691 19.5141 160 255 95
-19.8819 4.49999 18.8819 202 255 53
-23.0694 4.49691 18.8356 137 255 118
-20.2691 4.49994 18.2968 150 255 105
-20.8292 4.49968 17.9353 46 255 209
-21.4994 4.49902 17.8142 146 255 109
-22.1673 4.49795 17.9332 136 255 119
-22.7165 4.49715 18.2843 212 255 43
-20.1444 5.48586 22.5708 3 255 252
-20.5496 5.48453 22.7804 0 209 255
-21.0118 5.48548 22.697 1 255 254
-19.842 5.4899 22.0692 127 255 128
-21.492 5.48831 22.3875 79 255 176
-19.6639 5.49503 21.343 255 151 0
-21.9746 5.49036 21.9469 130 255 125
-22.4398 5.48863 21.4389 147 255 108
-22.8383 5.48609 20.8679 52 255 203
-19.6067 5.49828 20.4968 255 219 0
-23.1058 5.48524 20.218 152 255 103
-19.6717 5.49958 19.6424 147 255 108
-23.1908 5.48521 19.5141 242 255 13
-19.8824 5.49987 18.8824 201 255 54
-23.0625 5.4853 18.8374 124 255 131
-20.269 5.4996 18.2983 149 255 106
-20.829 5.49838 17.9389 139 255 116
-21.4987 5.49529 17.8197 142 255 113
-22.1653 5.49032 17.9389 125 255 130
-22.7122 5.48651 18.2882 109 255 146
-20.1547 6.44684 22.5606 0 209 255
-20.5494 6.44213 22.7659 0 181 255
-21.0004 6.44542 22.6807 0 245 255
-19.86 6.46196 22.0636 175 255 80
-21.4712 6.45632 22.3674 0 243 255
-19.6825 6.48162 21.34 230 255 25
-21.951 6.4651 21.9215 116 255 139
-22.4195 6.45789 21.4156 127 255 128
-22.8178 6.44816 20.8532 117 255 138
-19.6189 6.4935 20.4952 255 226 0
-23.0814 6.44534 20.2119 118 255 137
-19.6773 6.49824 19.6421 255 138 0
-23.1645 6.44541 19.5142 22 255 233
-19.8841 6.49934 18.884 184 255 71
-23.0401 6.44566 18.8433 96 255 159
-20.2688 6.49841 18.3039 48 255 207
-20.8277 6.49416 17.9512 133 255 122
-21.4961 6.48314 17.839 133 255 122
-22.1589 6.46419 17.9585 104 255 151
-22.6982 6.44981 18.3014 154 255 101
-20.1811 7.33711 22.5347 0 165 255
-20.5494 7.32509 22.7277 0 119 255
-20.9715 7.33363 22.6388 0 173 255
-19.9084 7.3837 22.0499 0 201 255
-21.4152 7.36984 22.3142 121 255 134
-19.7339 7.44779 21.3311 183 255 72
-21.8869 7.40441 21.8485 107 255 148
-22.3681 7.37616 21.3497 65 255 190
-22.7666 7.34366 20.8145 40 255 215
-19.6515 7.48204 20.4892 255 122 0
-23.0181 7.3383 20.1971 0 237 255
-19.6922 7.4948 19.6402 253 255 2
-23.0965 7.33984 19.5146 54 255 201
-19.8885 7.49782 18.8882 185 255 70
-22.9824 7.33924 18.858 28 255 227
-20.2677 7.4956 18.3189 222 255 33
-20.8233 7.48494 17.9847 125 255 130
-21.4897 7.4546 17.8931 105 255 150
-22.1445 7.39296 18.0124 33 255 222
-22.6637 7.34814 18.3358 0 177 255
-20.2347 8.07951 22.4831 0 43 255
-20.5517 8.06301 22.6432 0 24 255
-20.9152 8.07442 22.5562 0 95 255
-20.0178 8.20061 22.0255 0 214 255
-21.2901 8.17952 22.2055 22 255 233
-19.8551 8.3891 21.3086 198 255 57
-21.7402 8.31266 21.668 157 255 98
-22.2729 8.20112 21.193 0 253 255
-22.6717 8.10372 20.7362 0 174 255
-19.7202 8.46396 20.4702 167 255 88
-22.8872 8.10843 20.1734 37 255 218
-19.7222 8.48836 19.6327 248 255 7
-22.9535 8.11879 19.5169 0 173 255
-19.8967 8.49392 18.8949 255 248 0
-22.8614 8.11038 18.8843 0 192 255
-20.2628 8.49074 18.3487 106 255 149
-20.8104 8.47326 18.0561 129 255 126
-21.4787 8.41336 18.0223 118 255 137
-22.1248 8.2316 18.1375 0 216 255
-22.5999 8.11187 18.4052 0 140 255
-20.3129 8.54882 22.4048 0 0 254
-20.5651 8.5904 22.4698 0 0 231
-20.8412 8.54557 22.441 0 0 152
-20.2325 8.81721 22.0044 0 206 255
-20.6153 8.99399 22.0666 0 131 255
-21.0473 8.80807 22.0544 0 119 255
-20.1172 9.35851 21.2534 236 255 19
-20.6791 9.57624 21.4628 80 255 175
-21.4307 9.33507 21.2518 128 0 0
-22.1678 8.87509 20.8671 93 255 162
-22.5533 8.609 20.6258 0 55 255
-19.8274 9.44974 20.4159 255 254 0
-21.772 9.78596 20.3509 172 255 83
-22.2692 9.20462 20.2508 0 224 255
-22.6582 8.71212 20.1635 0 143 255
-19.7663 9.47599 19.6102 197 255 58
-21.8742 9.90741 19.5652 67 255 188
-22.3179 9.30351 19.5463 0 238 255
-22.7014 8.75474 19.5255 0 246 255
-19.9077 9.4817 18.9006 106 255 149
-21.7781 9.80817 18.8633 135 255 120
-22.2584 9.21487 18.8862 0 161 255
-22.643 8.71571 18.9108 0 59 255
-20.2477 9.48006 18.3903 54 255 201
-20.7718 9.46984 18.1683 89 255 166
-21.4651 9.43147 18.3008 172 255 83
-22.1289 8.90428 18.3932 0 238 255
-22.5165 8.61856 18.5063 0 25 255
-20.1672 10.4243 20.8555 170 255 85
-20.6109 10.4796 21.0552 22 255 233
-21.1029 10.4649 20.8509 0 237 255
-19.8913 10.4311 20.2719 119 255 136
-21.4132 10.5927 20.252 131 255 124
-19.8105 10.4372 19.5637 30 255 225
-21.517 10.6448 19.5447 64 255 191
-19.9232 10.4379 18.8999 0 224 255
-21.4183 10.5964 18.8791 25 255 230
-20.2168 10.4376 18.4235 0 238 255
-20.6491 10.4438 18.2385 0 205 255
-21.1207 10.472 18.3945 161 255 94
-20.1939 11.3078 20.6485 0 129 255
-20.55 11.3258 20.8188 0 106 255
-20.9196 11.3352 20.6466 0 167 255
-19.9577 11.3098 20.1675 0 219 255
-21.1707 11.3796 20.1619 0 222 255
-19.8801 11.3125 19.5277 91 255 164
-21.2581 11.4003 19.521 0 232 255
-19.9687 11.3085 18.9045 0 253 255
-21.1729 11.3776 18.8963 0 186 255
-20.2106 11.3029 18.459 0 113 255
-20.5634 11.3091 18.2973 0 93 255
-20.9263 11.3289 18.4498 0 29 255
-20.2399 11.9934 20.5213 0 39 255
-20.5176 12.0039 20.6543 0 0 237
-20.7994 12.0049 20.5208 0 0 243
-20.0673 12.013 20.1023 0 111 255
-20.9768 12.0383 20.1009 0 74 255
-20.0088 12.0229 19.5092 0 135 255
-21.0386 12.0541 19.5074 0 128 255
-20.0706 12.0114 18.9218 0 22 255
-20.9775 12.0365 18.9191 0 100 255
-20.2448 11.9892 18.5141 0 0 251
-20.5215 11.9967 18.3842 0 0 234
-20.8014 12.0005 18.5113 0 70 255
-20.3039 12.3809 20.4179 0 0 128
-20.5055 12.4255 20.4581 0 0 172
-20.7098 12.3853 20.4178 0 0 195
-20.2437 12.4538 20.0622 0 0 224
-20.5031 12.5879 20.0632 0 0 203
-20.7693 12.4611 20.0619 0 0 253
-20.2183 12.4805 19.5025 0 24 255
-20.5029 12.6332 19.501 0 0 235
-20.7953 12.4892 19.5021 0 23 255
-20.2446 12.453 18.9448 0 9 255
-20.5034 12.5871 18.9406 0 0 203
-20.7695 12.4602 18.9442 0 0 210
-20.3054 12.3787 18.5942 0 0 176
-20.5065 12.4229 18.5532 0 0 170
-20.7104 12.3831 18.5933 0 0 144
3 0 1 5
3 6 5 1
3 0 15 16
3 0 16 1
3 0 5 15
3 20 15 5
3 1 2 6
3 7 6 2
3 1 16 17
3 1 17 2
3 2 3 8
3 2 8 7
3 2 17 3
3 18 3 17
3 3 4 8
3 9 8 4
3 3 18 4
3 19 4 18
3 4 19 21
3 4 21 9
3 5 6 10
3 11 10 6
3 5 10 22
3 5 22 20
3 6 7 11
3 12 11 7
3 7 8 13
3 7 13 12
3 8 9 13
3 14 13 9
3 9 21 26
3 9 26 14
3 10 11 23
3 10 23 22
3 11 12 24
3 11 24 23
3 12 13 24
3 25 24 13
3 13 14 25
3 26 25 14
3 15 33 16
3 34 16 33
3 15 20 33
3 38 33 20
3 16 34 17
3 35 17 34
3 17 35 36
3 17 36 18
3 18 36 37
3 18 37 19
3 19 37 39
3 19 39 21
3 20 22 40
3 20 40 38
3 21 39 26
3 44 26 39
3 22 23 41
3 22 41 40
3 23 24 41
3 42 41 24
3 24 25 42
3 43 42 25
3 25 26 43
3 44 43 26
3 27 28 31
3 27 31 30
3 27 45 28
3 46 28 45
3 27 30 48
3 27 48 45
3 28 29 32
3 28 32 31
3 28 46 29
3 47 29 46
3 29 47 32
3 49 32 47
3 30 31 35
3 36 35 31
3 30 35 52
3 30 52 48
3 31 32 36
3 37 36 32
3 32 49 53
3 32 53 37
3 33 50 51
3 33 51 34
3 33 38 54
3 33 54 50
3 34 51 52
3 34 52 35
3 37 53 39
3 55 39 53
3 38 40 54
3 56 54 40
3 39 55 44
3 60 44 55
3 40 41 57
3 40 57 56
3 41 42 58
3 41 58 57
3 42 43 59
3 42 59 58
3 43 44 60
3 43 60 59
3 45 67 68
3 45 68 46
3 45 48 67
3 72 67 48
3 46 68 69
3 46 69 47
3 47 69 73
3 47 73 49
3 48 52 78
3 48 78 72
3 49 73 53
3 79 53 73
3 50 76 51
3 77 51 76
3 50 54 82
3 50 82 76
3 51 77 52
3 78 52 77
3 53 79 83
3 53 83 55
3 54 56 82
3 84 82 56
3 55 83 88
3 55 88 60
3 56 57 84
3 85 84 57
3 57 58 86
3 57 86 85
3 58 59 87
3 58 87 86
3 59 60 88
3 59 88 87
3 61 62 65
3 61 65 64
3 61 89 62
3 90 62 89
3 61 64 89
3 92 89 64
3 62 63 65
3 66 65 63
3 62 90 91
3 62 91 63
3 63 91 93
3 63 93 66
3 64 65 67
3 68 67 65
3 64 67 92
3 94 92 67
3 65 66 68
3 69 68 66
3 66 93 95
3 66 95 69
3 67 72 98
3 67 98 94
3 69 70 74
3 69 74 73
3 69 95 70
3 96 70 95
3 70 71 75
3 70 75 74
3 70 96 71
3 97 71 96
3 71 97 75
3 99 75 97
3 72 78 98
3 102 98 78
3 73 74 79
3 80 79 74
3 74 75 80
3 81 80 75
3 75 99 105
3 75 105 81
3 76 100 101
3 76 101 77
3 76 82 106
3 76 106 100
3 77 101 102
3 77 102 78
3 79 80 104
3 79 104 103
3 79 103 107
3 79 107 83
3 80 81 105
3 80 105 104
3 82 84 106
3 108 106 84
3 83 107 88
3 112 88 107
3 84 85 108
3 109 108 85
3 85 86 109
3 110 109 86
3 86 87 110
3 111 110 87
3 87 88 111
3 112 111 88
3 89 113 114
3 89 114 90
3 89 92 116
3 89 116 113
3 90 114 115
3 90 115 91
3 91 115 117
3 91 117 93
3 92 94 118
3 92 118 116
3 93 117 95
3 119 95 117
3 94 98 118
3 122 118 98
3 95 119 96
3 120 96 119
3 96 120 97
3 121 97 120
3 97 121 99
3 123 99 121
3 98 102 126
3 98 126 122
3 99 123 105
3 129 105 123
3 100 124 125
3 100 125 101
3 100 106 130
3 100 130 124
3 101 125 126
3 101 126 102
3 103 104 128
3 103 128 127
3 103 127 131
3 103 131 107
3 104 105 129
3 104 129 128
3 106 108 130
3 134 130 108
3 107 131 112
3 138 112 131
3 108 109 134
3 135 134 109
3 109 110 135
3 136 135 110
3 110 111 136
3 137 136 111
3 111 112 137
3 138 137 112
3 113 141 142
3 113 142 114
3 113 116 144
3 113 144 141
3 114 142 143
3 114 143 115
3 115 143 145
3 115 145 117
3 116 118 146
3 116 146 144
3 117 145 147
3 117 147 119
3 118 122 146
3 150 146 122
3 119 147 120
3 148 120 147
3 120 148 121
3 149 121 148
3 121 149 123
3 151 123 149
3 122 126 150
3 154 150 126
3 123 151 129
3 155 129 151
3 124 152 125
3 153 125 152
3 124 130 156
3 124 156 152
3 125 153 154
3 125 154 126
3 127 128 132
3 127 132 131
3 128 129 133
3 128 133 132
3 129 155 157
3 129 157 133
3 130 134 158
3 130 158 156
3 131 132 139
3 131 139 138
3 132 133 140
3 132 140 139
3 133 157 164
3 133 164 140
3 134 135 158
3 159 158 135
3 135 136 159
3 160 159 136
3 136 137 160
3 161 160 137
3 137 138 161
3 162 161 138
3 138 139 162
3 163 162 139
3 139 140 163
3 164 163 140
3 141 165 142
3 166 142 165
3 141 144 168
3 141 168 165
3 142 166 167
3 142 167 143
3 143 167 169
3 143 169 145
3 144 146 170
3 144 170 168
3 145 169 171
3 145 171 147
3 146 150 170
3 174 170 150
3 147 171 172
3 147 172 148
3 148 172 173
3 148 173 149
3 149 173 175
3 149 175 151
3 150 154 174
3 178 174 154
3 151 175 155
3 179 155 175
3 152 176 153
3 177 153 176
3 152 156 176
3 180 176 156
3 153 177 154
3 178 154 177
3 155 179 157
3 183 157 179
3 156 158 184
3 156 184 180
3 157 183 190
3 157 190 164
3 158 159 185
3 158 185 184
3 159 160 186
3 159 186 185
3 160 161 187
3 160 187 186
3 161 162 188
3 161 188 187
3 162 163 189
3 162 189 188
3 163 164 189
3 190 189 164
3 165 191 166
3 192 166 191
3 165 168 191
3 194 191 168
3 166 192 167
3 193 167 192
3 167 193 169
3 195 169 193
3 168 170 194
3 196 194 170
3 169 195 171
3 197 171 195
3 170 174 200
3 170 200 196
3 171 197 172
3 198 172 197
3 172 198 173
3 199 173 198
3 173 199 201
3 173 201 175
3 174 178 202
3 174 202 200
3 175 201 203
3 175 203 179
3 176 180 181
3 176 181 177
3 177 181 178
3 182 178 181
3 178 182 202
3 204 202 182
3 179 203 205
3 179 205 183
3 180 184 181
3 185 181 184
3 181 185 182
3 186 182 185
3 182 186 204
3 206 204 186
3 183 205 210
3 183 210 190
3 186 187 206
3 207 206 187
3 187 188 208
3 187 208 207
3 188 189 209
3 188 209 208
3 189 190 210
3 189 210 209
3 191 211 192
3 212 192 211
3 191 194 214
3 191 214 211
3 192 212 193
3 213 193 212
3 193 213 195
3 215 195 213
3 194 196 216
3 194 216 214
3 195 215 217
3 195 217 197
3 196 200 216
3 220 216 200
3 197 217 218
3 197 218 198
3 198 218 219
3 198 219 199
3 199 219 221
3 199 221 201
3 200 202 220
3 222 220 202
3 201 221 223
3 201 223 203
3 202 204 222
3 224 222 204
3 203 223 205
3 225 205 223
3 204 206 226
3 204 226 224
3 205 225 210
3 230 210 225
3 206 207 227
3 206 227 226
3 207 208 228
3 207 228 227
3 208 209 229
3 208 229 228
3 209 210 230
3 209 230 229
3 211 231 212
3 232 212 231
3 211 214 234
3 211 234 231
3 212 232 233
3 212 233 213
3 213 233 235
3 213 235 215
3 214 216 234
3 236 234 216
3 215 235 237
3 215 237 217
3 216 220 236
3 240 236 220
3 217 237 238
3 217 238 218
3 218 238 239
3 218 239 219
3 219 239 241
3 219 241 221
3 220 222 240
3 242 240 222
3 221 241 223
3 243 223 241
3 222 224 244
3 222 244 242
3 223 243 225
3 245 225 243
3 224 226 246
3 224 246 244
3 225 245 230
3 250 230 245
3 226 227 247
3 226 247 246
3 227 228 248
3 227 248 247
3 228 229 249
3 228 249 248
3 229 230 250
3 229 250 249
3 231 251 252
3 231 252 232
3 231 234 251
3 254 251 234
3 232 252 253
3 232 253 233
3 233 253 255
3 233 255 235
3 234 236 254
3 256 254 236
3 235 255 257
3 235 257 237
3 236 240 256
3 260 256 240
3 237 257 258
3 237 258 238
3 238 258 259
3 238 259 239
3 239 259 261
3 239 261 241
3 240 242 260
3 262 260 242
3 241 261 243
3 263 243 261
3 242 244 264
3 242 264 262
3 243 263 245
3 265 245 263
3 244 246 266
3 244 266 264
3 245 265 250
3 270 250 265
3 246 247 267
3 246 267 266
3 247 248 268
3 247 268 267
3 248 249 269
3 248 269 268
3 249 250 270
3 249 270 269
3 251 271 272
3 251 272 252
3 251 254 271
3 274 271 254
3 252 272 273
3 252 273 253
3 253 273 275
3 253 275 255
3 254 256 274
3 276 274 256
3 255 275 277
3 255 277 257
3 256 260 276
3 280 276 260
3 257 277 278
3 257 278 258
3 258 278 279
3 258 279 259
3 259 279 281
3 259 281 261
3 260 262 282
3 260 282 280
3 261 281 263
3 283 263 281
3 262 264 284
3 262 284 282
3 263 283 265
3 285 265 283
3 264 266 286
3 264 286 284
3 265 285 270
3 290 270 285
3 266 267 287
3 266 287 286
3 267 268 288
3 267 288 287
3 268 269 289
3 268 289 288
3 269 270 290
3 269 290 289
3 271 291 292
3 271 292 272
3 271 274 291
3 294 291 274
3 272 292 293
3 272 293 273
3 273 293 295
3 273 295 275
3 274 276 294
3 296 294 276
3 275 295 297
3 275 297 277
3 276 280 296
3 300 296 280
3 277 297 298
3 277 298 278
3 278 298 299
3 278 299 279
3 279 299 301
3 279 301 281
3 280 282 300
3 302 300 282
3 281 301 283
3 303 283 301
3 282 284 304
3 282 304 302
3 283 303 285
3 305 285 303
3 284 286 306
3 284 306 304
3 285 305 290
3 310 290 305
3 286 287 307
3 286 307 306
3 287 288 308
3 287 308 307
3 288 289 309
3 288 309 308
3 289 290 310
3 289 310 309
3 291 311 312
3 291 312 292
3 291 294 311
3 314 311 294
3 292 312 313
3 292 313 293
3 293 313 315
3 293 315 295
3 294 296 314
3 316 314 296
3 295 315 317
3 295 317 297
3 296 300 316
3 320 316 300
3 297 317 318
3 297 318 298
3 298 318 319
3 298 319 299
3 299 319 321
3 299 321 301
3 300 302 320
3 322 320 302
3 301 321 323
3 301 323 303
3 302 304 324
3 302 324 322
3 303 323 305
3 325 305 323
3 304 306 326
3 304 326 324
3 305 325 310
3 330 310 325
3 306 307 327
3 306 327 326
3 307 308 328
3 307 328 327
3 308 309 329
3 308 329 328
3 309 310 330
3 309 330 329
3 311 331 312
3 332 312 331
3 311 314 334
3 311 334 331
3 312 332 313
3 333 313 332
3 313 333 335
3 313 335 315
3 314 316 334
3 336 334 316
3 315 335 337
3 315 337 317
3 316 320 336
3 340 336 320
3 317 337 338
3 317 338 318
3 318 338 339
3 318 339 319
3 319 339 341
3 319 341 321
3 320 322 340
3 342 340 322
3 321 341 343
3 321 343 323
3 322 324 342
3 344 342 324
3 323 343 345
3 323 345 325
3 324 326 346
3 324 346 344
3 325 345 330
3 350 330 345
3 326 327 347
3 326 347 346
3 327 328 348
3 327 348 347
3 328 329 349
3 328 349 348
3 329 330 350
3 329 350 349
3 331 351 332
3 352 332 351
3 331 334 354
3 331 354 351
3 332 352 333
3 353 333 352
3 333 353 335
3 355 335 353
3 334 336 356
3 334 356 354
3 335 355 337
3 357 337 355
3 336 340 356
3 360 356 340
3 337 357 358
3 337 358 338
3 338 358 359
3 338 359 339
3 339 359 361
3 339 361 341
3 340 342 360
3 362 360 342
3 341 361 363
3 341 363 343
3 342 344 362
3 364 362 344
3 343 363 365
3 343 365 345
3 344 346 364
3 366 364 346
3 345 365 370
3 345 370 350
3 346 347 366
3 367 366 347
3 347 348 368
3 347 368 367
3 348 349 369
3 348 369 368
3 349 350 370
3 349 370 369
3 351 371 352
3 372 352 371
3 351 354 374
3 351 374 371
3 352 372 353
3 373 353 372
3 353 373 355
3 375 355 373
3 354 356 376
3 354 376 374
3 355 375 357
3 377 357 375
3 356 360 376
3 380 376 360
3 357 377 358
3 378 358 377
3 358 378 359
3 379 359 378
3 359 379 381
3 359 381 361
3 360 362 380
3 382 380 362
3 361 381 383
3 361 383 363
3 362 364 382
3 384 382 364
3 363 383 385
3 363 385 365
3 364 366 384
3 386 384 366
3 365 385 390
3 365 390 370
3 366 367 386
3 387 386 367
3 367 368 387
3 388 387 368
3 368 369 388
3 389 388 369
3 369 370 389
3 390 389 370
3 371 391 372
3 392 372 391
3 371 374 394
3 371 394 391
3 372 392 373
3 393 373 392
3 373 393 375
3 395 375 393
3 374 376 396
3 374 396 394
3 375 395 377
3 397 377 395
3 376 380 400
3 376 400 396
3 377 397 378
3 398 378 397
3 378 398 379
3 399 379 398
3 379 399 381
3 401 381 399
3 380 382 402
3 380 402 400
3 381 401 383
3 403 383 401
3 382 384 402
3 404 402 384
3 383 403 405
3 383 405 385
3 384 386 404
3 406 404 386
3 385 405 410
3 385 410 390
3 386 387 406
3 407 406 387
3 387 388 407
3 408 407 388
3 388 389 408
3 409 408 389
3 389 390 409
3 410 409 390
3 391 411 412
3 391 412 392
3 391 394 411
3 414 411 394
3 392 412 413
3 392 413 393
3 393 413 415
3 393 415 395
3 394 396 416
3 394 416 414
3 395 415 397
3 417 397 415
3 396 400 420
3 396 420 416
3 397 417 398
3 418 398 417
3 398 418 399
3 419 399 418
3 399 419 401
3 421 401 419
3 400 402 422
3 400 422 420
3 401 421 403
3 423 403 421
3 402 404 424
3 402 424 422
3 403 423 405
3 425 405 423
3 404 406 426
3 404 426 424
3 405 425 410
3 430 410 425
3 406 407 426
3 427 426 407
3 407 408 427
3 428 427 408
3 408 409 428
3 429 428 409
3 409 410 429
3 430 429 410
3 411 431 432
3 411 432 412
3 411 414 431
3 434 431 414
3 412 432 433
3 412 433 413
3 413 433 435
3 413 435 415
3 414 416 434
3 436 434 416
3 415 435 437
3 415 437 417
3 416 420 436
3 440 436 420
3 417 437 438
3 417 438 418
3 418 438 439
3 418 439 419
3 419 439 441
3 419 441 421
3 420 422 442
3 420 442 440
3 421 441 423
3 443 423 441
3 422 424 444
3 422 444 442
3 423 443 425
3 445 425 443
3 424 426 446
3 424 446 444
3 425 445 430
3 450 430 445
3 426 427 447
3 426 447 446
3 427 428 448
3 427 448 447
3 428 429 449
3 428 449 448
3 429 430 450
3 429 450 449
3 431 451 432
3 452 432 451
3 431 434 451
3 454 451 434
3 432 452 433
3 453 433 452
3 433 453 456
3 433 456 435
3 434 436 454
3 457 454 436
3 435 456 459
3 435 459 437
3 436 440 457
3 462 457 440
3 437 459 460
3 437 460 438
3 438 460 461
3 438 461 439
3 439 461 465
3 439 465 441
3 440 442 462
3 466 462 442
3 441 465 469
3 441 469 443
3 442 444 466
3 470 466 444
3 443 469 445
3 473 445 469
3 444 446 474
3 444 474 470
3 445 473 450
3 478 450 473
3 446 447 475
3 446 475 474
3 447 448 476
3 447 476 475
3 448 449 477
3 448 477 476
3 449 450 478
3 449 478 477
3 451 454 455
3 451 455 452
3 452 455 456
3 452 456 453
3 454 457 458
3 454 458 455
3 455 458 459
3 455 459 456
3 457 479 458
3 480 458 479
3 457 462 479
3 482 479 462
3 458 480 459
3 481 459 480
3 459 463 460
3 464 460 463
3 459 481 483
3 459 483 463
3 460 464 461
3 465 461 464
3 462 466 482
3 484 482 466
3 463 467 464
3 468 464 467
3 463 483 485
3 463 485 467
3 464 468 465
3 469 465 468
3 466 470 484
3 486 484 470
3 467 471 468
3 472 468 471
3 467 485 487
3 467 487 471
3 468 472 469
3 473 469 472
3 470 474 488
3 470 488 486
3 471 476 477
3 471 477 472
3 471 487 490
3 471 490 476
3 472 477 478
3 472 478 473
3 474 475 489
3 474 489 488
3 475 476 490
3 475 490 489
3 479 491 480
3 492 480 491
3 479 482 494
3 479 494 491
3 480 492 481
3 493 481 492
3 481 493 483
3 495 483 493
3 482 484 496
3 482 496 494
3 483 495 485
3 497 485 495
3 484 486 496
3 498 496 486
3 485 497 487
3 499 487 497
3 486 488 498
3 500 498 488
3 487 499 490
3 502 490 499
3 488 489 500
3 501 500 489
3 489 490 501
3 502 501 490
3 491 503 504
3 491 504 492
3 491 494 503
3 506 503 494
3 492 504 505
3 492 505 493
3 493 505 507
3 493 507 495
3 494 496 506
3 508 506 496
3 495 507 509
3 495 509 497
3 496 498 508
3 510 508 498
3 497 509 511
3 497 511 499
3 498 500 512
3 498 512 510
3 499 511 514
3 499 514 502
3 500 501 513
3 500 513 512
3 501 502 514
3 501 514 513
3 503 515 516
3 503 516 504
3 503 506 518
3 503 518 515
3 504 516 517
3 504 517 505
3 505 517 507
3 520 507 517
3 506 508 521
3 506 521 518
3 507 520 509
3 523 509 520
3 508 510 524
3 508 524 521
3 509 523 511
3 526 511 523
3 510 512 527
3 510 527 524
3 511 526 514
3 529 514 526
3 512 513 527
3 528 527 513
3 513 514 528
3 529 528 514
3 515 518 516
3 519 516 518
3 516 519 517
3 520 517 519
3 518 521 519
3 522 519 521
3 519 522 520
3 523 520 522
3 521 524 522
3 525 522 524
3 522 525 523
3 526 523 525
3 524 527 528
3 524 528 525
3 525 528 529
3 525 529 526
