ply
format ascii 1.0
element vertex 618
property float x
property float y
property float z
property uchar red
property uchar green
property uchar blue
element face 1232
property list uchar int vertex_index
end_header
-3.38572 -41.6333 -33.3765 0 3 255
-3.88675 -41.7301 -33.2656 0 239 255
-4.63654 -41.7998 -33.1908 53 255 202
-5.49085 -41.8159 -33.1654 89 255 166
-6.33244 -41.7706 -33.1863 105 255 150
-7.04183 -41.6592 -33.2552 0 52 255
-7.48226 -41.5079 -33.3603 0 42 255
-3.27566 -41.7247 -33.886 13 255 242
-3.8797 -41.941 -33.8805 0 197 255
-4.6419 -42.0566 -33.8562 14 255 241
-5.49424 -42.0827 -33.8428 255 211 0
-6.33679 -42.0233 -33.8423 0 242 255
-7.06009 -41.8673 -33.8488 0 191 255
-7.57535 -41.5798 -33.8446 0 145 255
-3.19793 -41.7962 -34.6506 0 162 255
-3.8537 -42.0616 -34.6565 255 232 0
-4.63409 -42.2008 -34.6484 177 255 78
-5.49278 -42.2218 -34.6361 0 245 255
-6.34341 -42.1359 -34.6131 157 255 98
-7.07733 -41.9472 -34.5655 100 255 155
-7.6169 -41.6152 -34.5309 26 255 229
-3.15962 -41.8316 -35.547 222 255 33
-3.83471 -42.112 -35.5495 81 255 174
-4.6224 -42.2492 -35.5452 110 255 145
-5.48594 -42.2417 -35.5315 255 152 0
-6.35466 -42.1048 -35.4864 231 255 24
-7.08612 -41.9036 -35.3284 76 255 179
-7.5971 -41.596 -35.2387 0 49 255
-3.14695 -41.839 -36.5 151 255 104
-3.82191 -42.1166 -36.4998 82 255 173
-4.60185 -42.2353 -36.4995 255 170 0
-5.46154 -42.1767 -36.4993 255 202 0
-6.40426 -41.9147 -36.5003 255 19 0
-7.13128 -41.7235 -36.0289 0 142 255
-7.53897 -41.5392 -35.7723 0 64 255
-3.15321 -41.8258 -37.4528 122 255 133
-3.812 -42.0921 -37.4496 159 255 96
-4.55939 -42.1946 -37.4524 184 255 71
-5.34335 -42.1178 -37.4651 220 255 35
-6.08417 -41.8636 -37.5139 142 255 113
-3.18692 -41.7877 -38.3487 118 255 137
-3.81474 -42.031 -38.3404 163 255 92
-4.52594 -42.1168 -38.3434 94 255 161
-5.2508 -42.0345 -38.3508 76 255 179
-5.90406 -41.7867 -38.3815 0 220 255
-3.26166 -41.717 -39.1119 0 56 255
-3.83202 -41.91 -39.1104 0 198 255
-4.508 -41.9705 -39.1193 0 255 255
-5.18845 -41.8937 -39.1119 17 255 238
-5.76615 -41.6759 -39.1153 0 135 255
-3.36857 -41.6265 -39.6181 0 105 255
-3.83807 -41.7019 -39.7143 0 172 255
-4.49857 -41.721 -39.7511 0 149 255
-5.16083 -41.6589 -39.7064 0 115 255
-5.63574 -41.5483 -39.6053 0 120 255
-3.12234 -41.3243 -33.0946 5 255 250
-3.77853 -41.3905 -32.7586 93 255 162
-4.59665 -41.442 -32.6074 162 255 93
-5.48141 -41.4484 -32.5646 24 255 231
-6.34267 -41.3962 -32.6053 79 255 176
-7.08653 -41.2717 -32.7519 70 255 185
-7.6245 -41.0978 -33.0779 0 140 255
-2.7974 -41.3673 -33.7702 0 164 255
-7.87825 -41.0745 -33.7346 47 255 208
-2.64549 -41.4104 -34.6075 171 255 84
-7.95951 -41.0801 -34.5145 92 255 163
-2.58384 -41.433 -35.534 237 255 18
-7.90801 -41.0867 -35.3105 88 255 167
-2.56786 -41.4389 -36.5 149 255 106
-6.90079 -41.499 -36.9743 0 135 255
-7.34262 -41.3442 -36.5001 7 255 248
-7.72163 -41.1321 -36.024 0 143 255
-2.58322 -41.4319 -37.4663 34 255 221
-6.63196 -41.4773 -37.6824 7 255 248
-2.64441 -41.4095 -38.3933 16 255 239
-6.43829 -41.3948 -38.4651 116 255 139
-2.7944 -41.3686 -39.2315 180 255 75
-6.22546 -41.2727 -39.2217 0 230 255
-3.11099 -41.3247 -39.9032 0 200 255
-3.73774 -41.3579 -40.2097 0 231 255
-4.48639 -41.342 -40.2894 87 255 168
-5.2362 -41.2556 -40.1794 40 255 215
-5.87904 -41.1446 -39.8561 0 243 255
-3.27145 -39.589 -29.3424 0 25 255
-3.82399 -39.7044 -29.2535 0 221 255
-4.61085 -39.7903 -29.1885 71 255 184
-5.48264 -39.8169 -29.1674 93 255 162
-6.32994 -39.7784 -29.1935 40 255 215
-7.03962 -39.6716 -29.2707 0 212 255
-7.47752 -39.5251 -29.3835 0 0 249
-3.0307 -39.7561 -29.815 80 255 175
-3.74127 -39.9987 -29.8367 86 255 169
-4.58305 -40.1197 -29.8158 129 255 126
-5.47551 -40.1501 -29.8062 123 255 132
-6.33456 -40.0962 -29.8207 0 233 255
-7.06649 -39.9385 -29.8558 0 186 255
-7.58446 -39.6399 -29.8777 0 163 255
-1.34413 -39.6088 -31.2729 0 29 255
-1.82343 -39.7812 -31.0244 0 240 255
-2.63024 -39.9554 -30.6051 255 109 0
-3.60527 -40.2628 -30.5749 255 136 0
-4.53808 -40.3979 -30.5384 191 255 64
-5.46467 -40.4253 -30.5249 170 255 85
-6.34241 -40.3555 -30.5398 209 255 46
-7.0994 -40.1585 -30.5801 65 255 190
-7.66493 -39.7837 -30.6217 65 255 190
-1.25253 -39.7429 -31.8251 0 159 255
-1.85195 -40.0864 -31.734 164 255 91
-2.65637 -40.382 -31.5623 255 130 0
-3.583 -40.5932 -31.3892 202 255 53
-4.52521 -40.696 -31.2928 230 255 25
-5.46221 -40.7098 -31.2632 185 255 70
-6.35021 -40.6303 -31.2898 150 255 105
-7.12567 -40.4144 -31.3757 255 255 0
-7.72558 -39.9918 -31.5083 84 255 171
-1.17073 -39.856 -32.6249 213 255 42
-1.80763 -40.3138 -32.6073 255 219 0
-2.66952 -40.7976 -32.5881 255 55 0
-3.62125 -40.9705 -32.1696 129 255 126
-4.54393 -41.0479 -31.998 161 255 94
-5.46897 -41.054 -31.9512 148 255 107
-6.35387 -40.9798 -31.9952 132 255 123
-7.13873 -40.7799 -32.1589 48 255 207
-7.80046 -40.3565 -32.5554 202 0 0
-1.10454 -39.8952 -33.5392 180 255 75
-1.66758 -40.409 -33.5535 200 255 55
-2.28489 -40.8992 -33.5974 255 105 0
-8.0866 -40.3419 -33.5695 255 134 0
-1.08599 -39.8832 -34.507 255 200 0
-1.58542 -40.4395 -34.5217 189 255 66
-2.12056 -40.9444 -34.5487 63 255 192
-8.17233 -40.3443 -34.5058 130 255 125
-1.10852 -39.8756 -35.502 92 255 163
-1.55825 -40.4476 -35.507 85 255 170
-2.05886 -40.9618 -35.5167 168 255 87
-8.11377 -40.3557 -35.4498 255 249 0
-1.13499 -39.8733 -36.501 89 255 166
-1.55812 -40.4487 -36.5005 255 237 0
-2.04515 -40.966 -36.5002 163 255 92
-7.16343 -41.1662 -37.2321 0 2 255
-7.49323 -40.903 -36.9722 22 255 233
-7.90213 -40.4078 -36.4897 255 192 0
-1.15591 -39.8715 -37.4992 255 138 0
-1.57408 -40.4455 -37.4947 170 255 85
-2.06282 -40.9615 -37.4842 152 255 103
-7.05606 -41.0627 -37.7753 1 255 254
-7.46179 -40.6394 -37.6798 0 192 255
-7.82255 -40.0982 -37.5066 179 255 76
-1.17981 -39.8661 -38.496 0 236 255
-1.61569 -40.4345 -38.4851 180 255 75
-2.12785 -40.9451 -38.4547 254 255 1
-6.91304 -40.9279 -38.5187 0 140 255
-7.36831 -40.4598 -38.4592 14 255 241
-7.71989 -39.9446 -38.3732 154 255 101
-1.21819 -39.8515 -39.4916 255 233 0
-1.70314 -40.406 -39.4735 255 163 0
-2.29158 -40.9058 -39.4132 6 255 249
-6.69916 -40.7283 -39.3288 255 217 0
-7.23779 -40.2763 -39.2019 0 188 255
-7.60341 -39.8613 -39.0916 0 46 255
-1.26908 -39.8192 -40.4835 188 255 67
-1.83623 -40.3399 -40.4714 187 255 68
-2.66493 -40.8192 -40.4301 240 0 0
-3.58203 -40.9235 -40.7959 84 255 171
-4.45677 -40.8767 -40.8693 162 255 93
-5.32512 -40.7078 -40.7047 203 255 52
-6.28519 -40.338 -40.2573 226 0 0
-7.09844 -39.979 -39.7935 37 255 218
-7.48279 -39.7769 -39.5482 0 9 255
-1.30301 -39.7605 -41.4513 123 255 132
-1.87368 -40.1964 -41.4529 173 255 82
-2.64117 -40.4772 -41.4754 255 129 0
-3.51111 -40.5316 -41.5798 255 123 0
-4.39576 -40.4133 -41.5749 210 255 45
-5.21447 -40.2311 -41.3754 112 255 143
-5.86343 -39.9014 -41.1555 72 255 183
-1.34225 -39.6881 -42.348 32 255 223
-1.88827 -40.0465 -42.345 88 255 167
-2.61302 -40.2194 -42.3595 35 255 220
-3.43842 -40.1826 -42.3849 104 255 151
-4.33338 -39.885 -42.3703 255 142 0
-5.14775 -39.772 -41.9358 62 255 193
-5.634 -39.6492 -41.6545 0 91 255
-1.40885 -39.5956 -43.1035 0 112 255
-1.89946 -39.8652 -43.1032 0 180 255
-2.5633 -39.9689 -43.111 3 255 252
-3.27559 -39.9108 -43.1038 108 255 147
-3.88402 -39.6625 -43.1073 0 119 255
-1.50398 -39.4847 -43.5945 0 76 255
-1.90563 -39.5905 -43.6804 0 149 255
-2.52123 -39.6285 -43.6969 0 199 255
-3.16517 -39.5972 -43.6296 0 113 255
-3.62673 -39.5093 -43.5309 0 0 237
-3.04197 -39.1753 -29.0662 53 255 202
-3.76053 -39.2736 -28.7844 28 255 227
-4.59557 -39.3632 -28.6501 82 255 173
-5.48145 -39.3929 -28.612 95 255 160
-6.33835 -39.3556 -28.6555 0 236 255
-7.07238 -39.2477 -28.8043 0 250 255
-7.59621 -39.101 -29.1282 0 208 255
-2.57341 -39.3316 -29.5857 67 255 188
-7.86441 -39.1241 -29.7795 70 255 185
-1.06837 -39.1864 -31.0538 0 190 255
-1.58817 -39.3399 -30.5764 69 255 186
-2.14964 -39.4479 -30.1451 0 216 255
-8.00034 -39.1989 -30.6023 126 255 129
-0.787026 -39.2782 -31.7634 234 255 21
-8.0773 -39.3078 -31.527 255 169 0
-0.651241 -39.346 -32.5957 130 255 125
-8.14793 -39.443 -32.5203 255 172 0
-0.60872 -39.3245 -33.5068 110 255 145
-8.25415 -39.479 -33.5193 64 255 191
-0.647054 -39.2287 -34.4766 255 229 0
-8.2932 -39.4889 -34.5003 255 224 0
-0.755415 -39.2124 -35.4956 226 255 29
-8.25254 -39.488 -35.4808 255 219 0
-0.830693 -39.2146 -36.5023 202 255 53
-8.1408 -39.4698 -36.4753 255 73 0
-0.869349 -39.2175 -37.5017 85 255 170
-8.02535 -39.3656 -37.4464 255 222 0
-0.889411 -39.2171 -38.4997 255 236 0
-7.87938 -39.3126 -38.345 0 228 255
-0.906752 -39.2119 -39.497 172 255 83
-7.73864 -39.3808 -39.0871 0 113 255
-0.928362 -39.1998 -40.4896 251 255 4
-6.62755 -39.4146 -40.4824 255 179 0
-7.18334 -39.4428 -39.9845 0 83 255
-7.55063 -39.4312 -39.6017 0 0 238
-0.956518 -39.1782 -41.4635 35 255 220
-6.15839 -39.2742 -41.1746 0 147 255
-1.01333 -39.1482 -42.3875 46 255 209
-4.67233 -39.2067 -42.6847 58 255 197
-5.26206 -39.1883 -42.1978 0 143 255
-5.75542 -39.1769 -41.7412 1 255 254
-1.13695 -39.1073 -43.2095 0 213 255
-4.17478 -39.1474 -43.2414 24 255 231
-1.38279 -39.0687 -43.8435 0 137 255
-1.84929 -39.1221 -44.1161 0 164 255
-2.47999 -39.1053 -44.1463 0 244 255
-3.15674 -39.1062 -43.9641 0 228 255
-3.71959 -39.0984 -43.6822 0 196 255
-3.40211 -37.6355 -27.4811 0 120 255
-3.89704 -37.7393 -27.3438 0 205 255
-4.64148 -37.8106 -27.2454 46 255 209
-5.49187 -37.8339 -27.2129 0 240 255
-6.32895 -37.8106 -27.2479 15 255 240
-7.02875 -37.7392 -27.351 0 148 255
-7.45147 -37.6356 -27.4954 0 0 229
-3.14136 -37.8992 -27.8956 0 254 255
-3.7979 -38.2057 -27.7514 11 255 244
-4.60855 -38.3473 -27.6477 66 255 189
-5.48486 -38.3877 -27.6141 0 254 255
-6.33732 -38.3462 -27.6509 57 255 198
-7.0646 -38.2025 -27.7609 0 240 255
-7.56728 -37.8948 -27.9168 0 230 255
-1.37473 -37.8831 -29.3987 0 0 186
-1.81458 -38.0606 -29.1286 0 175 255
-2.66789 -38.3708 -28.684 156 0 0
-3.67408 -38.7077 -28.3043 204 255 51
-4.57597 -38.8597 -28.1431 122 255 133
-5.47873 -38.9027 -28.0987 191 255 64
-6.34476 -38.8561 -28.1465 151 255 104
-7.09922 -38.6952 -28.314 63 255 192
-7.69491 -38.3395 -28.6966 255 173 0
-1.12045 -38.0699 -29.8535 115 255 140
-1.59854 -38.4615 -29.6108 0 245 255
-2.15901 -38.826 -29.4166 0 182 255
-7.99273 -38.411 -29.6291 168 255 87
0.447141 -37.8052 -31.4443 0 0 246
0.071623 -38.0017 -31.2025 14 255 241
-0.690772 -38.3986 -30.7155 255 74 0
-1.41552 -38.8329 -30.1728 11 255 244
-1.88786 -39.0571 -29.8906 0 28 255
-8.12893 -38.4771 -30.5563 0 232 255
0.551333 -37.8798 -31.8749 0 0 255
0.204397 -38.2495 -31.7889 0 144 255
-0.3195 -38.7074 -31.6769 120 255 135
-8.19407 -38.5379 -31.518 197 255 58
0.605969 -37.911 -32.5044 0 94 255
0.286285 -38.3261 -32.5155 0 209 255
-0.170275 -38.8015 -32.544 79 255 176
-8.23593 -38.5934 -32.5075 248 255 7
0.590713 -37.8808 -33.1351 0 118 255
0.291802 -38.2526 -33.2454 0 239 255
-0.149353 -38.7188 -33.4263 51 255 204
-8.27333 -38.6185 -33.504 255 124 0
0.52177 -37.8073 -33.5683 0 0 191
0.238613 -38.0062 -33.8326 0 156 255
-0.250796 -38.4041 -34.3804 255 51 0
-8.28146 -38.6284 -34.4958 255 139 0
-0.554481 -38.4531 -35.49 255 123 0
-8.24855 -38.6304 -35.4801 247 255 8
-0.703575 -38.4872 -36.5077 97 255 158
-8.16702 -38.6205 -36.4512 207 255 48
-0.768563 -38.5046 -37.5053 177 255 78
-8.03146 -38.5852 -37.3992 70 255 185
-0.793577 -38.5107 -38.5017 169 255 86
-7.1197 -37.9323 -39.1641 0 5 255
-7.43778 -38.151 -38.8666 0 143 255
-7.79453 -38.5444 -38.3695 236 255 19
-0.804817 -38.5109 -39.4993 68 255 187
-6.97152 -38.1462 -39.6551 0 180 255
-7.37113 -38.5121 -39.4108 0 142 255
-7.66916 -38.878 -39.1488 0 114 255
-0.816017 -38.5076 -40.4949 252 255 3
-6.71206 -38.5543 -40.3418 146 255 109
-7.24999 -38.8969 -39.8705 0 192 255
-7.55048 -39.074 -39.588 0 36 255
-0.838267 -38.5006 -41.4807 138 255 117
-6.213 -38.5478 -41.1441 176 255 79
-0.893655 -38.4872 -42.4419 182 255 73
-4.7679 -38.5095 -42.7734 10 255 245
-5.30749 -38.5166 -42.2686 44 255 211
-5.78892 -38.5277 -41.7617 0 164 255
-1.02061 -38.4563 -43.3625 0 243 255
-4.26288 -38.501 -43.3081 26 255 229
-1.27851 -38.376 -44.2617 80 255 175
-1.76249 -38.5201 -44.5746 0 204 255
-2.39212 -38.3793 -44.5769 96 255 159
-3.1545 -38.4616 -44.1699 0 246 255
-3.75994 -38.4898 -43.7783 0 139 255
-1.33838 -37.9849 -45.0005 0 71 255
-1.64161 -38.0912 -45.1079 0 29 255
-1.98422 -37.9816 -45.1272 0 0 239
-1.37897 -37.7947 -45.3663 0 0 176
-1.57433 -37.8147 -45.4378 0 0 168
-1.79224 -37.7917 -45.4245 0 0 128
-3.3152 -37.1705 -27.4008 0 115 255
-3.89806 -37.175 -27.1349 0 179 255
-4.6486 -37.1956 -26.997 19 255 236
-5.49519 -37.2044 -26.955 140 255 115
-6.33131 -37.1969 -26.9977 15 255 240
-7.04073 -37.1775 -27.1382 0 161 255
-7.52335 -37.1754 -27.4129 0 104 255
-2.86041 -37.275 -27.871 40 255 215
-7.76199 -37.2866 -27.9162 0 239 255
-1.31552 -37.4943 -29.3599 0 59 255
-1.7554 -37.479 -28.984 51 255 204
-2.35247 -37.4294 -28.5063 96 255 159
-7.87783 -37.4627 -28.6766 185 255 70
-0.969185 -37.4986 -29.8535 0 98 255
-8.00308 -37.6249 -29.5901 202 255 53
0.485115 -37.5 -31.4032 0 0 247
0.089455 -37.5 -31.0361 0 166 255
-0.51725 -37.5 -30.5348 228 255 27
-8.07354 -37.725 -30.5391 183 255 72
0.6538 -37.5001 -31.8824 0 59 255
-8.1058 -37.7807 -31.5129 196 255 59
0.710482 -37.5003 -32.5013 0 58 255
-8.11902 -37.8131 -32.5029 215 255 40
0.672898 -37.5011 -33.1217 0 0 240
-8.12046 -37.8314 -33.4985 255 184 0
0.531835 -37.504 -33.6083 0 0 246
0.192741 -37.5147 -34.0041 0 173 255
-0.309265 -37.5518 -34.596 251 255 4
-8.10591 -37.8464 -34.4907 107 255 148
-0.642352 -37.6803 -35.5459 255 246 0
-8.07459 -37.8638 -35.4674 95 255 160
-0.817077 -37.7682 -36.5264 192 255 63
-8.0121 -37.8791 -36.404 141 255 114
-0.893809 -37.8107 -37.5117 161 255 94
-7.8967 -37.8843 -37.2604 88 255 167
-0.921947 -37.8264 -38.5037 152 255 103
-6.87486 -37.5544 -38.9437 0 245 255
-7.31984 -37.6764 -38.4612 0 244 255
-7.69031 -37.8544 -37.9783 0 225 255
-0.931471 -37.8308 -39.5005 149 255 106
-6.57785 -37.6409 -39.6371 11 255 244
-0.937781 -37.8315 -40.498 51 255 204
-6.32153 -37.8053 -40.3975 113 255 142
-0.95119 -37.8316 -41.4907 218 255 37
-6.01975 -37.874 -41.1319 0 245 255
-0.985484 -37.8306 -42.4685 93 255 162
-4.66412 -37.8299 -42.6714 117 255 138
-5.2357 -37.8673 -42.1728 0 189 255
-5.69477 -37.9038 -41.7137 0 147 255
-1.05779 -37.8207 -43.4119 107 255 148
-4.17668 -37.8607 -43.2618 0 118 255
-1.17085 -37.7783 -44.2834 0 142 255
-2.53752 -37.7578 -44.5804 17 255 238
-3.17798 -37.8396 -44.1411 0 169 255
-3.72951 -37.8865 -43.751 0 96 255
-1.25006 -37.6551 -44.9807 0 0 211
-2.0952 -37.6405 -45.1091 0 18 255
-1.35285 -37.5809 -45.3861 0 0 153
-1.56244 -37.5623 -45.5042 0 0 145
-1.81542 -37.5741 -45.4379 0 0 194
-3.29874 -36.5286 -27.3843 0 143 255
-3.89859 -36.5188 -27.0772 0 225 255
-4.65081 -36.5167 -26.9217 33 255 222
-5.49617 -36.5185 -26.8739 57 255 198
-6.33184 -36.5221 -26.9163 15 255 240
-7.04257 -36.5276 -27.063 0 181 255
-7.53035 -36.5407 -27.3568 0 131 255
-2.81283 -36.5498 -27.9055 209 255 46
-7.75805 -36.5673 -27.8629 18 255 237
-1.32363 -37.1077 -29.3949 0 72 255
-1.68389 -36.9139 -29.119 0 128 255
-2.27118 -36.5602 -28.6638 217 255 38
-7.16055 -35.8312 -29.2694 0 104 255
-7.45795 -36.0917 -29.0367 0 205 255
-7.76269 -36.5669 -28.6478 44 255 211
-1.08653 -36.9268 -29.8474 0 192 255
-1.50743 -36.5288 -29.5887 0 209 255
-1.97842 -36.1514 -29.3465 0 209 255
-7.08515 -35.9086 -29.8209 0 141 255
-7.47772 -36.3343 -29.744 0 222 255
-7.81636 -36.8857 -29.611 230 255 25
0.44565 -37.1949 -31.4438 0 0 189
0.07056 -36.9988 -31.2005 0 119 255
-0.681989 -36.6032 -30.7081 247 0 0
-1.36735 -36.1667 -30.1514 0 217 255
-1.79622 -35.9378 -29.8409 0 23 255
-7.01529 -35.976 -30.6181 0 225 255
-7.46051 -36.4639 -30.596 95 255 160
-7.83605 -37.0362 -30.5522 249 255 6
0.54512 -37.1205 -31.8734 0 71 255
0.189824 -36.7524 -31.7831 13 255 242
-0.34255 -36.3005 -31.6597 126 255 129
-6.95771 -36.0178 -31.5237 207 255 48
-7.43353 -36.526 -31.527 145 255 110
-7.83702 -37.1037 -31.5172 74 255 181
0.588215 -37.0901 -32.5009 0 97 255
0.242173 -36.6783 -32.5016 0 214 255
-0.248876 -36.2154 -32.5005 61 255 194
-6.87736 -36.0483 -32.4661 155 255 100
-7.38742 -36.559 -32.4942 171 255 84
-7.82289 -37.1354 -32.5011 183 255 72
0.553667 -37.1217 -33.1301 0 56 255
0.195437 -36.7556 -33.2245 0 125 255
-0.348287 -36.3081 -33.35 130 255 125
-6.70765 -36.0872 -33.419 91 255 164
-7.29859 -36.5924 -33.477 249 255 6
-7.78959 -37.1584 -33.4933 207 255 48
0.466871 -37.1983 -33.5652 0 0 189
0.095862 -37.0083 -33.8239 0 237 255
-0.696353 -36.6302 -34.359 170 0 0
-1.67685 -36.2051 -34.8321 255 194 0
-2.58338 -36.0047 -35.0141 191 255 64
-3.51351 -35.9261 -35.0624 176 255 79
-4.45437 -35.9214 -35.0183 255 218 0
-5.3807 -35.9826 -34.8528 249 255 6
-6.32512 -36.1507 -34.4485 128 0 0
-7.16345 -36.6522 -34.4793 255 228 0
-7.74027 -37.1907 -34.4864 109 255 146
-1.03514 -36.9856 -35.5343 255 30 0
-1.75535 -36.55 -35.674 233 255 22
-2.60492 -36.3227 -35.7618 218 255 37
-3.52816 -36.2297 -35.7886 233 255 22
-4.48215 -36.2197 -35.7612 147 255 108
-5.42936 -36.2812 -35.6723 255 231 0
-6.33614 -36.4453 -35.5258 255 180 0
-7.12189 -36.7786 -35.478 255 255 0
-7.70485 -37.2434 -35.462 255 241 0
-1.19467 -37.1577 -36.537 200 255 55
-1.82722 -36.7442 -36.5804 218 255 37
-2.63177 -36.5168 -36.6135 242 255 13
-3.53924 -36.4224 -36.6239 255 237 0
-4.49177 -36.415 -36.6094 255 216 0
-5.44126 -36.4809 -36.5653 255 206 0
-6.33737 -36.6355 -36.4916 255 219 0
-7.10088 -36.9003 -36.4171 186 255 69
-7.66425 -37.3022 -36.3811 155 255 100
-1.26287 -37.2325 -37.5173 163 255 92
-1.86462 -36.8344 -37.53 201 255 54
-2.64665 -36.6128 -37.5402 255 249 0
-3.54228 -36.525 -37.5428 255 74 0
-4.48891 -36.5327 -37.5347 255 167 0
-5.4376 -36.6263 -37.509 255 144 0
-6.34292 -36.8131 -37.4462 255 254 0
-7.08972 -37.0435 -37.277 17 255 238
-7.60459 -37.371 -37.1845 0 71 255
-1.28737 -37.2597 -38.5055 251 255 4
-1.87853 -36.8691 -38.5086 215 255 40
-2.65038 -36.6537 -38.5109 255 226 0
-3.53626 -36.5772 -38.5105 202 255 53
-4.47044 -36.6105 -38.5061 255 167 0
-5.41203 -36.7598 -38.4973 255 134 0
-6.3858 -37.0789 -38.486 255 111 0
-7.12398 -37.2692 -38.0058 12 255 243
-7.53159 -37.4488 -37.7439 0 70 255
-1.29468 -37.2683 -39.5011 56 255 199
-1.8817 -36.8823 -39.5013 191 255 64
-2.64746 -36.6741 -39.5002 255 249 0
-3.521 -36.6115 -39.496 255 200 0
-4.42453 -36.6679 -39.4876 255 196 0
-5.28779 -36.8449 -39.4803 255 232 0
-6.04824 -37.1712 -39.5054 255 110 0
-1.29755 -37.2729 -40.4988 147 255 108
-1.88102 -36.8938 -40.4975 195 255 60
-2.64127 -36.699 -40.492 255 250 0
-3.50339 -36.6592 -40.4782 255 217 0
-4.3811 -36.7451 -40.4495 255 243 0
-5.18472 -36.9393 -40.4 173 255 82
-5.84099 -37.2777 -40.3775 59 255 196
-1.30221 -37.2813 -41.4934 134 255 121
-1.87757 -36.9175 -41.4898 187 255 68
-2.62848 -36.75 -41.4761 248 255 7
-3.47908 -36.7534 -41.4444 255 221 0
-4.34578 -36.8974 -41.3817 211 255 44
-5.11263 -37.0882 -41.2221 0 254 255
-5.67284 -37.3805 -41.1203 0 102 255
-1.31359 -37.2989 -42.4755 90 255 165
-1.8677 -36.9659 -42.4683 134 255 121
-2.59598 -36.8464 -42.4407 189 255 66
-3.42367 -36.9192 -42.3814 221 255 34
-4.31288 -37.2208 -42.3217 246 255 9
-5.09425 -37.3624 -41.8701 27 255 228
-5.53997 -37.4922 -41.6124 0 51 255
-1.33488 -37.3271 -43.4228 0 211 255
-1.84255 -37.049 -43.4126 44 255 211
-2.52042 -37.0004 -43.366 126 255 129
-3.26225 -37.0983 -43.2228 92 255 163
-3.88062 -37.3598 -43.1483 77 255 178
-1.35991 -37.357 -44.2866 0 179 255
-1.78728 -37.168 -44.2842 0 197 255
-2.40238 -37.2721 -44.2658 65 255 190
-3.14655 -37.3677 -43.8601 0 177 255
-3.62802 -37.4817 -43.6334 0 40 255
-1.36594 -37.3652 -44.9678 0 36 255
-1.65732 -37.2494 -44.9809 0 20 255
-1.99045 -37.3371 -45.0013 0 39 255
-1.39017 -37.39 -45.3395 0 0 150
-1.58134 -37.3527 -45.3861 0 0 163
-1.79586 -37.3787 -45.3665 0 0 128
-3.37736 -35.9138 -27.4335 0 185 255
-3.92505 -35.8888 -27.1687 0 159 255
-4.65804 -35.8671 -27.0352 0 250 255
-5.49622 -35.8662 -26.9908 25 255 230
-6.32658 -35.8854 -27.017 0 230 255
-7.02459 -35.9163 -27.1211 0 126 255
-7.48175 -35.9468 -27.3393 0 43 255
-3.00457 -35.8803 -27.9254 0 158 255
-7.65795 -35.9351 -27.7242 0 0 252
-2.67649 -35.8103 -28.6198 102 255 153
-6.89692 -35.5231 -29.0348 0 219 255
-7.30479 -35.6827 -28.5937 0 80 255
-7.61118 -35.8874 -28.2077 0 162 255
-2.39974 -35.6452 -29.3673 21 255 234
-6.65817 -35.5075 -29.7408 0 247 255
-1.06676 -35.8263 -31.0358 25 255 230
-1.55888 -35.6723 -30.5439 55 255 200
-2.07284 -35.5582 -30.0577 12 255 243
-6.5258 -35.5299 -30.5871 71 255 184
-0.815354 -35.7496 -31.726 0 159 255
-6.4461 -35.5551 -31.4968 117 255 138
-0.74226 -35.7091 -32.4889 20 255 235
-6.36118 -35.5847 -32.4024 99 255 156
-0.835317 -35.7581 -33.2423 147 255 108
-6.20264 -35.6257 -33.236 94 255 161
-1.13851 -35.8475 -33.8961 57 255 198
-1.79691 -35.7092 -34.2403 29 255 226
-2.61255 -35.596 -34.3949 90 255 165
-3.50487 -35.5456 -34.438 119 255 136
-4.40049 -35.5489 -34.3964 167 255 88
-5.22148 -35.595 -34.2475 26 255 229
-5.87703 -35.6595 -33.9147 0 107 255
-3.4991 -35.514 -27.5358 0 16 255
-3.95073 -35.414 -27.4308 0 154 255
-4.66129 -35.3562 -27.3575 0 253 255
-5.49403 -35.3573 -27.3239 6 255 249
-6.32215 -35.4083 -27.3182 0 170 255
-7.00289 -35.4862 -27.3294 0 25 255
-7.39696 -35.58 -27.3878 0 0 175
-3.3424 -35.3995 -27.9599 0 149 255
-3.89648 -35.143 -27.9378 0 119 255
-4.63851 -35.0375 -27.9087 36 255 219
-5.48508 -35.0547 -27.8843 86 255 169
-6.33723 -35.1685 -27.8444 63 255 192
-7.0296 -35.3138 -27.7179 0 132 255
-7.46089 -35.5216 -27.664 0 5 255
-3.15785 -35.2938 -28.6548 0 219 255
-3.80601 -34.9899 -28.6661 163 255 92
-4.58944 -34.8761 -28.6629 160 255 95
-5.45566 -34.9366 -28.6559 212 255 43
-6.39667 -35.1764 -28.6397 230 255 25
-7.09508 -35.3665 -28.2052 0 105 255
-7.45998 -35.5272 -27.9921 0 0 201
-2.93735 -35.1874 -29.5035 242 255 13
-3.68476 -34.8963 -29.5413 242 255 13
-4.50512 -34.7989 -29.5521 255 168 0
-5.33144 -34.8859 -29.5635 234 255 21
-6.09553 -35.1399 -29.6015 57 255 198
-1.34728 -35.4251 -31.2473 0 78 255
-1.81161 -35.2706 -30.984 21 255 234
-2.58432 -35.1026 -30.5083 255 22 0
-3.54585 -34.8283 -30.5033 255 198 0
-4.42501 -34.7612 -30.5037 140 255 115
-5.23742 -34.8728 -30.5111 205 255 50
-5.94762 -35.143 -30.5353 239 255 16
-1.27852 -35.3321 -31.7721 0 199 255
-1.86518 -35.0723 -31.6756 13 255 242
-2.63172 -34.8921 -31.5155 222 255 33
-3.51392 -34.758 -31.4691 255 222 0
-4.38607 -34.7492 -31.4561 232 255 23
-5.18497 -34.8842 -31.4554 88 255 167
-5.87087 -35.1617 -31.4675 220 255 35
-1.25268 -35.2954 -32.4703 0 164 255
-1.87453 -35.0212 -32.435 9 255 246
-2.64246 -34.8557 -32.3871 123 255 132
-3.50464 -34.7764 -32.364 192 255 63
-4.36763 -34.7985 -32.352 180 255 75
-5.15143 -34.9372 -32.3451 212 255 43
-5.80997 -35.2014 -32.354 44 255 211
-1.29685 -35.3463 -33.1492 0 168 255
-1.8893 -35.1055 -33.1497 0 224 255
-2.6467 -34.9688 -33.1574 82 255 173
-3.5016 -34.9154 -33.1572 129 255 126
-4.35769 -34.9426 -33.1439 101 255 154
-5.12124 -35.0578 -33.1201 17 255 238
-5.7258 -35.2726 -33.1159 0 111 255
-1.39552 -35.4504 -33.631 0 65 255
-1.89413 -35.3224 -33.7415 0 221 255
-2.6426 -35.2234 -33.8131 72 255 183
-3.5016 -35.1819 -33.8349 97 255 158
-4.36183 -35.1979 -33.8099 0 224 255
-5.11322 -35.266 -33.7357 0 191 255
-5.61447 -35.3613 -33.626 0 64 255
3 0 1 7
3 8 7 1
3 0 55 1
3 56 1 55
3 0 7 62
3 0 62 55
3 1 2 8
3 9 8 2
3 1 56 57
3 1 57 2
3 2 3 10
3 2 10 9
3 2 57 3
3 58 3 57
3 3 4 10
3 11 10 4
3 3 58 59
3 3 59 4
3 4 5 12
3 4 12 11
3 4 59 60
3 4 60 5
3 5 6 12
3 13 12 6
3 5 60 6
3 61 6 60
3 6 61 13
3 63 13 61
3 7 8 15
3 7 15 14
3 7 14 64
3 7 64 62
3 8 9 15
3 16 15 9
3 9 10 16
3 17 16 10
3 10 11 18
3 10 18 17
3 11 12 19
3 11 19 18
3 12 13 19
3 20 19 13
3 13 63 20
3 65 20 63
3 14 15 21
3 22 21 15
3 14 21 64
3 66 64 21
3 15 16 23
3 15 23 22
3 16 17 24
3 16 24 23
3 17 18 24
3 25 24 18
3 18 19 25
3 26 25 19
3 19 20 26
3 27 26 20
3 20 65 67
3 20 67 27
3 21 22 29
3 21 29 28
3 21 28 66
3 68 66 28
3 22 23 30
3 22 30 29
3 23 24 30
3 31 30 24
3 24 25 31
3 32 31 25
3 25 26 32
3 33 32 26
3 26 27 34
3 26 34 33
3 27 67 34
3 71 34 67
3 28 29 36
3 28 36 35
3 28 35 68
3 72 68 35
3 29 30 36
3 37 36 30
3 30 31 37
3 38 37 31
3 31 32 38
3 39 38 32
3 32 33 70
3 32 70 69
3 32 69 73
3 32 73 39
3 33 34 71
3 33 71 70
3 35 36 41
3 35 41 40
3 35 40 72
3 74 72 40
3 36 37 41
3 42 41 37
3 37 38 42
3 43 42 38
3 38 39 43
3 44 43 39
3 39 73 75
3 39 75 44
3 40 41 46
3 40 46 45
3 40 45 76
3 40 76 74
3 41 42 47
3 41 47 46
3 42 43 48
3 42 48 47
3 43 44 49
3 43 49 48
3 44 75 77
3 44 77 49
3 45 46 50
3 51 50 46
3 45 50 76
3 78 76 50
3 46 47 51
3 52 51 47
3 47 48 52
3 53 52 48
3 48 49 54
3 48 54 53
3 49 77 54
3 82 54 77
3 50 51 79
3 50 79 78
3 51 52 80
3 51 80 79
3 52 53 80
3 81 80 53
3 53 54 81
3 82 81 54
3 55 117 56
3 118 56 117
3 55 62 126
3 55 126 117
3 56 118 119
3 56 119 57
3 57 119 120
3 57 120 58
3 58 120 121
3 58 121 59
3 59 121 122
3 59 122 60
3 60 122 123
3 60 123 61
3 61 123 63
3 127 63 123
3 62 64 126
3 130 126 64
3 63 127 65
3 131 65 127
3 64 66 130
3 134 130 66
3 65 131 135
3 65 135 67
3 66 68 138
3 66 138 134
3 67 135 141
3 67 141 71
3 68 72 144
3 68 144 138
3 69 70 140
3 69 140 139
3 69 139 73
3 145 73 139
3 70 71 141
3 70 141 140
3 72 74 144
3 150 144 74
3 73 145 75
3 151 75 145
3 74 76 150
3 156 150 76
3 75 151 157
3 75 157 77
3 76 78 162
3 76 162 156
3 77 157 82
3 166 82 157
3 78 79 163
3 78 163 162
3 79 80 164
3 79 164 163
3 80 81 165
3 80 165 164
3 81 82 166
3 81 166 165
3 83 84 90
3 91 90 84
3 83 193 194
3 83 194 84
3 83 90 193
3 200 193 90
3 84 85 91
3 92 91 85
3 84 194 195
3 84 195 85
3 85 86 92
3 93 92 86
3 85 195 196
3 85 196 86
3 86 87 93
3 94 93 87
3 86 196 197
3 86 197 87
3 87 88 94
3 95 94 88
3 87 197 198
3 87 198 88
3 88 89 96
3 88 96 95
3 88 198 199
3 88 199 89
3 89 199 201
3 89 201 96
3 90 91 100
3 90 100 99
3 90 99 200
3 204 200 99
3 91 92 101
3 91 101 100
3 92 93 102
3 92 102 101
3 93 94 103
3 93 103 102
3 94 95 103
3 104 103 95
3 95 96 104
3 105 104 96
3 96 201 105
3 205 105 201
3 97 98 106
3 107 106 98
3 97 202 98
3 203 98 202
3 97 106 206
3 97 206 202
3 98 99 107
3 108 107 99
3 98 203 99
3 204 99 203
3 99 100 108
3 109 108 100
3 100 101 110
3 100 110 109
3 101 102 111
3 101 111 110
3 102 103 112
3 102 112 111
3 103 104 113
3 103 113 112
3 104 105 114
3 104 114 113
3 105 205 207
3 105 207 114
3 106 107 115
3 116 115 107
3 106 115 206
3 208 206 115
3 107 108 116
3 117 116 108
3 108 109 117
3 118 117 109
3 109 110 118
3 119 118 110
3 110 111 119
3 120 119 111
3 111 112 120
3 121 120 112
3 112 113 121
3 122 121 113
3 113 114 123
3 113 123 122
3 114 207 123
3 209 123 207
3 115 116 125
3 115 125 124
3 115 124 208
3 210 208 124
3 116 117 126
3 116 126 125
3 123 209 127
3 211 127 209
3 124 125 128
3 129 128 125
3 124 128 212
3 124 212 210
3 125 126 129
3 130 129 126
3 127 211 213
3 127 213 131
3 128 129 133
3 128 133 132
3 128 132 214
3 128 214 212
3 129 130 134
3 129 134 133
3 131 213 215
3 131 215 135
3 132 133 137
3 132 137 136
3 132 136 214
3 216 214 136
3 133 134 137
3 138 137 134
3 135 215 217
3 135 217 141
3 136 137 142
3 143 142 137
3 136 142 216
3 218 216 142
3 137 138 143
3 144 143 138
3 139 140 145
3 146 145 140
3 140 141 147
3 140 147 146
3 141 217 147
3 219 147 217
3 142 143 149
3 142 149 148
3 142 148 220
3 142 220 218
3 143 144 150
3 143 150 149
3 145 146 152
3 145 152 151
3 146 147 153
3 146 153 152
3 147 219 153
3 221 153 219
3 148 149 154
3 155 154 149
3 148 154 220
3 222 220 154
3 149 150 155
3 156 155 150
3 151 152 157
3 158 157 152
3 152 153 158
3 159 158 153
3 153 221 223
3 153 223 159
3 154 155 160
3 161 160 155
3 154 160 224
3 154 224 222
3 155 156 162
3 155 162 161
3 157 158 167
3 157 167 166
3 158 159 168
3 158 168 167
3 159 223 227
3 159 227 168
3 160 161 170
3 160 170 169
3 160 169 224
3 228 224 169
3 161 162 171
3 161 171 170
3 162 163 172
3 162 172 171
3 163 164 172
3 173 172 164
3 164 165 173
3 174 173 165
3 165 166 174
3 175 174 166
3 166 167 225
3 226 225 167
3 166 225 175
3 229 175 225
3 167 168 226
3 227 226 168
3 169 170 176
3 177 176 170
3 169 176 230
3 169 230 228
3 170 171 177
3 178 177 171
3 171 172 179
3 171 179 178
3 172 173 180
3 172 180 179
3 173 174 181
3 173 181 180
3 174 175 182
3 174 182 181
3 175 229 233
3 175 233 182
3 176 177 184
3 176 184 183
3 176 183 230
3 234 230 183
3 177 178 185
3 177 185 184
3 178 179 186
3 178 186 185
3 179 180 186
3 187 186 180
3 180 181 231
3 232 231 181
3 180 231 235
3 180 235 187
3 181 182 232
3 233 232 182
3 183 184 188
3 189 188 184
3 183 188 234
3 236 234 188
3 184 185 189
3 190 189 185
3 185 186 190
3 191 190 186
3 186 187 191
3 192 191 187
3 187 235 192
3 240 192 235
3 188 189 237
3 188 237 236
3 189 190 238
3 189 238 237
3 190 191 239
3 190 239 238
3 191 192 240
3 191 240 239
3 193 257 258
3 193 258 194
3 193 200 257
3 266 257 200
3 194 258 259
3 194 259 195
3 195 259 260
3 195 260 196
3 196 260 261
3 196 261 197
3 197 261 198
3 262 198 261
3 198 262 199
3 263 199 262
3 199 263 201
3 267 201 263
3 200 204 266
3 272 266 204
3 201 267 205
3 273 205 267
3 202 270 203
3 271 203 270
3 202 206 270
3 276 270 206
3 203 271 204
3 272 204 271
3 205 273 277
3 205 277 207
3 206 208 280
3 206 280 276
3 207 277 281
3 207 281 209
3 208 210 284
3 208 284 280
3 209 281 285
3 209 285 211
3 210 212 288
3 210 288 284
3 211 285 213
3 289 213 285
3 212 214 290
3 212 290 288
3 213 289 215
3 291 215 289
3 214 216 290
3 292 290 216
3 215 291 217
3 293 217 291
3 216 218 292
3 294 292 218
3 217 293 219
3 295 219 293
3 218 220 294
3 296 294 220
3 219 295 299
3 219 299 221
3 220 222 296
3 300 296 222
3 221 299 303
3 221 303 223
3 222 224 304
3 222 304 300
3 223 303 307
3 223 307 227
3 224 228 308
3 224 308 304
3 225 226 306
3 225 306 305
3 225 305 309
3 225 309 229
3 226 227 307
3 226 307 306
3 228 230 310
3 228 310 308
3 229 309 233
3 313 233 309
3 230 234 310
3 314 310 234
3 231 232 312
3 231 312 311
3 231 311 235
3 315 235 311
3 232 233 312
3 313 312 233
3 234 236 314
3 316 314 236
3 235 315 240
3 320 240 315
3 236 237 316
3 317 316 237
3 237 238 317
3 318 317 238
3 238 239 318
3 319 318 239
3 239 240 319
3 320 319 240
3 241 242 249
3 241 249 248
3 241 327 328
3 241 328 242
3 241 248 334
3 241 334 327
3 242 243 250
3 242 250 249
3 242 328 329
3 242 329 243
3 243 244 251
3 243 251 250
3 243 329 330
3 243 330 244
3 244 245 252
3 244 252 251
3 244 330 245
3 331 245 330
3 245 246 253
3 245 253 252
3 245 331 246
3 332 246 331
3 246 247 254
3 246 254 253
3 246 332 247
3 333 247 332
3 247 333 254
3 335 254 333
3 248 249 258
3 248 258 257
3 248 257 334
3 338 334 257
3 249 250 259
3 249 259 258
3 250 251 260
3 250 260 259
3 251 252 260
3 261 260 252
3 252 253 261
3 262 261 253
3 253 254 262
3 263 262 254
3 254 335 263
3 339 263 335
3 255 256 264
3 265 264 256
3 255 336 256
3 337 256 336
3 255 264 336
3 340 336 264
3 256 257 265
3 266 265 257
3 256 337 257
3 338 257 337
3 263 339 341
3 263 341 267
3 264 265 271
3 264 271 270
3 264 270 344
3 264 344 340
3 265 266 272
3 265 272 271
3 267 341 345
3 267 345 273
3 268 269 275
3 268 275 274
3 268 342 343
3 268 343 269
3 268 274 342
3 346 342 274
3 269 270 276
3 269 276 275
3 269 343 344
3 269 344 270
3 273 345 277
3 347 277 345
3 274 275 278
3 279 278 275
3 274 278 346
3 348 346 278
3 275 276 279
3 280 279 276
3 277 347 281
3 349 281 347
3 278 279 282
3 283 282 279
3 278 282 348
3 350 348 282
3 279 280 283
3 284 283 280
3 281 349 285
3 351 285 349
3 282 283 287
3 282 287 286
3 282 286 352
3 282 352 350
3 283 284 288
3 283 288 287
3 285 351 289
3 355 289 351
3 286 287 353
3 286 353 352
3 287 288 354
3 287 354 353
3 288 290 356
3 288 356 354
3 289 355 357
3 289 357 291
3 290 292 358
3 290 358 356
3 291 357 359
3 291 359 293
3 292 294 358
3 360 358 294
3 293 359 361
3 293 361 295
3 294 296 360
3 362 360 296
3 295 361 365
3 295 365 299
3 296 300 362
3 366 362 300
3 297 301 298
3 302 298 301
3 297 298 363
3 364 363 298
3 297 363 367
3 297 367 301
3 298 302 299
3 303 299 302
3 298 299 364
3 365 364 299
3 300 304 366
3 368 366 304
3 301 305 306
3 301 306 302
3 301 367 305
3 369 305 367
3 302 306 307
3 302 307 303
3 304 308 370
3 304 370 368
3 305 369 309
3 371 309 369
3 308 310 372
3 308 372 370
3 309 371 313
3 375 313 371
3 310 314 376
3 310 376 372
3 311 312 374
3 311 374 373
3 311 373 315
3 377 315 373
3 312 313 375
3 312 375 374
3 314 316 376
3 378 376 316
3 315 377 381
3 315 381 320
3 316 317 321
3 322 321 317
3 316 321 378
3 382 378 321
3 317 318 322
3 323 322 318
3 318 319 379
3 380 379 319
3 318 379 383
3 318 383 323
3 319 320 380
3 381 380 320
3 321 322 324
3 325 324 322
3 321 324 382
3 384 382 324
3 322 323 325
3 326 325 323
3 323 383 386
3 323 386 326
3 324 325 385
3 324 385 384
3 325 326 386
3 325 386 385
3 327 387 328
3 388 328 387
3 327 334 394
3 327 394 387
3 328 388 329
3 389 329 388
3 329 389 330
3 390 330 389
3 330 390 331
3 391 331 390
3 331 391 332
3 392 332 391
3 332 392 333
3 393 333 392
3 333 393 335
3 395 335 393
3 334 338 394
3 398 394 338
3 335 395 339
3 401 339 395
3 336 396 337
3 397 337 396
3 336 340 396
3 402 396 340
3 337 397 398
3 337 398 338
3 339 401 407
3 339 407 341
3 340 344 402
3 410 402 344
3 341 407 415
3 341 415 345
3 342 408 409
3 342 409 343
3 342 346 408
3 416 408 346
3 343 409 410
3 343 410 344
3 345 415 347
3 421 347 415
3 346 348 422
3 346 422 416
3 347 421 349
3 427 349 421
3 348 350 428
3 348 428 422
3 349 427 351
3 433 351 427
3 350 352 434
3 350 434 428
3 351 433 444
3 351 444 355
3 352 353 435
3 352 435 434
3 353 354 436
3 353 436 435
3 354 356 445
3 354 445 436
3 355 444 453
3 355 453 357
3 356 358 454
3 356 454 445
3 357 453 359
3 462 359 453
3 358 360 454
3 463 454 360
3 359 462 361
3 471 361 462
3 360 362 463
3 472 463 362
3 361 471 480
3 361 480 365
3 362 366 472
3 481 472 366
3 363 364 478
3 479 478 364
3 363 478 487
3 363 487 367
3 364 365 479
3 480 479 365
3 366 368 481
3 488 481 368
3 367 487 369
3 494 369 487
3 368 370 488
3 495 488 370
3 369 494 371
3 501 371 494
3 370 372 502
3 370 502 495
3 371 501 375
3 508 375 501
3 372 376 509
3 372 509 502
3 373 374 507
3 373 507 506
3 373 506 513
3 373 513 377
3 374 375 508
3 374 508 507
3 376 378 514
3 376 514 509
3 377 513 518
3 377 518 381
3 378 382 519
3 378 519 514
3 379 380 517
3 379 517 516
3 379 516 521
3 379 521 383
3 380 381 518
3 380 518 517
3 382 384 519
3 522 519 384
3 383 521 386
3 524 386 521
3 384 385 522
3 523 522 385
3 385 386 523
3 524 523 386
3 387 525 388
3 526 388 525
3 387 394 525
3 532 525 394
3 388 526 389
3 527 389 526
3 389 527 390
3 528 390 527
3 390 528 391
3 529 391 528
3 391 529 392
3 530 392 529
3 392 530 393
3 531 393 530
3 393 531 395
3 533 395 531
3 394 398 534
3 394 534 532
3 395 533 537
3 395 537 401
3 396 402 403
3 396 403 397
3 397 403 404
3 397 404 398
3 398 404 538
3 398 538 534
3 399 405 406
3 399 406 400
3 399 400 536
3 399 536 535
3 399 535 539
3 399 539 405
3 400 406 407
3 400 407 401
3 400 401 537
3 400 537 536
3 402 410 403
3 411 403 410
3 403 411 404
3 412 404 411
3 404 412 538
3 542 538 412
3 405 413 406
3 414 406 413
3 405 539 543
3 405 543 413
3 406 414 407
3 415 407 414
3 408 416 409
3 417 409 416
3 409 417 410
3 418 410 417
3 410 540 541
3 410 541 411
3 410 418 540
3 544 540 418
3 411 541 542
3 411 542 412
3 413 419 414
3 420 414 419
3 413 543 419
3 545 419 543
3 414 420 415
3 421 415 420
3 416 422 423
3 416 423 417
3 417 423 424
3 417 424 418
3 418 424 546
3 418 546 544
3 419 425 426
3 419 426 420
3 419 545 425
3 547 425 545
3 420 426 427
3 420 427 421
3 422 428 429
3 422 429 423
3 423 429 430
3 423 430 424
3 424 430 548
3 424 548 546
3 425 431 432
3 425 432 426
3 425 547 431
3 549 431 547
3 426 432 433
3 426 433 427
3 428 434 435
3 428 435 429
3 429 435 430
3 436 430 435
3 430 436 548
3 550 548 436
3 431 442 432
3 443 432 442
3 431 549 442
3 556 442 549
3 432 443 433
3 444 433 443
3 436 445 437
3 446 437 445
3 436 437 550
3 551 550 437
3 437 446 438
3 447 438 446
3 437 438 551
3 552 551 438
3 438 447 439
3 448 439 447
3 438 439 552
3 553 552 439
3 439 448 440
3 449 440 448
3 439 440 553
3 554 553 440
3 440 449 450
3 440 450 441
3 440 441 554
3 555 554 441
3 441 450 451
3 441 451 442
3 441 442 555
3 556 555 442
3 442 451 452
3 442 452 443
3 443 452 453
3 443 453 444
3 445 454 455
3 445 455 446
3 446 455 456
3 446 456 447
3 447 456 457
3 447 457 448
3 448 457 458
3 448 458 449
3 449 458 459
3 449 459 450
3 450 459 460
3 450 460 451
3 451 460 461
3 451 461 452
3 452 461 462
3 452 462 453
3 454 463 455
3 464 455 463
3 455 464 456
3 465 456 464
3 456 465 457
3 466 457 465
3 457 466 458
3 467 458 466
3 458 467 459
3 468 459 467
3 459 468 460
3 469 460 468
3 460 469 461
3 470 461 469
3 461 470 462
3 471 462 470
3 463 472 464
3 473 464 472
3 464 473 465
3 474 465 473
3 465 474 466
3 475 466 474
3 466 475 476
3 466 476 467
3 467 476 477
3 467 477 468
3 468 477 478
3 468 478 469
3 469 478 479
3 469 479 470
3 470 479 480
3 470 480 471
3 472 481 482
3 472 482 473
3 473 482 483
3 473 483 474
3 474 483 484
3 474 484 475
3 475 484 485
3 475 485 476
3 476 485 486
3 476 486 477
3 477 486 487
3 477 487 478
3 481 488 482
3 489 482 488
3 482 489 483
3 490 483 489
3 483 490 484
3 491 484 490
3 484 491 485
3 492 485 491
3 485 492 486
3 493 486 492
3 486 493 487
3 494 487 493
3 488 495 489
3 496 489 495
3 489 496 490
3 497 490 496
3 490 497 491
3 498 491 497
3 491 498 492
3 499 492 498
3 492 499 493
3 500 493 499
3 493 500 494
3 501 494 500
3 495 502 503
3 495 503 496
3 496 503 504
3 496 504 497
3 497 504 505
3 497 505 498
3 498 505 506
3 498 506 499
3 499 506 507
3 499 507 500
3 500 507 508
3 500 508 501
3 502 509 510
3 502 510 503
3 503 510 511
3 503 511 504
3 504 511 512
3 504 512 505
3 505 512 513
3 505 513 506
3 509 514 510
3 515 510 514
3 510 515 511
3 516 511 515
3 511 516 512
3 517 512 516
3 512 517 513
3 518 513 517
3 514 519 515
3 520 515 519
3 515 520 516
3 521 516 520
3 519 522 520
3 523 520 522
3 520 523 521
3 524 521 523
3 525 557 526
3 558 526 557
3 525 532 564
3 525 564 557
3 526 558 527
3 559 527 558
3 527 559 528
3 560 528 559
3 528 560 529
3 561 529 560
3 529 561 530
3 562 530 561
3 530 562 531
3 563 531 562
3 531 563 533
3 570 533 563
3 532 534 571
3 532 571 564
3 533 570 537
3 577 537 570
3 534 538 578
3 534 578 571
3 535 536 576
3 535 576 575
3 535 575 582
3 535 582 539
3 536 537 577
3 536 577 576
3 538 542 578
3 585 578 542
3 539 582 589
3 539 589 543
3 540 583 584
3 540 584 541
3 540 544 583
3 590 583 544
3 541 584 585
3 541 585 542
3 543 589 545
3 596 545 589
3 544 546 590
3 597 590 546
3 545 596 547
3 603 547 596
3 546 548 597
3 604 597 548
3 547 603 549
3 610 549 603
3 548 550 604
3 611 604 550
3 549 610 617
3 549 617 556
3 550 551 611
3 612 611 551
3 551 552 612
3 613 612 552
3 552 553 613
3 614 613 553
3 553 554 614
3 615 614 554
3 554 555 616
3 554 616 615
3 555 556 617
3 555 617 616
3 557 564 565
3 557 565 558
3 558 565 566
3 558 566 559
3 559 566 567
3 559 567 560
3 560 567 568
3 560 568 561
3 561 568 569
3 561 569 562
3 562 569 570
3 562 570 563
3 564 571 572
3 564 572 565
3 565 572 566
3 573 566 572
3 566 573 567
3 574 567 573
3 567 574 568
3 575 568 574
3 568 575 569
3 576 569 575
3 569 576 570
3 577 570 576
3 571 578 572
3 579 572 578
3 572 579 573
3 580 573 579
3 573 580 574
3 581 574 580
3 574 581 575
3 582 575 581
3 578 585 579
3 586 579 585
3 579 586 580
3 587 580 586
3 580 587 588
3 580 588 581
3 581 588 589
3 581 589 582
3 583 590 591
3 583 591 584
3 584 591 592
3 584 592 585
3 585 592 593
3 585 593 586
3 586 593 594
3 586 594 587
3 587 594 595
3 587 595 588
3 588 595 596
3 588 596 589
3 590 597 598
3 590 598 591
3 591 598 599
3 591 599 592
3 592 599 600
3 592 600 593
3 593 600 601
3 593 601 594
3 594 601 602
3 594 602 595
3 595 602 596
3 603 596 602
3 597 604 598
3 605 598 604
3 598 605 599
3 606 599 605
3 599 606 600
3 607 600 606
3 600 607 601
3 608 601 607
3 601 608 602
3 609 602 608
3 602 609 603
3 610 603 609
3 604 611 605
3 612 605 611
3 605 612 606
3 613 606 612
3 606 613 607
3 614 607 613
3 607 614 608
3 615 608 614
3 608 615 609
3 616 609 615
3 609 616 610
3 617 610 616
