ply
format ascii 1.0
element vertex 434
property float x
property float y
property float z
property uchar red
property uchar green
property uchar blue
element face 864
property list uchar int vertex_index
end_header
34.7522 -6.38027 -14.3588 0 0 139
34.5003 -6.403 -14.3251 0 0 185
34.2486 -6.36155 -14.3544 0 0 128
34.7845 -6.44688 -14.5689 0 0 159
34.5009 -6.51748 -14.5537 0 0 152
34.2173 -6.41448 -14.5626 0 0 152
34.756 -6.43247 -14.7967 0 0 128
34.5037 -6.44966 -14.8169 0 0 183
34.2483 -6.3874 -14.791 0 0 156
34.9206 -6.03226 -14.2861 0 33 255
34.5006 -6.01705 -14.167 0 112 255
34.0816 -5.99921 -14.2738 0 43 255
35.0581 -6.12511 -14.6318 0 0 211
33.9465 -6.04789 -14.6088 0 48 255
34.9323 -6.14136 -15.0037 0 54 255
34.5134 -6.12694 -15.1109 0 144 255
34.0772 -6.03361 -14.9878 0 0 250
36.4914 -4.64112 -14.3695 0 61 255
36.0469 -4.92264 -14.2414 0 127 255
35.2864 -5.35012 -14.1297 182 255 73
34.5014 -5.37427 -13.9411 1 255 254
33.7203 -5.30042 -14.0943 155 255 100
32.9753 -4.85512 -14.138 0 187 255
32.5577 -4.58397 -14.2158 0 0 201
36.6114 -4.71042 -14.8699 0 181 255
36.1189 -5.1561 -14.8344 3 255 252
35.4846 -5.61121 -14.7449 29 255 226
33.5277 -5.46406 -14.6701 0 218 255
32.9181 -4.99844 -14.6066 0 109 255
32.4935 -4.61682 -14.5606 0 0 230
36.6902 -4.72971 -15.6209 45 255 210
36.1198 -5.19096 -15.5905 93 255 162
35.3258 -5.60961 -15.4726 255 251 0
34.5473 -5.6125 -15.5986 22 255 233
33.6867 -5.30549 -15.4288 255 140 0
32.9085 -4.86961 -15.1164 0 169 255
32.5165 -4.59497 -14.926 0 0 246
36.7535 -4.68338 -16.4873 79 255 176
36.1656 -5.055 -16.4717 113 255 142
35.4254 -5.23703 -16.4298 79 255 176
34.6728 -5.21324 -16.3457 136 255 119
34.016 -4.98825 -16.281 0 212 255
36.8 -4.60948 -17.3516 0 253 255
36.2226 -4.87981 -17.3478 43 255 212
35.4663 -4.88185 -17.3852 146 255 109
34.7107 -4.87194 -17.0232 0 146 255
34.21 -4.78909 -16.8115 0 132 255
36.8082 -4.54025 -18.0849 0 128 255
36.3471 -4.73072 -18.0868 0 113 255
35.8463 -4.69796 -18.1527 0 96 255
36.7551 -4.45134 -18.5465 0 0 233
36.4161 -4.54483 -18.6015 0 0 224
36.0556 -4.56361 -18.589 0 0 236
36.6081 -4.1598 -14.1166 0 202 255
36.0757 -4.3901 -13.7799 104 255 151
35.3322 -4.61439 -13.6048 126 255 129
34.5006 -4.67069 -13.5184 126 255 129
33.6702 -4.59742 -13.5867 179 255 76
32.9328 -4.36501 -13.7294 0 190 255
32.4247 -4.13345 -14.0148 0 186 255
36.8936 -4.12781 -14.7705 11 255 244
32.2576 -4.10241 -14.551 0 193 255
37.0586 -4.12228 -15.5881 0 250 255
33.2005 -4.64001 -15.913 0 97 255
32.7157 -4.42364 -15.5284 0 187 255
32.3499 -4.16351 -15.128 0 159 255
37.181 -4.10145 -16.4857 255 241 0
33.559 -4.54993 -16.5085 10 255 245
37.2691 -4.06998 -17.3943 200 255 55
35.0644 -4.53133 -17.8802 0 208 255
34.5008 -4.50569 -17.5004 0 190 255
33.9394 -4.45359 -17.1021 0 155 255
37.204 -4.08662 -18.195 0 107 255
35.4573 -4.4254 -18.4148 0 132 255
36.951 -4.04611 -18.7932 0 209 255
36.4206 -4.17852 -18.9835 0 166 255
35.8563 -4.27989 -18.8709 0 212 255
36.4527 -2.63276 -12.4932 0 63 255
36.029 -2.73816 -12.3469 0 167 255
35.3282 -2.80971 -12.2392 32 255 223
34.4891 -2.83209 -12.1984 71 255 184
33.6344 -2.80635 -12.2272 27 255 228
32.8838 -2.731 -12.3251 0 57 255
32.3843 -2.6224 -12.4656 0 59 255
36.5714 -2.89468 -12.913 0 62 255
36.0662 -3.22012 -12.7548 0 213 255
35.3398 -3.37819 -12.6396 29 255 226
34.4952 -3.42435 -12.5985 76 255 179
33.6412 -3.37783 -12.6344 146 255 109
32.8777 -3.22034 -12.7427 58 255 197
32.2756 -2.8946 -12.8919 0 148 255
36.7094 -3.34156 -13.6868 255 197 0
36.103 -3.75186 -13.3 79 255 176
35.3477 -3.95811 -13.1205 99 255 156
34.4984 -4.01678 -13.0604 107 255 148
33.6447 -3.95367 -13.113 0 179 255
32.8704 -3.74445 -13.2799 79 255 176
32.2079 -3.32741 -13.6514 255 44 0
37.0426 -3.35716 -14.6115 204 255 51
32.0239 -3.34139 -14.5601 234 255 21
37.2553 -3.34884 -15.5238 255 96 0
32.9495 -4.22314 -16.2031 0 132 255
32.5761 -3.93308 -15.985 6 255 249
32.1395 -3.40668 -15.5441 229 255 26
37.469 -3.32472 -16.4616 35 255 220
33.1504 -4.09068 -16.7418 23 255 232
32.6403 -3.64487 -16.7066 0 184 255
32.178 -3.08498 -16.5669 255 196 0
38.5214 -2.55758 -18.1792 0 0 141
38.2372 -2.79515 -17.9541 0 64 255
37.7404 -3.24687 -17.4745 255 64 0
34.7994 -4.25381 -18.1769 0 0 184
34.2917 -4.13941 -17.9772 0 179 255
33.5315 -3.95191 -17.5815 255 176 0
32.7823 -3.4541 -17.5709 254 255 1
32.244 -2.91438 -17.5234 160 255 95
38.5285 -2.59618 -18.4871 0 0 255
38.1803 -2.95532 -18.4566 0 207 255
37.6468 -3.43272 -18.3714 149 255 106
35.0159 -4.09247 -18.6601 0 229 255
34.335 -3.86234 -18.6508 106 255 149
33.5648 -3.62478 -18.5301 78 255 177
32.8443 -3.26793 -18.4851 158 255 97
32.2931 -2.80073 -18.4578 94 255 161
38.4643 -2.55407 -18.7921 0 0 171
38.0909 -2.78568 -18.9611 0 92 255
37.2993 -3.22365 -19.2624 170 0 0
36.369 -3.63155 -19.4745 155 255 100
35.434 -3.79684 -19.3382 255 234 0
34.4708 -3.58212 -19.3991 166 255 89
33.6219 -3.37786 -19.3707 114 255 141
32.8914 -3.10334 -19.3408 33 255 222
32.3477 -2.70898 -19.3211 0 191 255
36.8625 -2.84965 -20.0848 0 112 255
36.2151 -3.15806 -20.1268 43 255 212
35.3942 -3.26956 -20.114 134 255 121
34.5026 -3.20968 -20.1212 141 255 114
33.6546 -3.09016 -20.1 64 255 191
32.9351 -2.90307 -20.0626 0 215 255
32.4304 -2.6071 -20.0285 0 208 255
36.6051 -2.6152 -20.511 0 98 255
36.1087 -2.71572 -20.6065 0 196 255
35.3599 -2.76747 -20.6583 42 255 213
34.5055 -2.75216 -20.6729 38 255 217
33.6691 -2.69623 -20.6432 0 214 255
32.9693 -2.60485 -20.5676 0 76 255
32.5411 -2.49101 -20.4581 0 0 160
36.5259 -2.16106 -12.4087 0 2 255
36.0409 -2.15497 -12.1292 0 140 255
35.3263 -2.15971 -11.9769 18 255 237
34.4757 -2.15766 -11.9161 102 255 153
33.5945 -2.14227 -11.9414 211 255 44
32.7799 -2.11403 -12.0702 104 255 151
32.1342 -2.10396 -12.3474 0 238 255
36.7707 -2.26638 -12.9099 1 255 254
31.8229 -2.25435 -12.8763 132 255 123
36.9056 -2.40989 -13.6582 255 214 0
31.7003 -2.3641 -13.6405 81 255 174
37.0792 -2.48862 -14.5499 245 255 10
31.7057 -2.41502 -14.5606 255 144 0
37.2668 -2.46315 -15.4704 165 255 90
31.7955 -2.42156 -15.532 175 0 0
37.552 -2.45946 -16.3606 240 255 15
31.861 -2.32455 -16.524 211 255 44
38.5936 -2.13792 -18.1073 0 60 255
38.3058 -2.24335 -17.7053 0 210 255
37.9003 -2.40199 -17.1541 36 255 219
31.911 -2.24883 -17.4996 53 255 202
38.672 -2.12384 -18.4949 0 1 255
31.9558 -2.198 -18.4471 164 255 91
38.5521 -2.1329 -18.874 0 30 255
38.1928 -2.22377 -19.232 15 255 240
37.6489 -2.33557 -19.6619 0 247 255
32.0279 -2.1596 -19.3215 0 167 255
37.163 -2.24299 -20.2183 40 255 215
32.1718 -2.12205 -20.0494 0 107 255
36.702 -2.15871 -20.6348 0 79 255
36.11 -2.16509 -20.8614 0 169 255
35.3537 -2.17813 -20.9739 6 255 249
34.5041 -2.17336 -21.0051 0 213 255
33.6654 -2.15286 -20.9615 0 254 255
32.9478 -2.12069 -20.8259 0 162 255
32.4443 -2.09238 -20.5549 0 157 255
36.5375 -1.50094 -12.3469 0 226 255
36.0451 -1.45617 -12.04 0 243 255
35.3224 -1.39936 -11.8613 123 255 132
34.456 -1.36755 -11.7665 189 255 66
33.5381 -1.34681 -11.7675 0 253 255
32.6267 -1.3179 -11.8888 212 255 43
31.7147 -1.25404 -12.1894 255 200 0
30.9634 -0.795662 -12.2622 0 121 255
30.577 -0.556564 -12.3262 0 0 180
36.7758 -1.52382 -12.8506 0 224 255
31.3582 -1.49506 -12.7886 50 255 205
30.8346 -0.973933 -12.6519 0 82 255
30.4883 -0.60028 -12.5759 0 0 209
36.8101 -1.4665 -13.6071 8 255 247
36.5535 -0.933064 -13.9291 0 133 255
36.3237 -0.628666 -14.109 0 0 235
31.2364 -1.33334 -13.5749 255 11 0
30.758 -0.816076 -13.0878 0 184 255
30.4814 -0.562605 -12.8516 0 0 236
36.9094 -1.64219 -14.5236 126 255 129
36.5893 -1.06498 -14.5076 0 154 255
36.2921 -0.650705 -14.5001 0 24 255
31.4688 -1.44415 -14.5716 255 160 0
37.0407 -1.487 -15.4732 255 91 0
36.5923 -0.936194 -15.0981 0 74 255
36.2957 -0.628823 -14.8994 0 0 201
31.6429 -1.48326 -15.5386 77 255 178
37.456 -1.59019 -16.3657 255 228 0
31.7436 -1.50033 -16.5186 255 246 0
38.6065 -1.52858 -18.0797 0 20 255
38.2972 -1.55552 -17.6388 0 137 255
37.8706 -1.59077 -17.0893 26 255 229
31.7984 -1.50535 -17.4947 179 255 76
38.7076 -1.52009 -18.4974 0 33 255
31.8438 -1.50432 -18.4452 187 255 68
38.5848 -1.52551 -18.9081 0 65 255
38.2379 -1.5447 -19.3166 0 87 255
37.7461 -1.56291 -19.7728 0 231 255
31.9235 -1.5021 -19.3242 75 255 180
37.2513 -1.5445 -20.2766 24 255 231
32.0898 -1.50071 -20.0624 0 154 255
36.7415 -1.52422 -20.6864 0 168 255
36.1192 -1.51445 -20.9426 0 205 255
35.3548 -1.50934 -21.0757 12 255 243
34.5037 -1.5052 -21.114 107 255 148
33.6618 -1.50224 -21.0651 0 233 255
32.9346 -1.50072 -20.9077 0 150 255
32.4051 -1.50027 -20.5941 0 28 255
36.5004 -0.859254 -12.322 0 0 225
36.0377 -0.742278 -12.0764 0 131 255
35.3145 -0.557365 -11.9029 113 255 142
34.4334 -0.483147 -11.7416 251 255 4
33.5031 -0.453368 -11.6851 255 137 0
32.574 -0.428375 -11.7418 255 251 0
31.6952 -0.373534 -11.8975 217 255 38
30.9729 -0.225329 -12.0509 0 121 255
30.5202 -0.129056 -12.2526 0 1 255
36.6931 -0.862144 -12.7122 0 42 255
30.3516 -0.119969 -12.556 0 0 242
36.6769 -0.787854 -13.1842 0 168 255
36.4415 -0.502546 -13.5358 0 95 255
36.1547 -0.219161 -13.9163 0 152 255
31.0699 -0.404494 -13.8637 211 255 44
30.6784 -0.236399 -13.3109 0 112 255
30.4061 -0.132223 -12.9128 0 0 208
36.0211 -0.159074 -14.493 0 171 255
31.4125 -0.481276 -14.6565 185 255 70
36.8801 -0.780196 -15.9343 0 90 255
36.4428 -0.495859 -15.523 0 182 255
36.0474 -0.215263 -15.1012 0 228 255
31.7041 -0.53982 -15.5636 255 36 0
37.2619 -0.854812 -16.5635 27 255 228
31.8502 -0.683493 -16.5338 255 161 0
38.5441 -0.939458 -18.1155 0 66 255
38.2019 -0.906906 -17.7324 0 189 255
37.6961 -0.864415 -17.235 65 255 190
31.9164 -0.773809 -17.502 39 255 216
38.6433 -0.935676 -18.4986 0 7 255
31.9603 -0.819709 -18.4469 0 254 255
38.5355 -0.938758 -18.8776 0 28 255
38.1777 -0.905639 -19.2409 0 167 255
37.6431 -0.867832 -19.6801 0 241 255
32.0298 -0.84953 -19.3209 67 255 188
37.1616 -0.886108 -20.2192 0 85 255
32.1724 -0.881439 -20.0491 0 128 255
36.7018 -0.910249 -20.6298 0 104 255
36.1102 -0.882742 -20.8534 0 173 255
35.3543 -0.856888 -20.9681 0 248 255
34.5051 -0.847498 -21.0017 0 202 255
33.6661 -0.856866 -20.96 0 245 255
32.9481 -0.882866 -20.8254 0 158 255
32.4444 -0.909132 -20.5548 0 122 255
36.4368 -0.423804 -12.3635 0 0 218
36.0507 -0.158784 -12.2708 0 140 255
35.3096 0.375626 -12.1539 255 122 0
34.3886 0.464188 -11.8194 255 218 0
33.4722 0.490559 -11.6888 255 242 0
32.5534 0.497413 -11.7017 238 255 17
31.6862 0.498774 -11.8183 62 255 193
30.968 0.499585 -11.9858 0 251 255
30.4988 0.499871 -12.2236 0 110 255
36.5349 -0.371108 -12.6474 0 10 255
36.1907 0.033239 -12.68 0 174 255
35.6854 0.608964 -12.767 45 255 210
30.313 0.499724 -12.5518 0 19 255
36.5583 -0.37967 -12.9745 0 0 147
36.2921 -0.075797 -13.1677 0 62 255
35.8355 0.460929 -13.5568 180 255 75
31.0653 0.491349 -13.9221 111 255 144
30.6608 0.496538 -13.372 0 150 255
30.38 0.498999 -12.9376 0 111 255
35.6332 0.523202 -14.4606 205 255 50
31.5031 0.486883 -14.6441 255 86 0
36.6969 -0.347891 -16.212 0 75 255
36.2288 -0.053322 -15.9787 9 255 246
35.4595 0.476829 -15.4936 128 0 0
34.461 0.901893 -15.86 255 135 0
33.5862 1.02687 -15.9714 145 255 110
32.7828 0.904844 -15.8908 195 255 60
32.035 0.482801 -15.5436 255 21 0
36.9075 -0.305046 -16.7619 118 255 137
36.2559 0.078333 -16.7207 193 255 62
35.4289 0.404231 -16.6052 255 182 0
34.5064 0.617799 -16.6838 116 255 139
33.6238 0.64866 -16.7239 168 255 87
32.8378 0.472367 -16.6816 51 255 204
32.2088 0.042615 -16.5669 216 255 39
38.4286 -0.565872 -18.194 0 0 164
38.0476 -0.445173 -17.9967 0 60 255
37.3017 -0.263649 -17.6038 196 255 59
36.3785 0.132043 -17.5827 235 255 20
35.4607 0.367068 -17.5533 255 247 0
34.5299 0.47653 -17.5702 254 255 1
33.6446 0.446473 -17.5808 194 255 61
32.8708 0.247595 -17.5621 240 255 15
32.2756 -0.15776 -17.5222 219 255 36
38.4575 -0.524958 -18.4988 0 0 223
38.0223 -0.308058 -18.4957 0 189 255
37.2955 -0.107664 -18.4868 211 255 44
36.4036 0.159815 -18.4789 246 255 9
35.4727 0.328758 -18.4725 252 255 3
34.5387 0.387811 -18.4766 222 255 33
33.6548 0.330585 -18.4779 164 255 91
32.8897 0.129218 -18.4686 98 255 157
32.3107 -0.252631 -18.4537 0 234 255
38.4255 -0.566576 -18.8017 0 0 164
38.0402 -0.449378 -18.9883 0 55 255
37.2844 -0.288555 -19.343 225 255 30
36.3675 0.058639 -19.3397 189 255 66
35.4548 0.224713 -19.3425 96 255 159
34.5348 0.270827 -19.3454 178 255 77
33.6612 0.212084 -19.3416 133 255 122
32.9104 0.027651 -19.3299 54 255 201
32.3548 -0.319649 -19.3181 0 241 255
36.8599 -0.386119 -20.0844 0 132 255
36.2163 -0.11172 -20.0759 0 239 255
35.4029 0.021295 -20.0916 154 255 101
34.5215 0.057721 -20.0985 81 255 174
33.6677 0.011896 -20.0872 34 255 221
32.9413 -0.130742 -20.0577 0 190 255
32.4326 -0.404969 -20.0271 0 104 255
36.6047 -0.503408 -20.5001 0 20 255
36.1093 -0.398666 -20.5843 0 133 255
35.3625 -0.329678 -20.6438 0 242 255
34.5103 -0.308525 -20.6632 88 255 167
33.6725 -0.333994 -20.6384 0 204 255
32.9708 -0.407431 -20.5659 0 73 255
32.5418 -0.513938 -20.4576 0 0 201
34.9182 1.42476 -12.2359 151 255 104
34.2489 1.43258 -11.8923 164 255 91
33.4287 1.43537 -11.7475 199 255 56
32.5496 1.42024 -11.7641 201 255 54
31.6906 1.36704 -11.9028 140 255 115
30.9726 1.223 -12.0517 0 189 255
30.5206 1.12828 -12.2523 0 0 240
35.2571 1.47273 -12.8015 39 255 216
30.3535 1.11862 -12.5543 0 0 254
35.319 1.4197 -13.5326 255 195 0
31.1396 1.37014 -13.7867 41 255 214
30.7012 1.2239 -13.2878 2 255 253
30.4127 1.12857 -12.9065 0 17 255
35.1908 1.3132 -14.3015 160 255 95
31.5955 1.43083 -14.437 160 255 95
34.9215 1.2715 -14.9566 67 255 188
34.2919 1.47251 -15.2792 27 255 228
33.5319 1.64243 -15.3944 111 255 144
32.7768 1.6157 -15.3478 152 255 103
32.1193 1.4824 -15.0383 194 255 61
34.6883 2.30965 -12.2815 0 218 255
34.1456 2.31119 -11.9777 16 255 239
33.4109 2.31114 -11.8623 87 255 168
32.5864 2.29099 -11.9249 138 255 117
31.7145 2.2243 -12.1931 203 255 52
30.9663 1.78677 -12.2609 0 51 255
30.5786 1.55385 -12.3252 0 0 161
34.9365 2.33094 -12.7914 93 255 162
31.3915 2.42824 -12.7581 0 188 255
30.8489 1.95428 -12.6396 0 127 255
30.4932 1.5952 -12.5719 0 0 211
34.8656 2.35478 -13.5093 86 255 169
34.4234 2.80072 -13.8675 0 149 255
34.0629 3.02746 -14.0666 0 3 255
31.332 2.23119 -13.4625 255 233 0
30.7885 1.78887 -13.0565 0 47 255
30.4919 1.55459 -12.8418 0 0 161
34.8003 1.9917 -14.2303 0 194 255
34.3492 2.43533 -14.3615 0 104 255
33.8629 2.81652 -14.4328 0 120 255
31.7358 2.29661 -14.2147 71 255 184
34.6735 1.78526 -14.6968 0 65 255
34.2197 2.04441 -14.8346 0 223 255
33.5023 2.42078 -14.8929 153 255 102
32.763 2.38368 -14.9714 0 249 255
32.1863 2.33022 -14.7372 0 211 255
34.5426 3.00212 -12.3163 0 73 255
34.0878 3.02177 -12.1073 0 97 255
33.4355 3.03613 -12.0436 0 197 255
32.7306 3.02787 -12.1185 0 220 255
32.1345 3.00827 -12.3582 0 157 255
34.7176 3.02743 -12.6955 0 47 255
31.8616 3.07003 -12.842 0 175 255
34.6442 3.07673 -13.1544 0 152 255
34.2952 3.25615 -13.5046 0 75 255
33.8488 3.35653 -13.8516 0 27 255
31.8106 3.03215 -13.4801 0 157 255
33.502 3.26372 -14.2992 0 117 255
31.9782 3.02071 -14.1161 0 213 255
33.1492 3.09668 -14.6527 0 23 255
32.6768 3.04415 -14.7291 0 71 255
32.2604 3.00958 -14.5602 0 126 255
34.4304 3.39657 -12.3817 0 0 135
34.0575 3.47827 -12.3308 0 47 255
33.4598 3.52068 -12.3418 0 98 255
32.8294 3.50762 -12.3985 0 105 255
32.379 3.43367 -12.4928 0 0 210
34.4893 3.45766 -12.6522 0 0 231
34.0763 3.64568 -12.7034 0 56 255
33.4684 3.72571 -12.8165 0 134 255
32.8213 3.71166 -12.8646 0 60 255
32.2881 3.52124 -12.8899 0 80 255
34.4797 3.44851 -12.9655 0 0 174
34.1207 3.57966 -13.152 0 27 255
33.4789 3.66949 -13.4868 26 255 229
32.7846 3.72776 -13.4828 0 133 255
32.249 3.52587 -13.4845 0 122 255
33.1467 3.58258 -14.1237 0 27 255
32.6841 3.64811 -14.0813 0 36 255
32.2752 3.48094 -14.0688 0 6 255
32.9611 3.45522 -14.4828 0 0 174
32.6398 3.46283 -14.4933 0 0 215
32.3509 3.40016 -14.4373 0 0 201
3 0 1 3
3 4 3 1
3 0 9 1
3 10 1 9
3 0 3 12
3 0 12 9
3 1 2 4
3 5 4 2
3 1 10 11
3 1 11 2
3 2 11 5
3 13 5 11
3 3 4 6
3 7 6 4
3 3 6 14
3 3 14 12
3 4 5 8
3 4 8 7
3 5 13 8
3 16 8 13
3 6 7 14
3 15 14 7
3 7 8 16
3 7 16 15
3 9 19 10
3 20 10 19
3 9 12 26
3 9 26 19
3 10 20 21
3 10 21 11
3 11 21 27
3 11 27 13
3 12 14 26
3 32 26 14
3 13 27 34
3 13 34 16
3 14 15 32
3 33 32 15
3 15 16 34
3 15 34 33
3 17 18 24
3 25 24 18
3 17 53 54
3 17 54 18
3 17 24 60
3 17 60 53
3 18 19 25
3 26 25 19
3 18 54 19
3 55 19 54
3 19 55 20
3 56 20 55
3 20 56 21
3 57 21 56
3 21 22 28
3 21 28 27
3 21 57 22
3 58 22 57
3 22 23 29
3 22 29 28
3 22 58 59
3 22 59 23
3 23 59 61
3 23 61 29
3 24 25 30
3 31 30 25
3 24 30 62
3 24 62 60
3 25 26 31
3 32 31 26
3 27 28 35
3 27 35 34
3 28 29 36
3 28 36 35
3 29 61 36
3 65 36 61
3 30 31 37
3 38 37 31
3 30 37 66
3 30 66 62
3 31 32 38
3 39 38 32
3 32 33 40
3 32 40 39
3 33 34 41
3 33 41 40
3 34 35 64
3 34 64 63
3 34 63 67
3 34 67 41
3 35 36 65
3 35 65 64
3 37 38 42
3 43 42 38
3 37 42 68
3 37 68 66
3 38 39 43
3 44 43 39
3 39 40 44
3 45 44 40
3 40 41 46
3 40 46 45
3 41 67 46
3 71 46 67
3 42 43 48
3 42 48 47
3 42 47 68
3 72 68 47
3 43 44 49
3 43 49 48
3 44 45 69
3 70 69 45
3 44 69 73
3 44 73 49
3 45 46 70
3 71 70 46
3 47 48 50
3 51 50 48
3 47 50 74
3 47 74 72
3 48 49 52
3 48 52 51
3 49 73 52
3 76 52 73
3 50 51 75
3 50 75 74
3 51 52 76
3 51 76 75
3 53 91 54
3 92 54 91
3 53 60 98
3 53 98 91
3 54 92 55
3 93 55 92
3 55 93 56
3 94 56 93
3 56 94 57
3 95 57 94
3 57 95 96
3 57 96 58
3 58 96 97
3 58 97 59
3 59 97 99
3 59 99 61
3 60 62 100
3 60 100 98
3 61 99 103
3 61 103 65
3 62 66 100
3 104 100 66
3 63 64 101
3 102 101 64
3 63 101 67
3 105 67 101
3 64 65 102
3 103 102 65
3 66 68 110
3 66 110 104
3 67 105 71
3 113 71 105
3 68 72 118
3 68 118 110
3 69 70 112
3 69 112 111
3 69 111 119
3 69 119 73
3 70 71 113
3 70 113 112
3 72 74 118
3 126 118 74
3 73 119 76
3 128 76 119
3 74 75 126
3 127 126 75
3 75 76 127
3 128 127 76
3 77 78 85
3 77 85 84
3 77 147 148
3 77 148 78
3 77 84 154
3 77 154 147
3 78 79 86
3 78 86 85
3 78 148 149
3 78 149 79
3 79 80 87
3 79 87 86
3 79 149 150
3 79 150 80
3 80 81 88
3 80 88 87
3 80 150 151
3 80 151 81
3 81 82 89
3 81 89 88
3 81 151 152
3 81 152 82
3 82 83 89
3 90 89 83
3 82 152 83
3 153 83 152
3 83 153 90
3 155 90 153
3 84 85 91
3 92 91 85
3 84 91 154
3 156 154 91
3 85 86 92
3 93 92 86
3 86 87 93
3 94 93 87
3 87 88 94
3 95 94 88
3 88 89 96
3 88 96 95
3 89 90 97
3 89 97 96
3 90 155 97
3 157 97 155
3 91 98 156
3 158 156 98
3 97 157 159
3 97 159 99
3 98 100 158
3 160 158 100
3 99 159 161
3 99 161 103
3 100 104 162
3 100 162 160
3 101 102 106
3 101 106 105
3 102 103 107
3 102 107 106
3 103 161 107
3 163 107 161
3 104 110 162
3 166 162 110
3 105 106 114
3 105 114 113
3 106 107 114
3 115 114 107
3 107 163 115
3 167 115 163
3 108 109 116
3 117 116 109
3 108 164 109
3 165 109 164
3 108 116 164
3 168 164 116
3 109 110 117
3 118 117 110
3 109 165 110
3 166 110 165
3 111 112 119
3 120 119 112
3 112 113 120
3 121 120 113
3 113 114 122
3 113 122 121
3 114 115 123
3 114 123 122
3 115 167 169
3 115 169 123
3 116 117 125
3 116 125 124
3 116 124 168
3 170 168 124
3 117 118 126
3 117 126 125
3 119 120 128
3 129 128 120
3 120 121 129
3 130 129 121
3 121 122 130
3 131 130 122
3 122 123 131
3 132 131 123
3 123 169 132
3 173 132 169
3 124 125 170
3 171 170 125
3 125 126 171
3 172 171 126
3 126 127 134
3 126 134 133
3 126 133 174
3 126 174 172
3 127 128 135
3 127 135 134
3 128 129 136
3 128 136 135
3 129 130 137
3 129 137 136
3 130 131 138
3 130 138 137
3 131 132 139
3 131 139 138
3 132 173 139
3 175 139 173
3 133 134 140
3 141 140 134
3 133 140 174
3 176 174 140
3 134 135 141
3 142 141 135
3 135 136 142
3 143 142 136
3 136 137 143
3 144 143 137
3 137 138 144
3 145 144 138
3 138 139 145
3 146 145 139
3 139 175 182
3 139 182 146
3 140 141 177
3 140 177 176
3 141 142 178
3 141 178 177
3 142 143 179
3 142 179 178
3 143 144 180
3 143 180 179
3 144 145 181
3 144 181 180
3 145 146 182
3 145 182 181
3 147 183 148
3 184 148 183
3 147 154 183
3 192 183 154
3 148 184 149
3 185 149 184
3 149 185 150
3 186 150 185
3 150 186 151
3 187 151 186
3 151 187 188
3 151 188 152
3 152 188 189
3 152 189 153
3 153 189 193
3 153 193 155
3 154 156 192
3 196 192 156
3 155 193 199
3 155 199 157
3 156 158 202
3 156 202 196
3 157 199 159
3 205 159 199
3 158 160 206
3 158 206 202
3 159 205 161
3 209 161 205
3 160 162 210
3 160 210 206
3 161 209 211
3 161 211 163
3 162 166 210
3 214 210 166
3 163 211 215
3 163 215 167
3 164 212 213
3 164 213 165
3 164 168 212
3 216 212 168
3 165 213 214
3 165 214 166
3 167 215 217
3 167 217 169
3 168 170 216
3 218 216 170
3 169 217 221
3 169 221 173
3 170 171 218
3 219 218 171
3 171 172 220
3 171 220 219
3 172 174 222
3 172 222 220
3 173 221 175
3 223 175 221
3 174 176 224
3 174 224 222
3 175 223 182
3 230 182 223
3 176 177 225
3 176 225 224
3 177 178 226
3 177 226 225
3 178 179 227
3 178 227 226
3 179 180 227
3 228 227 180
3 180 181 228
3 229 228 181
3 181 182 229
3 230 229 182
3 183 231 232
3 183 232 184
3 183 192 240
3 183 240 231
3 184 232 233
3 184 233 185
3 185 233 234
3 185 234 186
3 186 234 235
3 186 235 187
3 187 235 188
3 236 188 235
3 188 236 189
3 237 189 236
3 189 190 194
3 189 194 193
3 189 237 190
3 238 190 237
3 190 191 195
3 190 195 194
3 190 238 191
3 239 191 238
3 191 239 195
3 241 195 239
3 192 196 242
3 192 242 240
3 193 194 200
3 193 200 199
3 194 195 201
3 194 201 200
3 195 241 201
3 247 201 241
3 196 202 197
3 203 197 202
3 196 197 242
3 243 242 197
3 197 203 198
3 204 198 203
3 197 198 243
3 244 243 198
3 198 204 244
3 248 244 204
3 199 200 245
3 246 245 200
3 199 245 249
3 199 249 205
3 200 201 246
3 247 246 201
3 202 206 203
3 207 203 206
3 203 207 208
3 203 208 204
3 204 208 252
3 204 252 248
3 205 249 253
3 205 253 209
3 206 250 251
3 206 251 207
3 206 210 254
3 206 254 250
3 207 251 252
3 207 252 208
3 209 253 211
3 255 211 253
3 210 214 258
3 210 258 254
3 211 255 215
3 259 215 255
3 212 256 213
3 257 213 256
3 212 216 256
3 260 256 216
3 213 257 214
3 258 214 257
3 215 259 217
3 261 217 259
3 216 218 260
3 262 260 218
3 217 261 265
3 217 265 221
3 218 219 262
3 263 262 219
3 219 220 263
3 264 263 220
3 220 222 264
3 266 264 222
3 221 265 267
3 221 267 223
3 222 224 268
3 222 268 266
3 223 267 274
3 223 274 230
3 224 225 269
3 224 269 268
3 225 226 270
3 225 270 269
3 226 227 271
3 226 271 270
3 227 228 272
3 227 272 271
3 228 229 273
3 228 273 272
3 229 230 274
3 229 274 273
3 231 275 232
3 276 232 275
3 231 240 275
3 284 275 240
3 232 276 233
3 277 233 276
3 233 277 234
3 278 234 277
3 234 278 235
3 279 235 278
3 235 279 236
3 280 236 279
3 236 280 237
3 281 237 280
3 237 281 282
3 237 282 238
3 238 282 283
3 238 283 239
3 239 283 287
3 239 287 241
3 240 242 284
3 288 284 242
3 241 287 293
3 241 293 247
3 242 243 289
3 242 289 288
3 243 244 290
3 243 290 289
3 244 248 294
3 244 294 290
3 245 246 292
3 245 292 291
3 245 291 295
3 245 295 249
3 246 247 293
3 246 293 292
3 248 252 298
3 248 298 294
3 249 295 253
3 302 253 295
3 250 296 251
3 297 251 296
3 250 254 296
3 303 296 254
3 251 297 252
3 298 252 297
3 253 302 255
3 309 255 302
3 254 258 303
3 312 303 258
3 255 309 318
3 255 318 259
3 256 310 311
3 256 311 257
3 256 260 310
3 319 310 260
3 257 311 312
3 257 312 258
3 259 318 261
3 327 261 318
3 260 262 328
3 260 328 319
3 261 327 265
3 336 265 327
3 262 263 329
3 262 329 328
3 263 264 330
3 263 330 329
3 264 266 337
3 264 337 330
3 265 336 343
3 265 343 267
3 266 268 344
3 266 344 337
3 267 343 350
3 267 350 274
3 268 269 345
3 268 345 344
3 269 270 346
3 269 346 345
3 270 271 347
3 270 347 346
3 271 272 347
3 348 347 272
3 272 273 348
3 349 348 273
3 273 274 349
3 350 349 274
3 275 284 276
3 285 276 284
3 276 285 277
3 286 277 285
3 277 351 278
3 352 278 351
3 277 286 358
3 277 358 351
3 278 352 279
3 353 279 352
3 279 353 280
3 354 280 353
3 280 354 281
3 355 281 354
3 281 355 282
3 356 282 355
3 282 356 283
3 357 283 356
3 283 357 359
3 283 359 287
3 284 288 289
3 284 289 285
3 285 289 290
3 285 290 286
3 286 290 360
3 286 360 358
3 287 359 363
3 287 363 293
3 290 294 360
3 364 360 294
3 291 292 362
3 291 362 361
3 291 361 365
3 291 365 295
3 292 293 362
3 363 362 293
3 294 298 364
3 366 364 298
3 295 365 370
3 295 370 302
3 296 303 297
3 304 297 303
3 297 304 298
3 305 298 304
3 298 305 299
3 306 299 305
3 298 299 366
3 367 366 299
3 299 306 307
3 299 307 300
3 299 300 367
3 368 367 300
3 300 307 308
3 300 308 301
3 300 301 368
3 369 368 301
3 301 308 309
3 301 309 302
3 301 302 369
3 370 369 302
3 303 312 313
3 303 313 304
3 304 313 314
3 304 314 305
3 305 314 315
3 305 315 306
3 306 315 316
3 306 316 307
3 307 316 317
3 307 317 308
3 308 317 309
3 318 309 317
3 310 319 311
3 320 311 319
3 311 320 312
3 321 312 320
3 312 321 313
3 322 313 321
3 313 322 314
3 323 314 322
3 314 323 315
3 324 315 323
3 315 324 316
3 325 316 324
3 316 325 317
3 326 317 325
3 317 326 318
3 327 318 326
3 319 328 329
3 319 329 320
3 320 329 330
3 320 330 321
3 321 330 331
3 321 331 322
3 322 331 332
3 322 332 323
3 323 332 333
3 323 333 324
3 324 333 334
3 324 334 325
3 325 334 335
3 325 335 326
3 326 335 336
3 326 336 327
3 330 337 338
3 330 338 331
3 331 338 339
3 331 339 332
3 332 339 333
3 340 333 339
3 333 340 334
3 341 334 340
3 334 341 335
3 342 335 341
3 335 342 336
3 343 336 342
3 337 344 338
3 345 338 344
3 338 345 339
3 346 339 345
3 339 346 340
3 347 340 346
3 340 347 341
3 348 341 347
3 341 348 342
3 349 342 348
3 342 349 343
3 350 343 349
3 351 371 352
3 372 352 371
3 351 358 378
3 351 378 371
3 352 372 353
3 373 353 372
3 353 373 354
3 374 354 373
3 354 374 355
3 375 355 374
3 355 375 356
3 376 356 375
3 356 376 357
3 377 357 376
3 357 377 359
3 381 359 377
3 358 360 378
3 382 378 360
3 359 381 387
3 359 387 363
3 360 364 382
3 388 382 364
3 361 362 385
3 386 385 362
3 361 385 391
3 361 391 365
3 362 363 386
3 387 386 363
3 364 366 388
3 392 388 366
3 365 391 396
3 365 396 370
3 366 367 392
3 393 392 367
3 367 368 393
3 394 393 368
3 368 369 394
3 395 394 369
3 369 370 395
3 396 395 370
3 371 397 372
3 398 372 397
3 371 378 402
3 371 402 397
3 372 398 373
3 399 373 398
3 373 399 374
3 400 374 399
3 374 400 375
3 401 375 400
3 375 379 380
3 375 380 376
3 375 401 379
3 403 379 401
3 376 380 381
3 376 381 377
3 378 382 404
3 378 404 402
3 379 385 380
3 386 380 385
3 379 403 385
3 407 385 403
3 380 386 381
3 387 381 386
3 382 388 383
3 389 383 388
3 382 383 404
3 405 404 383
3 383 389 384
3 390 384 389
3 383 384 405
3 406 405 384
3 384 390 406
3 408 406 390
3 385 407 409
3 385 409 391
3 388 392 389
3 393 389 392
3 389 393 390
3 394 390 393
3 390 394 408
3 410 408 394
3 391 409 412
3 391 412 396
3 394 395 411
3 394 411 410
3 395 396 412
3 395 412 411
3 397 413 414
3 397 414 398
3 397 402 418
3 397 418 413
3 398 414 399
3 415 399 414
3 399 415 400
3 416 400 415
3 400 416 401
3 417 401 416
3 401 417 403
3 422 403 417
3 402 404 423
3 402 423 418
3 403 422 407
3 427 407 422
3 404 405 424
3 404 424 423
3 405 406 425
3 405 425 424
3 406 408 425
3 428 425 408
3 407 427 409
3 430 409 427
3 408 410 428
3 431 428 410
3 409 430 433
3 409 433 412
3 410 411 431
3 432 431 411
3 411 412 432
3 433 432 412
3 413 418 414
3 419 414 418
3 414 419 415
3 420 415 419
3 415 420 416
3 421 416 420
3 416 421 422
3 416 422 417
3 418 423 424
3 418 424 419
3 419 424 425
3 419 425 420
3 420 425 426
3 420 426 421
3 421 426 427
3 421 427 422
3 425 428 429
3 425 429 426
3 426 429 430
3 426 430 427
3 428 431 432
3 428 432 429
3 429 432 433
3 429 433 430
